{
    "header": {
      "PPQ": 120,
      "timeSignature": [
        4,
        4
      ],
      "bpm": 120,
      "name": ""
    },
    "tempo": [
      {
        "absoluteTime": 0,
        "seconds": 0,
        "bpm": 120
      },
      {
        "absoluteTime": 480,
        "seconds": 2,
        "bpm": 75.99996960001216
      },
      {
        "absoluteTime": 3360,
        "seconds": 13.999999999999993,
        "bpm": 75
      },
      {
        "absoluteTime": 10560,
        "seconds": 43.99999999999999,
        "bpm": 77.99997660000702
      },
      {
        "absoluteTime": 12000,
        "seconds": 49.99999999999999,
        "bpm": 73.99998273333736
      },
      {
        "absoluteTime": 12480,
        "seconds": 51.99999999999999,
        "bpm": 75
      },
      {
        "absoluteTime": 14400,
        "seconds": 59.999999999999986,
        "bpm": 75
      },
      {
        "absoluteTime": 14880,
        "seconds": 62,
        "bpm": 75
      },
      {
        "absoluteTime": 16320,
        "seconds": 68.00000000000004,
        "bpm": 75.99996960001216
      },
      {
        "absoluteTime": 18240,
        "seconds": 76.00000000000009,
        "bpm": 75.99996960001216
      },
      {
        "absoluteTime": 19200,
        "seconds": 80.00000000000009,
        "bpm": 75
      },
      {
        "absoluteTime": 24480,
        "seconds": 102.00000000000007,
        "bpm": 75.99996960001216
      },
      {
        "absoluteTime": 27360,
        "seconds": 114.00000000000018,
        "bpm": 75
      },
      {
        "absoluteTime": 32640,
        "seconds": 135.99999999999974,
        "bpm": 75.99996960001216
      },
      {
        "absoluteTime": 35520,
        "seconds": 147.99999999999844,
        "bpm": 75
      },
      {
        "absoluteTime": 39360,
        "seconds": 163.9999999999968,
        "bpm": 75.99996960001216
      }
    ],
    "timeSignature": [
      {
        "absoluteTime": 0,
        "seconds": 0,
        "numerator": 4,
        "denominator": 2,
        "click": 24,
        "notesQ": 8
      }
    ],
    "startTime": 0,
    "duration": 172.81249999999667,
    "tracks": [
      {
        "startTime": 0,
        "duration": 172.81249999999667,
        "length": 3735,
        "notes": [
          {
            "name": "C3",
            "midi": 48,
            "time": 0,
            "velocity": 0.015748031496062992,
            "duration": 0.125
          },
          {
            "name": "C3",
            "midi": 48,
            "time": 0.125,
            "velocity": 0.015748031496062992,
            "duration": 0.125
          },
          {
            "name": "C3",
            "midi": 48,
            "time": 0.25,
            "velocity": 0.015748031496062992,
            "duration": 0.125
          },
          {
            "name": "C3",
            "midi": 48,
            "time": 0.375,
            "velocity": 0.015748031496062992,
            "duration": 0.125
          },
          {
            "name": "C3",
            "midi": 48,
            "time": 0.5,
            "velocity": 0.015748031496062992,
            "duration": 0.125
          },
          {
            "name": "C3",
            "midi": 48,
            "time": 0.625,
            "velocity": 0.015748031496062992,
            "duration": 0.125
          },
          {
            "name": "C3",
            "midi": 48,
            "time": 0.75,
            "velocity": 0.015748031496062992,
            "duration": 0.125
          },
          {
            "name": "C3",
            "midi": 48,
            "time": 0.875,
            "velocity": 0.015748031496062992,
            "duration": 0.125
          },
          {
            "name": "C3",
            "midi": 48,
            "time": 1,
            "velocity": 0.015748031496062992,
            "duration": 0.125
          },
          {
            "name": "C3",
            "midi": 48,
            "time": 1.125,
            "velocity": 0.015748031496062992,
            "duration": 0.125
          },
          {
            "name": "C3",
            "midi": 48,
            "time": 1.25,
            "velocity": 0.015748031496062992,
            "duration": 0.125
          },
          {
            "name": "C3",
            "midi": 48,
            "time": 1.375,
            "velocity": 0.015748031496062992,
            "duration": 0.125
          },
          {
            "name": "C3",
            "midi": 48,
            "time": 1.5,
            "velocity": 0.015748031496062992,
            "duration": 0.125
          },
          {
            "name": "C4",
            "midi": 60,
            "time": 2,
            "velocity": 0.7874015748031497,
            "duration": 0.20000000000000018
          },
          {
            "name": "F2",
            "midi": 41,
            "time": 2,
            "velocity": 0.7874015748031497,
            "duration": 1
          },
          {
            "name": "F4",
            "midi": 65,
            "time": 2,
            "velocity": 0.7874015748031497,
            "duration": 0.3999999999999999
          },
          {
            "name": "A4",
            "midi": 69,
            "time": 2,
            "velocity": 0.7874015748031497,
            "duration": 0.3999999999999999
          },
          {
            "name": "C4",
            "midi": 60,
            "time": 2.25,
            "velocity": 0.7874015748031497,
            "duration": 0.3999999999999999
          },
          {
            "name": "A4",
            "midi": 69,
            "time": 2.5,
            "velocity": 0.7874015748031497,
            "duration": 0.3999999999999999
          },
          {
            "name": "F4",
            "midi": 65,
            "time": 2.5,
            "velocity": 0.7874015748031497,
            "duration": 0.3999999999999999
          },
          {
            "name": "C4",
            "midi": 60,
            "time": 2.75,
            "velocity": 0.7874015748031497,
            "duration": 0.3999999999999999
          },
          {
            "name": "A4",
            "midi": 69,
            "time": 2.75,
            "velocity": 0.7874015748031497,
            "duration": 0.25
          },
          {
            "name": "E4",
            "midi": 64,
            "time": 3,
            "velocity": 0.7874015748031497,
            "duration": 0.3999999999999999
          },
          {
            "name": "E2",
            "midi": 40,
            "time": 3,
            "velocity": 0.7874015748031497,
            "duration": 0.5
          },
          {
            "name": "G4",
            "midi": 67,
            "time": 3,
            "velocity": 0.7874015748031497,
            "duration": 0.3999999999999999
          },
          {
            "name": "A4",
            "midi": 69,
            "time": 3,
            "velocity": 0.7874015748031497,
            "duration": 0.25
          },
          {
            "name": "C#4",
            "midi": 61,
            "time": 3.25,
            "velocity": 0.7874015748031497,
            "duration": 0.3999999999999999
          },
          {
            "name": "A#4",
            "midi": 70,
            "time": 3.25,
            "velocity": 0.7874015748031497,
            "duration": 0.25
          },
          {
            "name": "E4",
            "midi": 64,
            "time": 3.5,
            "velocity": 0.7874015748031497,
            "duration": 0.3999999999999999
          },
          {
            "name": "A2",
            "midi": 45,
            "time": 3.5,
            "velocity": 0.7874015748031497,
            "duration": 0.5
          },
          {
            "name": "A4",
            "midi": 69,
            "time": 3.5,
            "velocity": 0.7874015748031497,
            "duration": 0.25
          },
          {
            "name": "A4",
            "midi": 69,
            "time": 3.5,
            "velocity": 0.7874015748031497,
            "duration": 0.3999999999999999
          },
          {
            "name": "C#4",
            "midi": 61,
            "time": 3.75,
            "velocity": 0.7874015748031497,
            "duration": 0.39999999999999947
          },
          {
            "name": "G4",
            "midi": 67,
            "time": 3.75,
            "velocity": 0.7874015748031497,
            "duration": 0.25
          },
          {
            "name": "D2",
            "midi": 38,
            "time": 4,
            "velocity": 0.7874015748031497,
            "duration": 0.9999999999999982
          },
          {
            "name": "F4",
            "midi": 65,
            "time": 4,
            "velocity": 0.7874015748031497,
            "duration": 0.39999999999999947
          },
          {
            "name": "F4",
            "midi": 65,
            "time": 4,
            "velocity": 0.7874015748031497,
            "duration": 0.5999999999999988
          },
          {
            "name": "A4",
            "midi": 69,
            "time": 4.004166666666666,
            "velocity": 0.7874015748031497,
            "duration": 0.39999999999999947
          },
          {
            "name": "D4",
            "midi": 62,
            "time": 4.249999999999999,
            "velocity": 0.7874015748031497,
            "duration": 0.39999999999999947
          },
          {
            "name": "F4",
            "midi": 65,
            "time": 4.499999999999999,
            "velocity": 0.7874015748031497,
            "duration": 0.39999999999999947
          },
          {
            "name": "A4",
            "midi": 69,
            "time": 4.499999999999999,
            "velocity": 0.7874015748031497,
            "duration": 0.39999999999999947
          },
          {
            "name": "D4",
            "midi": 62,
            "time": 4.749999999999998,
            "velocity": 0.7874015748031497,
            "duration": 0.39999999999999947
          },
          {
            "name": "C2",
            "midi": 36,
            "time": 4.999999999999998,
            "velocity": 0.7874015748031497,
            "duration": 0.9999999999999991
          },
          {
            "name": "E4",
            "midi": 64,
            "time": 5.004166666666665,
            "velocity": 0.7874015748031497,
            "duration": 0.39999999999999947
          },
          {
            "name": "G4",
            "midi": 67,
            "time": 5.004166666666665,
            "velocity": 0.7874015748031497,
            "duration": 0.39999999999999947
          },
          {
            "name": "C4",
            "midi": 60,
            "time": 5.249999999999997,
            "velocity": 0.7874015748031497,
            "duration": 0.40000000000000036
          },
          {
            "name": "G4",
            "midi": 67,
            "time": 5.249999999999997,
            "velocity": 0.7874015748031497,
            "duration": 0.25
          },
          {
            "name": "E4",
            "midi": 64,
            "time": 5.499999999999997,
            "velocity": 0.7874015748031497,
            "duration": 0.40000000000000036
          },
          {
            "name": "G4",
            "midi": 67,
            "time": 5.499999999999997,
            "velocity": 0.7874015748031497,
            "duration": 0.40000000000000036
          },
          {
            "name": "A4",
            "midi": 69,
            "time": 5.499999999999997,
            "velocity": 0.7874015748031497,
            "duration": 0.25
          },
          {
            "name": "C4",
            "midi": 60,
            "time": 5.749999999999997,
            "velocity": 0.7874015748031497,
            "duration": 0.39999999999999947
          },
          {
            "name": "A4",
            "midi": 69,
            "time": 5.749999999999997,
            "velocity": 0.7874015748031497,
            "duration": 0.25
          },
          {
            "name": "G2",
            "midi": 43,
            "time": 5.999999999999997,
            "velocity": 0.7874015748031497,
            "duration": 1.9999999999999973
          },
          {
            "name": "F4",
            "midi": 65,
            "time": 5.999999999999997,
            "velocity": 0.7874015748031497,
            "duration": 0.7999999999999989
          },
          {
            "name": "A#4",
            "midi": 70,
            "time": 6.004166666666664,
            "velocity": 0.7874015748031497,
            "duration": 0.39999999999999947
          },
          {
            "name": "G4",
            "midi": 67,
            "time": 6.004166666666664,
            "velocity": 0.7874015748031497,
            "duration": 0.39999999999999947
          },
          {
            "name": "D4",
            "midi": 62,
            "time": 6.2499999999999964,
            "velocity": 0.7874015748031497,
            "duration": 0.40000000000000036
          },
          {
            "name": "A#4",
            "midi": 70,
            "time": 6.4999999999999964,
            "velocity": 0.7874015748031497,
            "duration": 0.39999999999999947
          },
          {
            "name": "G4",
            "midi": 67,
            "time": 6.4999999999999964,
            "velocity": 0.7874015748031497,
            "duration": 0.39999999999999947
          },
          {
            "name": "D4",
            "midi": 62,
            "time": 6.7499999999999964,
            "velocity": 0.7874015748031497,
            "duration": 0.3999999999999986
          },
          {
            "name": "F4",
            "midi": 65,
            "time": 6.999999999999996,
            "velocity": 0.7874015748031497,
            "duration": 0.2499999999999991
          },
          {
            "name": "G4",
            "midi": 67,
            "time": 7.004166666666662,
            "velocity": 0.7874015748031497,
            "duration": 0.39999999999999947
          },
          {
            "name": "A#4",
            "midi": 70,
            "time": 7.004166666666662,
            "velocity": 0.7874015748031497,
            "duration": 0.39999999999999947
          },
          {
            "name": "D4",
            "midi": 62,
            "time": 7.249999999999995,
            "velocity": 0.7874015748031497,
            "duration": 0.25
          },
          {
            "name": "D4",
            "midi": 62,
            "time": 7.249999999999995,
            "velocity": 0.7874015748031497,
            "duration": 0.40000000000000036
          },
          {
            "name": "A#4",
            "midi": 70,
            "time": 7.499999999999995,
            "velocity": 0.7874015748031497,
            "duration": 0.40000000000000036
          },
          {
            "name": "G4",
            "midi": 67,
            "time": 7.499999999999995,
            "velocity": 0.7874015748031497,
            "duration": 0.40000000000000036
          },
          {
            "name": "F4",
            "midi": 65,
            "time": 7.499999999999995,
            "velocity": 0.7874015748031497,
            "duration": 0.25
          },
          {
            "name": "D4",
            "midi": 62,
            "time": 7.749999999999995,
            "velocity": 0.7874015748031497,
            "duration": 0.25
          },
          {
            "name": "D4",
            "midi": 62,
            "time": 7.749999999999995,
            "velocity": 0.7874015748031497,
            "duration": 0.40000000000000036
          },
          {
            "name": "A2",
            "midi": 45,
            "time": 7.999999999999995,
            "velocity": 0.7874015748031497,
            "duration": 0.5999999999999996
          },
          {
            "name": "A4",
            "midi": 69,
            "time": 7.999999999999995,
            "velocity": 0.7874015748031497,
            "duration": 0.25
          },
          {
            "name": "E4",
            "midi": 64,
            "time": 8.004166666666661,
            "velocity": 0.7874015748031497,
            "duration": 0.40000000000000036
          },
          {
            "name": "A4",
            "midi": 69,
            "time": 8.004166666666661,
            "velocity": 0.7874015748031497,
            "duration": 0.40000000000000036
          },
          {
            "name": "C#4",
            "midi": 61,
            "time": 8.249999999999995,
            "velocity": 0.7874015748031497,
            "duration": 0.40000000000000036
          },
          {
            "name": "E4",
            "midi": 64,
            "time": 8.499999999999995,
            "velocity": 0.7874015748031497,
            "duration": 0.40000000000000036
          },
          {
            "name": "A4",
            "midi": 69,
            "time": 8.499999999999995,
            "velocity": 0.7874015748031497,
            "duration": 0.25
          },
          {
            "name": "A4",
            "midi": 69,
            "time": 8.499999999999995,
            "velocity": 0.7874015748031497,
            "duration": 0.40000000000000036
          },
          {
            "name": "A2",
            "midi": 45,
            "time": 8.749999999999995,
            "velocity": 0.7874015748031497,
            "duration": 0.125
          },
          {
            "name": "C#4",
            "midi": 61,
            "time": 8.749999999999995,
            "velocity": 0.7874015748031497,
            "duration": 0.40000000000000036
          },
          {
            "name": "G4",
            "midi": 67,
            "time": 8.749999999999995,
            "velocity": 0.7874015748031497,
            "duration": 0.6541666666666668
          },
          {
            "name": "B2",
            "midi": 47,
            "time": 8.874999999999995,
            "velocity": 0.7874015748031497,
            "duration": 0.125
          },
          {
            "name": "C3",
            "midi": 48,
            "time": 8.999999999999995,
            "velocity": 0.7874015748031497,
            "duration": 1
          },
          {
            "name": "G4",
            "midi": 67,
            "time": 9.004166666666661,
            "velocity": 0.7874015748031497,
            "duration": 0.8958333333333339
          },
          {
            "name": "E4",
            "midi": 64,
            "time": 9.004166666666661,
            "velocity": 0.7874015748031497,
            "duration": 0.40000000000000036
          },
          {
            "name": "C4",
            "midi": 60,
            "time": 9.249999999999995,
            "velocity": 0.7874015748031497,
            "duration": 0.40000000000000036
          },
          {
            "name": "E4",
            "midi": 64,
            "time": 9.499999999999995,
            "velocity": 0.7874015748031497,
            "duration": 0.40000000000000036
          },
          {
            "name": "G4",
            "midi": 67,
            "time": 9.499999999999995,
            "velocity": 0.7874015748031497,
            "duration": 0.5
          },
          {
            "name": "C4",
            "midi": 60,
            "time": 9.749999999999995,
            "velocity": 0.7874015748031497,
            "duration": 0.40000000000000036
          },
          {
            "name": "F2",
            "midi": 41,
            "time": 9.999999999999995,
            "velocity": 0.7874015748031497,
            "duration": 1
          },
          {
            "name": "A4",
            "midi": 69,
            "time": 9.999999999999995,
            "velocity": 0.7874015748031497,
            "duration": 0.40000000000000036
          },
          {
            "name": "F4",
            "midi": 65,
            "time": 9.999999999999995,
            "velocity": 0.7874015748031497,
            "duration": 0.40000000000000036
          },
          {
            "name": "C4",
            "midi": 60,
            "time": 10.249999999999995,
            "velocity": 0.7874015748031497,
            "duration": 0.40000000000000036
          },
          {
            "name": "A4",
            "midi": 69,
            "time": 10.499999999999995,
            "velocity": 0.7874015748031497,
            "duration": 0.25
          },
          {
            "name": "F4",
            "midi": 65,
            "time": 10.499999999999995,
            "velocity": 0.7874015748031497,
            "duration": 0.40000000000000036
          },
          {
            "name": "A4",
            "midi": 69,
            "time": 10.499999999999995,
            "velocity": 0.7874015748031497,
            "duration": 0.40000000000000036
          },
          {
            "name": "C4",
            "midi": 60,
            "time": 10.749999999999995,
            "velocity": 0.7874015748031497,
            "duration": 0.40000000000000036
          },
          {
            "name": "C5",
            "midi": 72,
            "time": 10.749999999999995,
            "velocity": 0.7874015748031497,
            "duration": 0.25
          },
          {
            "name": "G4",
            "midi": 67,
            "time": 10.999999999999995,
            "velocity": 0.7874015748031497,
            "duration": 0.40000000000000036
          },
          {
            "name": "E4",
            "midi": 64,
            "time": 10.999999999999995,
            "velocity": 0.7874015748031497,
            "duration": 0.40000000000000036
          },
          {
            "name": "E2",
            "midi": 40,
            "time": 10.999999999999995,
            "velocity": 0.7874015748031497,
            "duration": 0.5
          },
          {
            "name": "A#4",
            "midi": 70,
            "time": 10.999999999999995,
            "velocity": 0.7874015748031497,
            "duration": 0.25
          },
          {
            "name": "C#4",
            "midi": 61,
            "time": 11.249999999999995,
            "velocity": 0.7874015748031497,
            "duration": 0.40000000000000036
          },
          {
            "name": "A4",
            "midi": 69,
            "time": 11.249999999999995,
            "velocity": 0.7874015748031497,
            "duration": 0.25
          },
          {
            "name": "A2",
            "midi": 45,
            "time": 11.499999999999995,
            "velocity": 0.7874015748031497,
            "duration": 0.5
          },
          {
            "name": "E4",
            "midi": 64,
            "time": 11.499999999999995,
            "velocity": 0.7874015748031497,
            "duration": 0.40000000000000036
          },
          {
            "name": "A4",
            "midi": 69,
            "time": 11.499999999999995,
            "velocity": 0.7874015748031497,
            "duration": 0.40000000000000036
          },
          {
            "name": "G4",
            "midi": 67,
            "time": 11.499999999999995,
            "velocity": 0.7874015748031497,
            "duration": 0.25
          },
          {
            "name": "C#4",
            "midi": 61,
            "time": 11.749999999999995,
            "velocity": 0.7874015748031497,
            "duration": 0.40000000000000036
          },
          {
            "name": "A4",
            "midi": 69,
            "time": 11.749999999999995,
            "velocity": 0.7874015748031497,
            "duration": 0.25
          },
          {
            "name": "D2",
            "midi": 38,
            "time": 11.999999999999995,
            "velocity": 0.7874015748031497,
            "duration": 1
          },
          {
            "name": "F4",
            "midi": 65,
            "time": 11.999999999999995,
            "velocity": 0.7874015748031497,
            "duration": 0.40000000000000036
          },
          {
            "name": "F4",
            "midi": 65,
            "time": 11.999999999999995,
            "velocity": 0.7874015748031497,
            "duration": 0.5999999999999996
          },
          {
            "name": "A4",
            "midi": 69,
            "time": 12.004166666666661,
            "velocity": 0.7874015748031497,
            "duration": 0.40000000000000036
          },
          {
            "name": "D4",
            "midi": 62,
            "time": 12.249999999999995,
            "velocity": 0.7874015748031497,
            "duration": 0.40000000000000036
          },
          {
            "name": "A4",
            "midi": 69,
            "time": 12.499999999999995,
            "velocity": 0.7874015748031497,
            "duration": 0.40000000000000036
          },
          {
            "name": "F4",
            "midi": 65,
            "time": 12.499999999999995,
            "velocity": 0.7874015748031497,
            "duration": 0.40000000000000036
          },
          {
            "name": "D4",
            "midi": 62,
            "time": 12.749999999999995,
            "velocity": 0.7874015748031497,
            "duration": 0.3999999999999986
          },
          {
            "name": "F4",
            "midi": 65,
            "time": 12.799999999999995,
            "velocity": 0.7874015748031497,
            "duration": 0.24999999999999822
          },
          {
            "name": "C2",
            "midi": 36,
            "time": 12.999999999999995,
            "velocity": 0.7874015748031497,
            "duration": 0.9999999999999982
          },
          {
            "name": "D5",
            "midi": 74,
            "time": 12.999999999999995,
            "velocity": 0.7874015748031497,
            "duration": 0.24999999999999822
          },
          {
            "name": "E4",
            "midi": 64,
            "time": 13.004166666666661,
            "velocity": 0.7874015748031497,
            "duration": 0.3999999999999986
          },
          {
            "name": "G4",
            "midi": 67,
            "time": 13.004166666666661,
            "velocity": 0.7874015748031497,
            "duration": 0.3999999999999986
          },
          {
            "name": "C4",
            "midi": 60,
            "time": 13.249999999999993,
            "velocity": 0.7874015748031497,
            "duration": 0.40000000000000036
          },
          {
            "name": "E5",
            "midi": 76,
            "time": 13.249999999999993,
            "velocity": 0.7874015748031497,
            "duration": 0.25
          },
          {
            "name": "E4",
            "midi": 64,
            "time": 13.499999999999993,
            "velocity": 0.7874015748031497,
            "duration": 0.40000000000000036
          },
          {
            "name": "G4",
            "midi": 67,
            "time": 13.499999999999993,
            "velocity": 0.7874015748031497,
            "duration": 0.40000000000000036
          },
          {
            "name": "C4",
            "midi": 60,
            "time": 13.749999999999993,
            "velocity": 0.7874015748031497,
            "duration": 0.3999999999999986
          },
          {
            "name": "A4",
            "midi": 69,
            "time": 13.799999999999994,
            "velocity": 0.7874015748031497,
            "duration": 0.24999999999999822
          },
          {
            "name": "G2",
            "midi": 43,
            "time": 13.999999999999993,
            "velocity": 0.7874015748031497,
            "duration": 1.9999999999999982
          },
          {
            "name": "G4",
            "midi": 67,
            "time": 14.00416666666666,
            "velocity": 0.7874015748031497,
            "duration": 0.3999999999999986
          },
          {
            "name": "A#4",
            "midi": 70,
            "time": 14.00416666666666,
            "velocity": 0.7874015748031497,
            "duration": 0.3999999999999986
          },
          {
            "name": "D4",
            "midi": 62,
            "time": 14.249999999999991,
            "velocity": 0.7874015748031497,
            "duration": 0.40000000000000036
          },
          {
            "name": "G4",
            "midi": 67,
            "time": 14.499999999999991,
            "velocity": 0.7874015748031497,
            "duration": 0.40000000000000036
          },
          {
            "name": "A#4",
            "midi": 70,
            "time": 14.499999999999991,
            "velocity": 0.7874015748031497,
            "duration": 0.40000000000000036
          },
          {
            "name": "D4",
            "midi": 62,
            "time": 14.749999999999991,
            "velocity": 0.7874015748031497,
            "duration": 0.40000000000000036
          },
          {
            "name": "A#4",
            "midi": 70,
            "time": 14.999999999999991,
            "velocity": 0.7874015748031497,
            "duration": 0.25
          },
          {
            "name": "G4",
            "midi": 67,
            "time": 15.004166666666658,
            "velocity": 0.7874015748031497,
            "duration": 0.40000000000000036
          },
          {
            "name": "A#4",
            "midi": 70,
            "time": 15.004166666666658,
            "velocity": 0.7874015748031497,
            "duration": 0.40000000000000036
          },
          {
            "name": "D4",
            "midi": 62,
            "time": 15.249999999999991,
            "velocity": 0.7874015748031497,
            "duration": 0.40000000000000036
          },
          {
            "name": "A4",
            "midi": 69,
            "time": 15.249999999999991,
            "velocity": 0.7874015748031497,
            "duration": 0.25
          },
          {
            "name": "G4",
            "midi": 67,
            "time": 15.499999999999991,
            "velocity": 0.7874015748031497,
            "duration": 0.25
          },
          {
            "name": "A#4",
            "midi": 70,
            "time": 15.499999999999991,
            "velocity": 0.7874015748031497,
            "duration": 0.40000000000000036
          },
          {
            "name": "G4",
            "midi": 67,
            "time": 15.499999999999991,
            "velocity": 0.7874015748031497,
            "duration": 0.40000000000000036
          },
          {
            "name": "D4",
            "midi": 62,
            "time": 15.749999999999991,
            "velocity": 0.7874015748031497,
            "duration": 0.4000000000000039
          },
          {
            "name": "F4",
            "midi": 65,
            "time": 15.799999999999992,
            "velocity": 0.7874015748031497,
            "duration": 0.2500000000000018
          },
          {
            "name": "F2",
            "midi": 41,
            "time": 15.999999999999991,
            "velocity": 0.7874015748031497,
            "duration": 0.9708333333333403
          },
          {
            "name": "A4",
            "midi": 69,
            "time": 15.999999999999991,
            "velocity": 0.7874015748031497,
            "duration": 0.25000000000000533
          },
          {
            "name": "A4",
            "midi": 69,
            "time": 16.00416666666666,
            "velocity": 0.7874015748031497,
            "duration": 0.40000000000000213
          },
          {
            "name": "F4",
            "midi": 65,
            "time": 16.00416666666666,
            "velocity": 0.7874015748031497,
            "duration": 0.40000000000000213
          },
          {
            "name": "C4",
            "midi": 60,
            "time": 16.249999999999996,
            "velocity": 0.7874015748031497,
            "duration": 0.3999999999999986
          },
          {
            "name": "F4",
            "midi": 65,
            "time": 16.499999999999996,
            "velocity": 0.7874015748031497,
            "duration": 0.40000000000000213
          },
          {
            "name": "A4",
            "midi": 69,
            "time": 16.499999999999996,
            "velocity": 0.7874015748031497,
            "duration": 0.40000000000000213
          },
          {
            "name": "C4",
            "midi": 60,
            "time": 16.749999999999996,
            "velocity": 0.7874015748031497,
            "duration": 0.40000000000000213
          },
          {
            "name": "A4",
            "midi": 69,
            "time": 16.799999999999997,
            "velocity": 0.7874015748031497,
            "duration": 0.25
          },
          {
            "name": "G1",
            "midi": 31,
            "time": 16.974999999999998,
            "velocity": 0.6299212598425197,
            "duration": 0.0625
          },
          {
            "name": "C2",
            "midi": 36,
            "time": 16.999999999999996,
            "velocity": 0.7874015748031497,
            "duration": 0.25000000000000355
          },
          {
            "name": "G4",
            "midi": 67,
            "time": 16.999999999999996,
            "velocity": 0.7874015748031497,
            "duration": 0.25000000000000355
          },
          {
            "name": "G4",
            "midi": 67,
            "time": 17.004166666666663,
            "velocity": 0.7874015748031497,
            "duration": 0.40000000000000213
          },
          {
            "name": "E4",
            "midi": 64,
            "time": 17.004166666666663,
            "velocity": 0.7874015748031497,
            "duration": 0.40000000000000213
          },
          {
            "name": "C4",
            "midi": 60,
            "time": 17.25,
            "velocity": 0.7874015748031497,
            "duration": 0.3999999999999986
          },
          {
            "name": "G1",
            "midi": 31,
            "time": 17.25,
            "velocity": 0.6299212598425197,
            "duration": 0.25
          },
          {
            "name": "C2",
            "midi": 36,
            "time": 17.5,
            "velocity": 0.7874015748031497,
            "duration": 0.5
          },
          {
            "name": "E4",
            "midi": 64,
            "time": 17.5,
            "velocity": 0.7874015748031497,
            "duration": 0.3999999999999986
          },
          {
            "name": "G4",
            "midi": 67,
            "time": 17.5,
            "velocity": 0.7874015748031497,
            "duration": 0.3999999999999986
          },
          {
            "name": "C4",
            "midi": 60,
            "time": 17.75,
            "velocity": 0.7874015748031497,
            "duration": 0.3999999999999986
          },
          {
            "name": "A#2",
            "midi": 46,
            "time": 18,
            "velocity": 0.7874015748031497,
            "duration": 1
          },
          {
            "name": "F4",
            "midi": 65,
            "time": 18.25,
            "velocity": 0.7874015748031497,
            "duration": 0.25
          },
          {
            "name": "A#4",
            "midi": 70,
            "time": 18.5,
            "velocity": 0.7874015748031497,
            "duration": 0.3000000000000007
          },
          {
            "name": "D5",
            "midi": 74,
            "time": 18.5,
            "velocity": 0.7874015748031497,
            "duration": 0.25
          },
          {
            "name": "D5",
            "midi": 74,
            "time": 18.5,
            "velocity": 0.7874015748031497,
            "duration": 0.3000000000000007
          },
          {
            "name": "A4",
            "midi": 69,
            "time": 18.75,
            "velocity": 0.7874015748031497,
            "duration": 0.4499999999999993
          },
          {
            "name": "C5",
            "midi": 72,
            "time": 18.75,
            "velocity": 0.7874015748031497,
            "duration": 0.3000000000000007
          },
          {
            "name": "C5",
            "midi": 72,
            "time": 18.8,
            "velocity": 0.7874015748031497,
            "duration": 0.3999999999999986
          },
          {
            "name": "A2",
            "midi": 45,
            "time": 19,
            "velocity": 0.7874015748031497,
            "duration": 1
          },
          {
            "name": "F4",
            "midi": 65,
            "time": 19.25,
            "velocity": 0.7874015748031497,
            "duration": 0.25
          },
          {
            "name": "A4",
            "midi": 69,
            "time": 19.25,
            "velocity": 0.7874015748031497,
            "duration": 0.3500000000000014
          },
          {
            "name": "F4",
            "midi": 65,
            "time": 19.25,
            "velocity": 0.7874015748031497,
            "duration": 0.5500000000000007
          },
          {
            "name": "A#3",
            "midi": 58,
            "time": 19.5,
            "velocity": 0.7086614173228346,
            "duration": 0.6999999999999993
          },
          {
            "name": "F4",
            "midi": 65,
            "time": 19.8,
            "velocity": 0.7874015748031497,
            "duration": 0.25
          },
          {
            "name": "D4",
            "midi": 62,
            "time": 20,
            "velocity": 0.7874015748031497,
            "duration": 0.1999999999999993
          },
          {
            "name": "G2",
            "midi": 43,
            "time": 20,
            "velocity": 0.7874015748031497,
            "duration": 1
          },
          {
            "name": "A#4",
            "midi": 70,
            "time": 20,
            "velocity": 0.7874015748031497,
            "duration": 0.25
          },
          {
            "name": "G4",
            "midi": 67,
            "time": 20.004166666666666,
            "velocity": 0.7874015748031497,
            "duration": 0.4875000000000007
          },
          {
            "name": "A#4",
            "midi": 70,
            "time": 20.004166666666666,
            "velocity": 0.7874015748031497,
            "duration": 0.7291666666666679
          },
          {
            "name": "D4",
            "midi": 62,
            "time": 20.25,
            "velocity": 0.7874015748031497,
            "duration": 0.75
          },
          {
            "name": "A4",
            "midi": 69,
            "time": 20.25,
            "velocity": 0.7874015748031497,
            "duration": 0.25
          },
          {
            "name": "G4",
            "midi": 67,
            "time": 20.5,
            "velocity": 0.7874015748031497,
            "duration": 0.25
          },
          {
            "name": "G4",
            "midi": 67,
            "time": 20.5,
            "velocity": 0.7874015748031497,
            "duration": 0.3000000000000007
          },
          {
            "name": "A#4",
            "midi": 70,
            "time": 20.75,
            "velocity": 0.7874015748031497,
            "duration": 0.25
          },
          {
            "name": "A#4",
            "midi": 70,
            "time": 20.8,
            "velocity": 0.7874015748031497,
            "duration": 0.3999999999999986
          },
          {
            "name": "A4",
            "midi": 69,
            "time": 21,
            "velocity": 0.7874015748031497,
            "duration": 0.5
          },
          {
            "name": "F4",
            "midi": 65,
            "time": 21,
            "velocity": 0.7874015748031497,
            "duration": 0.47916666666666785
          },
          {
            "name": "C4",
            "midi": 60,
            "time": 21,
            "velocity": 0.7874015748031497,
            "duration": 0.1999999999999993
          },
          {
            "name": "F2",
            "midi": 41,
            "time": 21,
            "velocity": 0.7874015748031497,
            "duration": 1
          },
          {
            "name": "C4",
            "midi": 60,
            "time": 21.25,
            "velocity": 0.7874015748031497,
            "duration": 0.75
          },
          {
            "name": "A4",
            "midi": 69,
            "time": 21.25,
            "velocity": 0.7874015748031497,
            "duration": 0.47916666666666785
          },
          {
            "name": "F4",
            "midi": 65,
            "time": 21.5,
            "velocity": 0.7874015748031497,
            "duration": 0.25
          },
          {
            "name": "F4",
            "midi": 65,
            "time": 21.5,
            "velocity": 0.7874015748031497,
            "duration": 0.5
          },
          {
            "name": "A4",
            "midi": 69,
            "time": 21.75,
            "velocity": 0.7874015748031497,
            "duration": 0.25
          },
          {
            "name": "F4",
            "midi": 65,
            "time": 21.75,
            "velocity": 0.7874015748031497,
            "duration": 0.25
          },
          {
            "name": "A#2",
            "midi": 46,
            "time": 22,
            "velocity": 0.7874015748031497,
            "duration": 1
          },
          {
            "name": "A#4",
            "midi": 70,
            "time": 22.5,
            "velocity": 0.7874015748031497,
            "duration": 0.3000000000000007
          },
          {
            "name": "D5",
            "midi": 74,
            "time": 22.5,
            "velocity": 0.7874015748031497,
            "duration": 0.25
          },
          {
            "name": "D5",
            "midi": 74,
            "time": 22.5,
            "velocity": 0.7874015748031497,
            "duration": 0.3000000000000007
          },
          {
            "name": "A4",
            "midi": 69,
            "time": 22.75,
            "velocity": 0.7874015748031497,
            "duration": 0.4499999999999993
          },
          {
            "name": "C5",
            "midi": 72,
            "time": 22.75,
            "velocity": 0.7874015748031497,
            "duration": 0.25
          },
          {
            "name": "C5",
            "midi": 72,
            "time": 22.75,
            "velocity": 0.7874015748031497,
            "duration": 0.4499999999999993
          },
          {
            "name": "A2",
            "midi": 45,
            "time": 23,
            "velocity": 0.7874015748031497,
            "duration": 1
          },
          {
            "name": "F4",
            "midi": 65,
            "time": 23.25,
            "velocity": 0.7874015748031497,
            "duration": 0.25
          },
          {
            "name": "A4",
            "midi": 69,
            "time": 23.25,
            "velocity": 0.7874015748031497,
            "duration": 0.3500000000000014
          },
          {
            "name": "F4",
            "midi": 65,
            "time": 23.25,
            "velocity": 0.7874015748031497,
            "duration": 0.5500000000000007
          },
          {
            "name": "A#3",
            "midi": 58,
            "time": 23.5,
            "velocity": 0.7086614173228346,
            "duration": 1.1000000000000014
          },
          {
            "name": "F4",
            "midi": 65,
            "time": 23.8,
            "velocity": 0.7874015748031497,
            "duration": 0.24999999999999645
          },
          {
            "name": "D#4",
            "midi": 63,
            "time": 24,
            "velocity": 0.7874015748031497,
            "duration": 0.7291666666666679
          },
          {
            "name": "D#2",
            "midi": 39,
            "time": 24,
            "velocity": 0.7874015748031497,
            "duration": 1.1999999999999993
          },
          {
            "name": "A#4",
            "midi": 70,
            "time": 24,
            "velocity": 0.7874015748031497,
            "duration": 0.24999999999999645
          },
          {
            "name": "G4",
            "midi": 67,
            "time": 24.020833333333332,
            "velocity": 0.7874015748031497,
            "duration": 0.375
          },
          {
            "name": "A#4",
            "midi": 70,
            "time": 24.041666666666664,
            "velocity": 0.8740157480314961,
            "duration": 0.25
          },
          {
            "name": "A4",
            "midi": 69,
            "time": 24.249999999999996,
            "velocity": 0.7874015748031497,
            "duration": 0.25000000000000355
          },
          {
            "name": "A4",
            "midi": 69,
            "time": 24.249999999999996,
            "velocity": 0.7874015748031497,
            "duration": 0.37500000000000355
          },
          {
            "name": "G4",
            "midi": 67,
            "time": 24.5,
            "velocity": 0.7874015748031497,
            "duration": 0.25
          },
          {
            "name": "G4",
            "midi": 67,
            "time": 24.5,
            "velocity": 0.7874015748031497,
            "duration": 0.45833333333333215
          },
          {
            "name": "D#4",
            "midi": 63,
            "time": 24.75,
            "velocity": 0.7874015748031497,
            "duration": 0.4499999999999993
          },
          {
            "name": "A#3",
            "midi": 58,
            "time": 24.75,
            "velocity": 0.7874015748031497,
            "duration": 1.0500000000000007
          },
          {
            "name": "G4",
            "midi": 67,
            "time": 24.75,
            "velocity": 0.7874015748031497,
            "duration": 0.25
          },
          {
            "name": "G4",
            "midi": 67,
            "time": 25,
            "velocity": 0.6456692913385826,
            "duration": 0.3000000000000007
          },
          {
            "name": "F4",
            "midi": 65,
            "time": 25.25,
            "velocity": 0.7874015748031497,
            "duration": 0.25
          },
          {
            "name": "D#2",
            "midi": 39,
            "time": 25.25,
            "velocity": 0.7874015748031497,
            "duration": 0.75
          },
          {
            "name": "F4",
            "midi": 65,
            "time": 25.25,
            "velocity": 0.7874015748031497,
            "duration": 0.3500000000000014
          },
          {
            "name": "D4",
            "midi": 62,
            "time": 25.5,
            "velocity": 0.7874015748031497,
            "duration": 0.25
          },
          {
            "name": "D4",
            "midi": 62,
            "time": 25.5,
            "velocity": 0.7874015748031497,
            "duration": 0.3500000000000014
          },
          {
            "name": "G4",
            "midi": 67,
            "time": 25.75,
            "velocity": 0.7874015748031497,
            "duration": 0.3500000000000014
          },
          {
            "name": "G4",
            "midi": 67,
            "time": 25.8,
            "velocity": 0.7874015748031497,
            "duration": 1.1999999999999993
          },
          {
            "name": "C4",
            "midi": 60,
            "time": 26,
            "velocity": 0.5511811023622047,
            "duration": 1.8000000000000007
          },
          {
            "name": "C2",
            "midi": 36,
            "time": 26,
            "velocity": 0.7874015748031497,
            "duration": 2
          },
          {
            "name": "G3",
            "midi": 55,
            "time": 26,
            "velocity": 0.7874015748031497,
            "duration": 2
          },
          {
            "name": "C5",
            "midi": 72,
            "time": 26,
            "velocity": 0.7874015748031497,
            "duration": 2
          },
          {
            "name": "E4",
            "midi": 64,
            "time": 26.0375,
            "velocity": 0.5511811023622047,
            "duration": 1.7624999999999993
          },
          {
            "name": "G3",
            "midi": 55,
            "time": 26.0375,
            "velocity": 0.5511811023622047,
            "duration": 2.162499999999998
          },
          {
            "name": "A4",
            "midi": 69,
            "time": 27.5,
            "velocity": 0.7874015748031497,
            "duration": 0.25
          },
          {
            "name": "A#4",
            "midi": 70,
            "time": 27.75,
            "velocity": 0.7874015748031497,
            "duration": 0.25
          },
          {
            "name": "C2",
            "midi": 36,
            "time": 28,
            "velocity": 0.47244094488188976,
            "duration": 1.999999999999993
          },
          {
            "name": "C5",
            "midi": 72,
            "time": 28,
            "velocity": 0.8031496062992126,
            "duration": 0.25
          },
          {
            "name": "C5",
            "midi": 72,
            "time": 28,
            "velocity": 0.7874015748031497,
            "duration": 0.25
          },
          {
            "name": "C3",
            "midi": 48,
            "time": 28,
            "velocity": 0.7874015748031497,
            "duration": 1.3999999999999986
          },
          {
            "name": "C4",
            "midi": 60,
            "time": 28.083333333333332,
            "velocity": 0.7874015748031497,
            "duration": 0.25
          },
          {
            "name": "E4",
            "midi": 64,
            "time": 28.208333333333332,
            "velocity": 0.7874015748031497,
            "duration": 0.25
          },
          {
            "name": "G4",
            "midi": 67,
            "time": 28.333333333333332,
            "velocity": 0.7874015748031497,
            "duration": 0.25
          },
          {
            "name": "C5",
            "midi": 72,
            "time": 28.5,
            "velocity": 0.8031496062992126,
            "duration": 0.25
          },
          {
            "name": "C5",
            "midi": 72,
            "time": 28.5,
            "velocity": 0.7874015748031497,
            "duration": 0.25
          },
          {
            "name": "C4",
            "midi": 60,
            "time": 28.583333333333332,
            "velocity": 0.7874015748031497,
            "duration": 0.25
          },
          {
            "name": "E4",
            "midi": 64,
            "time": 28.708333333333332,
            "velocity": 0.7874015748031497,
            "duration": 0.25
          },
          {
            "name": "C5",
            "midi": 72,
            "time": 28.75,
            "velocity": 0.7874015748031497,
            "duration": 0.25
          },
          {
            "name": "G4",
            "midi": 67,
            "time": 28.833333333333332,
            "velocity": 0.7874015748031497,
            "duration": 0.25
          },
          {
            "name": "C5",
            "midi": 72,
            "time": 29,
            "velocity": 0.8031496062992126,
            "duration": 0.25
          },
          {
            "name": "C3",
            "midi": 48,
            "time": 29,
            "velocity": 0.7874015748031497,
            "duration": 0.899999999999995
          },
          {
            "name": "C5",
            "midi": 72,
            "time": 29,
            "velocity": 0.7874015748031497,
            "duration": 0.25
          },
          {
            "name": "C4",
            "midi": 60,
            "time": 29.083333333333332,
            "velocity": 0.47244094488188976,
            "duration": 0.3999999999999986
          },
          {
            "name": "E4",
            "midi": 64,
            "time": 29.208333333333332,
            "velocity": 0.7874015748031497,
            "duration": 0.25
          },
          {
            "name": "A#4",
            "midi": 70,
            "time": 29.25,
            "velocity": 0.7874015748031497,
            "duration": 0.24999999999999645
          },
          {
            "name": "G4",
            "midi": 67,
            "time": 29.333333333333332,
            "velocity": 0.7874015748031497,
            "duration": 0.24999999999999645
          },
          {
            "name": "C5",
            "midi": 72,
            "time": 29.499999999999996,
            "velocity": 0.8031496062992126,
            "duration": 0.25
          },
          {
            "name": "C3",
            "midi": 48,
            "time": 29.499999999999996,
            "velocity": 0.7874015748031497,
            "duration": 0.49999999999999645
          },
          {
            "name": "A4",
            "midi": 69,
            "time": 29.499999999999996,
            "velocity": 0.7874015748031497,
            "duration": 0.25
          },
          {
            "name": "C4",
            "midi": 60,
            "time": 29.58333333333333,
            "velocity": 0.47244094488188976,
            "duration": 0.3999999999999986
          },
          {
            "name": "E4",
            "midi": 64,
            "time": 29.70833333333333,
            "velocity": 0.7874015748031497,
            "duration": 0.25
          },
          {
            "name": "C5",
            "midi": 72,
            "time": 29.749999999999996,
            "velocity": 0.7874015748031497,
            "duration": 0.24999999999999645
          },
          {
            "name": "G4",
            "midi": 67,
            "time": 29.83333333333333,
            "velocity": 0.7874015748031497,
            "duration": 0.24999999999999645
          },
          {
            "name": "D#2",
            "midi": 39,
            "time": 29.999999999999993,
            "velocity": 0.7874015748031497,
            "duration": 2.0000000000000036
          },
          {
            "name": "C5",
            "midi": 72,
            "time": 29.999999999999993,
            "velocity": 0.8031496062992126,
            "duration": 0.25
          },
          {
            "name": "D#3",
            "midi": 51,
            "time": 29.999999999999993,
            "velocity": 0.7874015748031497,
            "duration": 2.0000000000000036
          },
          {
            "name": "C4",
            "midi": 60,
            "time": 30.083333333333325,
            "velocity": 0.7874015748031497,
            "duration": 0.25
          },
          {
            "name": "D#4",
            "midi": 63,
            "time": 30.208333333333325,
            "velocity": 0.7874015748031497,
            "duration": 0.25
          },
          {
            "name": "G4",
            "midi": 67,
            "time": 30.333333333333325,
            "velocity": 0.7874015748031497,
            "duration": 0.25
          },
          {
            "name": "C5",
            "midi": 72,
            "time": 30.499999999999993,
            "velocity": 0.8031496062992126,
            "duration": 0.25
          },
          {
            "name": "C4",
            "midi": 60,
            "time": 30.583333333333325,
            "velocity": 0.7874015748031497,
            "duration": 0.25
          },
          {
            "name": "D#4",
            "midi": 63,
            "time": 30.708333333333325,
            "velocity": 0.7874015748031497,
            "duration": 0.25
          },
          {
            "name": "G4",
            "midi": 67,
            "time": 30.833333333333325,
            "velocity": 0.7874015748031497,
            "duration": 0.25
          },
          {
            "name": "C5",
            "midi": 72,
            "time": 30.999999999999993,
            "velocity": 0.8031496062992126,
            "duration": 0.25
          },
          {
            "name": "D#3",
            "midi": 51,
            "time": 30.999999999999993,
            "velocity": 0.47244094488188976,
            "duration": 1.0000000000000036
          },
          {
            "name": "D#5",
            "midi": 75,
            "time": 30.999999999999993,
            "velocity": 0.7874015748031497,
            "duration": 0.25
          },
          {
            "name": "C4",
            "midi": 60,
            "time": 31.083333333333325,
            "velocity": 0.47244094488188976,
            "duration": 0.25
          },
          {
            "name": "D#4",
            "midi": 63,
            "time": 31.208333333333325,
            "velocity": 0.7874015748031497,
            "duration": 0.25
          },
          {
            "name": "D5",
            "midi": 74,
            "time": 31.249999999999993,
            "velocity": 0.7874015748031497,
            "duration": 0.25
          },
          {
            "name": "G4",
            "midi": 67,
            "time": 31.333333333333325,
            "velocity": 0.7874015748031497,
            "duration": 0.25
          },
          {
            "name": "C5",
            "midi": 72,
            "time": 31.499999999999993,
            "velocity": 0.8031496062992126,
            "duration": 0.25
          },
          {
            "name": "A4",
            "midi": 69,
            "time": 31.499999999999993,
            "velocity": 0.7874015748031497,
            "duration": 0.25
          },
          {
            "name": "C4",
            "midi": 60,
            "time": 31.583333333333325,
            "velocity": 0.47244094488188976,
            "duration": 0.25000000000000355
          },
          {
            "name": "D#4",
            "midi": 63,
            "time": 31.708333333333325,
            "velocity": 0.7874015748031497,
            "duration": 0.25000000000000355
          },
          {
            "name": "C5",
            "midi": 72,
            "time": 31.799999999999994,
            "velocity": 0.7874015748031497,
            "duration": 0.25000000000000355
          },
          {
            "name": "G4",
            "midi": 67,
            "time": 31.83333333333333,
            "velocity": 0.7874015748031497,
            "duration": 0.25
          },
          {
            "name": "D2",
            "midi": 38,
            "time": 31.999999999999996,
            "velocity": 0.7874015748031497,
            "duration": 1.9999999999999893
          },
          {
            "name": "A#4",
            "midi": 70,
            "time": 31.999999999999996,
            "velocity": 0.8031496062992126,
            "duration": 0.24999999999999645
          },
          {
            "name": "A#4",
            "midi": 70,
            "time": 31.999999999999996,
            "velocity": 0.7874015748031497,
            "duration": 0.24999999999999645
          },
          {
            "name": "D3",
            "midi": 50,
            "time": 31.999999999999996,
            "velocity": 0.7874015748031497,
            "duration": 1.9999999999999893
          },
          {
            "name": "F3",
            "midi": 53,
            "time": 32.08333333333333,
            "velocity": 0.7874015748031497,
            "duration": 0.25
          },
          {
            "name": "A#3",
            "midi": 58,
            "time": 32.20833333333333,
            "velocity": 0.7874015748031497,
            "duration": 0.25
          },
          {
            "name": "A#4",
            "midi": 70,
            "time": 32.24999999999999,
            "velocity": 0.7874015748031497,
            "duration": 0.25
          },
          {
            "name": "D4",
            "midi": 62,
            "time": 32.33333333333333,
            "velocity": 0.7874015748031497,
            "duration": 0.25
          },
          {
            "name": "A#4",
            "midi": 70,
            "time": 32.49999999999999,
            "velocity": 0.8031496062992126,
            "duration": 0.25
          },
          {
            "name": "F3",
            "midi": 53,
            "time": 32.58333333333333,
            "velocity": 0.7874015748031497,
            "duration": 0.25
          },
          {
            "name": "A#3",
            "midi": 58,
            "time": 32.70833333333333,
            "velocity": 0.7874015748031497,
            "duration": 0.25
          },
          {
            "name": "D4",
            "midi": 62,
            "time": 32.83333333333333,
            "velocity": 0.7874015748031497,
            "duration": 0.25
          },
          {
            "name": "A#4",
            "midi": 70,
            "time": 32.99999999999999,
            "velocity": 0.8031496062992126,
            "duration": 0.25
          },
          {
            "name": "A#4",
            "midi": 70,
            "time": 32.99999999999999,
            "velocity": 0.7874015748031497,
            "duration": 0.25
          },
          {
            "name": "F3",
            "midi": 53,
            "time": 33.08333333333333,
            "velocity": 0.47244094488188976,
            "duration": 0.25
          },
          {
            "name": "A#3",
            "midi": 58,
            "time": 33.20833333333333,
            "velocity": 0.7874015748031497,
            "duration": 0.25
          },
          {
            "name": "C5",
            "midi": 72,
            "time": 33.24999999999999,
            "velocity": 0.7874015748031497,
            "duration": 0.25
          },
          {
            "name": "D4",
            "midi": 62,
            "time": 33.33333333333333,
            "velocity": 0.7874015748031497,
            "duration": 0.25
          },
          {
            "name": "A#4",
            "midi": 70,
            "time": 33.49999999999999,
            "velocity": 0.8031496062992126,
            "duration": 0.25
          },
          {
            "name": "A#4",
            "midi": 70,
            "time": 33.49999999999999,
            "velocity": 0.7874015748031497,
            "duration": 0.25
          },
          {
            "name": "F3",
            "midi": 53,
            "time": 33.58333333333333,
            "velocity": 0.47244094488188976,
            "duration": 0.2499999999999929
          },
          {
            "name": "A#3",
            "midi": 58,
            "time": 33.70833333333333,
            "velocity": 0.7874015748031497,
            "duration": 0.2499999999999929
          },
          {
            "name": "C#5",
            "midi": 73,
            "time": 33.79999999999999,
            "velocity": 0.7874015748031497,
            "duration": 0.2499999999999929
          },
          {
            "name": "D4",
            "midi": 62,
            "time": 33.83333333333332,
            "velocity": 0.7874015748031497,
            "duration": 0.2499999999999929
          },
          {
            "name": "C#2",
            "midi": 37,
            "time": 33.999999999999986,
            "velocity": 0.7874015748031497,
            "duration": 0.9999999999999929
          },
          {
            "name": "A#4",
            "midi": 70,
            "time": 33.999999999999986,
            "velocity": 0.8031496062992126,
            "duration": 0.2499999999999929
          },
          {
            "name": "C#3",
            "midi": 49,
            "time": 33.999999999999986,
            "velocity": 0.7874015748031497,
            "duration": 1.999999999999993
          },
          {
            "name": "E3",
            "midi": 52,
            "time": 34.083333333333314,
            "velocity": 0.7874015748031497,
            "duration": 0.25
          },
          {
            "name": "A#3",
            "midi": 58,
            "time": 34.208333333333314,
            "velocity": 0.7874015748031497,
            "duration": 0.25
          },
          {
            "name": "C#4",
            "midi": 61,
            "time": 34.333333333333314,
            "velocity": 0.7874015748031497,
            "duration": 0.25
          },
          {
            "name": "A#4",
            "midi": 70,
            "time": 34.49999999999998,
            "velocity": 0.8031496062992126,
            "duration": 0.25
          },
          {
            "name": "E3",
            "midi": 52,
            "time": 34.583333333333314,
            "velocity": 0.7874015748031497,
            "duration": 0.25
          },
          {
            "name": "A#3",
            "midi": 58,
            "time": 34.708333333333314,
            "velocity": 0.7874015748031497,
            "duration": 0.25
          },
          {
            "name": "C#4",
            "midi": 61,
            "time": 34.833333333333314,
            "velocity": 0.7874015748031497,
            "duration": 0.1666666666666643
          },
          {
            "name": "C#5",
            "midi": 73,
            "time": 34.99999999999998,
            "velocity": 0.7874015748031497,
            "duration": 0.25
          },
          {
            "name": "C#2",
            "midi": 37,
            "time": 34.99999999999998,
            "velocity": 0.7874015748031497,
            "duration": 0.5
          },
          {
            "name": "C#4",
            "midi": 61,
            "time": 34.99999999999998,
            "velocity": 0.7874015748031497,
            "duration": 0.25
          },
          {
            "name": "A#3",
            "midi": 58,
            "time": 34.99999999999998,
            "velocity": 0.7874015748031497,
            "duration": 0.6000000000000014
          },
          {
            "name": "E3",
            "midi": 52,
            "time": 34.99999999999998,
            "velocity": 0.47244094488188976,
            "duration": 0.3999999999999986
          },
          {
            "name": "C#5",
            "midi": 73,
            "time": 34.99999999999998,
            "velocity": 0.7874015748031497,
            "duration": 0.25
          },
          {
            "name": "C5",
            "midi": 72,
            "time": 35.24999999999998,
            "velocity": 0.7874015748031497,
            "duration": 0.25
          },
          {
            "name": "C5",
            "midi": 72,
            "time": 35.37499999999998,
            "velocity": 0.7874015748031497,
            "duration": 0.25
          },
          {
            "name": "C#4",
            "midi": 61,
            "time": 35.37499999999998,
            "velocity": 0.47244094488188976,
            "duration": 0.25
          },
          {
            "name": "C#2",
            "midi": 37,
            "time": 35.49999999999998,
            "velocity": 0.7874015748031497,
            "duration": 0.5
          },
          {
            "name": "E3",
            "midi": 52,
            "time": 35.583333333333314,
            "velocity": 0.47244094488188976,
            "duration": 0.25
          },
          {
            "name": "A#4",
            "midi": 70,
            "time": 35.62499999999998,
            "velocity": 0.7874015748031497,
            "duration": 0.375
          },
          {
            "name": "A#3",
            "midi": 58,
            "time": 35.708333333333314,
            "velocity": 0.7874015748031497,
            "duration": 0.25
          },
          {
            "name": "A#4",
            "midi": 70,
            "time": 35.74999999999998,
            "velocity": 0.7874015748031497,
            "duration": 0.2749999999999986
          },
          {
            "name": "C#4",
            "midi": 61,
            "time": 35.833333333333314,
            "velocity": 0.7874015748031497,
            "duration": 0.2499999999999929
          },
          {
            "name": "C2",
            "midi": 36,
            "time": 35.99999999999998,
            "velocity": 0.7874015748031497,
            "duration": 0.9999999999999929
          },
          {
            "name": "C4",
            "midi": 60,
            "time": 35.99999999999998,
            "velocity": 0.7874015748031497,
            "duration": 0.3999999999999915
          },
          {
            "name": "A4",
            "midi": 69,
            "time": 35.99999999999998,
            "velocity": 0.7874015748031497,
            "duration": 0.3999999999999915
          },
          {
            "name": "F4",
            "midi": 65,
            "time": 35.99999999999998,
            "velocity": 0.7874015748031497,
            "duration": 0.3999999999999915
          },
          {
            "name": "A#4",
            "midi": 70,
            "time": 35.99999999999998,
            "velocity": 0.7874015748031497,
            "duration": 0.2499999999999929
          },
          {
            "name": "C3",
            "midi": 48,
            "time": 35.99999999999998,
            "velocity": 0.7874015748031497,
            "duration": 1.999999999999993
          },
          {
            "name": "A4",
            "midi": 69,
            "time": 36.49999999999997,
            "velocity": 0.7874015748031497,
            "duration": 0.25
          },
          {
            "name": "F4",
            "midi": 65,
            "time": 36.49999999999997,
            "velocity": 0.7874015748031497,
            "duration": 0.29999999999999716
          },
          {
            "name": "C4",
            "midi": 60,
            "time": 36.49999999999997,
            "velocity": 0.7874015748031497,
            "duration": 0.4791666666666643
          },
          {
            "name": "A4",
            "midi": 69,
            "time": 36.49999999999997,
            "velocity": 0.7874015748031497,
            "duration": 0.29999999999999716
          },
          {
            "name": "C4",
            "midi": 60,
            "time": 36.99999999999997,
            "velocity": 0.7874015748031497,
            "duration": 0.9791666666666643
          },
          {
            "name": "A4",
            "midi": 69,
            "time": 36.99999999999997,
            "velocity": 0.7874015748031497,
            "duration": 0.29999999999999716
          },
          {
            "name": "F4",
            "midi": 65,
            "time": 36.99999999999997,
            "velocity": 0.7874015748031497,
            "duration": 0.25
          },
          {
            "name": "C3",
            "midi": 48,
            "time": 36.99999999999997,
            "velocity": 0.7874015748031497,
            "duration": 1
          },
          {
            "name": "F4",
            "midi": 65,
            "time": 37.24999999999997,
            "velocity": 0.7874015748031497,
            "duration": 0.5499999999999972
          },
          {
            "name": "D5",
            "midi": 74,
            "time": 37.24999999999997,
            "velocity": 0.7874015748031497,
            "duration": 0.25
          },
          {
            "name": "D5",
            "midi": 74,
            "time": 37.24999999999997,
            "velocity": 0.7874015748031497,
            "duration": 0.29999999999999716
          },
          {
            "name": "A#4",
            "midi": 70,
            "time": 37.49999999999997,
            "velocity": 0.7874015748031497,
            "duration": 0.25
          },
          {
            "name": "A#4",
            "midi": 70,
            "time": 37.49999999999997,
            "velocity": 0.7874015748031497,
            "duration": 0.29999999999999716
          },
          {
            "name": "A4",
            "midi": 69,
            "time": 37.74999999999997,
            "velocity": 0.7874015748031497,
            "duration": 0.29999999999999716
          },
          {
            "name": "E4",
            "midi": 64,
            "time": 37.74999999999997,
            "velocity": 0.7874015748031497,
            "duration": 0.25
          },
          {
            "name": "A4",
            "midi": 69,
            "time": 37.79999999999997,
            "velocity": 0.7874015748031497,
            "duration": 0.25
          },
          {
            "name": "G4",
            "midi": 67,
            "time": 37.99999999999997,
            "velocity": 0.7874015748031497,
            "duration": 0.25
          },
          {
            "name": "G2",
            "midi": 43,
            "time": 37.99999999999997,
            "velocity": 0.7874015748031497,
            "duration": 2.000000000000007
          },
          {
            "name": "D4",
            "midi": 62,
            "time": 37.99999999999997,
            "velocity": 0.7874015748031497,
            "duration": 1.2000000000000028
          },
          {
            "name": "G4",
            "midi": 67,
            "time": 37.99999999999997,
            "velocity": 0.7874015748031497,
            "duration": 1
          },
          {
            "name": "G2",
            "midi": 43,
            "time": 37.99999999999997,
            "velocity": 0.7874015748031497,
            "duration": 2.000000000000007
          },
          {
            "name": "D3",
            "midi": 50,
            "time": 38.24999999999997,
            "velocity": 0.6299212598425197,
            "duration": 0.29999999999999716
          },
          {
            "name": "G3",
            "midi": 55,
            "time": 38.49999999999997,
            "velocity": 0.6299212598425197,
            "duration": 0.29999999999999716
          },
          {
            "name": "A4",
            "midi": 69,
            "time": 38.99999999999997,
            "velocity": 0.7874015748031497,
            "duration": 0.20000000000000284
          },
          {
            "name": "A4",
            "midi": 69,
            "time": 38.99999999999997,
            "velocity": 0.7874015748031497,
            "duration": 0.25
          },
          {
            "name": "G4",
            "midi": 67,
            "time": 39.12499999999997,
            "velocity": 0.7874015748031497,
            "duration": 0.32500000000000284
          },
          {
            "name": "G4",
            "midi": 67,
            "time": 39.199999999999974,
            "velocity": 0.7874015748031497,
            "duration": 0.3999999999999986
          },
          {
            "name": "F4",
            "midi": 65,
            "time": 39.24999999999997,
            "velocity": 0.8740157480314961,
            "duration": 0.45000000000000284
          },
          {
            "name": "F4",
            "midi": 65,
            "time": 39.449999999999974,
            "velocity": 0.7874015748031497,
            "duration": 0.3500000000000014
          },
          {
            "name": "D4",
            "midi": 62,
            "time": 39.49999999999997,
            "velocity": 0.7874015748031497,
            "duration": 0.5000000000000071
          },
          {
            "name": "D4",
            "midi": 62,
            "time": 39.699999999999974,
            "velocity": 0.7874015748031497,
            "duration": 0.30000000000000426
          },
          {
            "name": "A#3",
            "midi": 58,
            "time": 39.99999999999998,
            "velocity": 0.7559055118110236,
            "duration": 0.3999999999999986
          },
          {
            "name": "G3",
            "midi": 55,
            "time": 39.99999999999998,
            "velocity": 0.7559055118110236,
            "duration": 0.3999999999999986
          },
          {
            "name": "A4",
            "midi": 69,
            "time": 39.99999999999998,
            "velocity": 0.8740157480314961,
            "duration": 0.6000000000000014
          },
          {
            "name": "D4",
            "midi": 62,
            "time": 39.99999999999998,
            "velocity": 0.7559055118110236,
            "duration": 0.3999999999999986
          },
          {
            "name": "G2",
            "midi": 43,
            "time": 39.99999999999998,
            "velocity": 0.7874015748031497,
            "duration": 0.5
          },
          {
            "name": "A4",
            "midi": 69,
            "time": 39.99999999999998,
            "velocity": 0.7874015748031497,
            "duration": 1.000000000000007
          },
          {
            "name": "G3",
            "midi": 55,
            "time": 39.99999999999998,
            "velocity": 0.7874015748031497,
            "duration": 0.9000000000000057
          },
          {
            "name": "G2",
            "midi": 43,
            "time": 40.49999999999998,
            "velocity": 0.7874015748031497,
            "duration": 0.5000000000000071
          },
          {
            "name": "A#3",
            "midi": 58,
            "time": 40.49999999999998,
            "velocity": 0.7559055118110236,
            "duration": 0.4000000000000057
          },
          {
            "name": "G3",
            "midi": 55,
            "time": 40.49999999999998,
            "velocity": 0.7559055118110236,
            "duration": 0.9000000000000057
          },
          {
            "name": "D4",
            "midi": 62,
            "time": 40.49999999999998,
            "velocity": 0.7559055118110236,
            "duration": 0.4000000000000057
          },
          {
            "name": "G4",
            "midi": 67,
            "time": 40.49999999999998,
            "velocity": 0.7874015748031497,
            "duration": 0.30000000000000426
          },
          {
            "name": "A#4",
            "midi": 70,
            "time": 40.999999999999986,
            "velocity": 0.8740157480314961,
            "duration": 0.29999999999999716
          },
          {
            "name": "A#3",
            "midi": 58,
            "time": 40.999999999999986,
            "velocity": 0.7559055118110236,
            "duration": 0.3999999999999986
          },
          {
            "name": "G3",
            "midi": 55,
            "time": 40.999999999999986,
            "velocity": 0.7559055118110236,
            "duration": 0.8999999999999986
          },
          {
            "name": "G2",
            "midi": 43,
            "time": 40.999999999999986,
            "velocity": 0.7874015748031497,
            "duration": 0.5
          },
          {
            "name": "D4",
            "midi": 62,
            "time": 40.999999999999986,
            "velocity": 0.7559055118110236,
            "duration": 0.3999999999999986
          },
          {
            "name": "A#4",
            "midi": 70,
            "time": 40.999999999999986,
            "velocity": 0.7874015748031497,
            "duration": 1
          },
          {
            "name": "A#3",
            "midi": 58,
            "time": 41.499999999999986,
            "velocity": 0.7559055118110236,
            "duration": 0.3999999999999986
          },
          {
            "name": "G2",
            "midi": 43,
            "time": 41.499999999999986,
            "velocity": 0.7874015748031497,
            "duration": 0.5
          },
          {
            "name": "G3",
            "midi": 55,
            "time": 41.499999999999986,
            "velocity": 0.7559055118110236,
            "duration": 0.5
          },
          {
            "name": "D4",
            "midi": 62,
            "time": 41.499999999999986,
            "velocity": 0.7559055118110236,
            "duration": 0.3999999999999986
          },
          {
            "name": "G4",
            "midi": 67,
            "time": 41.999999999999986,
            "velocity": 0.7874015748031497,
            "duration": 1
          },
          {
            "name": "C2",
            "midi": 36,
            "time": 41.999999999999986,
            "velocity": 0.7874015748031497,
            "duration": 1
          },
          {
            "name": "C4",
            "midi": 60,
            "time": 41.999999999999986,
            "velocity": 0.7874015748031497,
            "duration": 1.8000000000000043
          },
          {
            "name": "E4",
            "midi": 64,
            "time": 41.999999999999986,
            "velocity": 0.7874015748031497,
            "duration": 1.6000000000000014
          },
          {
            "name": "A4",
            "midi": 69,
            "time": 41.999999999999986,
            "velocity": 0.7874015748031497,
            "duration": 0.6000000000000014
          },
          {
            "name": "C3",
            "midi": 48,
            "time": 41.999999999999986,
            "velocity": 0.7874015748031497,
            "duration": 1
          },
          {
            "name": "C3",
            "midi": 48,
            "time": 42.499999999999986,
            "velocity": 0.7874015748031497,
            "duration": 1.500000000000007
          },
          {
            "name": "G4",
            "midi": 67,
            "time": 42.499999999999986,
            "velocity": 0.7874015748031497,
            "duration": 0.5
          },
          {
            "name": "C5",
            "midi": 72,
            "time": 42.999999999999986,
            "velocity": 0.7874015748031497,
            "duration": 1.000000000000007
          },
          {
            "name": "C2",
            "midi": 36,
            "time": 42.999999999999986,
            "velocity": 0.7874015748031497,
            "duration": 0.5
          },
          {
            "name": "G4",
            "midi": 67,
            "time": 42.999999999999986,
            "velocity": 0.7874015748031497,
            "duration": 0.6000000000000014
          },
          {
            "name": "C3",
            "midi": 48,
            "time": 43.499999999999986,
            "velocity": 0.7874015748031497,
            "duration": 0.5000000000000071
          },
          {
            "name": "A4",
            "midi": 69,
            "time": 43.499999999999986,
            "velocity": 0.7874015748031497,
            "duration": 0.5000000000000071
          },
          {
            "name": "A4",
            "midi": 69,
            "time": 43.99999999999999,
            "velocity": 0.7874015748031497,
            "duration": 0.6000000000000014
          },
          {
            "name": "F4",
            "midi": 65,
            "time": 43.99999999999999,
            "velocity": 0.7874015748031497,
            "duration": 0.0625
          },
          {
            "name": "F1",
            "midi": 29,
            "time": 43.99999999999999,
            "velocity": 0.7874015748031497,
            "duration": 0.6000000000000014
          },
          {
            "name": "F2",
            "midi": 41,
            "time": 43.99999999999999,
            "velocity": 0.7874015748031497,
            "duration": 0.6000000000000014
          },
          {
            "name": "C4",
            "midi": 60,
            "time": 43.99999999999999,
            "velocity": 0.7874015748031497,
            "duration": 0.3125
          },
          {
            "name": "F4",
            "midi": 65,
            "time": 43.99999999999999,
            "velocity": 0.7874015748031497,
            "duration": 0.1875
          },
          {
            "name": "F3",
            "midi": 53,
            "time": 43.99999999999999,
            "velocity": 0.7874015748031497,
            "duration": 8
          },
          {
            "name": "F4",
            "midi": 65,
            "time": 43.99999999999999,
            "velocity": 0.25196850393700787,
            "duration": 0.5625
          },
          {
            "name": "F4",
            "midi": 65,
            "time": 44.12499999999999,
            "velocity": 0.25984251968503935,
            "duration": 0.4750000000000014
          },
          {
            "name": "C4",
            "midi": 60,
            "time": 44.24999999999999,
            "velocity": 0.2755905511811024,
            "duration": 0.1875
          },
          {
            "name": "C4",
            "midi": 60,
            "time": 44.37499999999999,
            "velocity": 0.29133858267716534,
            "duration": 0.42499999999999716
          },
          {
            "name": "F4",
            "midi": 65,
            "time": 44.49999999999999,
            "velocity": 0.30708661417322836,
            "duration": 0.1875
          },
          {
            "name": "F4",
            "midi": 65,
            "time": 44.62499999999999,
            "velocity": 0.3228346456692913,
            "duration": 0.4375
          },
          {
            "name": "F1",
            "midi": 29,
            "time": 44.74999999999999,
            "velocity": 0.7874015748031497,
            "duration": 1.25
          },
          {
            "name": "D4",
            "midi": 62,
            "time": 44.74999999999999,
            "velocity": 0.7874015748031497,
            "duration": 0.6499999999999986
          },
          {
            "name": "F4",
            "midi": 65,
            "time": 44.74999999999999,
            "velocity": 0.7874015748031497,
            "duration": 0.4375
          },
          {
            "name": "A#4",
            "midi": 70,
            "time": 44.74999999999999,
            "velocity": 0.7874015748031497,
            "duration": 0.6499999999999986
          },
          {
            "name": "F2",
            "midi": 41,
            "time": 44.74999999999999,
            "velocity": 0.7874015748031497,
            "duration": 1.25
          },
          {
            "name": "C4",
            "midi": 60,
            "time": 44.74999999999999,
            "velocity": 0.33070866141732286,
            "duration": 0.0625
          },
          {
            "name": "F4",
            "midi": 65,
            "time": 44.99999999999999,
            "velocity": 0.36220472440944884,
            "duration": 0.3999999999999986
          },
          {
            "name": "F4",
            "midi": 65,
            "time": 45.12499999999999,
            "velocity": 0.3779527559055118,
            "duration": 0.5625
          },
          {
            "name": "C4",
            "midi": 60,
            "time": 45.24999999999999,
            "velocity": 0.3937007874015748,
            "duration": 0.0625
          },
          {
            "name": "C4",
            "midi": 60,
            "time": 45.37499999999999,
            "velocity": 0.4015748031496063,
            "duration": 0.0625
          },
          {
            "name": "F4",
            "midi": 65,
            "time": 45.49999999999999,
            "velocity": 0.7874015748031497,
            "duration": 0.4750000000000014
          },
          {
            "name": "A#4",
            "midi": 70,
            "time": 45.49999999999999,
            "velocity": 0.7874015748031497,
            "duration": 0.4750000000000014
          },
          {
            "name": "D4",
            "midi": 62,
            "time": 45.49999999999999,
            "velocity": 0.7874015748031497,
            "duration": 0.4750000000000014
          },
          {
            "name": "A4",
            "midi": 69,
            "time": 45.49999999999999,
            "velocity": 0.41732283464566927,
            "duration": 0.0625
          },
          {
            "name": "F4",
            "midi": 65,
            "time": 45.62499999999999,
            "velocity": 0.4330708661417323,
            "duration": 0.375
          },
          {
            "name": "C4",
            "midi": 60,
            "time": 45.74999999999999,
            "velocity": 0.44881889763779526,
            "duration": 0.0625
          },
          {
            "name": "C4",
            "midi": 60,
            "time": 45.87499999999999,
            "velocity": 0.4645669291338583,
            "duration": 0.0625
          },
          {
            "name": "F4",
            "midi": 65,
            "time": 45.99999999999999,
            "velocity": 0.7874015748031497,
            "duration": 0.0625
          },
          {
            "name": "D4",
            "midi": 62,
            "time": 45.99999999999999,
            "velocity": 0.7874015748031497,
            "duration": 0.4750000000000014
          },
          {
            "name": "F1",
            "midi": 29,
            "time": 45.99999999999999,
            "velocity": 0.7874015748031497,
            "duration": 0.6000000000000014
          },
          {
            "name": "F2",
            "midi": 41,
            "time": 45.99999999999999,
            "velocity": 0.7874015748031497,
            "duration": 0.6000000000000014
          },
          {
            "name": "C5",
            "midi": 72,
            "time": 45.99999999999999,
            "velocity": 0.7874015748031497,
            "duration": 0.4750000000000014
          },
          {
            "name": "F4",
            "midi": 65,
            "time": 45.99999999999999,
            "velocity": 0.47244094488188976,
            "duration": 0.1875
          },
          {
            "name": "F4",
            "midi": 65,
            "time": 46.12499999999999,
            "velocity": 0.4881889763779528,
            "duration": 0.3500000000000014
          },
          {
            "name": "C4",
            "midi": 60,
            "time": 46.24999999999999,
            "velocity": 0.5039370078740157,
            "duration": 0.0625
          },
          {
            "name": "C4",
            "midi": 60,
            "time": 46.37499999999999,
            "velocity": 0.7874015748031497,
            "duration": 0.0625
          },
          {
            "name": "C4",
            "midi": 60,
            "time": 46.37499999999999,
            "velocity": 0.5196850393700787,
            "duration": 0.375
          },
          {
            "name": "F4",
            "midi": 65,
            "time": 46.49999999999999,
            "velocity": 0.7874015748031497,
            "duration": 0.0625
          },
          {
            "name": "F4",
            "midi": 65,
            "time": 46.49999999999999,
            "velocity": 0.5354330708661418,
            "duration": 0.1875
          },
          {
            "name": "F4",
            "midi": 65,
            "time": 46.62499999999999,
            "velocity": 0.5433070866141733,
            "duration": 0.125
          },
          {
            "name": "F2",
            "midi": 41,
            "time": 46.74999999999999,
            "velocity": 0.7874015748031497,
            "duration": 1.25
          },
          {
            "name": "A#4",
            "midi": 70,
            "time": 46.74999999999999,
            "velocity": 0.7874015748031497,
            "duration": 1.0499999999999972
          },
          {
            "name": "F4",
            "midi": 65,
            "time": 46.74999999999999,
            "velocity": 0.7874015748031497,
            "duration": 0.4375
          },
          {
            "name": "F1",
            "midi": 29,
            "time": 46.74999999999999,
            "velocity": 0.7874015748031497,
            "duration": 1.25
          },
          {
            "name": "C4",
            "midi": 60,
            "time": 46.74999999999999,
            "velocity": 0.7874015748031497,
            "duration": 0.0625
          },
          {
            "name": "C4",
            "midi": 60,
            "time": 46.74999999999999,
            "velocity": 0.5590551181102362,
            "duration": 0.3125
          },
          {
            "name": "C4",
            "midi": 60,
            "time": 46.99999999999999,
            "velocity": 0.5905511811023622,
            "duration": 0.4375
          },
          {
            "name": "F4",
            "midi": 65,
            "time": 47.12499999999999,
            "velocity": 0.6062992125984252,
            "duration": 0.1875
          },
          {
            "name": "F4",
            "midi": 65,
            "time": 47.24999999999999,
            "velocity": 0.6141732283464567,
            "duration": 0.3125
          },
          {
            "name": "C4",
            "midi": 60,
            "time": 47.37499999999999,
            "velocity": 0.6299212598425197,
            "duration": 0.42499999999999716
          },
          {
            "name": "F4",
            "midi": 65,
            "time": 47.49999999999999,
            "velocity": 0.6456692913385826,
            "duration": 0.29999999999999716
          },
          {
            "name": "E4",
            "midi": 64,
            "time": 47.62499999999999,
            "velocity": 0.6614173228346457,
            "duration": 0.0625
          },
          {
            "name": "C4",
            "midi": 60,
            "time": 47.74999999999999,
            "velocity": 0.6771653543307087,
            "duration": 0.0625
          },
          {
            "name": "C4",
            "midi": 60,
            "time": 47.87499999999999,
            "velocity": 0.6929133858267716,
            "duration": 0.0625
          },
          {
            "name": "F1",
            "midi": 29,
            "time": 47.99999999999999,
            "velocity": 0.7874015748031497,
            "duration": 0.6000000000000014
          },
          {
            "name": "A4",
            "midi": 69,
            "time": 47.99999999999999,
            "velocity": 0.7874015748031497,
            "duration": 0.6000000000000014
          },
          {
            "name": "F2",
            "midi": 41,
            "time": 47.99999999999999,
            "velocity": 0.7874015748031497,
            "duration": 0.6000000000000014
          },
          {
            "name": "F4",
            "midi": 65,
            "time": 47.99999999999999,
            "velocity": 0.7874015748031497,
            "duration": 0.0625
          },
          {
            "name": "C4",
            "midi": 60,
            "time": 47.99999999999999,
            "velocity": 0.7874015748031497,
            "duration": 0.3125
          },
          {
            "name": "F2",
            "midi": 41,
            "time": 47.99999999999999,
            "velocity": 0.7874015748031497,
            "duration": 2
          },
          {
            "name": "F4",
            "midi": 65,
            "time": 47.99999999999999,
            "velocity": 0.6929133858267716,
            "duration": 0.1875
          },
          {
            "name": "F4",
            "midi": 65,
            "time": 48.12499999999999,
            "velocity": 0.6850393700787402,
            "duration": 0.4375
          },
          {
            "name": "C4",
            "midi": 60,
            "time": 48.24999999999999,
            "velocity": 0.6692913385826772,
            "duration": 0.1875
          },
          {
            "name": "C4",
            "midi": 60,
            "time": 48.37499999999999,
            "velocity": 0.6535433070866141,
            "duration": 0.42499999999999716
          },
          {
            "name": "F4",
            "midi": 65,
            "time": 48.49999999999999,
            "velocity": 0.6377952755905512,
            "duration": 0.10000000000000142
          },
          {
            "name": "F4",
            "midi": 65,
            "time": 48.62499999999999,
            "velocity": 0.6220472440944882,
            "duration": 0.0625
          },
          {
            "name": "F1",
            "midi": 29,
            "time": 48.74999999999999,
            "velocity": 0.7874015748031497,
            "duration": 1.25
          },
          {
            "name": "F4",
            "midi": 65,
            "time": 48.74999999999999,
            "velocity": 0.7874015748031497,
            "duration": 0.3125
          },
          {
            "name": "D4",
            "midi": 62,
            "time": 48.74999999999999,
            "velocity": 0.7874015748031497,
            "duration": 0.6499999999999986
          },
          {
            "name": "A#4",
            "midi": 70,
            "time": 48.74999999999999,
            "velocity": 0.7874015748031497,
            "duration": 0.6499999999999986
          },
          {
            "name": "F2",
            "midi": 41,
            "time": 48.74999999999999,
            "velocity": 0.7716535433070866,
            "duration": 1.8500000000000014
          },
          {
            "name": "C4",
            "midi": 60,
            "time": 48.74999999999999,
            "velocity": 0.6141732283464567,
            "duration": 0.0625
          },
          {
            "name": "F4",
            "midi": 65,
            "time": 48.99999999999999,
            "velocity": 0.5826771653543307,
            "duration": 0.1875
          },
          {
            "name": "F4",
            "midi": 65,
            "time": 49.12499999999999,
            "velocity": 0.5669291338582677,
            "duration": 0.2749999999999986
          },
          {
            "name": "C4",
            "midi": 60,
            "time": 49.24999999999999,
            "velocity": 0.5511811023622047,
            "duration": 0.0625
          },
          {
            "name": "C4",
            "midi": 60,
            "time": 49.37499999999999,
            "velocity": 0.5433070866141733,
            "duration": 0.0625
          },
          {
            "name": "D4",
            "midi": 62,
            "time": 49.49999999999999,
            "velocity": 0.7874015748031497,
            "duration": 0.4750000000000014
          },
          {
            "name": "F4",
            "midi": 65,
            "time": 49.49999999999999,
            "velocity": 0.7874015748031497,
            "duration": 0.1875
          },
          {
            "name": "A#4",
            "midi": 70,
            "time": 49.49999999999999,
            "velocity": 0.7874015748031497,
            "duration": 0.4750000000000014
          },
          {
            "name": "A4",
            "midi": 69,
            "time": 49.49999999999999,
            "velocity": 0.5275590551181102,
            "duration": 0.0625
          },
          {
            "name": "F4",
            "midi": 65,
            "time": 49.62499999999999,
            "velocity": 0.5118110236220472,
            "duration": 0.3500000000000014
          },
          {
            "name": "C4",
            "midi": 60,
            "time": 49.74999999999999,
            "velocity": 0.49606299212598426,
            "duration": 0.0625
          },
          {
            "name": "C4",
            "midi": 60,
            "time": 49.87499999999999,
            "velocity": 0.48031496062992124,
            "duration": 0.0625
          },
          {
            "name": "F1",
            "midi": 29,
            "time": 49.99999999999999,
            "velocity": 0.7874015748031497,
            "duration": 0.6000000000000014
          },
          {
            "name": "F2",
            "midi": 41,
            "time": 49.99999999999999,
            "velocity": 0.7874015748031497,
            "duration": 2
          },
          {
            "name": "F4",
            "midi": 65,
            "time": 49.99999999999999,
            "velocity": 0.7874015748031497,
            "duration": 0.0625
          },
          {
            "name": "D4",
            "midi": 62,
            "time": 49.99999999999999,
            "velocity": 0.7874015748031497,
            "duration": 0.4750000000000014
          },
          {
            "name": "C5",
            "midi": 72,
            "time": 49.99999999999999,
            "velocity": 0.7874015748031497,
            "duration": 0.4750000000000014
          },
          {
            "name": "F4",
            "midi": 65,
            "time": 49.99999999999999,
            "velocity": 0.47244094488188976,
            "duration": 0.1875
          },
          {
            "name": "F4",
            "midi": 65,
            "time": 50.12499999999999,
            "velocity": 0.4566929133858268,
            "duration": 0.3500000000000014
          },
          {
            "name": "C4",
            "midi": 60,
            "time": 50.24999999999999,
            "velocity": 0.4409448818897638,
            "duration": 0.0625
          },
          {
            "name": "C4",
            "midi": 60,
            "time": 50.37499999999999,
            "velocity": 0.7874015748031497,
            "duration": 0.0625
          },
          {
            "name": "C4",
            "midi": 60,
            "time": 50.37499999999999,
            "velocity": 0.4251968503937008,
            "duration": 0.375
          },
          {
            "name": "F4",
            "midi": 65,
            "time": 50.49999999999999,
            "velocity": 0.7874015748031497,
            "duration": 0.0625
          },
          {
            "name": "F4",
            "midi": 65,
            "time": 50.49999999999999,
            "velocity": 0.4094488188976378,
            "duration": 0.1875
          },
          {
            "name": "F4",
            "midi": 65,
            "time": 50.62499999999999,
            "velocity": 0.4015748031496063,
            "duration": 0.125
          },
          {
            "name": "F2",
            "midi": 41,
            "time": 50.74999999999999,
            "velocity": 0.7874015748031497,
            "duration": 1.25
          },
          {
            "name": "A#4",
            "midi": 70,
            "time": 50.74999999999999,
            "velocity": 0.7874015748031497,
            "duration": 1.0499999999999972
          },
          {
            "name": "F4",
            "midi": 65,
            "time": 50.74999999999999,
            "velocity": 0.7874015748031497,
            "duration": 0.3125
          },
          {
            "name": "C4",
            "midi": 60,
            "time": 50.74999999999999,
            "velocity": 0.7874015748031497,
            "duration": 0.0625
          },
          {
            "name": "F1",
            "midi": 29,
            "time": 50.74999999999999,
            "velocity": 0.7874015748031497,
            "duration": 1.25
          },
          {
            "name": "C4",
            "midi": 60,
            "time": 50.74999999999999,
            "velocity": 0.3858267716535433,
            "duration": 0.5625
          },
          {
            "name": "F4",
            "midi": 65,
            "time": 50.99999999999999,
            "velocity": 0.3543307086614173,
            "duration": 0.1875
          },
          {
            "name": "F4",
            "midi": 65,
            "time": 51.12499999999999,
            "velocity": 0.33858267716535434,
            "duration": 0.4375
          },
          {
            "name": "C4",
            "midi": 60,
            "time": 51.24999999999999,
            "velocity": 0.33070866141732286,
            "duration": 0.1875
          },
          {
            "name": "C4",
            "midi": 60,
            "time": 51.37499999999999,
            "velocity": 0.31496062992125984,
            "duration": 0.42499999999999716
          },
          {
            "name": "C1",
            "midi": 24,
            "time": 51.49999999999999,
            "velocity": 0.7874015748031497,
            "duration": 0.5
          },
          {
            "name": "F4",
            "midi": 65,
            "time": 51.49999999999999,
            "velocity": 0.2992125984251969,
            "duration": 0.1875
          },
          {
            "name": "G#2",
            "midi": 44,
            "time": 51.49999999999999,
            "velocity": 0.7874015748031497,
            "duration": 0.0625
          },
          {
            "name": "F4",
            "midi": 65,
            "time": 51.62499999999999,
            "velocity": 0.28346456692913385,
            "duration": 0.17499999999999716
          },
          {
            "name": "B2",
            "midi": 47,
            "time": 51.62499999999999,
            "velocity": 0.7874015748031497,
            "duration": 0.0625
          },
          {
            "name": "C2",
            "midi": 36,
            "time": 51.74999999999999,
            "velocity": 0.7874015748031497,
            "duration": 0.3125
          },
          {
            "name": "C4",
            "midi": 60,
            "time": 51.74999999999999,
            "velocity": 0.2677165354330709,
            "duration": 0.0625
          },
          {
            "name": "C4",
            "midi": 60,
            "time": 51.87499999999999,
            "velocity": 0.25196850393700787,
            "duration": 0.0625
          },
          {
            "name": "F1",
            "midi": 29,
            "time": 51.99999999999999,
            "velocity": 0.7874015748031497,
            "duration": 0.7291666666666643
          },
          {
            "name": "C4",
            "midi": 60,
            "time": 51.99999999999999,
            "velocity": 0.7874015748031497,
            "duration": 0.20000000000000284
          },
          {
            "name": "F4",
            "midi": 65,
            "time": 51.99999999999999,
            "velocity": 0.7874015748031497,
            "duration": 0.3999999999999986
          },
          {
            "name": "A4",
            "midi": 69,
            "time": 51.99999999999999,
            "velocity": 0.7874015748031497,
            "duration": 0.3999999999999986
          },
          {
            "name": "F2",
            "midi": 41,
            "time": 51.99999999999999,
            "velocity": 0.7874015748031497,
            "duration": 0.9999999999999929
          },
          {
            "name": "F3",
            "midi": 53,
            "time": 51.99999999999999,
            "velocity": 0.7874015748031497,
            "duration": 0.9999999999999929
          },
          {
            "name": "G#2",
            "midi": 44,
            "time": 51.99999999999999,
            "velocity": 0.6771653543307087,
            "duration": 0.125
          },
          {
            "name": "C2",
            "midi": 36,
            "time": 51.99999999999999,
            "velocity": 0.7716535433070866,
            "duration": 0.25
          },
          {
            "name": "C#3",
            "midi": 49,
            "time": 51.99999999999999,
            "velocity": 0.7874015748031497,
            "duration": 0.0625
          },
          {
            "name": "C4",
            "midi": 60,
            "time": 52.24999999999999,
            "velocity": 0.7874015748031497,
            "duration": 0.3999999999999986
          },
          {
            "name": "F4",
            "midi": 65,
            "time": 52.49999999999999,
            "velocity": 0.7874015748031497,
            "duration": 0.3999999999999986
          },
          {
            "name": "A4",
            "midi": 69,
            "time": 52.49999999999999,
            "velocity": 0.7874015748031497,
            "duration": 0.3999999999999986
          },
          {
            "name": "G#2",
            "midi": 44,
            "time": 52.49999999999999,
            "velocity": 0.6771653543307087,
            "duration": 0.125
          },
          {
            "name": "F1",
            "midi": 29,
            "time": 52.74999999999999,
            "velocity": 0.7874015748031497,
            "duration": 0.19999999999999574
          },
          {
            "name": "C4",
            "midi": 60,
            "time": 52.74999999999999,
            "velocity": 0.7874015748031497,
            "duration": 0.3999999999999915
          },
          {
            "name": "A4",
            "midi": 69,
            "time": 52.74999999999999,
            "velocity": 0.7874015748031497,
            "duration": 0.2499999999999929
          },
          {
            "name": "C2",
            "midi": 36,
            "time": 52.74999999999999,
            "velocity": 0.7716535433070866,
            "duration": 0.0625
          },
          {
            "name": "E1",
            "midi": 28,
            "time": 52.999999999999986,
            "velocity": 0.7874015748031497,
            "duration": 0.4791666666666643
          },
          {
            "name": "E2",
            "midi": 40,
            "time": 52.999999999999986,
            "velocity": 0.7874015748031497,
            "duration": 0.5
          },
          {
            "name": "E4",
            "midi": 64,
            "time": 52.999999999999986,
            "velocity": 0.7874015748031497,
            "duration": 0.3999999999999986
          },
          {
            "name": "G4",
            "midi": 67,
            "time": 52.999999999999986,
            "velocity": 0.7874015748031497,
            "duration": 0.3999999999999986
          },
          {
            "name": "A4",
            "midi": 69,
            "time": 52.999999999999986,
            "velocity": 0.7874015748031497,
            "duration": 0.25
          },
          {
            "name": "E3",
            "midi": 52,
            "time": 52.999999999999986,
            "velocity": 0.7874015748031497,
            "duration": 1
          },
          {
            "name": "G#2",
            "midi": 44,
            "time": 52.999999999999986,
            "velocity": 0.6771653543307087,
            "duration": 0.125
          },
          {
            "name": "C2",
            "midi": 36,
            "time": 52.999999999999986,
            "velocity": 0.7716535433070866,
            "duration": 0.0625
          },
          {
            "name": "C#4",
            "midi": 61,
            "time": 53.249999999999986,
            "velocity": 0.7874015748031497,
            "duration": 0.3999999999999986
          },
          {
            "name": "A#4",
            "midi": 70,
            "time": 53.249999999999986,
            "velocity": 0.7874015748031497,
            "duration": 0.25
          },
          {
            "name": "A1",
            "midi": 33,
            "time": 53.499999999999986,
            "velocity": 0.7874015748031497,
            "duration": 0.5
          },
          {
            "name": "A2",
            "midi": 45,
            "time": 53.499999999999986,
            "velocity": 0.7874015748031497,
            "duration": 0.5
          },
          {
            "name": "E4",
            "midi": 64,
            "time": 53.499999999999986,
            "velocity": 0.7874015748031497,
            "duration": 0.3999999999999986
          },
          {
            "name": "A4",
            "midi": 69,
            "time": 53.499999999999986,
            "velocity": 0.7874015748031497,
            "duration": 0.25
          },
          {
            "name": "A4",
            "midi": 69,
            "time": 53.499999999999986,
            "velocity": 0.7874015748031497,
            "duration": 0.3999999999999986
          },
          {
            "name": "D2",
            "midi": 38,
            "time": 53.499999999999986,
            "velocity": 0.7874015748031497,
            "duration": 0.125
          },
          {
            "name": "G#2",
            "midi": 44,
            "time": 53.499999999999986,
            "velocity": 0.6771653543307087,
            "duration": 0.125
          },
          {
            "name": "C#4",
            "midi": 61,
            "time": 53.749999999999986,
            "velocity": 0.7874015748031497,
            "duration": 0.3999999999999986
          },
          {
            "name": "G4",
            "midi": 67,
            "time": 53.749999999999986,
            "velocity": 0.7874015748031497,
            "duration": 0.25
          },
          {
            "name": "D1",
            "midi": 26,
            "time": 53.999999999999986,
            "velocity": 0.7874015748031497,
            "duration": 0.7291666666666643
          },
          {
            "name": "D2",
            "midi": 38,
            "time": 53.999999999999986,
            "velocity": 0.7874015748031497,
            "duration": 0.9999999999999929
          },
          {
            "name": "F4",
            "midi": 65,
            "time": 53.999999999999986,
            "velocity": 0.7874015748031497,
            "duration": 0.3999999999999986
          },
          {
            "name": "F4",
            "midi": 65,
            "time": 53.999999999999986,
            "velocity": 0.7874015748031497,
            "duration": 0.6000000000000014
          },
          {
            "name": "D3",
            "midi": 50,
            "time": 53.999999999999986,
            "velocity": 0.7874015748031497,
            "duration": 2
          },
          {
            "name": "G#2",
            "midi": 44,
            "time": 53.999999999999986,
            "velocity": 0.6771653543307087,
            "duration": 0.125
          },
          {
            "name": "C2",
            "midi": 36,
            "time": 53.999999999999986,
            "velocity": 0.7716535433070866,
            "duration": 0.0625
          },
          {
            "name": "A4",
            "midi": 69,
            "time": 54.004166666666656,
            "velocity": 0.7874015748031497,
            "duration": 0.3999999999999986
          },
          {
            "name": "D4",
            "midi": 62,
            "time": 54.249999999999986,
            "velocity": 0.7874015748031497,
            "duration": 0.3999999999999986
          },
          {
            "name": "F4",
            "midi": 65,
            "time": 54.499999999999986,
            "velocity": 0.7874015748031497,
            "duration": 0.3999999999999986
          },
          {
            "name": "A4",
            "midi": 69,
            "time": 54.499999999999986,
            "velocity": 0.7874015748031497,
            "duration": 0.3999999999999986
          },
          {
            "name": "G#2",
            "midi": 44,
            "time": 54.499999999999986,
            "velocity": 0.6771653543307087,
            "duration": 0.125
          },
          {
            "name": "D1",
            "midi": 26,
            "time": 54.749999999999986,
            "velocity": 0.7874015748031497,
            "duration": 0.19999999999999574
          },
          {
            "name": "D4",
            "midi": 62,
            "time": 54.749999999999986,
            "velocity": 0.7874015748031497,
            "duration": 0.3999999999999915
          },
          {
            "name": "C2",
            "midi": 36,
            "time": 54.749999999999986,
            "velocity": 0.7716535433070866,
            "duration": 0.0625
          },
          {
            "name": "C1",
            "midi": 24,
            "time": 54.99999999999998,
            "velocity": 0.7874015748031497,
            "duration": 0.4791666666666714
          },
          {
            "name": "C2",
            "midi": 36,
            "time": 54.99999999999998,
            "velocity": 0.7874015748031497,
            "duration": 0.0625
          },
          {
            "name": "G#2",
            "midi": 44,
            "time": 54.99999999999998,
            "velocity": 0.6771653543307087,
            "duration": 0.125
          },
          {
            "name": "C2",
            "midi": 36,
            "time": 54.99999999999998,
            "velocity": 0.7716535433070866,
            "duration": 0.9791666666666714
          },
          {
            "name": "G4",
            "midi": 67,
            "time": 55.00416666666665,
            "velocity": 0.7874015748031497,
            "duration": 0.3999999999999986
          },
          {
            "name": "E4",
            "midi": 64,
            "time": 55.00416666666665,
            "velocity": 0.7874015748031497,
            "duration": 0.3999999999999986
          },
          {
            "name": "C4",
            "midi": 60,
            "time": 55.24999999999998,
            "velocity": 0.7874015748031497,
            "duration": 0.4000000000000057
          },
          {
            "name": "G4",
            "midi": 67,
            "time": 55.24999999999998,
            "velocity": 0.7874015748031497,
            "duration": 0.2500000000000071
          },
          {
            "name": "C2",
            "midi": 36,
            "time": 55.499999999999986,
            "velocity": 0.7874015748031497,
            "duration": 0.5
          },
          {
            "name": "E4",
            "midi": 64,
            "time": 55.499999999999986,
            "velocity": 0.7874015748031497,
            "duration": 0.3999999999999986
          },
          {
            "name": "G4",
            "midi": 67,
            "time": 55.499999999999986,
            "velocity": 0.7874015748031497,
            "duration": 0.3999999999999986
          },
          {
            "name": "A4",
            "midi": 69,
            "time": 55.499999999999986,
            "velocity": 0.7874015748031497,
            "duration": 0.25
          },
          {
            "name": "G#2",
            "midi": 44,
            "time": 55.499999999999986,
            "velocity": 0.6771653543307087,
            "duration": 0.125
          },
          {
            "name": "D2",
            "midi": 38,
            "time": 55.499999999999986,
            "velocity": 0.7874015748031497,
            "duration": 0.125
          },
          {
            "name": "C4",
            "midi": 60,
            "time": 55.749999999999986,
            "velocity": 0.7874015748031497,
            "duration": 0.3999999999999986
          },
          {
            "name": "A4",
            "midi": 69,
            "time": 55.749999999999986,
            "velocity": 0.7874015748031497,
            "duration": 0.25
          },
          {
            "name": "G1",
            "midi": 31,
            "time": 55.999999999999986,
            "velocity": 0.7874015748031497,
            "duration": 0.7291666666666643
          },
          {
            "name": "G2",
            "midi": 43,
            "time": 55.999999999999986,
            "velocity": 0.7874015748031497,
            "duration": 2
          },
          {
            "name": "F4",
            "midi": 65,
            "time": 55.999999999999986,
            "velocity": 0.7874015748031497,
            "duration": 0.7999999999999972
          },
          {
            "name": "G3",
            "midi": 55,
            "time": 55.999999999999986,
            "velocity": 0.7874015748031497,
            "duration": 2
          },
          {
            "name": "G#2",
            "midi": 44,
            "time": 55.999999999999986,
            "velocity": 0.6771653543307087,
            "duration": 0.125
          },
          {
            "name": "C2",
            "midi": 36,
            "time": 55.999999999999986,
            "velocity": 0.7716535433070866,
            "duration": 0.0625
          },
          {
            "name": "A#4",
            "midi": 70,
            "time": 56.004166666666656,
            "velocity": 0.7874015748031497,
            "duration": 0.3999999999999986
          },
          {
            "name": "G4",
            "midi": 67,
            "time": 56.004166666666656,
            "velocity": 0.7874015748031497,
            "duration": 0.3999999999999986
          },
          {
            "name": "D4",
            "midi": 62,
            "time": 56.249999999999986,
            "velocity": 0.7874015748031497,
            "duration": 0.3999999999999986
          },
          {
            "name": "A#4",
            "midi": 70,
            "time": 56.499999999999986,
            "velocity": 0.7874015748031497,
            "duration": 0.3999999999999986
          },
          {
            "name": "G4",
            "midi": 67,
            "time": 56.499999999999986,
            "velocity": 0.7874015748031497,
            "duration": 0.3999999999999986
          },
          {
            "name": "G#2",
            "midi": 44,
            "time": 56.499999999999986,
            "velocity": 0.6771653543307087,
            "duration": 0.125
          },
          {
            "name": "G1",
            "midi": 31,
            "time": 56.749999999999986,
            "velocity": 0.7874015748031497,
            "duration": 0.2291666666666643
          },
          {
            "name": "D4",
            "midi": 62,
            "time": 56.749999999999986,
            "velocity": 0.7874015748031497,
            "duration": 0.3999999999999986
          },
          {
            "name": "C2",
            "midi": 36,
            "time": 56.749999999999986,
            "velocity": 0.7716535433070866,
            "duration": 0.0625
          },
          {
            "name": "G1",
            "midi": 31,
            "time": 56.999999999999986,
            "velocity": 0.7874015748031497,
            "duration": 0.7291666666666643
          },
          {
            "name": "F4",
            "midi": 65,
            "time": 56.999999999999986,
            "velocity": 0.7874015748031497,
            "duration": 0.25
          },
          {
            "name": "G#2",
            "midi": 44,
            "time": 56.999999999999986,
            "velocity": 0.6771653543307087,
            "duration": 0.125
          },
          {
            "name": "C2",
            "midi": 36,
            "time": 56.999999999999986,
            "velocity": 0.7716535433070866,
            "duration": 0.0625
          },
          {
            "name": "A#4",
            "midi": 70,
            "time": 57.004166666666656,
            "velocity": 0.7874015748031497,
            "duration": 0.3999999999999986
          },
          {
            "name": "G4",
            "midi": 67,
            "time": 57.004166666666656,
            "velocity": 0.7874015748031497,
            "duration": 0.3999999999999986
          },
          {
            "name": "D4",
            "midi": 62,
            "time": 57.249999999999986,
            "velocity": 0.7874015748031497,
            "duration": 0.25
          },
          {
            "name": "D4",
            "midi": 62,
            "time": 57.249999999999986,
            "velocity": 0.7874015748031497,
            "duration": 0.3999999999999986
          },
          {
            "name": "A#4",
            "midi": 70,
            "time": 57.499999999999986,
            "velocity": 0.7874015748031497,
            "duration": 0.3999999999999986
          },
          {
            "name": "G4",
            "midi": 67,
            "time": 57.499999999999986,
            "velocity": 0.7874015748031497,
            "duration": 0.3999999999999986
          },
          {
            "name": "F4",
            "midi": 65,
            "time": 57.499999999999986,
            "velocity": 0.7874015748031497,
            "duration": 0.25
          },
          {
            "name": "D2",
            "midi": 38,
            "time": 57.499999999999986,
            "velocity": 0.7874015748031497,
            "duration": 0.125
          },
          {
            "name": "G#2",
            "midi": 44,
            "time": 57.499999999999986,
            "velocity": 0.6771653543307087,
            "duration": 0.125
          },
          {
            "name": "G1",
            "midi": 31,
            "time": 57.749999999999986,
            "velocity": 0.7874015748031497,
            "duration": 0.2291666666666643
          },
          {
            "name": "D4",
            "midi": 62,
            "time": 57.749999999999986,
            "velocity": 0.7874015748031497,
            "duration": 0.25
          },
          {
            "name": "D4",
            "midi": 62,
            "time": 57.749999999999986,
            "velocity": 0.7874015748031497,
            "duration": 0.3999999999999986
          },
          {
            "name": "A1",
            "midi": 33,
            "time": 57.999999999999986,
            "velocity": 0.7874015748031497,
            "duration": 1
          },
          {
            "name": "A2",
            "midi": 45,
            "time": 57.999999999999986,
            "velocity": 0.7874015748031497,
            "duration": 0.6000000000000014
          },
          {
            "name": "A4",
            "midi": 69,
            "time": 57.999999999999986,
            "velocity": 0.7874015748031497,
            "duration": 0.25
          },
          {
            "name": "A3",
            "midi": 57,
            "time": 57.999999999999986,
            "velocity": 0.7874015748031497,
            "duration": 1
          },
          {
            "name": "G#2",
            "midi": 44,
            "time": 57.999999999999986,
            "velocity": 0.6771653543307087,
            "duration": 0.125
          },
          {
            "name": "C2",
            "midi": 36,
            "time": 57.999999999999986,
            "velocity": 0.7716535433070866,
            "duration": 0.0625
          },
          {
            "name": "A4",
            "midi": 69,
            "time": 58.004166666666656,
            "velocity": 0.7874015748031497,
            "duration": 0.3999999999999986
          },
          {
            "name": "E4",
            "midi": 64,
            "time": 58.004166666666656,
            "velocity": 0.7874015748031497,
            "duration": 0.3999999999999986
          },
          {
            "name": "C#4",
            "midi": 61,
            "time": 58.249999999999986,
            "velocity": 0.7874015748031497,
            "duration": 0.3999999999999986
          },
          {
            "name": "E4",
            "midi": 64,
            "time": 58.499999999999986,
            "velocity": 0.7874015748031497,
            "duration": 0.3999999999999986
          },
          {
            "name": "A4",
            "midi": 69,
            "time": 58.499999999999986,
            "velocity": 0.7874015748031497,
            "duration": 0.25
          },
          {
            "name": "A4",
            "midi": 69,
            "time": 58.499999999999986,
            "velocity": 0.7874015748031497,
            "duration": 0.3999999999999986
          },
          {
            "name": "G#2",
            "midi": 44,
            "time": 58.499999999999986,
            "velocity": 0.6771653543307087,
            "duration": 0.125
          },
          {
            "name": "F#3",
            "midi": 54,
            "time": 58.59999999999999,
            "velocity": 0.7874015748031497,
            "duration": 0.5
          },
          {
            "name": "A2",
            "midi": 45,
            "time": 58.749999999999986,
            "velocity": 0.7874015748031497,
            "duration": 0.125
          },
          {
            "name": "C#4",
            "midi": 61,
            "time": 58.749999999999986,
            "velocity": 0.7874015748031497,
            "duration": 0.3999999999999986
          },
          {
            "name": "G4",
            "midi": 67,
            "time": 58.749999999999986,
            "velocity": 0.7874015748031497,
            "duration": 0.6541666666666686
          },
          {
            "name": "C2",
            "midi": 36,
            "time": 58.749999999999986,
            "velocity": 0.7716535433070866,
            "duration": 0.0625
          },
          {
            "name": "B2",
            "midi": 47,
            "time": 58.874999999999986,
            "velocity": 0.7874015748031497,
            "duration": 0.125
          },
          {
            "name": "C1",
            "midi": 24,
            "time": 58.999999999999986,
            "velocity": 0.7874015748031497,
            "duration": 1
          },
          {
            "name": "C3",
            "midi": 48,
            "time": 58.999999999999986,
            "velocity": 0.7874015748031497,
            "duration": 1
          },
          {
            "name": "C3",
            "midi": 48,
            "time": 58.999999999999986,
            "velocity": 0.7874015748031497,
            "duration": 1
          },
          {
            "name": "G#2",
            "midi": 44,
            "time": 58.999999999999986,
            "velocity": 0.6771653543307087,
            "duration": 0.125
          },
          {
            "name": "C2",
            "midi": 36,
            "time": 58.999999999999986,
            "velocity": 0.7716535433070866,
            "duration": 0.0625
          },
          {
            "name": "E4",
            "midi": 64,
            "time": 59.004166666666656,
            "velocity": 0.7874015748031497,
            "duration": 0.3999999999999986
          },
          {
            "name": "G4",
            "midi": 67,
            "time": 59.004166666666656,
            "velocity": 0.7874015748031497,
            "duration": 0.8958333333333286
          },
          {
            "name": "C4",
            "midi": 60,
            "time": 59.249999999999986,
            "velocity": 0.7874015748031497,
            "duration": 0.3999999999999986
          },
          {
            "name": "G#2",
            "midi": 44,
            "time": 59.249999999999986,
            "velocity": 0.6771653543307087,
            "duration": 0.125
          },
          {
            "name": "E4",
            "midi": 64,
            "time": 59.499999999999986,
            "velocity": 0.7874015748031497,
            "duration": 0.3999999999999986
          },
          {
            "name": "G4",
            "midi": 67,
            "time": 59.499999999999986,
            "velocity": 0.7874015748031497,
            "duration": 0.5
          },
          {
            "name": "D2",
            "midi": 38,
            "time": 59.499999999999986,
            "velocity": 0.7874015748031497,
            "duration": 0.125
          },
          {
            "name": "G#2",
            "midi": 44,
            "time": 59.499999999999986,
            "velocity": 0.6771653543307087,
            "duration": 0.125
          },
          {
            "name": "C4",
            "midi": 60,
            "time": 59.749999999999986,
            "velocity": 0.7874015748031497,
            "duration": 0.3999999999999986
          },
          {
            "name": "G2",
            "midi": 43,
            "time": 59.749999999999986,
            "velocity": 0.6771653543307087,
            "duration": 0.0625
          },
          {
            "name": "F1",
            "midi": 29,
            "time": 59.999999999999986,
            "velocity": 0.7874015748031497,
            "duration": 0.25
          },
          {
            "name": "A4",
            "midi": 69,
            "time": 59.999999999999986,
            "velocity": 0.7874015748031497,
            "duration": 0.3999999999999986
          },
          {
            "name": "F4",
            "midi": 65,
            "time": 59.999999999999986,
            "velocity": 0.7874015748031497,
            "duration": 0.3999999999999986
          },
          {
            "name": "F2",
            "midi": 41,
            "time": 59.999999999999986,
            "velocity": 0.7874015748031497,
            "duration": 0.0625
          },
          {
            "name": "F2",
            "midi": 41,
            "time": 59.999999999999986,
            "velocity": 0.7874015748031497,
            "duration": 0.3125
          },
          {
            "name": "F3",
            "midi": 53,
            "time": 59.999999999999986,
            "velocity": 0.7874015748031497,
            "duration": 0.0625
          },
          {
            "name": "F3",
            "midi": 53,
            "time": 59.999999999999986,
            "velocity": 0.7874015748031497,
            "duration": 0.3125
          },
          {
            "name": "G#2",
            "midi": 44,
            "time": 59.999999999999986,
            "velocity": 0.6771653543307087,
            "duration": 0.125
          },
          {
            "name": "C2",
            "midi": 36,
            "time": 59.999999999999986,
            "velocity": 0.7716535433070866,
            "duration": 0.0625
          },
          {
            "name": "C#3",
            "midi": 49,
            "time": 59.999999999999986,
            "velocity": 0.7874015748031497,
            "duration": 0.0625
          },
          {
            "name": "F1",
            "midi": 29,
            "time": 60.249999999999986,
            "velocity": 0.7874015748031497,
            "duration": 0.25
          },
          {
            "name": "C4",
            "midi": 60,
            "time": 60.249999999999986,
            "velocity": 0.7874015748031497,
            "duration": 0.3999999999999986
          },
          {
            "name": "F2",
            "midi": 41,
            "time": 60.249999999999986,
            "velocity": 0.7874015748031497,
            "duration": 0.3125
          },
          {
            "name": "F3",
            "midi": 53,
            "time": 60.249999999999986,
            "velocity": 0.7874015748031497,
            "duration": 0.3125
          },
          {
            "name": "F1",
            "midi": 29,
            "time": 60.499999999999986,
            "velocity": 0.7874015748031497,
            "duration": 0.25
          },
          {
            "name": "A4",
            "midi": 69,
            "time": 60.499999999999986,
            "velocity": 0.7874015748031497,
            "duration": 0.25
          },
          {
            "name": "F4",
            "midi": 65,
            "time": 60.499999999999986,
            "velocity": 0.7874015748031497,
            "duration": 0.3999999999999986
          },
          {
            "name": "A4",
            "midi": 69,
            "time": 60.499999999999986,
            "velocity": 0.7874015748031497,
            "duration": 0.3999999999999986
          },
          {
            "name": "F2",
            "midi": 41,
            "time": 60.499999999999986,
            "velocity": 0.7874015748031497,
            "duration": 0.3125
          },
          {
            "name": "F3",
            "midi": 53,
            "time": 60.499999999999986,
            "velocity": 0.7874015748031497,
            "duration": 0.3125
          },
          {
            "name": "G#2",
            "midi": 44,
            "time": 60.499999999999986,
            "velocity": 0.6771653543307087,
            "duration": 0.125
          },
          {
            "name": "D2",
            "midi": 38,
            "time": 60.499999999999986,
            "velocity": 0.7874015748031497,
            "duration": 0.125
          },
          {
            "name": "F1",
            "midi": 29,
            "time": 60.749999999999986,
            "velocity": 0.7874015748031497,
            "duration": 0.25
          },
          {
            "name": "C4",
            "midi": 60,
            "time": 60.749999999999986,
            "velocity": 0.7874015748031497,
            "duration": 0.3999999999999986
          },
          {
            "name": "C5",
            "midi": 72,
            "time": 60.749999999999986,
            "velocity": 0.7874015748031497,
            "duration": 0.25
          },
          {
            "name": "F2",
            "midi": 41,
            "time": 60.749999999999986,
            "velocity": 0.7874015748031497,
            "duration": 0.25
          },
          {
            "name": "F3",
            "midi": 53,
            "time": 60.749999999999986,
            "velocity": 0.7874015748031497,
            "duration": 0.25
          },
          {
            "name": "C2",
            "midi": 36,
            "time": 60.749999999999986,
            "velocity": 0.7716535433070866,
            "duration": 0.0625
          },
          {
            "name": "E1",
            "midi": 28,
            "time": 60.999999999999986,
            "velocity": 0.7874015748031497,
            "duration": 0.25
          },
          {
            "name": "E4",
            "midi": 64,
            "time": 60.999999999999986,
            "velocity": 0.7874015748031497,
            "duration": 0.4000000000000057
          },
          {
            "name": "G4",
            "midi": 67,
            "time": 60.999999999999986,
            "velocity": 0.7874015748031497,
            "duration": 0.4000000000000057
          },
          {
            "name": "E2",
            "midi": 40,
            "time": 60.999999999999986,
            "velocity": 0.7874015748031497,
            "duration": 0.0833333333333357
          },
          {
            "name": "A#4",
            "midi": 70,
            "time": 60.999999999999986,
            "velocity": 0.7874015748031497,
            "duration": 0.25
          },
          {
            "name": "E2",
            "midi": 40,
            "time": 60.999999999999986,
            "velocity": 0.7874015748031497,
            "duration": 0.3333333333333357
          },
          {
            "name": "E3",
            "midi": 52,
            "time": 60.999999999999986,
            "velocity": 0.7874015748031497,
            "duration": 0.0625
          },
          {
            "name": "E3",
            "midi": 52,
            "time": 60.999999999999986,
            "velocity": 0.7874015748031497,
            "duration": 0.3125
          },
          {
            "name": "G#2",
            "midi": 44,
            "time": 60.999999999999986,
            "velocity": 0.6771653543307087,
            "duration": 0.125
          },
          {
            "name": "C2",
            "midi": 36,
            "time": 60.999999999999986,
            "velocity": 0.7716535433070866,
            "duration": 0.0625
          },
          {
            "name": "E1",
            "midi": 28,
            "time": 61.249999999999986,
            "velocity": 0.7874015748031497,
            "duration": 0.2500000000000071
          },
          {
            "name": "C#4",
            "midi": 61,
            "time": 61.249999999999986,
            "velocity": 0.7874015748031497,
            "duration": 0.4000000000000057
          },
          {
            "name": "A4",
            "midi": 69,
            "time": 61.249999999999986,
            "velocity": 0.7874015748031497,
            "duration": 0.2500000000000071
          },
          {
            "name": "E2",
            "midi": 40,
            "time": 61.249999999999986,
            "velocity": 0.7874015748031497,
            "duration": 0.2500000000000071
          },
          {
            "name": "E3",
            "midi": 52,
            "time": 61.249999999999986,
            "velocity": 0.7874015748031497,
            "duration": 0.7500000000000142
          },
          {
            "name": "A1",
            "midi": 33,
            "time": 61.49999999999999,
            "velocity": 0.7874015748031497,
            "duration": 0.25
          },
          {
            "name": "A2",
            "midi": 45,
            "time": 61.49999999999999,
            "velocity": 0.7874015748031497,
            "duration": 0.0833333333333357
          },
          {
            "name": "A4",
            "midi": 69,
            "time": 61.49999999999999,
            "velocity": 0.7874015748031497,
            "duration": 0.4000000000000057
          },
          {
            "name": "E4",
            "midi": 64,
            "time": 61.49999999999999,
            "velocity": 0.7874015748031497,
            "duration": 0.4000000000000057
          },
          {
            "name": "G4",
            "midi": 67,
            "time": 61.49999999999999,
            "velocity": 0.7874015748031497,
            "duration": 0.25
          },
          {
            "name": "A2",
            "midi": 45,
            "time": 61.49999999999999,
            "velocity": 0.7874015748031497,
            "duration": 0.3333333333333357
          },
          {
            "name": "A3",
            "midi": 57,
            "time": 61.49999999999999,
            "velocity": 0.7874015748031497,
            "duration": 0.0625
          },
          {
            "name": "D2",
            "midi": 38,
            "time": 61.49999999999999,
            "velocity": 0.7874015748031497,
            "duration": 0.125
          },
          {
            "name": "G#2",
            "midi": 44,
            "time": 61.49999999999999,
            "velocity": 0.6771653543307087,
            "duration": 0.125
          },
          {
            "name": "A1",
            "midi": 33,
            "time": 61.74999999999999,
            "velocity": 0.7874015748031497,
            "duration": 0.2500000000000071
          },
          {
            "name": "C#4",
            "midi": 61,
            "time": 61.74999999999999,
            "velocity": 0.7874015748031497,
            "duration": 0.4000000000000057
          },
          {
            "name": "A4",
            "midi": 69,
            "time": 61.74999999999999,
            "velocity": 0.7874015748031497,
            "duration": 0.2500000000000071
          },
          {
            "name": "A2",
            "midi": 45,
            "time": 61.74999999999999,
            "velocity": 0.7874015748031497,
            "duration": 0.2500000000000071
          },
          {
            "name": "A3",
            "midi": 57,
            "time": 61.74999999999999,
            "velocity": 0.7874015748031497,
            "duration": 0.0625
          },
          {
            "name": "D1",
            "midi": 26,
            "time": 62,
            "velocity": 0.7874015748031497,
            "duration": 0.25
          },
          {
            "name": "D2",
            "midi": 38,
            "time": 62,
            "velocity": 0.7874015748031497,
            "duration": 0.0833333333333357
          },
          {
            "name": "F4",
            "midi": 65,
            "time": 62,
            "velocity": 0.7874015748031497,
            "duration": 0.4000000000000057
          },
          {
            "name": "F4",
            "midi": 65,
            "time": 62,
            "velocity": 0.7874015748031497,
            "duration": 0.6000000000000085
          },
          {
            "name": "D2",
            "midi": 38,
            "time": 62,
            "velocity": 0.7874015748031497,
            "duration": 0.3333333333333357
          },
          {
            "name": "D3",
            "midi": 50,
            "time": 62,
            "velocity": 0.7874015748031497,
            "duration": 0.0625
          },
          {
            "name": "D3",
            "midi": 50,
            "time": 62,
            "velocity": 0.7874015748031497,
            "duration": 0.3125
          },
          {
            "name": "C2",
            "midi": 36,
            "time": 62,
            "velocity": 0.7716535433070866,
            "duration": 0.0625
          },
          {
            "name": "G#2",
            "midi": 44,
            "time": 62,
            "velocity": 0.6771653543307087,
            "duration": 0.125
          },
          {
            "name": "A4",
            "midi": 69,
            "time": 62.00416666666667,
            "velocity": 0.7874015748031497,
            "duration": 0.4000000000000057
          },
          {
            "name": "D1",
            "midi": 26,
            "time": 62.25,
            "velocity": 0.7874015748031497,
            "duration": 0.2500000000000071
          },
          {
            "name": "D4",
            "midi": 62,
            "time": 62.25,
            "velocity": 0.7874015748031497,
            "duration": 0.4000000000000057
          },
          {
            "name": "D2",
            "midi": 38,
            "time": 62.25,
            "velocity": 0.7874015748031497,
            "duration": 0.3333333333333428
          },
          {
            "name": "D3",
            "midi": 50,
            "time": 62.25,
            "velocity": 0.7874015748031497,
            "duration": 0.3125000000000071
          },
          {
            "name": "D1",
            "midi": 26,
            "time": 62.50000000000001,
            "velocity": 0.7874015748031497,
            "duration": 0.25
          },
          {
            "name": "F4",
            "midi": 65,
            "time": 62.50000000000001,
            "velocity": 0.7874015748031497,
            "duration": 0.4000000000000057
          },
          {
            "name": "A4",
            "midi": 69,
            "time": 62.50000000000001,
            "velocity": 0.7874015748031497,
            "duration": 0.4000000000000057
          },
          {
            "name": "D2",
            "midi": 38,
            "time": 62.50000000000001,
            "velocity": 0.7874015748031497,
            "duration": 0.125
          },
          {
            "name": "D3",
            "midi": 50,
            "time": 62.50000000000001,
            "velocity": 0.7874015748031497,
            "duration": 0.3125
          },
          {
            "name": "G#2",
            "midi": 44,
            "time": 62.50000000000001,
            "velocity": 0.6771653543307087,
            "duration": 0.125
          },
          {
            "name": "D2",
            "midi": 38,
            "time": 62.50000000000001,
            "velocity": 0.7874015748031497,
            "duration": 0.3333333333333357
          },
          {
            "name": "D1",
            "midi": 26,
            "time": 62.75000000000001,
            "velocity": 0.7874015748031497,
            "duration": 0.2500000000000071
          },
          {
            "name": "D4",
            "midi": 62,
            "time": 62.75000000000001,
            "velocity": 0.7874015748031497,
            "duration": 0.4000000000000128
          },
          {
            "name": "D2",
            "midi": 38,
            "time": 62.75000000000001,
            "velocity": 0.7874015748031497,
            "duration": 0.2500000000000071
          },
          {
            "name": "D3",
            "midi": 50,
            "time": 62.75000000000001,
            "velocity": 0.7874015748031497,
            "duration": 0.8500000000000156
          },
          {
            "name": "C2",
            "midi": 36,
            "time": 62.75000000000001,
            "velocity": 0.7716535433070866,
            "duration": 0.0625
          },
          {
            "name": "F4",
            "midi": 65,
            "time": 62.800000000000004,
            "velocity": 0.7874015748031497,
            "duration": 0.2500000000000142
          },
          {
            "name": "C1",
            "midi": 24,
            "time": 63.000000000000014,
            "velocity": 0.7874015748031497,
            "duration": 0.2500000000000071
          },
          {
            "name": "C2",
            "midi": 36,
            "time": 63.000000000000014,
            "velocity": 0.7874015748031497,
            "duration": 0.0625000000000071
          },
          {
            "name": "D5",
            "midi": 74,
            "time": 63.000000000000014,
            "velocity": 0.7874015748031497,
            "duration": 0.2500000000000071
          },
          {
            "name": "C2",
            "midi": 36,
            "time": 63.000000000000014,
            "velocity": 0.7874015748031497,
            "duration": 0.08333333333334281
          },
          {
            "name": "C3",
            "midi": 48,
            "time": 63.000000000000014,
            "velocity": 0.7874015748031497,
            "duration": 0.0625000000000071
          },
          {
            "name": "G#2",
            "midi": 44,
            "time": 63.000000000000014,
            "velocity": 0.6771653543307087,
            "duration": 0.1250000000000071
          },
          {
            "name": "C2",
            "midi": 36,
            "time": 63.000000000000014,
            "velocity": 0.7716535433070866,
            "duration": 0.3333333333333428
          },
          {
            "name": "G4",
            "midi": 67,
            "time": 63.004166666666684,
            "velocity": 0.7874015748031497,
            "duration": 0.4000000000000057
          },
          {
            "name": "E4",
            "midi": 64,
            "time": 63.004166666666684,
            "velocity": 0.7874015748031497,
            "duration": 0.4000000000000057
          },
          {
            "name": "C1",
            "midi": 24,
            "time": 63.25000000000002,
            "velocity": 0.7874015748031497,
            "duration": 0.25
          },
          {
            "name": "C4",
            "midi": 60,
            "time": 63.25000000000002,
            "velocity": 0.7874015748031497,
            "duration": 0.3999999999999986
          },
          {
            "name": "E5",
            "midi": 76,
            "time": 63.25000000000002,
            "velocity": 0.7874015748031497,
            "duration": 0.25
          },
          {
            "name": "C2",
            "midi": 36,
            "time": 63.25000000000002,
            "velocity": 0.7874015748031497,
            "duration": 0.3333333333333357
          },
          {
            "name": "C3",
            "midi": 48,
            "time": 63.25000000000002,
            "velocity": 0.7874015748031497,
            "duration": 0.0625
          },
          {
            "name": "C1",
            "midi": 24,
            "time": 63.50000000000002,
            "velocity": 0.7874015748031497,
            "duration": 0.25
          },
          {
            "name": "E4",
            "midi": 64,
            "time": 63.50000000000002,
            "velocity": 0.7874015748031497,
            "duration": 0.4000000000000057
          },
          {
            "name": "G4",
            "midi": 67,
            "time": 63.50000000000002,
            "velocity": 0.7874015748031497,
            "duration": 0.4000000000000057
          },
          {
            "name": "C2",
            "midi": 36,
            "time": 63.50000000000002,
            "velocity": 0.7874015748031497,
            "duration": 0.3333333333333357
          },
          {
            "name": "C3",
            "midi": 48,
            "time": 63.50000000000002,
            "velocity": 0.7874015748031497,
            "duration": 0.0625
          },
          {
            "name": "C3",
            "midi": 48,
            "time": 63.50000000000002,
            "velocity": 0.7874015748031497,
            "duration": 0.3125
          },
          {
            "name": "G#2",
            "midi": 44,
            "time": 63.50000000000002,
            "velocity": 0.6771653543307087,
            "duration": 0.125
          },
          {
            "name": "D2",
            "midi": 38,
            "time": 63.50000000000002,
            "velocity": 0.7874015748031497,
            "duration": 0.125
          },
          {
            "name": "C1",
            "midi": 24,
            "time": 63.75000000000002,
            "velocity": 0.7874015748031497,
            "duration": 0.2500000000000071
          },
          {
            "name": "C4",
            "midi": 60,
            "time": 63.75000000000002,
            "velocity": 0.7874015748031497,
            "duration": 0.4000000000000128
          },
          {
            "name": "C2",
            "midi": 36,
            "time": 63.75000000000002,
            "velocity": 0.7874015748031497,
            "duration": 0.2500000000000071
          },
          {
            "name": "C3",
            "midi": 48,
            "time": 63.75000000000002,
            "velocity": 0.7874015748031497,
            "duration": 0.2500000000000071
          },
          {
            "name": "A4",
            "midi": 69,
            "time": 63.80000000000002,
            "velocity": 0.7874015748031497,
            "duration": 0.2500000000000071
          },
          {
            "name": "G1",
            "midi": 31,
            "time": 64.00000000000003,
            "velocity": 0.7874015748031497,
            "duration": 0.25
          },
          {
            "name": "G2",
            "midi": 43,
            "time": 64.00000000000003,
            "velocity": 0.7874015748031497,
            "duration": 0.0625
          },
          {
            "name": "G2",
            "midi": 43,
            "time": 64.00000000000003,
            "velocity": 0.7874015748031497,
            "duration": 0.3125
          },
          {
            "name": "G3",
            "midi": 55,
            "time": 64.00000000000003,
            "velocity": 0.7874015748031497,
            "duration": 0.0625
          },
          {
            "name": "G3",
            "midi": 55,
            "time": 64.00000000000003,
            "velocity": 0.7874015748031497,
            "duration": 0.3125
          },
          {
            "name": "G#2",
            "midi": 44,
            "time": 64.00000000000003,
            "velocity": 0.6771653543307087,
            "duration": 0.125
          },
          {
            "name": "C2",
            "midi": 36,
            "time": 64.00000000000003,
            "velocity": 0.7716535433070866,
            "duration": 0.0625
          },
          {
            "name": "A#4",
            "midi": 70,
            "time": 64.00416666666669,
            "velocity": 0.7874015748031497,
            "duration": 0.4000000000000057
          },
          {
            "name": "G4",
            "midi": 67,
            "time": 64.00416666666669,
            "velocity": 0.7874015748031497,
            "duration": 0.4000000000000057
          },
          {
            "name": "G1",
            "midi": 31,
            "time": 64.25000000000003,
            "velocity": 0.7874015748031497,
            "duration": 0.25
          },
          {
            "name": "D4",
            "midi": 62,
            "time": 64.25000000000003,
            "velocity": 0.7874015748031497,
            "duration": 0.4000000000000057
          },
          {
            "name": "G2",
            "midi": 43,
            "time": 64.25000000000003,
            "velocity": 0.7874015748031497,
            "duration": 0.3125
          },
          {
            "name": "G3",
            "midi": 55,
            "time": 64.25000000000003,
            "velocity": 0.7874015748031497,
            "duration": 0.3125
          },
          {
            "name": "G1",
            "midi": 31,
            "time": 64.50000000000003,
            "velocity": 0.7874015748031497,
            "duration": 0.25
          },
          {
            "name": "G4",
            "midi": 67,
            "time": 64.50000000000003,
            "velocity": 0.7874015748031497,
            "duration": 0.4000000000000057
          },
          {
            "name": "A#4",
            "midi": 70,
            "time": 64.50000000000003,
            "velocity": 0.7874015748031497,
            "duration": 0.4000000000000057
          },
          {
            "name": "G2",
            "midi": 43,
            "time": 64.50000000000003,
            "velocity": 0.7874015748031497,
            "duration": 0.3125
          },
          {
            "name": "G3",
            "midi": 55,
            "time": 64.50000000000003,
            "velocity": 0.7874015748031497,
            "duration": 0.3125
          },
          {
            "name": "D2",
            "midi": 38,
            "time": 64.50000000000003,
            "velocity": 0.7874015748031497,
            "duration": 0.125
          },
          {
            "name": "G#2",
            "midi": 44,
            "time": 64.50000000000003,
            "velocity": 0.6771653543307087,
            "duration": 0.125
          },
          {
            "name": "G1",
            "midi": 31,
            "time": 64.75000000000003,
            "velocity": 0.7874015748031497,
            "duration": 0.25
          },
          {
            "name": "D4",
            "midi": 62,
            "time": 64.75000000000003,
            "velocity": 0.7874015748031497,
            "duration": 0.4000000000000057
          },
          {
            "name": "G2",
            "midi": 43,
            "time": 64.75000000000003,
            "velocity": 0.7874015748031497,
            "duration": 0.3125
          },
          {
            "name": "G3",
            "midi": 55,
            "time": 64.75000000000003,
            "velocity": 0.7874015748031497,
            "duration": 0.3125
          },
          {
            "name": "C2",
            "midi": 36,
            "time": 64.75000000000003,
            "velocity": 0.7716535433070866,
            "duration": 0.0625
          },
          {
            "name": "G1",
            "midi": 31,
            "time": 65.00000000000003,
            "velocity": 0.7874015748031497,
            "duration": 0.25
          },
          {
            "name": "A#4",
            "midi": 70,
            "time": 65.00000000000003,
            "velocity": 0.7874015748031497,
            "duration": 0.25
          },
          {
            "name": "G2",
            "midi": 43,
            "time": 65.00000000000003,
            "velocity": 0.7874015748031497,
            "duration": 0.3125
          },
          {
            "name": "G3",
            "midi": 55,
            "time": 65.00000000000003,
            "velocity": 0.7874015748031497,
            "duration": 0.3125
          },
          {
            "name": "G#2",
            "midi": 44,
            "time": 65.00000000000003,
            "velocity": 0.6771653543307087,
            "duration": 0.125
          },
          {
            "name": "C2",
            "midi": 36,
            "time": 65.00000000000003,
            "velocity": 0.7716535433070866,
            "duration": 0.0625
          },
          {
            "name": "A#4",
            "midi": 70,
            "time": 65.00416666666669,
            "velocity": 0.7874015748031497,
            "duration": 0.4000000000000057
          },
          {
            "name": "G4",
            "midi": 67,
            "time": 65.00416666666669,
            "velocity": 0.7874015748031497,
            "duration": 0.4000000000000057
          },
          {
            "name": "G1",
            "midi": 31,
            "time": 65.25000000000003,
            "velocity": 0.7874015748031497,
            "duration": 0.25
          },
          {
            "name": "D4",
            "midi": 62,
            "time": 65.25000000000003,
            "velocity": 0.7874015748031497,
            "duration": 0.4000000000000057
          },
          {
            "name": "A4",
            "midi": 69,
            "time": 65.25000000000003,
            "velocity": 0.7874015748031497,
            "duration": 0.25
          },
          {
            "name": "G2",
            "midi": 43,
            "time": 65.25000000000003,
            "velocity": 0.7874015748031497,
            "duration": 0.3125
          },
          {
            "name": "G3",
            "midi": 55,
            "time": 65.25000000000003,
            "velocity": 0.7874015748031497,
            "duration": 0.3125
          },
          {
            "name": "G1",
            "midi": 31,
            "time": 65.50000000000003,
            "velocity": 0.7874015748031497,
            "duration": 0.25
          },
          {
            "name": "A#4",
            "midi": 70,
            "time": 65.50000000000003,
            "velocity": 0.7874015748031497,
            "duration": 0.4000000000000057
          },
          {
            "name": "G4",
            "midi": 67,
            "time": 65.50000000000003,
            "velocity": 0.7874015748031497,
            "duration": 0.25
          },
          {
            "name": "G4",
            "midi": 67,
            "time": 65.50000000000003,
            "velocity": 0.7874015748031497,
            "duration": 0.4000000000000057
          },
          {
            "name": "G2",
            "midi": 43,
            "time": 65.50000000000003,
            "velocity": 0.7874015748031497,
            "duration": 0.3125
          },
          {
            "name": "G3",
            "midi": 55,
            "time": 65.50000000000003,
            "velocity": 0.7874015748031497,
            "duration": 0.3125
          },
          {
            "name": "D2",
            "midi": 38,
            "time": 65.50000000000003,
            "velocity": 0.7874015748031497,
            "duration": 0.125
          },
          {
            "name": "G#2",
            "midi": 44,
            "time": 65.50000000000003,
            "velocity": 0.6771653543307087,
            "duration": 0.125
          },
          {
            "name": "F#3",
            "midi": 54,
            "time": 65.60000000000002,
            "velocity": 0.7874015748031497,
            "duration": 0.5
          },
          {
            "name": "G1",
            "midi": 31,
            "time": 65.75000000000003,
            "velocity": 0.7874015748031497,
            "duration": 0.25
          },
          {
            "name": "D4",
            "midi": 62,
            "time": 65.75000000000003,
            "velocity": 0.7874015748031497,
            "duration": 0.4000000000000057
          },
          {
            "name": "G2",
            "midi": 43,
            "time": 65.75000000000003,
            "velocity": 0.7874015748031497,
            "duration": 0.25
          },
          {
            "name": "G3",
            "midi": 55,
            "time": 65.75000000000003,
            "velocity": 0.7874015748031497,
            "duration": 0.25
          },
          {
            "name": "F4",
            "midi": 65,
            "time": 65.80000000000003,
            "velocity": 0.7874015748031497,
            "duration": 0.25
          },
          {
            "name": "F1",
            "midi": 29,
            "time": 66.00000000000003,
            "velocity": 0.7874015748031497,
            "duration": 0.25
          },
          {
            "name": "F2",
            "midi": 41,
            "time": 66.00000000000003,
            "velocity": 0.7874015748031497,
            "duration": 0.0625
          },
          {
            "name": "A4",
            "midi": 69,
            "time": 66.00000000000003,
            "velocity": 0.7874015748031497,
            "duration": 0.25
          },
          {
            "name": "F2",
            "midi": 41,
            "time": 66.00000000000003,
            "velocity": 0.7874015748031497,
            "duration": 0.3125
          },
          {
            "name": "F3",
            "midi": 53,
            "time": 66.00000000000003,
            "velocity": 0.7874015748031497,
            "duration": 0.0625
          },
          {
            "name": "F3",
            "midi": 53,
            "time": 66.00000000000003,
            "velocity": 0.7874015748031497,
            "duration": 0.3125
          },
          {
            "name": "G#2",
            "midi": 44,
            "time": 66.00000000000003,
            "velocity": 0.6771653543307087,
            "duration": 0.125
          },
          {
            "name": "C2",
            "midi": 36,
            "time": 66.00000000000003,
            "velocity": 0.7716535433070866,
            "duration": 0.0625
          },
          {
            "name": "F4",
            "midi": 65,
            "time": 66.00416666666669,
            "velocity": 0.7874015748031497,
            "duration": 0.4000000000000057
          },
          {
            "name": "A4",
            "midi": 69,
            "time": 66.00416666666669,
            "velocity": 0.7874015748031497,
            "duration": 0.4000000000000057
          },
          {
            "name": "F1",
            "midi": 29,
            "time": 66.25000000000003,
            "velocity": 0.7874015748031497,
            "duration": 0.25
          },
          {
            "name": "C4",
            "midi": 60,
            "time": 66.25000000000003,
            "velocity": 0.7874015748031497,
            "duration": 0.4000000000000057
          },
          {
            "name": "F2",
            "midi": 41,
            "time": 66.25000000000003,
            "velocity": 0.7874015748031497,
            "duration": 0.3125
          },
          {
            "name": "F3",
            "midi": 53,
            "time": 66.25000000000003,
            "velocity": 0.7874015748031497,
            "duration": 0.3125
          },
          {
            "name": "F1",
            "midi": 29,
            "time": 66.50000000000003,
            "velocity": 0.7874015748031497,
            "duration": 0.25
          },
          {
            "name": "A4",
            "midi": 69,
            "time": 66.50000000000003,
            "velocity": 0.7874015748031497,
            "duration": 0.4000000000000057
          },
          {
            "name": "F4",
            "midi": 65,
            "time": 66.50000000000003,
            "velocity": 0.7874015748031497,
            "duration": 0.4000000000000057
          },
          {
            "name": "F2",
            "midi": 41,
            "time": 66.50000000000003,
            "velocity": 0.7874015748031497,
            "duration": 0.3125
          },
          {
            "name": "F3",
            "midi": 53,
            "time": 66.50000000000003,
            "velocity": 0.7874015748031497,
            "duration": 0.3125
          },
          {
            "name": "D2",
            "midi": 38,
            "time": 66.50000000000003,
            "velocity": 0.7874015748031497,
            "duration": 0.125
          },
          {
            "name": "G#2",
            "midi": 44,
            "time": 66.50000000000003,
            "velocity": 0.6771653543307087,
            "duration": 0.125
          },
          {
            "name": "F1",
            "midi": 29,
            "time": 66.75000000000003,
            "velocity": 0.7874015748031497,
            "duration": 0.2500000000000142
          },
          {
            "name": "C4",
            "midi": 60,
            "time": 66.75000000000003,
            "velocity": 0.7874015748031497,
            "duration": 0.4000000000000199
          },
          {
            "name": "F2",
            "midi": 41,
            "time": 66.75000000000003,
            "velocity": 0.7874015748031497,
            "duration": 0.22083333333334565
          },
          {
            "name": "F3",
            "midi": 53,
            "time": 66.75000000000003,
            "velocity": 0.7874015748031497,
            "duration": 0.2500000000000142
          },
          {
            "name": "C2",
            "midi": 36,
            "time": 66.75000000000003,
            "velocity": 0.7716535433070866,
            "duration": 0.0625
          },
          {
            "name": "A4",
            "midi": 69,
            "time": 66.80000000000003,
            "velocity": 0.7874015748031497,
            "duration": 0.2500000000000142
          },
          {
            "name": "G1",
            "midi": 31,
            "time": 66.97500000000004,
            "velocity": 0.6299212598425197,
            "duration": 0.0625
          },
          {
            "name": "C1",
            "midi": 24,
            "time": 67.00000000000004,
            "velocity": 0.7874015748031497,
            "duration": 0.25
          },
          {
            "name": "C2",
            "midi": 36,
            "time": 67.00000000000004,
            "velocity": 0.7874015748031497,
            "duration": 0.0625
          },
          {
            "name": "G4",
            "midi": 67,
            "time": 67.00000000000004,
            "velocity": 0.7874015748031497,
            "duration": 0.25
          },
          {
            "name": "C2",
            "midi": 36,
            "time": 67.00000000000004,
            "velocity": 0.7874015748031497,
            "duration": 0.0833333333333286
          },
          {
            "name": "C3",
            "midi": 48,
            "time": 67.00000000000004,
            "velocity": 0.7874015748031497,
            "duration": 0.0625
          },
          {
            "name": "C3",
            "midi": 48,
            "time": 67.00000000000004,
            "velocity": 0.7874015748031497,
            "duration": 0.3125
          },
          {
            "name": "C2",
            "midi": 36,
            "time": 67.00000000000004,
            "velocity": 0.7716535433070866,
            "duration": 0.25
          },
          {
            "name": "G#2",
            "midi": 44,
            "time": 67.00000000000004,
            "velocity": 0.6771653543307087,
            "duration": 0.125
          },
          {
            "name": "G4",
            "midi": 67,
            "time": 67.0041666666667,
            "velocity": 0.7874015748031497,
            "duration": 0.4000000000000057
          },
          {
            "name": "E4",
            "midi": 64,
            "time": 67.0041666666667,
            "velocity": 0.7874015748031497,
            "duration": 0.4000000000000057
          },
          {
            "name": "C1",
            "midi": 24,
            "time": 67.25000000000004,
            "velocity": 0.7874015748031497,
            "duration": 0.25
          },
          {
            "name": "C4",
            "midi": 60,
            "time": 67.25000000000004,
            "velocity": 0.7874015748031497,
            "duration": 0.4000000000000057
          },
          {
            "name": "G1",
            "midi": 31,
            "time": 67.25000000000004,
            "velocity": 0.6299212598425197,
            "duration": 0.25
          },
          {
            "name": "C2",
            "midi": 36,
            "time": 67.25000000000004,
            "velocity": 0.7874015748031497,
            "duration": 0.0833333333333286
          },
          {
            "name": "C3",
            "midi": 48,
            "time": 67.25000000000004,
            "velocity": 0.7874015748031497,
            "duration": 0.75
          },
          {
            "name": "G#2",
            "midi": 44,
            "time": 67.25000000000004,
            "velocity": 0.6771653543307087,
            "duration": 0.125
          },
          {
            "name": "C1",
            "midi": 24,
            "time": 67.50000000000004,
            "velocity": 0.7874015748031497,
            "duration": 0.25
          },
          {
            "name": "E4",
            "midi": 64,
            "time": 67.50000000000004,
            "velocity": 0.7874015748031497,
            "duration": 0.4000000000000057
          },
          {
            "name": "G4",
            "midi": 67,
            "time": 67.50000000000004,
            "velocity": 0.7874015748031497,
            "duration": 0.4000000000000057
          },
          {
            "name": "C2",
            "midi": 36,
            "time": 67.50000000000004,
            "velocity": 0.7874015748031497,
            "duration": 0.5
          },
          {
            "name": "A4",
            "midi": 69,
            "time": 67.50000000000004,
            "velocity": 0.7874015748031497,
            "duration": 0.25
          },
          {
            "name": "G#2",
            "midi": 44,
            "time": 67.50000000000004,
            "velocity": 0.6771653543307087,
            "duration": 0.125
          },
          {
            "name": "D2",
            "midi": 38,
            "time": 67.50000000000004,
            "velocity": 0.7874015748031497,
            "duration": 0.125
          },
          {
            "name": "F#3",
            "midi": 54,
            "time": 67.60000000000004,
            "velocity": 0.7874015748031497,
            "duration": 0.5
          },
          {
            "name": "C1",
            "midi": 24,
            "time": 67.75000000000004,
            "velocity": 0.7874015748031497,
            "duration": 0.25
          },
          {
            "name": "C4",
            "midi": 60,
            "time": 67.75000000000004,
            "velocity": 0.7874015748031497,
            "duration": 0.4000000000000057
          },
          {
            "name": "A#4",
            "midi": 70,
            "time": 67.75000000000004,
            "velocity": 0.7874015748031497,
            "duration": 0.25
          },
          {
            "name": "D2",
            "midi": 38,
            "time": 67.75000000000004,
            "velocity": 0.7874015748031497,
            "duration": 0.125
          },
          {
            "name": "D2",
            "midi": 38,
            "time": 67.87500000000004,
            "velocity": 0.7874015748031497,
            "duration": 0.125
          },
          {
            "name": "E1",
            "midi": 28,
            "time": 68.00000000000004,
            "velocity": 0.7874015748031497,
            "duration": 0.2500000000000142
          },
          {
            "name": "C5",
            "midi": 72,
            "time": 68.00000000000004,
            "velocity": 0.8031496062992126,
            "duration": 0.2500000000000142
          },
          {
            "name": "C2",
            "midi": 36,
            "time": 68.00000000000004,
            "velocity": 0.47244094488188976,
            "duration": 0.0625
          },
          {
            "name": "C5",
            "midi": 72,
            "time": 68.00000000000004,
            "velocity": 0.7874015748031497,
            "duration": 0.2500000000000142
          },
          {
            "name": "E3",
            "midi": 52,
            "time": 68.00000000000004,
            "velocity": 0.7874015748031497,
            "duration": 1.8000000000000256
          },
          {
            "name": "C3",
            "midi": 48,
            "time": 68.00000000000004,
            "velocity": 0.6535433070866141,
            "duration": 1.40000000000002
          },
          {
            "name": "G3",
            "midi": 55,
            "time": 68.00000000000004,
            "velocity": 0.7874015748031497,
            "duration": 2.0000000000000426
          },
          {
            "name": "G#2",
            "midi": 44,
            "time": 68.00000000000004,
            "velocity": 0.6771653543307087,
            "duration": 0.125
          },
          {
            "name": "C#3",
            "midi": 49,
            "time": 68.00000000000004,
            "velocity": 0.7874015748031497,
            "duration": 0.0625
          },
          {
            "name": "C2",
            "midi": 36,
            "time": 68.00000000000004,
            "velocity": 0.7716535433070866,
            "duration": 0.8125000000000142
          },
          {
            "name": "C4",
            "midi": 60,
            "time": 68.08333333333337,
            "velocity": 0.7874015748031497,
            "duration": 0.2500000000000142
          },
          {
            "name": "E4",
            "midi": 64,
            "time": 68.20833333333339,
            "velocity": 0.7874015748031497,
            "duration": 0.25
          },
          {
            "name": "E1",
            "midi": 28,
            "time": 68.25000000000006,
            "velocity": 0.7874015748031497,
            "duration": 0.25
          },
          {
            "name": "G#2",
            "midi": 44,
            "time": 68.25000000000006,
            "velocity": 0.6771653543307087,
            "duration": 0.125
          },
          {
            "name": "G4",
            "midi": 67,
            "time": 68.33333333333339,
            "velocity": 0.7874015748031497,
            "duration": 0.25
          },
          {
            "name": "E1",
            "midi": 28,
            "time": 68.50000000000006,
            "velocity": 0.7874015748031497,
            "duration": 0.25
          },
          {
            "name": "C5",
            "midi": 72,
            "time": 68.50000000000006,
            "velocity": 0.8031496062992126,
            "duration": 0.25
          },
          {
            "name": "C5",
            "midi": 72,
            "time": 68.50000000000006,
            "velocity": 0.7874015748031497,
            "duration": 0.25
          },
          {
            "name": "G#2",
            "midi": 44,
            "time": 68.50000000000006,
            "velocity": 0.6771653543307087,
            "duration": 0.125
          },
          {
            "name": "D2",
            "midi": 38,
            "time": 68.50000000000006,
            "velocity": 0.7874015748031497,
            "duration": 0.125
          },
          {
            "name": "C4",
            "midi": 60,
            "time": 68.58333333333339,
            "velocity": 0.7874015748031497,
            "duration": 0.25
          },
          {
            "name": "E4",
            "midi": 64,
            "time": 68.70833333333339,
            "velocity": 0.7874015748031497,
            "duration": 0.25
          },
          {
            "name": "E1",
            "midi": 28,
            "time": 68.75000000000006,
            "velocity": 0.7874015748031497,
            "duration": 0.25
          },
          {
            "name": "C5",
            "midi": 72,
            "time": 68.75000000000006,
            "velocity": 0.7874015748031497,
            "duration": 0.25
          },
          {
            "name": "C2",
            "midi": 36,
            "time": 68.75000000000006,
            "velocity": 0.7716535433070866,
            "duration": 0.3125
          },
          {
            "name": "G#2",
            "midi": 44,
            "time": 68.75000000000006,
            "velocity": 0.6771653543307087,
            "duration": 0.125
          },
          {
            "name": "G4",
            "midi": 67,
            "time": 68.83333333333339,
            "velocity": 0.7874015748031497,
            "duration": 0.25
          },
          {
            "name": "E1",
            "midi": 28,
            "time": 69.00000000000006,
            "velocity": 0.7874015748031497,
            "duration": 0.25
          },
          {
            "name": "C3",
            "midi": 48,
            "time": 69.00000000000006,
            "velocity": 0.7874015748031497,
            "duration": 0.9000000000000199
          },
          {
            "name": "C5",
            "midi": 72,
            "time": 69.00000000000006,
            "velocity": 0.8031496062992126,
            "duration": 0.25
          },
          {
            "name": "C5",
            "midi": 72,
            "time": 69.00000000000006,
            "velocity": 0.7874015748031497,
            "duration": 0.25
          },
          {
            "name": "C2",
            "midi": 36,
            "time": 69.00000000000006,
            "velocity": 0.7716535433070866,
            "duration": 0.3125
          },
          {
            "name": "G#2",
            "midi": 44,
            "time": 69.00000000000006,
            "velocity": 0.6771653543307087,
            "duration": 0.125
          },
          {
            "name": "C4",
            "midi": 60,
            "time": 69.08333333333339,
            "velocity": 0.47244094488188976,
            "duration": 0.4000000000000199
          },
          {
            "name": "E4",
            "midi": 64,
            "time": 69.20833333333339,
            "velocity": 0.7874015748031497,
            "duration": 0.2500000000000142
          },
          {
            "name": "E1",
            "midi": 28,
            "time": 69.25000000000006,
            "velocity": 0.7874015748031497,
            "duration": 0.2500000000000142
          },
          {
            "name": "A#4",
            "midi": 70,
            "time": 69.25000000000006,
            "velocity": 0.7874015748031497,
            "duration": 0.2500000000000142
          },
          {
            "name": "C2",
            "midi": 36,
            "time": 69.25000000000006,
            "velocity": 0.5511811023622047,
            "duration": 0.7500000000000284
          },
          {
            "name": "G#2",
            "midi": 44,
            "time": 69.25000000000006,
            "velocity": 0.6771653543307087,
            "duration": 0.125
          },
          {
            "name": "G4",
            "midi": 67,
            "time": 69.33333333333339,
            "velocity": 0.7874015748031497,
            "duration": 0.2500000000000142
          },
          {
            "name": "E1",
            "midi": 28,
            "time": 69.50000000000007,
            "velocity": 0.7874015748031497,
            "duration": 0.25
          },
          {
            "name": "C3",
            "midi": 48,
            "time": 69.50000000000007,
            "velocity": 0.7874015748031497,
            "duration": 2.500000000000014
          },
          {
            "name": "C5",
            "midi": 72,
            "time": 69.50000000000007,
            "velocity": 0.8031496062992126,
            "duration": 0.25
          },
          {
            "name": "A4",
            "midi": 69,
            "time": 69.50000000000007,
            "velocity": 0.7874015748031497,
            "duration": 0.25
          },
          {
            "name": "D2",
            "midi": 38,
            "time": 69.50000000000007,
            "velocity": 0.7874015748031497,
            "duration": 0.125
          },
          {
            "name": "G#2",
            "midi": 44,
            "time": 69.50000000000007,
            "velocity": 0.6771653543307087,
            "duration": 0.125
          },
          {
            "name": "C4",
            "midi": 60,
            "time": 69.5833333333334,
            "velocity": 0.47244094488188976,
            "duration": 0.4000000000000199
          },
          {
            "name": "E4",
            "midi": 64,
            "time": 69.7083333333334,
            "velocity": 0.7874015748031497,
            "duration": 0.2500000000000142
          },
          {
            "name": "E1",
            "midi": 28,
            "time": 69.75000000000007,
            "velocity": 0.7874015748031497,
            "duration": 0.2500000000000142
          },
          {
            "name": "C5",
            "midi": 72,
            "time": 69.75000000000007,
            "velocity": 0.7874015748031497,
            "duration": 0.2500000000000142
          },
          {
            "name": "G#2",
            "midi": 44,
            "time": 69.75000000000007,
            "velocity": 0.6771653543307087,
            "duration": 0.125
          },
          {
            "name": "G4",
            "midi": 67,
            "time": 69.8333333333334,
            "velocity": 0.7874015748031497,
            "duration": 0.2500000000000142
          },
          {
            "name": "E3",
            "midi": 52,
            "time": 69.95833333333341,
            "velocity": 0.7874015748031497,
            "duration": 0.0625
          },
          {
            "name": "D#1",
            "midi": 27,
            "time": 70.00000000000009,
            "velocity": 0.7874015748031497,
            "duration": 0.25
          },
          {
            "name": "C5",
            "midi": 72,
            "time": 70.00000000000009,
            "velocity": 0.8031496062992126,
            "duration": 0.25
          },
          {
            "name": "D#2",
            "midi": 39,
            "time": 70.00000000000009,
            "velocity": 0.7874015748031497,
            "duration": 2
          },
          {
            "name": "D#3",
            "midi": 51,
            "time": 70.00000000000009,
            "velocity": 0.7874015748031497,
            "duration": 1.7999999999999972
          },
          {
            "name": "C4",
            "midi": 60,
            "time": 70.00000000000009,
            "velocity": 0.7874015748031497,
            "duration": 0.3333333333333286
          },
          {
            "name": "C2",
            "midi": 36,
            "time": 70.00000000000009,
            "velocity": 0.7716535433070866,
            "duration": 0.0625
          },
          {
            "name": "G#2",
            "midi": 44,
            "time": 70.00000000000009,
            "velocity": 0.6771653543307087,
            "duration": 0.125
          },
          {
            "name": "C4",
            "midi": 60,
            "time": 70.08333333333341,
            "velocity": 0.7874015748031497,
            "duration": 0.75
          },
          {
            "name": "D#4",
            "midi": 63,
            "time": 70.20833333333341,
            "velocity": 0.7874015748031497,
            "duration": 0.25
          },
          {
            "name": "D#1",
            "midi": 27,
            "time": 70.25000000000009,
            "velocity": 0.7874015748031497,
            "duration": 0.25
          },
          {
            "name": "G#2",
            "midi": 44,
            "time": 70.25000000000009,
            "velocity": 0.6771653543307087,
            "duration": 0.125
          },
          {
            "name": "G4",
            "midi": 67,
            "time": 70.33333333333341,
            "velocity": 0.7874015748031497,
            "duration": 0.25
          },
          {
            "name": "D#1",
            "midi": 27,
            "time": 70.50000000000009,
            "velocity": 0.7874015748031497,
            "duration": 0.25
          },
          {
            "name": "C5",
            "midi": 72,
            "time": 70.50000000000009,
            "velocity": 0.8031496062992126,
            "duration": 0.25
          },
          {
            "name": "D2",
            "midi": 38,
            "time": 70.50000000000009,
            "velocity": 0.7874015748031497,
            "duration": 0.125
          },
          {
            "name": "G#2",
            "midi": 44,
            "time": 70.50000000000009,
            "velocity": 0.6771653543307087,
            "duration": 0.125
          },
          {
            "name": "C4",
            "midi": 60,
            "time": 70.58333333333341,
            "velocity": 0.7874015748031497,
            "duration": 0.75
          },
          {
            "name": "D#4",
            "midi": 63,
            "time": 70.70833333333341,
            "velocity": 0.7874015748031497,
            "duration": 0.25
          },
          {
            "name": "D#1",
            "midi": 27,
            "time": 70.75000000000009,
            "velocity": 0.7874015748031497,
            "duration": 0.25
          },
          {
            "name": "G#2",
            "midi": 44,
            "time": 70.75000000000009,
            "velocity": 0.6771653543307087,
            "duration": 0.125
          },
          {
            "name": "C2",
            "midi": 36,
            "time": 70.75000000000009,
            "velocity": 0.7716535433070866,
            "duration": 0.0625
          },
          {
            "name": "G4",
            "midi": 67,
            "time": 70.83333333333341,
            "velocity": 0.7874015748031497,
            "duration": 0.25
          },
          {
            "name": "D#1",
            "midi": 27,
            "time": 71.00000000000009,
            "velocity": 0.7874015748031497,
            "duration": 0.25
          },
          {
            "name": "D#3",
            "midi": 51,
            "time": 71.00000000000009,
            "velocity": 0.47244094488188976,
            "duration": 1
          },
          {
            "name": "C5",
            "midi": 72,
            "time": 71.00000000000009,
            "velocity": 0.8031496062992126,
            "duration": 0.25
          },
          {
            "name": "C2",
            "midi": 36,
            "time": 71.00000000000009,
            "velocity": 0.7716535433070866,
            "duration": 0.0625
          },
          {
            "name": "G#2",
            "midi": 44,
            "time": 71.00000000000009,
            "velocity": 0.6771653543307087,
            "duration": 0.125
          },
          {
            "name": "C4",
            "midi": 60,
            "time": 71.08333333333341,
            "velocity": 0.47244094488188976,
            "duration": 0.75
          },
          {
            "name": "D#4",
            "midi": 63,
            "time": 71.20833333333341,
            "velocity": 0.7874015748031497,
            "duration": 0.25
          },
          {
            "name": "D#1",
            "midi": 27,
            "time": 71.25000000000009,
            "velocity": 0.7874015748031497,
            "duration": 0.25
          },
          {
            "name": "G#2",
            "midi": 44,
            "time": 71.25000000000009,
            "velocity": 0.6771653543307087,
            "duration": 0.125
          },
          {
            "name": "C2",
            "midi": 36,
            "time": 71.25000000000009,
            "velocity": 0.5511811023622047,
            "duration": 0.0625
          },
          {
            "name": "G4",
            "midi": 67,
            "time": 71.33333333333341,
            "velocity": 0.7874015748031497,
            "duration": 0.25
          },
          {
            "name": "D#1",
            "midi": 27,
            "time": 71.50000000000009,
            "velocity": 0.7874015748031497,
            "duration": 0.25
          },
          {
            "name": "C5",
            "midi": 72,
            "time": 71.50000000000009,
            "velocity": 0.8031496062992126,
            "duration": 0.25
          },
          {
            "name": "G#2",
            "midi": 44,
            "time": 71.50000000000009,
            "velocity": 0.6771653543307087,
            "duration": 0.125
          },
          {
            "name": "D2",
            "midi": 38,
            "time": 71.50000000000009,
            "velocity": 0.7874015748031497,
            "duration": 0.125
          },
          {
            "name": "C4",
            "midi": 60,
            "time": 71.58333333333341,
            "velocity": 0.47244094488188976,
            "duration": 0.4166666666666714
          },
          {
            "name": "D#4",
            "midi": 63,
            "time": 71.70833333333341,
            "velocity": 0.7874015748031497,
            "duration": 0.25
          },
          {
            "name": "D#1",
            "midi": 27,
            "time": 71.75000000000009,
            "velocity": 0.7874015748031497,
            "duration": 0.25
          },
          {
            "name": "C2",
            "midi": 36,
            "time": 71.75000000000009,
            "velocity": 0.7716535433070866,
            "duration": 0.0625
          },
          {
            "name": "G#2",
            "midi": 44,
            "time": 71.75000000000009,
            "velocity": 0.6771653543307087,
            "duration": 0.125
          },
          {
            "name": "G4",
            "midi": 67,
            "time": 71.83333333333341,
            "velocity": 0.7874015748031497,
            "duration": 0.25
          },
          {
            "name": "D#3",
            "midi": 51,
            "time": 71.95833333333341,
            "velocity": 0.7874015748031497,
            "duration": 0.0625
          },
          {
            "name": "D1",
            "midi": 26,
            "time": 72.00000000000009,
            "velocity": 0.7874015748031497,
            "duration": 0.25
          },
          {
            "name": "A#4",
            "midi": 70,
            "time": 72.00000000000009,
            "velocity": 0.8031496062992126,
            "duration": 0.25
          },
          {
            "name": "D2",
            "midi": 38,
            "time": 72.00000000000009,
            "velocity": 0.7874015748031497,
            "duration": 0.625
          },
          {
            "name": "D3",
            "midi": 50,
            "time": 72.00000000000009,
            "velocity": 0.7874015748031497,
            "duration": 1.7999999999999972
          },
          {
            "name": "A#2",
            "midi": 46,
            "time": 72.00000000000009,
            "velocity": 0.6535433070866141,
            "duration": 2
          },
          {
            "name": "A#3",
            "midi": 58,
            "time": 72.00000000000009,
            "velocity": 0.7874015748031497,
            "duration": 0.4583333333333286
          },
          {
            "name": "C2",
            "midi": 36,
            "time": 72.00000000000009,
            "velocity": 0.7716535433070866,
            "duration": 0.0625
          },
          {
            "name": "G#2",
            "midi": 44,
            "time": 72.00000000000009,
            "velocity": 0.6771653543307087,
            "duration": 0.125
          },
          {
            "name": "F3",
            "midi": 53,
            "time": 72.08333333333341,
            "velocity": 0.7874015748031497,
            "duration": 0.25
          },
          {
            "name": "A#3",
            "midi": 58,
            "time": 72.20833333333341,
            "velocity": 0.7874015748031497,
            "duration": 0.75
          },
          {
            "name": "D1",
            "midi": 26,
            "time": 72.25000000000009,
            "velocity": 0.7874015748031497,
            "duration": 0.25
          },
          {
            "name": "G#2",
            "midi": 44,
            "time": 72.25000000000009,
            "velocity": 0.6771653543307087,
            "duration": 0.125
          },
          {
            "name": "D4",
            "midi": 62,
            "time": 72.33333333333341,
            "velocity": 0.7874015748031497,
            "duration": 0.25
          },
          {
            "name": "D1",
            "midi": 26,
            "time": 72.50000000000009,
            "velocity": 0.7874015748031497,
            "duration": 0.25
          },
          {
            "name": "A#4",
            "midi": 70,
            "time": 72.50000000000009,
            "velocity": 0.8031496062992126,
            "duration": 0.25
          },
          {
            "name": "D2",
            "midi": 38,
            "time": 72.50000000000009,
            "velocity": 0.7874015748031497,
            "duration": 1.125
          },
          {
            "name": "G#2",
            "midi": 44,
            "time": 72.50000000000009,
            "velocity": 0.6771653543307087,
            "duration": 0.125
          },
          {
            "name": "F3",
            "midi": 53,
            "time": 72.58333333333341,
            "velocity": 0.7874015748031497,
            "duration": 0.25
          },
          {
            "name": "A#3",
            "midi": 58,
            "time": 72.70833333333341,
            "velocity": 0.7874015748031497,
            "duration": 0.75
          },
          {
            "name": "D1",
            "midi": 26,
            "time": 72.75000000000009,
            "velocity": 0.7874015748031497,
            "duration": 0.25
          },
          {
            "name": "G#2",
            "midi": 44,
            "time": 72.75000000000009,
            "velocity": 0.6771653543307087,
            "duration": 0.125
          },
          {
            "name": "C2",
            "midi": 36,
            "time": 72.75000000000009,
            "velocity": 0.7716535433070866,
            "duration": 0.0625
          },
          {
            "name": "D4",
            "midi": 62,
            "time": 72.83333333333341,
            "velocity": 0.7874015748031497,
            "duration": 0.25
          },
          {
            "name": "D1",
            "midi": 26,
            "time": 73.00000000000009,
            "velocity": 0.7874015748031497,
            "duration": 0.25
          },
          {
            "name": "A#4",
            "midi": 70,
            "time": 73.00000000000009,
            "velocity": 0.8031496062992126,
            "duration": 0.25
          },
          {
            "name": "A#4",
            "midi": 70,
            "time": 73.00000000000009,
            "velocity": 0.7874015748031497,
            "duration": 0.25
          },
          {
            "name": "G#2",
            "midi": 44,
            "time": 73.00000000000009,
            "velocity": 0.6771653543307087,
            "duration": 0.125
          },
          {
            "name": "C2",
            "midi": 36,
            "time": 73.00000000000009,
            "velocity": 0.7716535433070866,
            "duration": 0.0625
          },
          {
            "name": "F3",
            "midi": 53,
            "time": 73.08333333333341,
            "velocity": 0.47244094488188976,
            "duration": 0.25
          },
          {
            "name": "A#3",
            "midi": 58,
            "time": 73.20833333333341,
            "velocity": 0.7874015748031497,
            "duration": 0.75
          },
          {
            "name": "D1",
            "midi": 26,
            "time": 73.25000000000009,
            "velocity": 0.7874015748031497,
            "duration": 0.25
          },
          {
            "name": "C5",
            "midi": 72,
            "time": 73.25000000000009,
            "velocity": 0.7874015748031497,
            "duration": 0.25
          },
          {
            "name": "G#2",
            "midi": 44,
            "time": 73.25000000000009,
            "velocity": 0.6771653543307087,
            "duration": 0.125
          },
          {
            "name": "C2",
            "midi": 36,
            "time": 73.25000000000009,
            "velocity": 0.5511811023622047,
            "duration": 0.0625
          },
          {
            "name": "D4",
            "midi": 62,
            "time": 73.33333333333341,
            "velocity": 0.7874015748031497,
            "duration": 0.25
          },
          {
            "name": "D1",
            "midi": 26,
            "time": 73.50000000000009,
            "velocity": 0.7874015748031497,
            "duration": 0.25
          },
          {
            "name": "A#4",
            "midi": 70,
            "time": 73.50000000000009,
            "velocity": 0.8031496062992126,
            "duration": 0.25
          },
          {
            "name": "A#4",
            "midi": 70,
            "time": 73.50000000000009,
            "velocity": 0.7874015748031497,
            "duration": 0.25
          },
          {
            "name": "D2",
            "midi": 38,
            "time": 73.50000000000009,
            "velocity": 0.7874015748031497,
            "duration": 0.5
          },
          {
            "name": "G#2",
            "midi": 44,
            "time": 73.50000000000009,
            "velocity": 0.6771653543307087,
            "duration": 0.125
          },
          {
            "name": "F3",
            "midi": 53,
            "time": 73.58333333333341,
            "velocity": 0.47244094488188976,
            "duration": 0.25
          },
          {
            "name": "F#3",
            "midi": 54,
            "time": 73.60000000000008,
            "velocity": 0.7874015748031497,
            "duration": 0.5
          },
          {
            "name": "A#3",
            "midi": 58,
            "time": 73.70833333333341,
            "velocity": 0.7874015748031497,
            "duration": 0.2916666666666714
          },
          {
            "name": "D1",
            "midi": 26,
            "time": 73.75000000000009,
            "velocity": 0.7874015748031497,
            "duration": 0.25
          },
          {
            "name": "G#2",
            "midi": 44,
            "time": 73.75000000000009,
            "velocity": 0.6771653543307087,
            "duration": 0.125
          },
          {
            "name": "C#5",
            "midi": 73,
            "time": 73.80000000000008,
            "velocity": 0.7874015748031497,
            "duration": 0.25
          },
          {
            "name": "D4",
            "midi": 62,
            "time": 73.83333333333341,
            "velocity": 0.7874015748031497,
            "duration": 0.25
          },
          {
            "name": "D3",
            "midi": 50,
            "time": 73.95833333333341,
            "velocity": 0.7874015748031497,
            "duration": 0.0625
          },
          {
            "name": "C#1",
            "midi": 25,
            "time": 74.00000000000009,
            "velocity": 0.7874015748031497,
            "duration": 0.25
          },
          {
            "name": "A#4",
            "midi": 70,
            "time": 74.00000000000009,
            "velocity": 0.8031496062992126,
            "duration": 0.25
          },
          {
            "name": "C#2",
            "midi": 37,
            "time": 74.00000000000009,
            "velocity": 0.7874015748031497,
            "duration": 1
          },
          {
            "name": "A2",
            "midi": 45,
            "time": 74.00000000000009,
            "velocity": 0.6535433070866141,
            "duration": 2
          },
          {
            "name": "C#3",
            "midi": 49,
            "time": 74.00000000000009,
            "velocity": 0.7874015748031497,
            "duration": 1.7999999999999972
          },
          {
            "name": "C#4",
            "midi": 61,
            "time": 74.00000000000009,
            "velocity": 0.7874015748031497,
            "duration": 0.5833333333333286
          },
          {
            "name": "G#2",
            "midi": 44,
            "time": 74.00000000000009,
            "velocity": 0.6771653543307087,
            "duration": 0.125
          },
          {
            "name": "C2",
            "midi": 36,
            "time": 74.00000000000009,
            "velocity": 0.7716535433070866,
            "duration": 0.0625
          },
          {
            "name": "E3",
            "midi": 52,
            "time": 74.08333333333341,
            "velocity": 0.7874015748031497,
            "duration": 0.25
          },
          {
            "name": "A#3",
            "midi": 58,
            "time": 74.20833333333341,
            "velocity": 0.7874015748031497,
            "duration": 0.25
          },
          {
            "name": "C#1",
            "midi": 25,
            "time": 74.25000000000009,
            "velocity": 0.7874015748031497,
            "duration": 0.25
          },
          {
            "name": "G#2",
            "midi": 44,
            "time": 74.25000000000009,
            "velocity": 0.6771653543307087,
            "duration": 0.125
          },
          {
            "name": "C#4",
            "midi": 61,
            "time": 74.33333333333341,
            "velocity": 0.7874015748031497,
            "duration": 0.75
          },
          {
            "name": "C#1",
            "midi": 25,
            "time": 74.50000000000009,
            "velocity": 0.7874015748031497,
            "duration": 0.25
          },
          {
            "name": "A#4",
            "midi": 70,
            "time": 74.50000000000009,
            "velocity": 0.8031496062992126,
            "duration": 0.25
          },
          {
            "name": "D2",
            "midi": 38,
            "time": 74.50000000000009,
            "velocity": 0.7874015748031497,
            "duration": 0.125
          },
          {
            "name": "G#2",
            "midi": 44,
            "time": 74.50000000000009,
            "velocity": 0.6771653543307087,
            "duration": 0.125
          },
          {
            "name": "E3",
            "midi": 52,
            "time": 74.58333333333341,
            "velocity": 0.7874015748031497,
            "duration": 0.25
          },
          {
            "name": "A#3",
            "midi": 58,
            "time": 74.70833333333341,
            "velocity": 0.7874015748031497,
            "duration": 0.25
          },
          {
            "name": "C#1",
            "midi": 25,
            "time": 74.75000000000009,
            "velocity": 0.7874015748031497,
            "duration": 0.25
          },
          {
            "name": "G#2",
            "midi": 44,
            "time": 74.75000000000009,
            "velocity": 0.6771653543307087,
            "duration": 0.125
          },
          {
            "name": "C2",
            "midi": 36,
            "time": 74.75000000000009,
            "velocity": 0.7716535433070866,
            "duration": 0.0625
          },
          {
            "name": "C#4",
            "midi": 61,
            "time": 74.83333333333341,
            "velocity": 0.7874015748031497,
            "duration": 0.75
          },
          {
            "name": "C#1",
            "midi": 25,
            "time": 75.00000000000009,
            "velocity": 0.7874015748031497,
            "duration": 0.25
          },
          {
            "name": "A#4",
            "midi": 70,
            "time": 75.00000000000009,
            "velocity": 0.8031496062992126,
            "duration": 0.25
          },
          {
            "name": "C#2",
            "midi": 37,
            "time": 75.00000000000009,
            "velocity": 0.7874015748031497,
            "duration": 0.5
          },
          {
            "name": "C#5",
            "midi": 73,
            "time": 75.00000000000009,
            "velocity": 0.7874015748031497,
            "duration": 0.25
          },
          {
            "name": "C2",
            "midi": 36,
            "time": 75.00000000000009,
            "velocity": 0.7716535433070866,
            "duration": 0.0625
          },
          {
            "name": "G#2",
            "midi": 44,
            "time": 75.00000000000009,
            "velocity": 0.6771653543307087,
            "duration": 0.125
          },
          {
            "name": "E3",
            "midi": 52,
            "time": 75.08333333333341,
            "velocity": 0.47244094488188976,
            "duration": 0.25
          },
          {
            "name": "A#3",
            "midi": 58,
            "time": 75.20833333333341,
            "velocity": 0.7874015748031497,
            "duration": 0.25
          },
          {
            "name": "C#1",
            "midi": 25,
            "time": 75.25000000000009,
            "velocity": 0.7874015748031497,
            "duration": 0.25
          },
          {
            "name": "C5",
            "midi": 72,
            "time": 75.25000000000009,
            "velocity": 0.7874015748031497,
            "duration": 0.25
          },
          {
            "name": "C2",
            "midi": 36,
            "time": 75.25000000000009,
            "velocity": 0.5511811023622047,
            "duration": 0.0625
          },
          {
            "name": "G#2",
            "midi": 44,
            "time": 75.25000000000009,
            "velocity": 0.6771653543307087,
            "duration": 0.125
          },
          {
            "name": "C#4",
            "midi": 61,
            "time": 75.33333333333341,
            "velocity": 0.7874015748031497,
            "duration": 0.6666666666666714
          },
          {
            "name": "C#1",
            "midi": 25,
            "time": 75.50000000000009,
            "velocity": 0.7874015748031497,
            "duration": 0.25
          },
          {
            "name": "A#4",
            "midi": 70,
            "time": 75.50000000000009,
            "velocity": 0.8031496062992126,
            "duration": 0.25
          },
          {
            "name": "C#2",
            "midi": 37,
            "time": 75.50000000000009,
            "velocity": 0.7874015748031497,
            "duration": 0.5
          },
          {
            "name": "G#2",
            "midi": 44,
            "time": 75.50000000000009,
            "velocity": 0.6771653543307087,
            "duration": 0.125
          },
          {
            "name": "D2",
            "midi": 38,
            "time": 75.50000000000009,
            "velocity": 0.7874015748031497,
            "duration": 0.125
          },
          {
            "name": "E3",
            "midi": 52,
            "time": 75.58333333333341,
            "velocity": 0.47244094488188976,
            "duration": 0.25
          },
          {
            "name": "A#3",
            "midi": 58,
            "time": 75.70833333333341,
            "velocity": 0.7874015748031497,
            "duration": 0.25
          },
          {
            "name": "C#1",
            "midi": 25,
            "time": 75.75000000000009,
            "velocity": 0.7874015748031497,
            "duration": 0.25
          },
          {
            "name": "A#4",
            "midi": 70,
            "time": 75.75000000000009,
            "velocity": 0.7874015748031497,
            "duration": 0.25
          },
          {
            "name": "C2",
            "midi": 36,
            "time": 75.75000000000009,
            "velocity": 0.7716535433070866,
            "duration": 0.0625
          },
          {
            "name": "G#2",
            "midi": 44,
            "time": 75.75000000000009,
            "velocity": 0.6771653543307087,
            "duration": 0.125
          },
          {
            "name": "C#4",
            "midi": 61,
            "time": 75.83333333333341,
            "velocity": 0.7874015748031497,
            "duration": 0.25
          },
          {
            "name": "C#3",
            "midi": 49,
            "time": 75.95833333333341,
            "velocity": 0.7874015748031497,
            "duration": 0.0625
          },
          {
            "name": "C1",
            "midi": 24,
            "time": 76.00000000000009,
            "velocity": 0.7874015748031497,
            "duration": 0.25
          },
          {
            "name": "A4",
            "midi": 69,
            "time": 76.00000000000009,
            "velocity": 0.7874015748031497,
            "duration": 0.4000000000000057
          },
          {
            "name": "C2",
            "midi": 36,
            "time": 76.00000000000009,
            "velocity": 0.7874015748031497,
            "duration": 0.0625
          },
          {
            "name": "C4",
            "midi": 60,
            "time": 76.00000000000009,
            "velocity": 0.7874015748031497,
            "duration": 0.4000000000000057
          },
          {
            "name": "F4",
            "midi": 65,
            "time": 76.00000000000009,
            "velocity": 0.7874015748031497,
            "duration": 0.4000000000000057
          },
          {
            "name": "A#4",
            "midi": 70,
            "time": 76.00000000000009,
            "velocity": 0.7874015748031497,
            "duration": 0.25
          },
          {
            "name": "F2",
            "midi": 41,
            "time": 76.00000000000009,
            "velocity": 0.6535433070866141,
            "duration": 2
          },
          {
            "name": "C3",
            "midi": 48,
            "time": 76.00000000000009,
            "velocity": 0.7874015748031497,
            "duration": 1.7999999999999972
          },
          {
            "name": "C4",
            "midi": 60,
            "time": 76.00000000000009,
            "velocity": 0.7874015748031497,
            "duration": 0.75
          },
          {
            "name": "C2",
            "midi": 36,
            "time": 76.00000000000009,
            "velocity": 0.7716535433070866,
            "duration": 0.8125
          },
          {
            "name": "G#2",
            "midi": 44,
            "time": 76.00000000000009,
            "velocity": 0.6771653543307087,
            "duration": 0.125
          },
          {
            "name": "C1",
            "midi": 24,
            "time": 76.25000000000009,
            "velocity": 0.7874015748031497,
            "duration": 0.25
          },
          {
            "name": "G#2",
            "midi": 44,
            "time": 76.25000000000009,
            "velocity": 0.6771653543307087,
            "duration": 0.125
          },
          {
            "name": "C1",
            "midi": 24,
            "time": 76.50000000000009,
            "velocity": 0.7874015748031497,
            "duration": 0.25
          },
          {
            "name": "A4",
            "midi": 69,
            "time": 76.50000000000009,
            "velocity": 0.7874015748031497,
            "duration": 0.25
          },
          {
            "name": "F4",
            "midi": 65,
            "time": 76.50000000000009,
            "velocity": 0.7874015748031497,
            "duration": 0.29999999999999716
          },
          {
            "name": "C4",
            "midi": 60,
            "time": 76.50000000000009,
            "velocity": 0.7874015748031497,
            "duration": 0.75
          },
          {
            "name": "A4",
            "midi": 69,
            "time": 76.50000000000009,
            "velocity": 0.7874015748031497,
            "duration": 0.29999999999999716
          },
          {
            "name": "D2",
            "midi": 38,
            "time": 76.50000000000009,
            "velocity": 0.7874015748031497,
            "duration": 0.125
          },
          {
            "name": "G#2",
            "midi": 44,
            "time": 76.50000000000009,
            "velocity": 0.6771653543307087,
            "duration": 0.125
          },
          {
            "name": "C1",
            "midi": 24,
            "time": 76.75000000000009,
            "velocity": 0.7874015748031497,
            "duration": 0.25
          },
          {
            "name": "G#2",
            "midi": 44,
            "time": 76.75000000000009,
            "velocity": 0.6771653543307087,
            "duration": 0.125
          },
          {
            "name": "C2",
            "midi": 36,
            "time": 76.75000000000009,
            "velocity": 0.7716535433070866,
            "duration": 0.25
          },
          {
            "name": "C1",
            "midi": 24,
            "time": 77.00000000000009,
            "velocity": 0.7874015748031497,
            "duration": 0.25
          },
          {
            "name": "C4",
            "midi": 60,
            "time": 77.00000000000009,
            "velocity": 0.7874015748031497,
            "duration": 1
          },
          {
            "name": "F4",
            "midi": 65,
            "time": 77.00000000000009,
            "velocity": 0.7874015748031497,
            "duration": 0.25
          },
          {
            "name": "A4",
            "midi": 69,
            "time": 77.00000000000009,
            "velocity": 0.7874015748031497,
            "duration": 0.29999999999999716
          },
          {
            "name": "C3",
            "midi": 48,
            "time": 77.00000000000009,
            "velocity": 0.7874015748031497,
            "duration": 1
          },
          {
            "name": "G#2",
            "midi": 44,
            "time": 77.00000000000009,
            "velocity": 0.6771653543307087,
            "duration": 0.125
          },
          {
            "name": "C2",
            "midi": 36,
            "time": 77.00000000000009,
            "velocity": 0.7716535433070866,
            "duration": 0.0625
          },
          {
            "name": "C1",
            "midi": 24,
            "time": 77.25000000000009,
            "velocity": 0.7874015748031497,
            "duration": 0.25
          },
          {
            "name": "F4",
            "midi": 65,
            "time": 77.25000000000009,
            "velocity": 0.7874015748031497,
            "duration": 0.5499999999999972
          },
          {
            "name": "D5",
            "midi": 74,
            "time": 77.25000000000009,
            "velocity": 0.7874015748031497,
            "duration": 0.25
          },
          {
            "name": "D5",
            "midi": 74,
            "time": 77.25000000000009,
            "velocity": 0.7874015748031497,
            "duration": 0.29999999999999716
          },
          {
            "name": "G#2",
            "midi": 44,
            "time": 77.25000000000009,
            "velocity": 0.6771653543307087,
            "duration": 0.125
          },
          {
            "name": "C2",
            "midi": 36,
            "time": 77.25000000000009,
            "velocity": 0.5511811023622047,
            "duration": 0.0625
          },
          {
            "name": "C1",
            "midi": 24,
            "time": 77.50000000000009,
            "velocity": 0.7874015748031497,
            "duration": 0.25
          },
          {
            "name": "A#4",
            "midi": 70,
            "time": 77.50000000000009,
            "velocity": 0.7874015748031497,
            "duration": 0.25
          },
          {
            "name": "A#4",
            "midi": 70,
            "time": 77.50000000000009,
            "velocity": 0.7874015748031497,
            "duration": 0.29999999999999716
          },
          {
            "name": "D2",
            "midi": 38,
            "time": 77.50000000000009,
            "velocity": 0.7874015748031497,
            "duration": 0.125
          },
          {
            "name": "G#2",
            "midi": 44,
            "time": 77.50000000000009,
            "velocity": 0.6771653543307087,
            "duration": 0.125
          },
          {
            "name": "C1",
            "midi": 24,
            "time": 77.75000000000009,
            "velocity": 0.7874015748031497,
            "duration": 0.25
          },
          {
            "name": "E4",
            "midi": 64,
            "time": 77.75000000000009,
            "velocity": 0.7874015748031497,
            "duration": 0.25
          },
          {
            "name": "A4",
            "midi": 69,
            "time": 77.75000000000009,
            "velocity": 0.7874015748031497,
            "duration": 0.29999999999999716
          },
          {
            "name": "G#2",
            "midi": 44,
            "time": 77.75000000000009,
            "velocity": 0.6771653543307087,
            "duration": 0.125
          },
          {
            "name": "A4",
            "midi": 69,
            "time": 77.80000000000008,
            "velocity": 0.7874015748031497,
            "duration": 0.25
          },
          {
            "name": "C3",
            "midi": 48,
            "time": 77.95833333333341,
            "velocity": 0.7874015748031497,
            "duration": 0.0625
          },
          {
            "name": "G1",
            "midi": 31,
            "time": 78.00000000000009,
            "velocity": 0.7874015748031497,
            "duration": 0.25
          },
          {
            "name": "G4",
            "midi": 67,
            "time": 78.00000000000009,
            "velocity": 0.7874015748031497,
            "duration": 0.25
          },
          {
            "name": "G2",
            "midi": 43,
            "time": 78.00000000000009,
            "velocity": 0.7874015748031497,
            "duration": 1.7999999999999972
          },
          {
            "name": "D4",
            "midi": 62,
            "time": 78.00000000000009,
            "velocity": 0.7874015748031497,
            "duration": 1.2000000000000028
          },
          {
            "name": "G4",
            "midi": 67,
            "time": 78.00000000000009,
            "velocity": 0.7874015748031497,
            "duration": 1
          },
          {
            "name": "G2",
            "midi": 43,
            "time": 78.00000000000009,
            "velocity": 0.7874015748031497,
            "duration": 2
          },
          {
            "name": "G3",
            "midi": 55,
            "time": 78.00000000000009,
            "velocity": 0.7874015748031497,
            "duration": 0.7999999999999972
          },
          {
            "name": "C2",
            "midi": 36,
            "time": 78.00000000000009,
            "velocity": 0.7716535433070866,
            "duration": 0.0625
          },
          {
            "name": "G#2",
            "midi": 44,
            "time": 78.00000000000009,
            "velocity": 0.6771653543307087,
            "duration": 0.125
          },
          {
            "name": "G1",
            "midi": 31,
            "time": 78.25000000000009,
            "velocity": 0.7874015748031497,
            "duration": 0.25
          },
          {
            "name": "D3",
            "midi": 50,
            "time": 78.25000000000009,
            "velocity": 0.6299212598425197,
            "duration": 0.29999999999999716
          },
          {
            "name": "G#2",
            "midi": 44,
            "time": 78.25000000000009,
            "velocity": 0.6771653543307087,
            "duration": 0.125
          },
          {
            "name": "G1",
            "midi": 31,
            "time": 78.50000000000009,
            "velocity": 0.7874015748031497,
            "duration": 0.25
          },
          {
            "name": "G3",
            "midi": 55,
            "time": 78.50000000000009,
            "velocity": 0.6299212598425197,
            "duration": 1.5
          },
          {
            "name": "D2",
            "midi": 38,
            "time": 78.50000000000009,
            "velocity": 0.7874015748031497,
            "duration": 0.125
          },
          {
            "name": "G#2",
            "midi": 44,
            "time": 78.50000000000009,
            "velocity": 0.6771653543307087,
            "duration": 0.125
          },
          {
            "name": "G1",
            "midi": 31,
            "time": 78.75000000000009,
            "velocity": 0.7874015748031497,
            "duration": 0.25
          },
          {
            "name": "G#2",
            "midi": 44,
            "time": 78.75000000000009,
            "velocity": 0.6771653543307087,
            "duration": 0.125
          },
          {
            "name": "G1",
            "midi": 31,
            "time": 79.00000000000009,
            "velocity": 0.7874015748031497,
            "duration": 0.25
          },
          {
            "name": "A4",
            "midi": 69,
            "time": 79.00000000000009,
            "velocity": 0.7874015748031497,
            "duration": 0.20000000000000284
          },
          {
            "name": "A4",
            "midi": 69,
            "time": 79.00000000000009,
            "velocity": 0.7874015748031497,
            "duration": 0.25
          },
          {
            "name": "G#2",
            "midi": 44,
            "time": 79.00000000000009,
            "velocity": 0.6771653543307087,
            "duration": 0.125
          },
          {
            "name": "C2",
            "midi": 36,
            "time": 79.00000000000009,
            "velocity": 0.7716535433070866,
            "duration": 0.0625
          },
          {
            "name": "G4",
            "midi": 67,
            "time": 79.12500000000009,
            "velocity": 0.7874015748031497,
            "duration": 0.32500000000000284
          },
          {
            "name": "G4",
            "midi": 67,
            "time": 79.20000000000009,
            "velocity": 0.7874015748031497,
            "duration": 0.3999999999999915
          },
          {
            "name": "G1",
            "midi": 31,
            "time": 79.25000000000009,
            "velocity": 0.7874015748031497,
            "duration": 0.25
          },
          {
            "name": "F4",
            "midi": 65,
            "time": 79.25000000000009,
            "velocity": 0.7874015748031497,
            "duration": 0.45000000000000284
          },
          {
            "name": "G#2",
            "midi": 44,
            "time": 79.25000000000009,
            "velocity": 0.6771653543307087,
            "duration": 0.125
          },
          {
            "name": "C2",
            "midi": 36,
            "time": 79.25000000000009,
            "velocity": 0.5511811023622047,
            "duration": 0.0625
          },
          {
            "name": "F4",
            "midi": 65,
            "time": 79.45000000000009,
            "velocity": 0.7874015748031497,
            "duration": 0.3499999999999943
          },
          {
            "name": "G1",
            "midi": 31,
            "time": 79.50000000000009,
            "velocity": 0.7874015748031497,
            "duration": 0.25
          },
          {
            "name": "D4",
            "midi": 62,
            "time": 79.50000000000009,
            "velocity": 0.7874015748031497,
            "duration": 0.5
          },
          {
            "name": "D2",
            "midi": 38,
            "time": 79.50000000000009,
            "velocity": 0.7874015748031497,
            "duration": 0.125
          },
          {
            "name": "G#2",
            "midi": 44,
            "time": 79.50000000000009,
            "velocity": 0.6771653543307087,
            "duration": 0.125
          },
          {
            "name": "F#3",
            "midi": 54,
            "time": 79.60000000000008,
            "velocity": 0.7874015748031497,
            "duration": 0.5
          },
          {
            "name": "D4",
            "midi": 62,
            "time": 79.70000000000009,
            "velocity": 0.7874015748031497,
            "duration": 0.29999999999999716
          },
          {
            "name": "G1",
            "midi": 31,
            "time": 79.75000000000009,
            "velocity": 0.7874015748031497,
            "duration": 0.25
          },
          {
            "name": "G#2",
            "midi": 44,
            "time": 79.75000000000009,
            "velocity": 0.6771653543307087,
            "duration": 0.125
          },
          {
            "name": "G2",
            "midi": 43,
            "time": 79.95833333333341,
            "velocity": 0.7874015748031497,
            "duration": 0.0625
          },
          {
            "name": "C1",
            "midi": 24,
            "time": 80.00000000000009,
            "velocity": 0.7874015748031497,
            "duration": 0.25
          },
          {
            "name": "A#3",
            "midi": 58,
            "time": 80.00000000000009,
            "velocity": 0.7559055118110236,
            "duration": 0.4000000000000057
          },
          {
            "name": "A4",
            "midi": 69,
            "time": 80.00000000000009,
            "velocity": 0.8740157480314961,
            "duration": 0.5999999999999943
          },
          {
            "name": "D4",
            "midi": 62,
            "time": 80.00000000000009,
            "velocity": 0.7559055118110236,
            "duration": 0.4000000000000057
          },
          {
            "name": "G2",
            "midi": 43,
            "time": 80.00000000000009,
            "velocity": 0.7874015748031497,
            "duration": 0.5
          },
          {
            "name": "G3",
            "midi": 55,
            "time": 80.00000000000009,
            "velocity": 0.7559055118110236,
            "duration": 0.4000000000000057
          },
          {
            "name": "A4",
            "midi": 69,
            "time": 80.00000000000009,
            "velocity": 0.7874015748031497,
            "duration": 1
          },
          {
            "name": "C3",
            "midi": 48,
            "time": 80.00000000000009,
            "velocity": 0.7874015748031497,
            "duration": 1.6875
          },
          {
            "name": "F2",
            "midi": 41,
            "time": 80.00000000000009,
            "velocity": 0.6535433070866141,
            "duration": 2
          },
          {
            "name": "C4",
            "midi": 60,
            "time": 80.00000000000009,
            "velocity": 0.7874015748031497,
            "duration": 2
          },
          {
            "name": "C2",
            "midi": 36,
            "time": 80.00000000000009,
            "velocity": 0.7716535433070866,
            "duration": 0.0625
          },
          {
            "name": "G#2",
            "midi": 44,
            "time": 80.00000000000009,
            "velocity": 0.6771653543307087,
            "duration": 0.125
          },
          {
            "name": "C1",
            "midi": 24,
            "time": 80.25000000000009,
            "velocity": 0.7874015748031497,
            "duration": 0.25
          },
          {
            "name": "G#2",
            "midi": 44,
            "time": 80.25000000000009,
            "velocity": 0.6771653543307087,
            "duration": 0.125
          },
          {
            "name": "C2",
            "midi": 36,
            "time": 80.37500000000009,
            "velocity": 0.7874015748031497,
            "duration": 0.0625
          },
          {
            "name": "C1",
            "midi": 24,
            "time": 80.50000000000009,
            "velocity": 0.7874015748031497,
            "duration": 0.25
          },
          {
            "name": "A#3",
            "midi": 58,
            "time": 80.50000000000009,
            "velocity": 0.7559055118110236,
            "duration": 0.4000000000000057
          },
          {
            "name": "G3",
            "midi": 55,
            "time": 80.50000000000009,
            "velocity": 0.7559055118110236,
            "duration": 0.4000000000000057
          },
          {
            "name": "G2",
            "midi": 43,
            "time": 80.50000000000009,
            "velocity": 0.7874015748031497,
            "duration": 0.5
          },
          {
            "name": "D4",
            "midi": 62,
            "time": 80.50000000000009,
            "velocity": 0.7559055118110236,
            "duration": 0.4000000000000057
          },
          {
            "name": "D2",
            "midi": 38,
            "time": 80.50000000000009,
            "velocity": 0.7874015748031497,
            "duration": 0.125
          },
          {
            "name": "G#2",
            "midi": 44,
            "time": 80.50000000000009,
            "velocity": 0.6771653543307087,
            "duration": 0.125
          },
          {
            "name": "G4",
            "midi": 67,
            "time": 80.70000000000009,
            "velocity": 0.7874015748031497,
            "duration": 0.29999999999999716
          },
          {
            "name": "C1",
            "midi": 24,
            "time": 80.75000000000009,
            "velocity": 0.7874015748031497,
            "duration": 0.25
          },
          {
            "name": "G#2",
            "midi": 44,
            "time": 80.75000000000009,
            "velocity": 0.6771653543307087,
            "duration": 0.125
          },
          {
            "name": "D2",
            "midi": 38,
            "time": 80.75000000000009,
            "velocity": 0.7874015748031497,
            "duration": 0.125
          },
          {
            "name": "C2",
            "midi": 36,
            "time": 81.00000000000009,
            "velocity": 0.7874015748031497,
            "duration": 0.0625
          },
          {
            "name": "G3",
            "midi": 55,
            "time": 81.00000000000009,
            "velocity": 0.7559055118110236,
            "duration": 0.4000000000000057
          },
          {
            "name": "D4",
            "midi": 62,
            "time": 81.00000000000009,
            "velocity": 0.7559055118110236,
            "duration": 0.4000000000000057
          },
          {
            "name": "A#3",
            "midi": 58,
            "time": 81.00000000000009,
            "velocity": 0.7559055118110236,
            "duration": 0.4000000000000057
          },
          {
            "name": "G2",
            "midi": 43,
            "time": 81.00000000000009,
            "velocity": 0.7874015748031497,
            "duration": 0.5
          },
          {
            "name": "A#4",
            "midi": 70,
            "time": 81.00000000000009,
            "velocity": 0.8740157480314961,
            "duration": 1
          },
          {
            "name": "G4",
            "midi": 67,
            "time": 81.00000000000009,
            "velocity": 0.7874015748031497,
            "duration": 0.25
          },
          {
            "name": "G#2",
            "midi": 44,
            "time": 81.00000000000009,
            "velocity": 0.6771653543307087,
            "duration": 0.125
          },
          {
            "name": "C2",
            "midi": 36,
            "time": 81.00000000000009,
            "velocity": 0.7716535433070866,
            "duration": 0.25
          },
          {
            "name": "C2",
            "midi": 36,
            "time": 81.25000000000009,
            "velocity": 0.7874015748031497,
            "duration": 0.25
          },
          {
            "name": "G#2",
            "midi": 44,
            "time": 81.25000000000009,
            "velocity": 0.6771653543307087,
            "duration": 0.125
          },
          {
            "name": "D2",
            "midi": 38,
            "time": 81.25000000000009,
            "velocity": 0.5511811023622047,
            "duration": 0.0625
          },
          {
            "name": "C2",
            "midi": 36,
            "time": 81.50000000000009,
            "velocity": 0.7874015748031497,
            "duration": 0.25
          },
          {
            "name": "A#3",
            "midi": 58,
            "time": 81.50000000000009,
            "velocity": 0.7559055118110236,
            "duration": 0.4000000000000057
          },
          {
            "name": "G3",
            "midi": 55,
            "time": 81.50000000000009,
            "velocity": 0.7559055118110236,
            "duration": 0.4000000000000057
          },
          {
            "name": "G2",
            "midi": 43,
            "time": 81.50000000000009,
            "velocity": 0.7874015748031497,
            "duration": 0.5
          },
          {
            "name": "D4",
            "midi": 62,
            "time": 81.50000000000009,
            "velocity": 0.7559055118110236,
            "duration": 0.4000000000000057
          },
          {
            "name": "A4",
            "midi": 69,
            "time": 81.50000000000009,
            "velocity": 0.7874015748031497,
            "duration": 0.25
          },
          {
            "name": "D2",
            "midi": 38,
            "time": 81.50000000000009,
            "velocity": 0.7874015748031497,
            "duration": 0.125
          },
          {
            "name": "G#2",
            "midi": 44,
            "time": 81.50000000000009,
            "velocity": 0.6771653543307087,
            "duration": 0.125
          },
          {
            "name": "F#3",
            "midi": 54,
            "time": 81.60000000000008,
            "velocity": 0.7874015748031497,
            "duration": 0.5
          },
          {
            "name": "C3",
            "midi": 48,
            "time": 81.62500000000009,
            "velocity": 0.7874015748031497,
            "duration": 0.17499999999999716
          },
          {
            "name": "C2",
            "midi": 36,
            "time": 81.75000000000009,
            "velocity": 0.7874015748031497,
            "duration": 0.25
          },
          {
            "name": "A#4",
            "midi": 70,
            "time": 81.75000000000009,
            "velocity": 0.7874015748031497,
            "duration": 0.25
          },
          {
            "name": "G#2",
            "midi": 44,
            "time": 81.75000000000009,
            "velocity": 0.6771653543307087,
            "duration": 0.125
          },
          {
            "name": "B2",
            "midi": 47,
            "time": 81.75000000000009,
            "velocity": 0.7874015748031497,
            "duration": 0.0625
          },
          {
            "name": "C3",
            "midi": 48,
            "time": 81.91666666666676,
            "velocity": 0.7874015748031497,
            "duration": 0.0625
          },
          {
            "name": "E1",
            "midi": 28,
            "time": 82.00000000000009,
            "velocity": 0.7874015748031497,
            "duration": 0.25
          },
          {
            "name": "C5",
            "midi": 72,
            "time": 82.00000000000009,
            "velocity": 0.8031496062992126,
            "duration": 0.25
          },
          {
            "name": "C2",
            "midi": 36,
            "time": 82.00000000000009,
            "velocity": 0.47244094488188976,
            "duration": 0.0625
          },
          {
            "name": "C5",
            "midi": 72,
            "time": 82.00000000000009,
            "velocity": 0.7874015748031497,
            "duration": 0.25
          },
          {
            "name": "C3",
            "midi": 48,
            "time": 82.00000000000009,
            "velocity": 0.6535433070866141,
            "duration": 1.4000000000000057
          },
          {
            "name": "E3",
            "midi": 52,
            "time": 82.00000000000009,
            "velocity": 0.7874015748031497,
            "duration": 1.8000000000000114
          },
          {
            "name": "E4",
            "midi": 64,
            "time": 82.00000000000009,
            "velocity": 0.7874015748031497,
            "duration": 0.4583333333333286
          },
          {
            "name": "G#2",
            "midi": 44,
            "time": 82.00000000000009,
            "velocity": 0.6771653543307087,
            "duration": 0.125
          },
          {
            "name": "C#3",
            "midi": 49,
            "time": 82.00000000000009,
            "velocity": 0.7874015748031497,
            "duration": 0.0625
          },
          {
            "name": "C2",
            "midi": 36,
            "time": 82.00000000000009,
            "velocity": 0.7716535433070866,
            "duration": 0.8125
          },
          {
            "name": "C4",
            "midi": 60,
            "time": 82.08333333333341,
            "velocity": 0.7874015748031497,
            "duration": 0.25
          },
          {
            "name": "E4",
            "midi": 64,
            "time": 82.20833333333341,
            "velocity": 0.7874015748031497,
            "duration": 0.75
          },
          {
            "name": "E1",
            "midi": 28,
            "time": 82.25000000000009,
            "velocity": 0.7874015748031497,
            "duration": 0.25
          },
          {
            "name": "G#2",
            "midi": 44,
            "time": 82.25000000000009,
            "velocity": 0.6771653543307087,
            "duration": 0.125
          },
          {
            "name": "G4",
            "midi": 67,
            "time": 82.33333333333341,
            "velocity": 0.7874015748031497,
            "duration": 0.25
          },
          {
            "name": "E1",
            "midi": 28,
            "time": 82.50000000000009,
            "velocity": 0.7874015748031497,
            "duration": 0.25
          },
          {
            "name": "C5",
            "midi": 72,
            "time": 82.50000000000009,
            "velocity": 0.8031496062992126,
            "duration": 0.25
          },
          {
            "name": "C5",
            "midi": 72,
            "time": 82.50000000000009,
            "velocity": 0.7874015748031497,
            "duration": 0.25
          },
          {
            "name": "G#2",
            "midi": 44,
            "time": 82.50000000000009,
            "velocity": 0.6771653543307087,
            "duration": 0.125
          },
          {
            "name": "D2",
            "midi": 38,
            "time": 82.50000000000009,
            "velocity": 0.7874015748031497,
            "duration": 0.125
          },
          {
            "name": "C4",
            "midi": 60,
            "time": 82.58333333333341,
            "velocity": 0.7874015748031497,
            "duration": 0.25
          },
          {
            "name": "E4",
            "midi": 64,
            "time": 82.70833333333341,
            "velocity": 0.7874015748031497,
            "duration": 0.7500000000000142
          },
          {
            "name": "E1",
            "midi": 28,
            "time": 82.75000000000009,
            "velocity": 0.7874015748031497,
            "duration": 0.25
          },
          {
            "name": "C5",
            "midi": 72,
            "time": 82.75000000000009,
            "velocity": 0.7874015748031497,
            "duration": 0.25
          },
          {
            "name": "C2",
            "midi": 36,
            "time": 82.75000000000009,
            "velocity": 0.7716535433070866,
            "duration": 0.3125
          },
          {
            "name": "G#2",
            "midi": 44,
            "time": 82.75000000000009,
            "velocity": 0.6771653543307087,
            "duration": 0.125
          },
          {
            "name": "G4",
            "midi": 67,
            "time": 82.83333333333341,
            "velocity": 0.7874015748031497,
            "duration": 0.25
          },
          {
            "name": "E1",
            "midi": 28,
            "time": 83.00000000000009,
            "velocity": 0.7874015748031497,
            "duration": 0.25
          },
          {
            "name": "C3",
            "midi": 48,
            "time": 83.00000000000009,
            "velocity": 0.7874015748031497,
            "duration": 0.9000000000000199
          },
          {
            "name": "C5",
            "midi": 72,
            "time": 83.00000000000009,
            "velocity": 0.8031496062992126,
            "duration": 0.25
          },
          {
            "name": "C5",
            "midi": 72,
            "time": 83.00000000000009,
            "velocity": 0.7874015748031497,
            "duration": 0.25
          },
          {
            "name": "C2",
            "midi": 36,
            "time": 83.00000000000009,
            "velocity": 0.7716535433070866,
            "duration": 0.3125
          },
          {
            "name": "G#2",
            "midi": 44,
            "time": 83.00000000000009,
            "velocity": 0.6771653543307087,
            "duration": 0.125
          },
          {
            "name": "C4",
            "midi": 60,
            "time": 83.08333333333341,
            "velocity": 0.47244094488188976,
            "duration": 0.4000000000000199
          },
          {
            "name": "E4",
            "midi": 64,
            "time": 83.20833333333341,
            "velocity": 0.7874015748031497,
            "duration": 0.7500000000000284
          },
          {
            "name": "E1",
            "midi": 28,
            "time": 83.25000000000009,
            "velocity": 0.7874015748031497,
            "duration": 0.2500000000000142
          },
          {
            "name": "A#4",
            "midi": 70,
            "time": 83.25000000000009,
            "velocity": 0.7874015748031497,
            "duration": 0.2500000000000142
          },
          {
            "name": "C2",
            "midi": 36,
            "time": 83.25000000000009,
            "velocity": 0.5511811023622047,
            "duration": 0.7500000000000284
          },
          {
            "name": "G#2",
            "midi": 44,
            "time": 83.25000000000009,
            "velocity": 0.6771653543307087,
            "duration": 0.125
          },
          {
            "name": "G4",
            "midi": 67,
            "time": 83.33333333333341,
            "velocity": 0.7874015748031497,
            "duration": 0.2500000000000142
          },
          {
            "name": "E1",
            "midi": 28,
            "time": 83.5000000000001,
            "velocity": 0.7874015748031497,
            "duration": 0.25
          },
          {
            "name": "C5",
            "midi": 72,
            "time": 83.5000000000001,
            "velocity": 0.8031496062992126,
            "duration": 0.25
          },
          {
            "name": "C3",
            "midi": 48,
            "time": 83.5000000000001,
            "velocity": 0.7874015748031497,
            "duration": 2.500000000000014
          },
          {
            "name": "A4",
            "midi": 69,
            "time": 83.5000000000001,
            "velocity": 0.7874015748031497,
            "duration": 0.25
          },
          {
            "name": "D2",
            "midi": 38,
            "time": 83.5000000000001,
            "velocity": 0.7874015748031497,
            "duration": 0.125
          },
          {
            "name": "G#2",
            "midi": 44,
            "time": 83.5000000000001,
            "velocity": 0.6771653543307087,
            "duration": 0.125
          },
          {
            "name": "C4",
            "midi": 60,
            "time": 83.58333333333343,
            "velocity": 0.47244094488188976,
            "duration": 0.4000000000000199
          },
          {
            "name": "E4",
            "midi": 64,
            "time": 83.70833333333343,
            "velocity": 0.7874015748031497,
            "duration": 0.2916666666666856
          },
          {
            "name": "E1",
            "midi": 28,
            "time": 83.7500000000001,
            "velocity": 0.7874015748031497,
            "duration": 0.2500000000000142
          },
          {
            "name": "C5",
            "midi": 72,
            "time": 83.7500000000001,
            "velocity": 0.7874015748031497,
            "duration": 0.2500000000000142
          },
          {
            "name": "G#2",
            "midi": 44,
            "time": 83.7500000000001,
            "velocity": 0.6771653543307087,
            "duration": 0.125
          },
          {
            "name": "G4",
            "midi": 67,
            "time": 83.83333333333343,
            "velocity": 0.7874015748031497,
            "duration": 0.2500000000000142
          },
          {
            "name": "E3",
            "midi": 52,
            "time": 83.95833333333344,
            "velocity": 0.7874015748031497,
            "duration": 0.0625
          },
          {
            "name": "D#1",
            "midi": 27,
            "time": 84.00000000000011,
            "velocity": 0.7874015748031497,
            "duration": 0.25
          },
          {
            "name": "C5",
            "midi": 72,
            "time": 84.00000000000011,
            "velocity": 0.8031496062992126,
            "duration": 0.25
          },
          {
            "name": "D#2",
            "midi": 39,
            "time": 84.00000000000011,
            "velocity": 0.7874015748031497,
            "duration": 2
          },
          {
            "name": "D#3",
            "midi": 51,
            "time": 84.00000000000011,
            "velocity": 0.7874015748031497,
            "duration": 1.7999999999999972
          },
          {
            "name": "D#4",
            "midi": 63,
            "time": 84.00000000000011,
            "velocity": 0.7874015748031497,
            "duration": 0.4583333333333286
          },
          {
            "name": "C2",
            "midi": 36,
            "time": 84.00000000000011,
            "velocity": 0.7716535433070866,
            "duration": 0.0625
          },
          {
            "name": "G#2",
            "midi": 44,
            "time": 84.00000000000011,
            "velocity": 0.6771653543307087,
            "duration": 0.125
          },
          {
            "name": "C4",
            "midi": 60,
            "time": 84.08333333333344,
            "velocity": 0.7874015748031497,
            "duration": 0.25
          },
          {
            "name": "D#4",
            "midi": 63,
            "time": 84.20833333333344,
            "velocity": 0.7874015748031497,
            "duration": 0.75
          },
          {
            "name": "D#1",
            "midi": 27,
            "time": 84.25000000000011,
            "velocity": 0.7874015748031497,
            "duration": 0.25
          },
          {
            "name": "G#2",
            "midi": 44,
            "time": 84.25000000000011,
            "velocity": 0.6771653543307087,
            "duration": 0.125
          },
          {
            "name": "G4",
            "midi": 67,
            "time": 84.33333333333344,
            "velocity": 0.7874015748031497,
            "duration": 0.25
          },
          {
            "name": "D#1",
            "midi": 27,
            "time": 84.50000000000011,
            "velocity": 0.7874015748031497,
            "duration": 0.25
          },
          {
            "name": "C5",
            "midi": 72,
            "time": 84.50000000000011,
            "velocity": 0.8031496062992126,
            "duration": 0.25
          },
          {
            "name": "D2",
            "midi": 38,
            "time": 84.50000000000011,
            "velocity": 0.7874015748031497,
            "duration": 0.125
          },
          {
            "name": "G#2",
            "midi": 44,
            "time": 84.50000000000011,
            "velocity": 0.6771653543307087,
            "duration": 0.125
          },
          {
            "name": "C4",
            "midi": 60,
            "time": 84.58333333333344,
            "velocity": 0.7874015748031497,
            "duration": 0.25
          },
          {
            "name": "D#4",
            "midi": 63,
            "time": 84.70833333333344,
            "velocity": 0.7874015748031497,
            "duration": 0.75
          },
          {
            "name": "D#1",
            "midi": 27,
            "time": 84.75000000000011,
            "velocity": 0.7874015748031497,
            "duration": 0.25
          },
          {
            "name": "G#2",
            "midi": 44,
            "time": 84.75000000000011,
            "velocity": 0.6771653543307087,
            "duration": 0.125
          },
          {
            "name": "C2",
            "midi": 36,
            "time": 84.75000000000011,
            "velocity": 0.7716535433070866,
            "duration": 0.0625
          },
          {
            "name": "G4",
            "midi": 67,
            "time": 84.83333333333344,
            "velocity": 0.7874015748031497,
            "duration": 0.25
          },
          {
            "name": "D#1",
            "midi": 27,
            "time": 85.00000000000011,
            "velocity": 0.7874015748031497,
            "duration": 0.25
          },
          {
            "name": "D#3",
            "midi": 51,
            "time": 85.00000000000011,
            "velocity": 0.47244094488188976,
            "duration": 1
          },
          {
            "name": "C5",
            "midi": 72,
            "time": 85.00000000000011,
            "velocity": 0.8031496062992126,
            "duration": 0.25
          },
          {
            "name": "D#5",
            "midi": 75,
            "time": 85.00000000000011,
            "velocity": 0.7874015748031497,
            "duration": 0.25
          },
          {
            "name": "C2",
            "midi": 36,
            "time": 85.00000000000011,
            "velocity": 0.7716535433070866,
            "duration": 0.0625
          },
          {
            "name": "G#2",
            "midi": 44,
            "time": 85.00000000000011,
            "velocity": 0.6771653543307087,
            "duration": 0.125
          },
          {
            "name": "C4",
            "midi": 60,
            "time": 85.08333333333344,
            "velocity": 0.47244094488188976,
            "duration": 0.25
          },
          {
            "name": "D#4",
            "midi": 63,
            "time": 85.20833333333344,
            "velocity": 0.7874015748031497,
            "duration": 0.75
          },
          {
            "name": "D#1",
            "midi": 27,
            "time": 85.25000000000011,
            "velocity": 0.7874015748031497,
            "duration": 0.25
          },
          {
            "name": "D5",
            "midi": 74,
            "time": 85.25000000000011,
            "velocity": 0.7874015748031497,
            "duration": 0.25
          },
          {
            "name": "G#2",
            "midi": 44,
            "time": 85.25000000000011,
            "velocity": 0.6771653543307087,
            "duration": 0.125
          },
          {
            "name": "C2",
            "midi": 36,
            "time": 85.25000000000011,
            "velocity": 0.5511811023622047,
            "duration": 0.0625
          },
          {
            "name": "G4",
            "midi": 67,
            "time": 85.33333333333344,
            "velocity": 0.7874015748031497,
            "duration": 0.25
          },
          {
            "name": "D#1",
            "midi": 27,
            "time": 85.50000000000011,
            "velocity": 0.7874015748031497,
            "duration": 0.25
          },
          {
            "name": "C5",
            "midi": 72,
            "time": 85.50000000000011,
            "velocity": 0.8031496062992126,
            "duration": 0.25
          },
          {
            "name": "A4",
            "midi": 69,
            "time": 85.50000000000011,
            "velocity": 0.7874015748031497,
            "duration": 0.25
          },
          {
            "name": "G#2",
            "midi": 44,
            "time": 85.50000000000011,
            "velocity": 0.6771653543307087,
            "duration": 0.125
          },
          {
            "name": "D2",
            "midi": 38,
            "time": 85.50000000000011,
            "velocity": 0.7874015748031497,
            "duration": 0.125
          },
          {
            "name": "C4",
            "midi": 60,
            "time": 85.58333333333344,
            "velocity": 0.47244094488188976,
            "duration": 0.25
          },
          {
            "name": "F#3",
            "midi": 54,
            "time": 85.60000000000011,
            "velocity": 0.7874015748031497,
            "duration": 0.5
          },
          {
            "name": "D#4",
            "midi": 63,
            "time": 85.70833333333344,
            "velocity": 0.7874015748031497,
            "duration": 0.2916666666666714
          },
          {
            "name": "D#1",
            "midi": 27,
            "time": 85.75000000000011,
            "velocity": 0.7874015748031497,
            "duration": 0.25
          },
          {
            "name": "C2",
            "midi": 36,
            "time": 85.75000000000011,
            "velocity": 0.7716535433070866,
            "duration": 0.0625
          },
          {
            "name": "G#2",
            "midi": 44,
            "time": 85.75000000000011,
            "velocity": 0.6771653543307087,
            "duration": 0.125
          },
          {
            "name": "C5",
            "midi": 72,
            "time": 85.80000000000011,
            "velocity": 0.7874015748031497,
            "duration": 0.25
          },
          {
            "name": "G4",
            "midi": 67,
            "time": 85.83333333333344,
            "velocity": 0.7874015748031497,
            "duration": 0.25
          },
          {
            "name": "D#3",
            "midi": 51,
            "time": 85.95833333333344,
            "velocity": 0.7874015748031497,
            "duration": 0.0625
          },
          {
            "name": "D1",
            "midi": 26,
            "time": 86.00000000000011,
            "velocity": 0.7874015748031497,
            "duration": 0.25
          },
          {
            "name": "A#4",
            "midi": 70,
            "time": 86.00000000000011,
            "velocity": 0.8031496062992126,
            "duration": 0.25
          },
          {
            "name": "D2",
            "midi": 38,
            "time": 86.00000000000011,
            "velocity": 0.7874015748031497,
            "duration": 0.625
          },
          {
            "name": "A#4",
            "midi": 70,
            "time": 86.00000000000011,
            "velocity": 0.7874015748031497,
            "duration": 0.25
          },
          {
            "name": "D3",
            "midi": 50,
            "time": 86.00000000000011,
            "velocity": 0.7874015748031497,
            "duration": 1.7999999999999972
          },
          {
            "name": "A#2",
            "midi": 46,
            "time": 86.00000000000011,
            "velocity": 0.6535433070866141,
            "duration": 2
          },
          {
            "name": "D4",
            "midi": 62,
            "time": 86.00000000000011,
            "velocity": 0.7874015748031497,
            "duration": 0.5833333333333286
          },
          {
            "name": "C2",
            "midi": 36,
            "time": 86.00000000000011,
            "velocity": 0.7716535433070866,
            "duration": 0.0625
          },
          {
            "name": "G#2",
            "midi": 44,
            "time": 86.00000000000011,
            "velocity": 0.6771653543307087,
            "duration": 0.125
          },
          {
            "name": "F3",
            "midi": 53,
            "time": 86.08333333333344,
            "velocity": 0.7874015748031497,
            "duration": 0.25
          },
          {
            "name": "A#3",
            "midi": 58,
            "time": 86.20833333333344,
            "velocity": 0.7874015748031497,
            "duration": 0.25
          },
          {
            "name": "D1",
            "midi": 26,
            "time": 86.25000000000011,
            "velocity": 0.7874015748031497,
            "duration": 0.25
          },
          {
            "name": "A#4",
            "midi": 70,
            "time": 86.25000000000011,
            "velocity": 0.7874015748031497,
            "duration": 0.25
          },
          {
            "name": "G#2",
            "midi": 44,
            "time": 86.25000000000011,
            "velocity": 0.6771653543307087,
            "duration": 0.125
          },
          {
            "name": "D4",
            "midi": 62,
            "time": 86.33333333333344,
            "velocity": 0.7874015748031497,
            "duration": 0.75
          },
          {
            "name": "D1",
            "midi": 26,
            "time": 86.50000000000011,
            "velocity": 0.7874015748031497,
            "duration": 0.25
          },
          {
            "name": "A#4",
            "midi": 70,
            "time": 86.50000000000011,
            "velocity": 0.8031496062992126,
            "duration": 0.25
          },
          {
            "name": "D2",
            "midi": 38,
            "time": 86.50000000000011,
            "velocity": 0.7874015748031497,
            "duration": 1.125
          },
          {
            "name": "G#2",
            "midi": 44,
            "time": 86.50000000000011,
            "velocity": 0.6771653543307087,
            "duration": 0.125
          },
          {
            "name": "F3",
            "midi": 53,
            "time": 86.58333333333344,
            "velocity": 0.7874015748031497,
            "duration": 0.25
          },
          {
            "name": "A#3",
            "midi": 58,
            "time": 86.70833333333344,
            "velocity": 0.7874015748031497,
            "duration": 0.25
          },
          {
            "name": "D1",
            "midi": 26,
            "time": 86.75000000000011,
            "velocity": 0.7874015748031497,
            "duration": 0.25
          },
          {
            "name": "G#2",
            "midi": 44,
            "time": 86.75000000000011,
            "velocity": 0.6771653543307087,
            "duration": 0.125
          },
          {
            "name": "C2",
            "midi": 36,
            "time": 86.75000000000011,
            "velocity": 0.7716535433070866,
            "duration": 0.0625
          },
          {
            "name": "D4",
            "midi": 62,
            "time": 86.83333333333344,
            "velocity": 0.7874015748031497,
            "duration": 0.75
          },
          {
            "name": "D1",
            "midi": 26,
            "time": 87.00000000000011,
            "velocity": 0.7874015748031497,
            "duration": 0.25
          },
          {
            "name": "A#4",
            "midi": 70,
            "time": 87.00000000000011,
            "velocity": 0.8031496062992126,
            "duration": 0.25
          },
          {
            "name": "A#4",
            "midi": 70,
            "time": 87.00000000000011,
            "velocity": 0.7874015748031497,
            "duration": 0.25
          },
          {
            "name": "G#2",
            "midi": 44,
            "time": 87.00000000000011,
            "velocity": 0.6771653543307087,
            "duration": 0.125
          },
          {
            "name": "C2",
            "midi": 36,
            "time": 87.00000000000011,
            "velocity": 0.7716535433070866,
            "duration": 0.0625
          },
          {
            "name": "F3",
            "midi": 53,
            "time": 87.08333333333344,
            "velocity": 0.47244094488188976,
            "duration": 0.25
          },
          {
            "name": "A#3",
            "midi": 58,
            "time": 87.20833333333344,
            "velocity": 0.7874015748031497,
            "duration": 0.25
          },
          {
            "name": "D1",
            "midi": 26,
            "time": 87.25000000000011,
            "velocity": 0.7874015748031497,
            "duration": 0.25
          },
          {
            "name": "C5",
            "midi": 72,
            "time": 87.25000000000011,
            "velocity": 0.7874015748031497,
            "duration": 0.25
          },
          {
            "name": "G#2",
            "midi": 44,
            "time": 87.25000000000011,
            "velocity": 0.6771653543307087,
            "duration": 0.125
          },
          {
            "name": "C2",
            "midi": 36,
            "time": 87.25000000000011,
            "velocity": 0.5511811023622047,
            "duration": 0.0625
          },
          {
            "name": "D4",
            "midi": 62,
            "time": 87.33333333333344,
            "velocity": 0.7874015748031497,
            "duration": 0.6666666666666714
          },
          {
            "name": "D1",
            "midi": 26,
            "time": 87.50000000000011,
            "velocity": 0.7874015748031497,
            "duration": 0.25
          },
          {
            "name": "A#4",
            "midi": 70,
            "time": 87.50000000000011,
            "velocity": 0.8031496062992126,
            "duration": 0.25
          },
          {
            "name": "A#4",
            "midi": 70,
            "time": 87.50000000000011,
            "velocity": 0.7874015748031497,
            "duration": 0.25
          },
          {
            "name": "D2",
            "midi": 38,
            "time": 87.50000000000011,
            "velocity": 0.7874015748031497,
            "duration": 0.5
          },
          {
            "name": "G#2",
            "midi": 44,
            "time": 87.50000000000011,
            "velocity": 0.6771653543307087,
            "duration": 0.125
          },
          {
            "name": "F3",
            "midi": 53,
            "time": 87.58333333333344,
            "velocity": 0.47244094488188976,
            "duration": 0.25
          },
          {
            "name": "A#3",
            "midi": 58,
            "time": 87.70833333333344,
            "velocity": 0.7874015748031497,
            "duration": 0.25
          },
          {
            "name": "D1",
            "midi": 26,
            "time": 87.75000000000011,
            "velocity": 0.7874015748031497,
            "duration": 0.25
          },
          {
            "name": "G#2",
            "midi": 44,
            "time": 87.75000000000011,
            "velocity": 0.6771653543307087,
            "duration": 0.125
          },
          {
            "name": "C2",
            "midi": 36,
            "time": 87.75000000000011,
            "velocity": 0.7716535433070866,
            "duration": 0.0625
          },
          {
            "name": "C#5",
            "midi": 73,
            "time": 87.80000000000011,
            "velocity": 0.7874015748031497,
            "duration": 0.25
          },
          {
            "name": "D4",
            "midi": 62,
            "time": 87.83333333333344,
            "velocity": 0.7874015748031497,
            "duration": 0.25
          },
          {
            "name": "D3",
            "midi": 50,
            "time": 87.95833333333344,
            "velocity": 0.7874015748031497,
            "duration": 0.0625
          },
          {
            "name": "C#1",
            "midi": 25,
            "time": 88.00000000000011,
            "velocity": 0.7874015748031497,
            "duration": 0.25
          },
          {
            "name": "A#4",
            "midi": 70,
            "time": 88.00000000000011,
            "velocity": 0.8031496062992126,
            "duration": 0.25
          },
          {
            "name": "C#2",
            "midi": 37,
            "time": 88.00000000000011,
            "velocity": 0.7874015748031497,
            "duration": 1
          },
          {
            "name": "A2",
            "midi": 45,
            "time": 88.00000000000011,
            "velocity": 0.6535433070866141,
            "duration": 2
          },
          {
            "name": "C#3",
            "midi": 49,
            "time": 88.00000000000011,
            "velocity": 0.7874015748031497,
            "duration": 1.7999999999999972
          },
          {
            "name": "C#4",
            "midi": 61,
            "time": 88.00000000000011,
            "velocity": 0.7874015748031497,
            "duration": 0.5833333333333286
          },
          {
            "name": "G#2",
            "midi": 44,
            "time": 88.00000000000011,
            "velocity": 0.6771653543307087,
            "duration": 0.125
          },
          {
            "name": "C2",
            "midi": 36,
            "time": 88.00000000000011,
            "velocity": 0.7716535433070866,
            "duration": 0.0625
          },
          {
            "name": "E3",
            "midi": 52,
            "time": 88.08333333333344,
            "velocity": 0.7874015748031497,
            "duration": 0.25
          },
          {
            "name": "A#3",
            "midi": 58,
            "time": 88.20833333333344,
            "velocity": 0.7874015748031497,
            "duration": 0.25
          },
          {
            "name": "C#1",
            "midi": 25,
            "time": 88.25000000000011,
            "velocity": 0.7874015748031497,
            "duration": 0.25
          },
          {
            "name": "G#2",
            "midi": 44,
            "time": 88.25000000000011,
            "velocity": 0.6771653543307087,
            "duration": 0.125
          },
          {
            "name": "C#4",
            "midi": 61,
            "time": 88.33333333333344,
            "velocity": 0.7874015748031497,
            "duration": 0.75
          },
          {
            "name": "C2",
            "midi": 36,
            "time": 88.37500000000011,
            "velocity": 0.7716535433070866,
            "duration": 0.0625
          },
          {
            "name": "C#1",
            "midi": 25,
            "time": 88.50000000000011,
            "velocity": 0.7874015748031497,
            "duration": 0.25
          },
          {
            "name": "A#4",
            "midi": 70,
            "time": 88.50000000000011,
            "velocity": 0.8031496062992126,
            "duration": 0.25
          },
          {
            "name": "D2",
            "midi": 38,
            "time": 88.50000000000011,
            "velocity": 0.7874015748031497,
            "duration": 0.125
          },
          {
            "name": "G#2",
            "midi": 44,
            "time": 88.50000000000011,
            "velocity": 0.6771653543307087,
            "duration": 0.125
          },
          {
            "name": "E3",
            "midi": 52,
            "time": 88.58333333333344,
            "velocity": 0.7874015748031497,
            "duration": 0.25
          },
          {
            "name": "A#3",
            "midi": 58,
            "time": 88.70833333333344,
            "velocity": 0.7874015748031497,
            "duration": 0.25
          },
          {
            "name": "C#1",
            "midi": 25,
            "time": 88.75000000000011,
            "velocity": 0.7874015748031497,
            "duration": 0.25
          },
          {
            "name": "G#2",
            "midi": 44,
            "time": 88.75000000000011,
            "velocity": 0.6771653543307087,
            "duration": 0.125
          },
          {
            "name": "C2",
            "midi": 36,
            "time": 88.75000000000011,
            "velocity": 0.7716535433070866,
            "duration": 0.0625
          },
          {
            "name": "C#4",
            "midi": 61,
            "time": 88.83333333333344,
            "velocity": 0.7874015748031497,
            "duration": 0.75
          },
          {
            "name": "C#1",
            "midi": 25,
            "time": 89.00000000000011,
            "velocity": 0.7874015748031497,
            "duration": 0.25
          },
          {
            "name": "A#4",
            "midi": 70,
            "time": 89.00000000000011,
            "velocity": 0.8031496062992126,
            "duration": 0.25
          },
          {
            "name": "C#2",
            "midi": 37,
            "time": 89.00000000000011,
            "velocity": 0.7874015748031497,
            "duration": 0.5
          },
          {
            "name": "C#5",
            "midi": 73,
            "time": 89.00000000000011,
            "velocity": 0.7874015748031497,
            "duration": 0.25
          },
          {
            "name": "C2",
            "midi": 36,
            "time": 89.00000000000011,
            "velocity": 0.7716535433070866,
            "duration": 0.0625
          },
          {
            "name": "G#2",
            "midi": 44,
            "time": 89.00000000000011,
            "velocity": 0.6771653543307087,
            "duration": 0.125
          },
          {
            "name": "E3",
            "midi": 52,
            "time": 89.08333333333344,
            "velocity": 0.47244094488188976,
            "duration": 0.25
          },
          {
            "name": "A#3",
            "midi": 58,
            "time": 89.20833333333344,
            "velocity": 0.7874015748031497,
            "duration": 0.25
          },
          {
            "name": "C#1",
            "midi": 25,
            "time": 89.25000000000011,
            "velocity": 0.7874015748031497,
            "duration": 0.25
          },
          {
            "name": "C5",
            "midi": 72,
            "time": 89.25000000000011,
            "velocity": 0.7874015748031497,
            "duration": 0.25
          },
          {
            "name": "C2",
            "midi": 36,
            "time": 89.25000000000011,
            "velocity": 0.5511811023622047,
            "duration": 0.0625
          },
          {
            "name": "G#2",
            "midi": 44,
            "time": 89.25000000000011,
            "velocity": 0.6771653543307087,
            "duration": 0.125
          },
          {
            "name": "C#4",
            "midi": 61,
            "time": 89.33333333333344,
            "velocity": 0.7874015748031497,
            "duration": 0.6666666666666714
          },
          {
            "name": "C#1",
            "midi": 25,
            "time": 89.50000000000011,
            "velocity": 0.7874015748031497,
            "duration": 0.25
          },
          {
            "name": "C#2",
            "midi": 37,
            "time": 89.50000000000011,
            "velocity": 0.7874015748031497,
            "duration": 0.5
          },
          {
            "name": "A#4",
            "midi": 70,
            "time": 89.50000000000011,
            "velocity": 0.8031496062992126,
            "duration": 0.25
          },
          {
            "name": "G#2",
            "midi": 44,
            "time": 89.50000000000011,
            "velocity": 0.6771653543307087,
            "duration": 0.125
          },
          {
            "name": "D2",
            "midi": 38,
            "time": 89.50000000000011,
            "velocity": 0.7874015748031497,
            "duration": 0.125
          },
          {
            "name": "E3",
            "midi": 52,
            "time": 89.58333333333344,
            "velocity": 0.47244094488188976,
            "duration": 0.25
          },
          {
            "name": "A#3",
            "midi": 58,
            "time": 89.70833333333344,
            "velocity": 0.7874015748031497,
            "duration": 0.25
          },
          {
            "name": "C#1",
            "midi": 25,
            "time": 89.75000000000011,
            "velocity": 0.7874015748031497,
            "duration": 0.25
          },
          {
            "name": "A#4",
            "midi": 70,
            "time": 89.75000000000011,
            "velocity": 0.7874015748031497,
            "duration": 0.25
          },
          {
            "name": "C2",
            "midi": 36,
            "time": 89.75000000000011,
            "velocity": 0.7716535433070866,
            "duration": 0.0625
          },
          {
            "name": "G#2",
            "midi": 44,
            "time": 89.75000000000011,
            "velocity": 0.6771653543307087,
            "duration": 0.125
          },
          {
            "name": "C#4",
            "midi": 61,
            "time": 89.83333333333344,
            "velocity": 0.7874015748031497,
            "duration": 0.25
          },
          {
            "name": "C#3",
            "midi": 49,
            "time": 89.95833333333344,
            "velocity": 0.7874015748031497,
            "duration": 0.0625
          },
          {
            "name": "C1",
            "midi": 24,
            "time": 90.00000000000011,
            "velocity": 0.7874015748031497,
            "duration": 0.25
          },
          {
            "name": "A4",
            "midi": 69,
            "time": 90.00000000000011,
            "velocity": 0.7874015748031497,
            "duration": 0.4000000000000057
          },
          {
            "name": "F4",
            "midi": 65,
            "time": 90.00000000000011,
            "velocity": 0.7874015748031497,
            "duration": 0.4000000000000057
          },
          {
            "name": "C4",
            "midi": 60,
            "time": 90.00000000000011,
            "velocity": 0.7874015748031497,
            "duration": 0.4000000000000057
          },
          {
            "name": "C2",
            "midi": 36,
            "time": 90.00000000000011,
            "velocity": 0.7874015748031497,
            "duration": 0.0625
          },
          {
            "name": "A#4",
            "midi": 70,
            "time": 90.00000000000011,
            "velocity": 0.7874015748031497,
            "duration": 0.25
          },
          {
            "name": "F2",
            "midi": 41,
            "time": 90.00000000000011,
            "velocity": 0.6535433070866141,
            "duration": 2
          },
          {
            "name": "C3",
            "midi": 48,
            "time": 90.00000000000011,
            "velocity": 0.7874015748031497,
            "duration": 1.7999999999999972
          },
          {
            "name": "C4",
            "midi": 60,
            "time": 90.00000000000011,
            "velocity": 0.7874015748031497,
            "duration": 0.75
          },
          {
            "name": "C2",
            "midi": 36,
            "time": 90.00000000000011,
            "velocity": 0.7716535433070866,
            "duration": 0.8125
          },
          {
            "name": "G#2",
            "midi": 44,
            "time": 90.00000000000011,
            "velocity": 0.6771653543307087,
            "duration": 0.125
          },
          {
            "name": "C1",
            "midi": 24,
            "time": 90.25000000000011,
            "velocity": 0.7874015748031497,
            "duration": 0.25
          },
          {
            "name": "G#2",
            "midi": 44,
            "time": 90.25000000000011,
            "velocity": 0.6771653543307087,
            "duration": 0.125
          },
          {
            "name": "C1",
            "midi": 24,
            "time": 90.50000000000011,
            "velocity": 0.7874015748031497,
            "duration": 0.25
          },
          {
            "name": "A4",
            "midi": 69,
            "time": 90.50000000000011,
            "velocity": 0.7874015748031497,
            "duration": 0.25
          },
          {
            "name": "C4",
            "midi": 60,
            "time": 90.50000000000011,
            "velocity": 0.7874015748031497,
            "duration": 0.75
          },
          {
            "name": "F4",
            "midi": 65,
            "time": 90.50000000000011,
            "velocity": 0.7874015748031497,
            "duration": 0.29999999999999716
          },
          {
            "name": "A4",
            "midi": 69,
            "time": 90.50000000000011,
            "velocity": 0.7874015748031497,
            "duration": 0.29999999999999716
          },
          {
            "name": "D2",
            "midi": 38,
            "time": 90.50000000000011,
            "velocity": 0.7874015748031497,
            "duration": 0.125
          },
          {
            "name": "G#2",
            "midi": 44,
            "time": 90.50000000000011,
            "velocity": 0.6771653543307087,
            "duration": 0.125
          },
          {
            "name": "C1",
            "midi": 24,
            "time": 90.75000000000011,
            "velocity": 0.7874015748031497,
            "duration": 0.25
          },
          {
            "name": "G#2",
            "midi": 44,
            "time": 90.75000000000011,
            "velocity": 0.6771653543307087,
            "duration": 0.125
          },
          {
            "name": "C2",
            "midi": 36,
            "time": 90.75000000000011,
            "velocity": 0.7716535433070866,
            "duration": 0.25
          },
          {
            "name": "C1",
            "midi": 24,
            "time": 91.00000000000011,
            "velocity": 0.7874015748031497,
            "duration": 0.25
          },
          {
            "name": "A4",
            "midi": 69,
            "time": 91.00000000000011,
            "velocity": 0.7874015748031497,
            "duration": 0.29999999999999716
          },
          {
            "name": "C4",
            "midi": 60,
            "time": 91.00000000000011,
            "velocity": 0.7874015748031497,
            "duration": 1
          },
          {
            "name": "C3",
            "midi": 48,
            "time": 91.00000000000011,
            "velocity": 0.7874015748031497,
            "duration": 1
          },
          {
            "name": "F4",
            "midi": 65,
            "time": 91.00000000000011,
            "velocity": 0.7874015748031497,
            "duration": 0.25
          },
          {
            "name": "G#2",
            "midi": 44,
            "time": 91.00000000000011,
            "velocity": 0.6771653543307087,
            "duration": 0.125
          },
          {
            "name": "C2",
            "midi": 36,
            "time": 91.00000000000011,
            "velocity": 0.7716535433070866,
            "duration": 0.0625
          },
          {
            "name": "C1",
            "midi": 24,
            "time": 91.25000000000011,
            "velocity": 0.7874015748031497,
            "duration": 0.25
          },
          {
            "name": "F4",
            "midi": 65,
            "time": 91.25000000000011,
            "velocity": 0.7874015748031497,
            "duration": 0.5499999999999972
          },
          {
            "name": "D5",
            "midi": 74,
            "time": 91.25000000000011,
            "velocity": 0.7874015748031497,
            "duration": 0.25
          },
          {
            "name": "D5",
            "midi": 74,
            "time": 91.25000000000011,
            "velocity": 0.7874015748031497,
            "duration": 0.29999999999999716
          },
          {
            "name": "G#2",
            "midi": 44,
            "time": 91.25000000000011,
            "velocity": 0.6771653543307087,
            "duration": 0.125
          },
          {
            "name": "C2",
            "midi": 36,
            "time": 91.25000000000011,
            "velocity": 0.5511811023622047,
            "duration": 0.0625
          },
          {
            "name": "C1",
            "midi": 24,
            "time": 91.50000000000011,
            "velocity": 0.7874015748031497,
            "duration": 0.25
          },
          {
            "name": "A#4",
            "midi": 70,
            "time": 91.50000000000011,
            "velocity": 0.7874015748031497,
            "duration": 0.25
          },
          {
            "name": "A#4",
            "midi": 70,
            "time": 91.50000000000011,
            "velocity": 0.7874015748031497,
            "duration": 0.29999999999999716
          },
          {
            "name": "D2",
            "midi": 38,
            "time": 91.50000000000011,
            "velocity": 0.7874015748031497,
            "duration": 0.125
          },
          {
            "name": "G#2",
            "midi": 44,
            "time": 91.50000000000011,
            "velocity": 0.6771653543307087,
            "duration": 0.125
          },
          {
            "name": "C2",
            "midi": 36,
            "time": 91.62500000000011,
            "velocity": 0.7716535433070866,
            "duration": 0.0625
          },
          {
            "name": "C1",
            "midi": 24,
            "time": 91.75000000000011,
            "velocity": 0.7874015748031497,
            "duration": 0.25
          },
          {
            "name": "A4",
            "midi": 69,
            "time": 91.75000000000011,
            "velocity": 0.7874015748031497,
            "duration": 0.29999999999999716
          },
          {
            "name": "E4",
            "midi": 64,
            "time": 91.75000000000011,
            "velocity": 0.7874015748031497,
            "duration": 0.25
          },
          {
            "name": "G#2",
            "midi": 44,
            "time": 91.75000000000011,
            "velocity": 0.6771653543307087,
            "duration": 0.125
          },
          {
            "name": "A4",
            "midi": 69,
            "time": 91.80000000000011,
            "velocity": 0.7874015748031497,
            "duration": 0.25
          },
          {
            "name": "C3",
            "midi": 48,
            "time": 91.95833333333344,
            "velocity": 0.7874015748031497,
            "duration": 0.0625
          },
          {
            "name": "G1",
            "midi": 31,
            "time": 92.00000000000011,
            "velocity": 0.7874015748031497,
            "duration": 0.25
          },
          {
            "name": "D4",
            "midi": 62,
            "time": 92.00000000000011,
            "velocity": 0.7874015748031497,
            "duration": 1.2000000000000028
          },
          {
            "name": "G4",
            "midi": 67,
            "time": 92.00000000000011,
            "velocity": 0.7874015748031497,
            "duration": 0.25
          },
          {
            "name": "G2",
            "midi": 43,
            "time": 92.00000000000011,
            "velocity": 0.7874015748031497,
            "duration": 1.7999999999999972
          },
          {
            "name": "G4",
            "midi": 67,
            "time": 92.00000000000011,
            "velocity": 0.7874015748031497,
            "duration": 1
          },
          {
            "name": "G2",
            "midi": 43,
            "time": 92.00000000000011,
            "velocity": 0.7874015748031497,
            "duration": 1.9791666666666714
          },
          {
            "name": "G4",
            "midi": 67,
            "time": 92.00000000000011,
            "velocity": 0.7874015748031497,
            "duration": 1.4500000000000028
          },
          {
            "name": "C2",
            "midi": 36,
            "time": 92.00000000000011,
            "velocity": 0.7716535433070866,
            "duration": 0.0625
          },
          {
            "name": "G#2",
            "midi": 44,
            "time": 92.00000000000011,
            "velocity": 0.6771653543307087,
            "duration": 0.125
          },
          {
            "name": "G1",
            "midi": 31,
            "time": 92.25000000000011,
            "velocity": 0.7874015748031497,
            "duration": 0.25
          },
          {
            "name": "D3",
            "midi": 50,
            "time": 92.25000000000011,
            "velocity": 0.6299212598425197,
            "duration": 0.29999999999999716
          },
          {
            "name": "G#2",
            "midi": 44,
            "time": 92.25000000000011,
            "velocity": 0.6771653543307087,
            "duration": 0.125
          },
          {
            "name": "C2",
            "midi": 36,
            "time": 92.37500000000011,
            "velocity": 0.5511811023622047,
            "duration": 0.0625
          },
          {
            "name": "G1",
            "midi": 31,
            "time": 92.50000000000011,
            "velocity": 0.7874015748031497,
            "duration": 0.25
          },
          {
            "name": "G3",
            "midi": 55,
            "time": 92.50000000000011,
            "velocity": 0.6299212598425197,
            "duration": 0.29999999999999716
          },
          {
            "name": "D2",
            "midi": 38,
            "time": 92.50000000000011,
            "velocity": 0.7874015748031497,
            "duration": 0.125
          },
          {
            "name": "G#2",
            "midi": 44,
            "time": 92.50000000000011,
            "velocity": 0.6771653543307087,
            "duration": 0.125
          },
          {
            "name": "G1",
            "midi": 31,
            "time": 92.75000000000011,
            "velocity": 0.7874015748031497,
            "duration": 0.25
          },
          {
            "name": "G#2",
            "midi": 44,
            "time": 92.75000000000011,
            "velocity": 0.6771653543307087,
            "duration": 0.125
          },
          {
            "name": "G1",
            "midi": 31,
            "time": 93.00000000000011,
            "velocity": 0.7874015748031497,
            "duration": 0.25
          },
          {
            "name": "A4",
            "midi": 69,
            "time": 93.00000000000011,
            "velocity": 0.7874015748031497,
            "duration": 0.20000000000000284
          },
          {
            "name": "A4",
            "midi": 69,
            "time": 93.00000000000011,
            "velocity": 0.7874015748031497,
            "duration": 0.25
          },
          {
            "name": "G#2",
            "midi": 44,
            "time": 93.00000000000011,
            "velocity": 0.6771653543307087,
            "duration": 0.125
          },
          {
            "name": "C2",
            "midi": 36,
            "time": 93.00000000000011,
            "velocity": 0.7716535433070866,
            "duration": 0.0625
          },
          {
            "name": "G4",
            "midi": 67,
            "time": 93.12500000000011,
            "velocity": 0.7874015748031497,
            "duration": 0.4749999999999943
          },
          {
            "name": "G4",
            "midi": 67,
            "time": 93.20000000000012,
            "velocity": 0.7874015748031497,
            "duration": 0.7999999999999972
          },
          {
            "name": "G1",
            "midi": 31,
            "time": 93.25000000000011,
            "velocity": 0.7874015748031497,
            "duration": 0.25
          },
          {
            "name": "F4",
            "midi": 65,
            "time": 93.25000000000011,
            "velocity": 0.7874015748031497,
            "duration": 0.45000000000000284
          },
          {
            "name": "G#2",
            "midi": 44,
            "time": 93.25000000000011,
            "velocity": 0.6771653543307087,
            "duration": 0.125
          },
          {
            "name": "C2",
            "midi": 36,
            "time": 93.25000000000011,
            "velocity": 0.5511811023622047,
            "duration": 0.0625
          },
          {
            "name": "F4",
            "midi": 65,
            "time": 93.45000000000012,
            "velocity": 0.7874015748031497,
            "duration": 0.3499999999999943
          },
          {
            "name": "G1",
            "midi": 31,
            "time": 93.50000000000011,
            "velocity": 0.7874015748031497,
            "duration": 0.25
          },
          {
            "name": "D4",
            "midi": 62,
            "time": 93.50000000000011,
            "velocity": 0.7874015748031497,
            "duration": 0.5
          },
          {
            "name": "D2",
            "midi": 38,
            "time": 93.50000000000011,
            "velocity": 0.7874015748031497,
            "duration": 0.125
          },
          {
            "name": "G#2",
            "midi": 44,
            "time": 93.50000000000011,
            "velocity": 0.6771653543307087,
            "duration": 0.125
          },
          {
            "name": "F#3",
            "midi": 54,
            "time": 93.60000000000011,
            "velocity": 0.7874015748031497,
            "duration": 0.5
          },
          {
            "name": "D4",
            "midi": 62,
            "time": 93.70000000000012,
            "velocity": 0.7874015748031497,
            "duration": 0.29999999999999716
          },
          {
            "name": "G1",
            "midi": 31,
            "time": 93.75000000000011,
            "velocity": 0.7874015748031497,
            "duration": 0.25
          },
          {
            "name": "G#2",
            "midi": 44,
            "time": 93.75000000000011,
            "velocity": 0.6771653543307087,
            "duration": 0.125
          },
          {
            "name": "G2",
            "midi": 43,
            "time": 93.91666666666679,
            "velocity": 0.7874015748031497,
            "duration": 0.0833333333333286
          },
          {
            "name": "G2",
            "midi": 43,
            "time": 94.00000000000011,
            "velocity": 0.7874015748031497,
            "duration": 0.25
          },
          {
            "name": "D4",
            "midi": 62,
            "time": 94.00000000000011,
            "velocity": 0.7559055118110236,
            "duration": 0.4000000000000057
          },
          {
            "name": "A#3",
            "midi": 58,
            "time": 94.00000000000011,
            "velocity": 0.7559055118110236,
            "duration": 0.4000000000000057
          },
          {
            "name": "G3",
            "midi": 55,
            "time": 94.00000000000011,
            "velocity": 0.7559055118110236,
            "duration": 0.4000000000000057
          },
          {
            "name": "G2",
            "midi": 43,
            "time": 94.00000000000011,
            "velocity": 0.7874015748031497,
            "duration": 0.5
          },
          {
            "name": "A4",
            "midi": 69,
            "time": 94.00000000000011,
            "velocity": 0.8740157480314961,
            "duration": 0.5999999999999943
          },
          {
            "name": "A4",
            "midi": 69,
            "time": 94.00000000000011,
            "velocity": 0.7874015748031497,
            "duration": 1
          },
          {
            "name": "D3",
            "midi": 50,
            "time": 94.00000000000011,
            "velocity": 0.7874015748031497,
            "duration": 1.7999999999999972
          },
          {
            "name": "G2",
            "midi": 43,
            "time": 94.00000000000011,
            "velocity": 0.7874015748031497,
            "duration": 0.5
          },
          {
            "name": "D4",
            "midi": 62,
            "time": 94.00000000000011,
            "velocity": 0.7874015748031497,
            "duration": 0.9000000000000057
          },
          {
            "name": "C2",
            "midi": 36,
            "time": 94.00000000000011,
            "velocity": 0.7716535433070866,
            "duration": 0.0625
          },
          {
            "name": "G#2",
            "midi": 44,
            "time": 94.00000000000011,
            "velocity": 0.6771653543307087,
            "duration": 0.125
          },
          {
            "name": "G2",
            "midi": 43,
            "time": 94.25000000000011,
            "velocity": 0.7874015748031497,
            "duration": 0.5
          },
          {
            "name": "G#2",
            "midi": 44,
            "time": 94.25000000000011,
            "velocity": 0.6771653543307087,
            "duration": 0.125
          },
          {
            "name": "C2",
            "midi": 36,
            "time": 94.37500000000011,
            "velocity": 0.7874015748031497,
            "duration": 0.0625
          },
          {
            "name": "G2",
            "midi": 43,
            "time": 94.50000000000011,
            "velocity": 0.7874015748031497,
            "duration": 0.5
          },
          {
            "name": "A#3",
            "midi": 58,
            "time": 94.50000000000011,
            "velocity": 0.7559055118110236,
            "duration": 0.4000000000000057
          },
          {
            "name": "G3",
            "midi": 55,
            "time": 94.50000000000011,
            "velocity": 0.7559055118110236,
            "duration": 0.4000000000000057
          },
          {
            "name": "D4",
            "midi": 62,
            "time": 94.50000000000011,
            "velocity": 0.7559055118110236,
            "duration": 0.9000000000000057
          },
          {
            "name": "G2",
            "midi": 43,
            "time": 94.50000000000011,
            "velocity": 0.7874015748031497,
            "duration": 0.5
          },
          {
            "name": "G4",
            "midi": 67,
            "time": 94.50000000000011,
            "velocity": 0.7874015748031497,
            "duration": 0.29999999999999716
          },
          {
            "name": "D2",
            "midi": 38,
            "time": 94.50000000000011,
            "velocity": 0.7874015748031497,
            "duration": 0.125
          },
          {
            "name": "G#2",
            "midi": 44,
            "time": 94.50000000000011,
            "velocity": 0.6771653543307087,
            "duration": 0.125
          },
          {
            "name": "G2",
            "midi": 43,
            "time": 94.75000000000011,
            "velocity": 0.7874015748031497,
            "duration": 0.5
          },
          {
            "name": "G#2",
            "midi": 44,
            "time": 94.75000000000011,
            "velocity": 0.6771653543307087,
            "duration": 0.125
          },
          {
            "name": "D2",
            "midi": 38,
            "time": 94.75000000000011,
            "velocity": 0.7874015748031497,
            "duration": 0.125
          },
          {
            "name": "G2",
            "midi": 43,
            "time": 95.00000000000011,
            "velocity": 0.7874015748031497,
            "duration": 0.5
          },
          {
            "name": "A#3",
            "midi": 58,
            "time": 95.00000000000011,
            "velocity": 0.7559055118110236,
            "duration": 0.4000000000000057
          },
          {
            "name": "G3",
            "midi": 55,
            "time": 95.00000000000011,
            "velocity": 0.7559055118110236,
            "duration": 0.4000000000000057
          },
          {
            "name": "A#4",
            "midi": 70,
            "time": 95.00000000000011,
            "velocity": 0.8740157480314961,
            "duration": 0.29999999999999716
          },
          {
            "name": "G2",
            "midi": 43,
            "time": 95.00000000000011,
            "velocity": 0.7874015748031497,
            "duration": 0.5
          },
          {
            "name": "D4",
            "midi": 62,
            "time": 95.00000000000011,
            "velocity": 0.7559055118110236,
            "duration": 0.9000000000000057
          },
          {
            "name": "A#4",
            "midi": 70,
            "time": 95.00000000000011,
            "velocity": 0.7874015748031497,
            "duration": 1.0000000000000142
          },
          {
            "name": "G#2",
            "midi": 44,
            "time": 95.00000000000011,
            "velocity": 0.6771653543307087,
            "duration": 0.125
          },
          {
            "name": "C2",
            "midi": 36,
            "time": 95.00000000000011,
            "velocity": 0.7716535433070866,
            "duration": 0.0625
          },
          {
            "name": "D2",
            "midi": 38,
            "time": 95.12500000000011,
            "velocity": 0.4330708661417323,
            "duration": 0.0625
          },
          {
            "name": "G2",
            "midi": 43,
            "time": 95.25000000000011,
            "velocity": 0.7874015748031497,
            "duration": 0.5
          },
          {
            "name": "G#2",
            "midi": 44,
            "time": 95.25000000000011,
            "velocity": 0.6771653543307087,
            "duration": 0.125
          },
          {
            "name": "D2",
            "midi": 38,
            "time": 95.25000000000011,
            "velocity": 0.5511811023622047,
            "duration": 0.0625
          },
          {
            "name": "G2",
            "midi": 43,
            "time": 95.50000000000011,
            "velocity": 0.7874015748031497,
            "duration": 0.5000000000000142
          },
          {
            "name": "A#3",
            "midi": 58,
            "time": 95.50000000000011,
            "velocity": 0.7559055118110236,
            "duration": 0.4000000000000057
          },
          {
            "name": "G3",
            "midi": 55,
            "time": 95.50000000000011,
            "velocity": 0.7559055118110236,
            "duration": 0.4000000000000057
          },
          {
            "name": "D4",
            "midi": 62,
            "time": 95.50000000000011,
            "velocity": 0.7559055118110236,
            "duration": 0.5000000000000142
          },
          {
            "name": "G2",
            "midi": 43,
            "time": 95.50000000000011,
            "velocity": 0.7874015748031497,
            "duration": 0.5000000000000142
          },
          {
            "name": "G#2",
            "midi": 44,
            "time": 95.50000000000011,
            "velocity": 0.6771653543307087,
            "duration": 0.125
          },
          {
            "name": "D2",
            "midi": 38,
            "time": 95.50000000000011,
            "velocity": 0.7874015748031497,
            "duration": 0.125
          },
          {
            "name": "F#3",
            "midi": 54,
            "time": 95.60000000000011,
            "velocity": 0.7874015748031497,
            "duration": 0.5000000000000142
          },
          {
            "name": "G2",
            "midi": 43,
            "time": 95.75000000000011,
            "velocity": 0.7874015748031497,
            "duration": 2.25
          },
          {
            "name": "G#2",
            "midi": 44,
            "time": 95.75000000000011,
            "velocity": 0.6771653543307087,
            "duration": 0.125
          },
          {
            "name": "D3",
            "midi": 50,
            "time": 95.95833333333346,
            "velocity": 0.7874015748031497,
            "duration": 0.0625
          },
          {
            "name": "C1",
            "midi": 24,
            "time": 96.00000000000013,
            "velocity": 0.7874015748031497,
            "duration": 0.25
          },
          {
            "name": "G4",
            "midi": 67,
            "time": 96.00000000000013,
            "velocity": 0.7874015748031497,
            "duration": 1
          },
          {
            "name": "E4",
            "midi": 64,
            "time": 96.00000000000013,
            "velocity": 0.7874015748031497,
            "duration": 1.5999999999999943
          },
          {
            "name": "C4",
            "midi": 60,
            "time": 96.00000000000013,
            "velocity": 0.7874015748031497,
            "duration": 1.799999999999983
          },
          {
            "name": "C2",
            "midi": 36,
            "time": 96.00000000000013,
            "velocity": 0.7874015748031497,
            "duration": 0.01666666666666572
          },
          {
            "name": "A4",
            "midi": 69,
            "time": 96.00000000000013,
            "velocity": 0.7874015748031497,
            "duration": 0.5999999999999943
          },
          {
            "name": "C3",
            "midi": 48,
            "time": 96.00000000000013,
            "velocity": 0.7874015748031497,
            "duration": 1
          },
          {
            "name": "C4",
            "midi": 60,
            "time": 96.00000000000013,
            "velocity": 0.7874015748031497,
            "duration": 1.9999999999999858
          },
          {
            "name": "F#2",
            "midi": 42,
            "time": 96.00000000000013,
            "velocity": 0.8188976377952756,
            "duration": 0.01666666666666572
          },
          {
            "name": "C2",
            "midi": 36,
            "time": 96.00000000000013,
            "velocity": 0.9448818897637795,
            "duration": 1
          },
          {
            "name": "C1",
            "midi": 24,
            "time": 96.25000000000013,
            "velocity": 0.7874015748031497,
            "duration": 0.25
          },
          {
            "name": "F#2",
            "midi": 42,
            "time": 96.25000000000013,
            "velocity": 0.5275590551181102,
            "duration": 0.020833333333328596
          },
          {
            "name": "C1",
            "midi": 24,
            "time": 96.50000000000013,
            "velocity": 0.7874015748031497,
            "duration": 0.25
          },
          {
            "name": "C3",
            "midi": 48,
            "time": 96.50000000000013,
            "velocity": 0.7874015748031497,
            "duration": 0.7666666666666657
          },
          {
            "name": "G4",
            "midi": 67,
            "time": 96.50000000000013,
            "velocity": 0.7874015748031497,
            "duration": 0.5
          },
          {
            "name": "D2",
            "midi": 38,
            "time": 96.50000000000013,
            "velocity": 0.7874015748031497,
            "duration": 0.01666666666666572
          },
          {
            "name": "D2",
            "midi": 38,
            "time": 96.62500000000013,
            "velocity": 0.7874015748031497,
            "duration": 0.008333333333339965
          },
          {
            "name": "A#2",
            "midi": 46,
            "time": 96.74583333333347,
            "velocity": 0.4094488188976378,
            "duration": 0.020833333333328596
          },
          {
            "name": "C1",
            "midi": 24,
            "time": 96.75000000000013,
            "velocity": 0.7874015748031497,
            "duration": 0.25
          },
          {
            "name": "D2",
            "midi": 38,
            "time": 96.87083333333347,
            "velocity": 0.6850393700787402,
            "duration": 0.008333333333339965
          },
          {
            "name": "D2",
            "midi": 38,
            "time": 96.93333333333347,
            "velocity": 0.5590551181102362,
            "duration": 0.008333333333339965
          },
          {
            "name": "D2",
            "midi": 38,
            "time": 96.99583333333347,
            "velocity": 0.7874015748031497,
            "duration": 0.020833333333328596
          },
          {
            "name": "C1",
            "midi": 24,
            "time": 97.00000000000013,
            "velocity": 0.7874015748031497,
            "duration": 0.25
          },
          {
            "name": "C5",
            "midi": 72,
            "time": 97.00000000000013,
            "velocity": 0.7874015748031497,
            "duration": 0.9999999999999858
          },
          {
            "name": "C2",
            "midi": 36,
            "time": 97.00000000000013,
            "velocity": 0.7874015748031497,
            "duration": 0.5
          },
          {
            "name": "G4",
            "midi": 67,
            "time": 97.00000000000013,
            "velocity": 0.7874015748031497,
            "duration": 0.5999999999999943
          },
          {
            "name": "D2",
            "midi": 38,
            "time": 97.12500000000013,
            "velocity": 0.7874015748031497,
            "duration": 0.008333333333339965
          },
          {
            "name": "C3",
            "midi": 48,
            "time": 97.24583333333347,
            "velocity": 0.7952755905511811,
            "duration": 0.5541666666666458
          },
          {
            "name": "C1",
            "midi": 24,
            "time": 97.25000000000013,
            "velocity": 0.7874015748031497,
            "duration": 0.25
          },
          {
            "name": "A2",
            "midi": 45,
            "time": 97.37083333333347,
            "velocity": 0.5826771653543307,
            "duration": 0.012500000000002842
          },
          {
            "name": "A2",
            "midi": 45,
            "time": 97.43333333333347,
            "velocity": 0.4881889763779528,
            "duration": 0.012500000000002842
          },
          {
            "name": "A2",
            "midi": 45,
            "time": 97.49583333333347,
            "velocity": 0.7401574803149606,
            "duration": 0.020833333333328596
          },
          {
            "name": "C1",
            "midi": 24,
            "time": 97.50000000000013,
            "velocity": 0.7874015748031497,
            "duration": 0.2499999999999858
          },
          {
            "name": "C3",
            "midi": 48,
            "time": 97.50000000000013,
            "velocity": 0.7874015748031497,
            "duration": 0.4999999999999858
          },
          {
            "name": "A4",
            "midi": 69,
            "time": 97.50000000000013,
            "velocity": 0.7874015748031497,
            "duration": 1.09999999999998
          },
          {
            "name": "A2",
            "midi": 45,
            "time": 97.62083333333345,
            "velocity": 0.8031496062992126,
            "duration": 0.01666666666666572
          },
          {
            "name": "C1",
            "midi": 24,
            "time": 97.75000000000011,
            "velocity": 0.7874015748031497,
            "duration": 0.25
          },
          {
            "name": "F2",
            "midi": 41,
            "time": 97.75000000000011,
            "velocity": 0.8031496062992126,
            "duration": 0.012500000000002842
          },
          {
            "name": "C3",
            "midi": 48,
            "time": 97.95833333333344,
            "velocity": 0.7874015748031497,
            "duration": 0.0625
          },
          {
            "name": "F1",
            "midi": 29,
            "time": 98.00000000000011,
            "velocity": 0.7874015748031497,
            "duration": 0.5999999999999943
          },
          {
            "name": "C4",
            "midi": 60,
            "time": 98.00000000000011,
            "velocity": 0.7874015748031497,
            "duration": 0.799999999999983
          },
          {
            "name": "F4",
            "midi": 65,
            "time": 98.00000000000011,
            "velocity": 0.7874015748031497,
            "duration": 0.5999999999999943
          },
          {
            "name": "A4",
            "midi": 69,
            "time": 98.00000000000011,
            "velocity": 0.7874015748031497,
            "duration": 0.5999999999999943
          },
          {
            "name": "F2",
            "midi": 41,
            "time": 98.00000000000011,
            "velocity": 0.7874015748031497,
            "duration": 0.5999999999999943
          },
          {
            "name": "F1",
            "midi": 29,
            "time": 98.00000000000011,
            "velocity": 0.7874015748031497,
            "duration": 0.7291666666666572
          },
          {
            "name": "F2",
            "midi": 41,
            "time": 98.00000000000011,
            "velocity": 0.7874015748031497,
            "duration": 0.7291666666666572
          },
          {
            "name": "C3",
            "midi": 48,
            "time": 98.00000000000011,
            "velocity": 0.7874015748031497,
            "duration": 0.7291666666666572
          },
          {
            "name": "F3",
            "midi": 53,
            "time": 98.00000000000011,
            "velocity": 0.7874015748031497,
            "duration": 0.7291666666666572
          },
          {
            "name": "C2",
            "midi": 36,
            "time": 98.00000000000011,
            "velocity": 0.7716535433070866,
            "duration": 0.0625
          },
          {
            "name": "C#3",
            "midi": 49,
            "time": 98.00000000000011,
            "velocity": 0.6771653543307087,
            "duration": 0.125
          },
          {
            "name": "C2",
            "midi": 36,
            "time": 98.40000000000012,
            "velocity": 0.7716535433070866,
            "duration": 0.0625
          },
          {
            "name": "F4",
            "midi": 65,
            "time": 98.50000000000011,
            "velocity": 0.7874015748031497,
            "duration": 0.8999999999999915
          },
          {
            "name": "D2",
            "midi": 38,
            "time": 98.50000000000011,
            "velocity": 0.7874015748031497,
            "duration": 0.01666666666666572
          },
          {
            "name": "F1",
            "midi": 29,
            "time": 98.7500000000001,
            "velocity": 0.7874015748031497,
            "duration": 1.2291666666666572
          },
          {
            "name": "F1",
            "midi": 29,
            "time": 98.7500000000001,
            "velocity": 0.7874015748031497,
            "duration": 1.2499999999999858
          },
          {
            "name": "D4",
            "midi": 62,
            "time": 98.7500000000001,
            "velocity": 0.7874015748031497,
            "duration": 0.6500000000000057
          },
          {
            "name": "F4",
            "midi": 65,
            "time": 98.7500000000001,
            "velocity": 0.7874015748031497,
            "duration": 1.2249999999999943
          },
          {
            "name": "A#4",
            "midi": 70,
            "time": 98.7500000000001,
            "velocity": 0.7874015748031497,
            "duration": 0.6500000000000057
          },
          {
            "name": "F2",
            "midi": 41,
            "time": 98.7500000000001,
            "velocity": 0.7874015748031497,
            "duration": 1.2291666666666572
          },
          {
            "name": "F3",
            "midi": 53,
            "time": 98.7500000000001,
            "velocity": 0.7874015748031497,
            "duration": 1.2291666666666572
          },
          {
            "name": "F2",
            "midi": 41,
            "time": 98.7500000000001,
            "velocity": 0.7874015748031497,
            "duration": 1.2499999999999858
          },
          {
            "name": "F3",
            "midi": 53,
            "time": 98.7500000000001,
            "velocity": 0.7874015748031497,
            "duration": 1.2291666666666572
          },
          {
            "name": "C#3",
            "midi": 49,
            "time": 98.7500000000001,
            "velocity": 0.6771653543307087,
            "duration": 0.125
          },
          {
            "name": "C2",
            "midi": 36,
            "time": 98.7500000000001,
            "velocity": 0.7716535433070866,
            "duration": 0.0625
          },
          {
            "name": "C2",
            "midi": 36,
            "time": 99.0000000000001,
            "velocity": 0.7716535433070866,
            "duration": 0.0625
          },
          {
            "name": "D2",
            "midi": 38,
            "time": 99.1250000000001,
            "velocity": 0.7874015748031497,
            "duration": 0.01666666666666572
          },
          {
            "name": "D2",
            "midi": 38,
            "time": 99.3750000000001,
            "velocity": 0.7874015748031497,
            "duration": 0.01666666666666572
          },
          {
            "name": "D4",
            "midi": 62,
            "time": 99.5000000000001,
            "velocity": 0.7874015748031497,
            "duration": 0.4749999999999943
          },
          {
            "name": "A#4",
            "midi": 70,
            "time": 99.5000000000001,
            "velocity": 0.7874015748031497,
            "duration": 0.4749999999999943
          },
          {
            "name": "F4",
            "midi": 65,
            "time": 99.5000000000001,
            "velocity": 0.7874015748031497,
            "duration": 0.7499999999999858
          },
          {
            "name": "C2",
            "midi": 36,
            "time": 99.6250000000001,
            "velocity": 0.7716535433070866,
            "duration": 0.0625
          },
          {
            "name": "D2",
            "midi": 38,
            "time": 99.7500000000001,
            "velocity": 0.7874015748031497,
            "duration": 0.01666666666666572
          },
          {
            "name": "F1",
            "midi": 29,
            "time": 100.00000000000009,
            "velocity": 0.7874015748031497,
            "duration": 0.25
          },
          {
            "name": "F4",
            "midi": 65,
            "time": 100.00000000000009,
            "velocity": 0.7874015748031497,
            "duration": 0.5
          },
          {
            "name": "D4",
            "midi": 62,
            "time": 100.00000000000009,
            "velocity": 0.7874015748031497,
            "duration": 0.25
          },
          {
            "name": "F1",
            "midi": 29,
            "time": 100.00000000000009,
            "velocity": 0.7874015748031497,
            "duration": 0.5999999999999943
          },
          {
            "name": "F2",
            "midi": 41,
            "time": 100.00000000000009,
            "velocity": 0.7874015748031497,
            "duration": 0.2291666666666714
          },
          {
            "name": "C5",
            "midi": 72,
            "time": 100.00000000000009,
            "velocity": 0.7874015748031497,
            "duration": 0.25
          },
          {
            "name": "C3",
            "midi": 48,
            "time": 100.00000000000009,
            "velocity": 0.7874015748031497,
            "duration": 0.2291666666666714
          },
          {
            "name": "F2",
            "midi": 41,
            "time": 100.00000000000009,
            "velocity": 0.7874015748031497,
            "duration": 0.5999999999999943
          },
          {
            "name": "F3",
            "midi": 53,
            "time": 100.00000000000009,
            "velocity": 0.7874015748031497,
            "duration": 0.2291666666666714
          },
          {
            "name": "C#3",
            "midi": 49,
            "time": 100.00000000000009,
            "velocity": 0.6771653543307087,
            "duration": 0.125
          },
          {
            "name": "C2",
            "midi": 36,
            "time": 100.00000000000009,
            "velocity": 0.7716535433070866,
            "duration": 0.0625
          },
          {
            "name": "F1",
            "midi": 29,
            "time": 100.25000000000009,
            "velocity": 0.7874015748031497,
            "duration": 0.4791666666666572
          },
          {
            "name": "F4",
            "midi": 65,
            "time": 100.25000000000009,
            "velocity": 0.7874015748031497,
            "duration": 0.549999999999983
          },
          {
            "name": "C5",
            "midi": 72,
            "time": 100.25000000000009,
            "velocity": 0.7874015748031497,
            "duration": 0.7499999999999858
          },
          {
            "name": "D4",
            "midi": 62,
            "time": 100.25000000000009,
            "velocity": 0.7874015748031497,
            "duration": 0.7499999999999858
          },
          {
            "name": "F2",
            "midi": 41,
            "time": 100.25000000000009,
            "velocity": 0.7874015748031497,
            "duration": 0.4791666666666572
          },
          {
            "name": "D3",
            "midi": 50,
            "time": 100.25000000000009,
            "velocity": 0.7874015748031497,
            "duration": 0.25
          },
          {
            "name": "F3",
            "midi": 53,
            "time": 100.25000000000009,
            "velocity": 0.7874015748031497,
            "duration": 0.4791666666666572
          },
          {
            "name": "C#3",
            "midi": 49,
            "time": 100.25000000000009,
            "velocity": 0.6771653543307087,
            "duration": 0.125
          },
          {
            "name": "C2",
            "midi": 36,
            "time": 100.25000000000009,
            "velocity": 0.7716535433070866,
            "duration": 0.0625
          },
          {
            "name": "C4",
            "midi": 60,
            "time": 100.37500000000009,
            "velocity": 0.7874015748031497,
            "duration": 0.3749999999999858
          },
          {
            "name": "F3",
            "midi": 53,
            "time": 100.50000000000009,
            "velocity": 0.7874015748031497,
            "duration": 0.2499999999999858
          },
          {
            "name": "D2",
            "midi": 38,
            "time": 100.50000000000009,
            "velocity": 0.7874015748031497,
            "duration": 0.01666666666666572
          },
          {
            "name": "F1",
            "midi": 29,
            "time": 100.75000000000007,
            "velocity": 0.7874015748031497,
            "duration": 0.25
          },
          {
            "name": "F1",
            "midi": 29,
            "time": 100.75000000000007,
            "velocity": 0.7874015748031497,
            "duration": 1.1916666666666629
          },
          {
            "name": "C4",
            "midi": 60,
            "time": 100.75000000000007,
            "velocity": 0.7874015748031497,
            "duration": 1.0499999999999972
          },
          {
            "name": "F2",
            "midi": 41,
            "time": 100.75000000000007,
            "velocity": 0.7874015748031497,
            "duration": 0.2291666666666714
          },
          {
            "name": "C3",
            "midi": 48,
            "time": 100.75000000000007,
            "velocity": 0.7874015748031497,
            "duration": 0.2291666666666714
          },
          {
            "name": "F2",
            "midi": 41,
            "time": 100.75000000000007,
            "velocity": 0.7874015748031497,
            "duration": 1.0249999999999915
          },
          {
            "name": "F3",
            "midi": 53,
            "time": 100.75000000000007,
            "velocity": 0.7874015748031497,
            "duration": 0.2291666666666714
          },
          {
            "name": "C#3",
            "midi": 49,
            "time": 100.75000000000007,
            "velocity": 0.6771653543307087,
            "duration": 0.125
          },
          {
            "name": "C2",
            "midi": 36,
            "time": 100.75000000000007,
            "velocity": 0.7716535433070866,
            "duration": 0.0625
          },
          {
            "name": "F1",
            "midi": 29,
            "time": 101.00000000000007,
            "velocity": 0.7874015748031497,
            "duration": 1
          },
          {
            "name": "F4",
            "midi": 65,
            "time": 101.00000000000007,
            "velocity": 0.7874015748031497,
            "duration": 1.0499999999999972
          },
          {
            "name": "A#4",
            "midi": 70,
            "time": 101.00000000000007,
            "velocity": 0.7874015748031497,
            "duration": 1.0499999999999972
          },
          {
            "name": "F2",
            "midi": 41,
            "time": 101.00000000000007,
            "velocity": 0.7874015748031497,
            "duration": 1
          },
          {
            "name": "C3",
            "midi": 48,
            "time": 101.00000000000007,
            "velocity": 0.7874015748031497,
            "duration": 0.2708333333333286
          },
          {
            "name": "F3",
            "midi": 53,
            "time": 101.00000000000007,
            "velocity": 0.7874015748031497,
            "duration": 1
          },
          {
            "name": "C#3",
            "midi": 49,
            "time": 101.00000000000007,
            "velocity": 0.6771653543307087,
            "duration": 0.125
          },
          {
            "name": "C2",
            "midi": 36,
            "time": 101.00000000000007,
            "velocity": 0.7716535433070866,
            "duration": 0.0625
          },
          {
            "name": "D2",
            "midi": 38,
            "time": 101.12500000000007,
            "velocity": 0.7874015748031497,
            "duration": 0.008333333333339965
          },
          {
            "name": "C3",
            "midi": 48,
            "time": 101.25000000000007,
            "velocity": 0.7952755905511811,
            "duration": 0.5499999999999972
          },
          {
            "name": "A2",
            "midi": 45,
            "time": 101.4458333333334,
            "velocity": 0.4881889763779528,
            "duration": 0.012500000000002842
          },
          {
            "name": "A2",
            "midi": 45,
            "time": 101.5083333333334,
            "velocity": 0.7401574803149606,
            "duration": 0.020833333333328596
          },
          {
            "name": "E3",
            "midi": 52,
            "time": 101.62500000000006,
            "velocity": 0.7874015748031497,
            "duration": 0.1666666666666714
          },
          {
            "name": "A2",
            "midi": 45,
            "time": 101.6333333333334,
            "velocity": 0.8031496062992126,
            "duration": 0.01666666666666572
          },
          {
            "name": "F3",
            "midi": 53,
            "time": 101.75000000000006,
            "velocity": 0.7874015748031497,
            "duration": 0.2708333333333428
          },
          {
            "name": "F2",
            "midi": 41,
            "time": 101.76250000000006,
            "velocity": 0.8031496062992126,
            "duration": 0.23750000000001137
          },
          {
            "name": "D#1",
            "midi": 27,
            "time": 102.00000000000007,
            "velocity": 0.7874015748031497,
            "duration": 0.25
          },
          {
            "name": "G3",
            "midi": 55,
            "time": 102.00000000000007,
            "velocity": 0.7874015748031497,
            "duration": 0.5
          },
          {
            "name": "C4",
            "midi": 60,
            "time": 102.00000000000007,
            "velocity": 0.7874015748031497,
            "duration": 0.5
          },
          {
            "name": "D#3",
            "midi": 51,
            "time": 102.00000000000007,
            "velocity": 0.7874015748031497,
            "duration": 0.5
          },
          {
            "name": "D#3",
            "midi": 51,
            "time": 102.00000000000007,
            "velocity": 0.7874015748031497,
            "duration": 0.5
          },
          {
            "name": "A#2",
            "midi": 46,
            "time": 102.00000000000007,
            "velocity": 0.7874015748031497,
            "duration": 0.25
          },
          {
            "name": "C#3",
            "midi": 49,
            "time": 102.00000000000007,
            "velocity": 0.6771653543307087,
            "duration": 0.125
          },
          {
            "name": "C2",
            "midi": 36,
            "time": 102.00000000000007,
            "velocity": 0.7716535433070866,
            "duration": 0.0625
          },
          {
            "name": "D#1",
            "midi": 27,
            "time": 102.25000000000007,
            "velocity": 0.7874015748031497,
            "duration": 0.25
          },
          {
            "name": "A#2",
            "midi": 46,
            "time": 102.25000000000007,
            "velocity": 0.7874015748031497,
            "duration": 0.01666666666666572
          },
          {
            "name": "C2",
            "midi": 36,
            "time": 102.25000000000007,
            "velocity": 0.7716535433070866,
            "duration": 0.0625
          },
          {
            "name": "A#2",
            "midi": 46,
            "time": 102.25000000000007,
            "velocity": 0.5275590551181102,
            "duration": 0.25
          },
          {
            "name": "D#1",
            "midi": 27,
            "time": 102.50000000000007,
            "velocity": 0.7874015748031497,
            "duration": 0.2500000000000142
          },
          {
            "name": "C4",
            "midi": 60,
            "time": 102.50000000000007,
            "velocity": 0.7874015748031497,
            "duration": 0.5000000000000142
          },
          {
            "name": "D#3",
            "midi": 51,
            "time": 102.50000000000007,
            "velocity": 0.7874015748031497,
            "duration": 0.5000000000000142
          },
          {
            "name": "G3",
            "midi": 55,
            "time": 102.50000000000007,
            "velocity": 0.7874015748031497,
            "duration": 0.5000000000000142
          },
          {
            "name": "A#2",
            "midi": 46,
            "time": 102.50000000000007,
            "velocity": 0.7874015748031497,
            "duration": 0.01666666666667993
          },
          {
            "name": "D#3",
            "midi": 51,
            "time": 102.50000000000007,
            "velocity": 0.7874015748031497,
            "duration": 0.5000000000000142
          },
          {
            "name": "F#3",
            "midi": 54,
            "time": 102.50000000000007,
            "velocity": 0.7401574803149606,
            "duration": 0.008333333333339965
          },
          {
            "name": "D2",
            "midi": 38,
            "time": 102.50000000000007,
            "velocity": 0.7874015748031497,
            "duration": 0.01666666666667993
          },
          {
            "name": "A#2",
            "midi": 46,
            "time": 102.50000000000007,
            "velocity": 0.5275590551181102,
            "duration": 0.2500000000000142
          },
          {
            "name": "D#1",
            "midi": 27,
            "time": 102.75000000000009,
            "velocity": 0.7874015748031497,
            "duration": 0.25
          },
          {
            "name": "G4",
            "midi": 67,
            "time": 102.75000000000009,
            "velocity": 0.7874015748031497,
            "duration": 0.25
          },
          {
            "name": "A#2",
            "midi": 46,
            "time": 102.75000000000009,
            "velocity": 0.7874015748031497,
            "duration": 0.01666666666666572
          },
          {
            "name": "A#2",
            "midi": 46,
            "time": 102.75000000000009,
            "velocity": 0.5275590551181102,
            "duration": 0.25
          },
          {
            "name": "E1",
            "midi": 28,
            "time": 103.00000000000009,
            "velocity": 0.7874015748031497,
            "duration": 0.25
          },
          {
            "name": "E3",
            "midi": 52,
            "time": 103.00000000000009,
            "velocity": 0.7874015748031497,
            "duration": 0.5
          },
          {
            "name": "G3",
            "midi": 55,
            "time": 103.00000000000009,
            "velocity": 0.7874015748031497,
            "duration": 0.5
          },
          {
            "name": "C4",
            "midi": 60,
            "time": 103.00000000000009,
            "velocity": 0.7874015748031497,
            "duration": 0.5
          },
          {
            "name": "C5",
            "midi": 72,
            "time": 103.00000000000009,
            "velocity": 0.7874015748031497,
            "duration": 0.25
          },
          {
            "name": "E3",
            "midi": 52,
            "time": 103.00000000000009,
            "velocity": 0.7874015748031497,
            "duration": 0.5
          },
          {
            "name": "B2",
            "midi": 47,
            "time": 103.00000000000009,
            "velocity": 0.7874015748031497,
            "duration": 0.25
          },
          {
            "name": "A#2",
            "midi": 46,
            "time": 103.00000000000009,
            "velocity": 0.5275590551181102,
            "duration": 0.01666666666666572
          },
          {
            "name": "C2",
            "midi": 36,
            "time": 103.00000000000009,
            "velocity": 0.7716535433070866,
            "duration": 0.0625
          },
          {
            "name": "E1",
            "midi": 28,
            "time": 103.25000000000009,
            "velocity": 0.7874015748031497,
            "duration": 0.25
          },
          {
            "name": "B2",
            "midi": 47,
            "time": 103.25000000000009,
            "velocity": 0.7874015748031497,
            "duration": 0.25
          },
          {
            "name": "C2",
            "midi": 36,
            "time": 103.25000000000009,
            "velocity": 0.7716535433070866,
            "duration": 0.0625
          },
          {
            "name": "A#2",
            "midi": 46,
            "time": 103.25000000000009,
            "velocity": 0.5275590551181102,
            "duration": 0.01666666666666572
          },
          {
            "name": "E1",
            "midi": 28,
            "time": 103.50000000000009,
            "velocity": 0.7874015748031497,
            "duration": 0.2500000000000142
          },
          {
            "name": "C4",
            "midi": 60,
            "time": 103.50000000000009,
            "velocity": 0.7874015748031497,
            "duration": 0.5000000000000142
          },
          {
            "name": "E3",
            "midi": 52,
            "time": 103.50000000000009,
            "velocity": 0.7874015748031497,
            "duration": 0.5000000000000142
          },
          {
            "name": "G3",
            "midi": 55,
            "time": 103.50000000000009,
            "velocity": 0.7874015748031497,
            "duration": 0.5000000000000142
          },
          {
            "name": "E3",
            "midi": 52,
            "time": 103.50000000000009,
            "velocity": 0.7874015748031497,
            "duration": 0.5000000000000142
          },
          {
            "name": "B2",
            "midi": 47,
            "time": 103.50000000000009,
            "velocity": 0.7874015748031497,
            "duration": 0.2500000000000142
          },
          {
            "name": "D2",
            "midi": 38,
            "time": 103.50000000000009,
            "velocity": 0.7874015748031497,
            "duration": 0.008333333333339965
          },
          {
            "name": "F#3",
            "midi": 54,
            "time": 103.50000000000009,
            "velocity": 0.7401574803149606,
            "duration": 0.008333333333339965
          },
          {
            "name": "A#2",
            "midi": 46,
            "time": 103.50000000000009,
            "velocity": 0.5275590551181102,
            "duration": 0.01666666666667993
          },
          {
            "name": "E1",
            "midi": 28,
            "time": 103.7500000000001,
            "velocity": 0.7874015748031497,
            "duration": 0.25
          },
          {
            "name": "G4",
            "midi": 67,
            "time": 103.7500000000001,
            "velocity": 0.7874015748031497,
            "duration": 0.25
          },
          {
            "name": "B2",
            "midi": 47,
            "time": 103.7500000000001,
            "velocity": 0.7874015748031497,
            "duration": 0.25
          },
          {
            "name": "A#2",
            "midi": 46,
            "time": 103.7500000000001,
            "velocity": 0.5275590551181102,
            "duration": 0.01666666666666572
          },
          {
            "name": "F1",
            "midi": 29,
            "time": 104.0000000000001,
            "velocity": 0.7874015748031497,
            "duration": 0.25
          },
          {
            "name": "C3",
            "midi": 48,
            "time": 104.0000000000001,
            "velocity": 0.7874015748031497,
            "duration": 0.25
          },
          {
            "name": "A3",
            "midi": 57,
            "time": 104.0000000000001,
            "velocity": 0.7874015748031497,
            "duration": 0.5
          },
          {
            "name": "F3",
            "midi": 53,
            "time": 104.0000000000001,
            "velocity": 0.7874015748031497,
            "duration": 0.5
          },
          {
            "name": "A4",
            "midi": 69,
            "time": 104.0000000000001,
            "velocity": 0.7874015748031497,
            "duration": 0.25
          },
          {
            "name": "F3",
            "midi": 53,
            "time": 104.0000000000001,
            "velocity": 0.7874015748031497,
            "duration": 0.5
          },
          {
            "name": "C3",
            "midi": 48,
            "time": 104.0000000000001,
            "velocity": 0.7874015748031497,
            "duration": 0.5
          },
          {
            "name": "A#2",
            "midi": 46,
            "time": 104.0000000000001,
            "velocity": 0.5275590551181102,
            "duration": 0.125
          },
          {
            "name": "C2",
            "midi": 36,
            "time": 104.0000000000001,
            "velocity": 0.7716535433070866,
            "duration": 0.0625
          },
          {
            "name": "F1",
            "midi": 29,
            "time": 104.2500000000001,
            "velocity": 0.7874015748031497,
            "duration": 0.25
          },
          {
            "name": "C3",
            "midi": 48,
            "time": 104.2500000000001,
            "velocity": 0.7874015748031497,
            "duration": 0.25
          },
          {
            "name": "C2",
            "midi": 36,
            "time": 104.2500000000001,
            "velocity": 0.7716535433070866,
            "duration": 0.0625
          },
          {
            "name": "A#2",
            "midi": 46,
            "time": 104.2500000000001,
            "velocity": 0.5275590551181102,
            "duration": 0.01666666666666572
          },
          {
            "name": "F1",
            "midi": 29,
            "time": 104.5000000000001,
            "velocity": 0.7874015748031497,
            "duration": 0.2500000000000142
          },
          {
            "name": "F3",
            "midi": 53,
            "time": 104.5000000000001,
            "velocity": 0.7874015748031497,
            "duration": 0.5000000000000142
          },
          {
            "name": "C3",
            "midi": 48,
            "time": 104.5000000000001,
            "velocity": 0.7874015748031497,
            "duration": 0.2500000000000142
          },
          {
            "name": "A3",
            "midi": 57,
            "time": 104.5000000000001,
            "velocity": 0.7874015748031497,
            "duration": 0.5000000000000142
          },
          {
            "name": "C3",
            "midi": 48,
            "time": 104.5000000000001,
            "velocity": 0.7874015748031497,
            "duration": 0.5000000000000142
          },
          {
            "name": "F3",
            "midi": 53,
            "time": 104.5000000000001,
            "velocity": 0.7874015748031497,
            "duration": 0.5000000000000142
          },
          {
            "name": "F#3",
            "midi": 54,
            "time": 104.5000000000001,
            "velocity": 0.7401574803149606,
            "duration": 0.008333333333339965
          },
          {
            "name": "D2",
            "midi": 38,
            "time": 104.5000000000001,
            "velocity": 0.7874015748031497,
            "duration": 0.01666666666667993
          },
          {
            "name": "A#2",
            "midi": 46,
            "time": 104.5000000000001,
            "velocity": 0.5275590551181102,
            "duration": 0.01666666666667993
          },
          {
            "name": "F1",
            "midi": 29,
            "time": 104.75000000000011,
            "velocity": 0.7874015748031497,
            "duration": 0.25
          },
          {
            "name": "A4",
            "midi": 69,
            "time": 104.75000000000011,
            "velocity": 0.7874015748031497,
            "duration": 0.25
          },
          {
            "name": "C3",
            "midi": 48,
            "time": 104.75000000000011,
            "velocity": 0.7874015748031497,
            "duration": 0.25
          },
          {
            "name": "A#2",
            "midi": 46,
            "time": 104.75000000000011,
            "velocity": 0.5275590551181102,
            "duration": 0.01666666666666572
          },
          {
            "name": "F#1",
            "midi": 30,
            "time": 105.00000000000011,
            "velocity": 0.7874015748031497,
            "duration": 0.25
          },
          {
            "name": "F#3",
            "midi": 54,
            "time": 105.00000000000011,
            "velocity": 0.7874015748031497,
            "duration": 0.5
          },
          {
            "name": "D3",
            "midi": 50,
            "time": 105.00000000000011,
            "velocity": 0.7874015748031497,
            "duration": 0.25
          },
          {
            "name": "A3",
            "midi": 57,
            "time": 105.00000000000011,
            "velocity": 0.7874015748031497,
            "duration": 0.5
          },
          {
            "name": "D5",
            "midi": 74,
            "time": 105.00000000000011,
            "velocity": 0.7874015748031497,
            "duration": 0.25
          },
          {
            "name": "F#3",
            "midi": 54,
            "time": 105.00000000000011,
            "velocity": 0.7874015748031497,
            "duration": 0.5
          },
          {
            "name": "D3",
            "midi": 50,
            "time": 105.00000000000011,
            "velocity": 0.7874015748031497,
            "duration": 0.5
          },
          {
            "name": "A#2",
            "midi": 46,
            "time": 105.00000000000011,
            "velocity": 0.5275590551181102,
            "duration": 0.01666666666666572
          },
          {
            "name": "C2",
            "midi": 36,
            "time": 105.00000000000011,
            "velocity": 0.7716535433070866,
            "duration": 0.0625
          },
          {
            "name": "F#1",
            "midi": 30,
            "time": 105.25000000000011,
            "velocity": 0.7874015748031497,
            "duration": 0.25
          },
          {
            "name": "C5",
            "midi": 72,
            "time": 105.25000000000011,
            "velocity": 0.7874015748031497,
            "duration": 0.25
          },
          {
            "name": "D3",
            "midi": 50,
            "time": 105.25000000000011,
            "velocity": 0.7874015748031497,
            "duration": 0.25
          },
          {
            "name": "C2",
            "midi": 36,
            "time": 105.25000000000011,
            "velocity": 0.7716535433070866,
            "duration": 0.0625
          },
          {
            "name": "A#2",
            "midi": 46,
            "time": 105.25000000000011,
            "velocity": 0.5275590551181102,
            "duration": 0.01666666666666572
          },
          {
            "name": "F#1",
            "midi": 30,
            "time": 105.50000000000011,
            "velocity": 0.7874015748031497,
            "duration": 0.2500000000000142
          },
          {
            "name": "F#3",
            "midi": 54,
            "time": 105.50000000000011,
            "velocity": 0.7874015748031497,
            "duration": 0.008333333333339965
          },
          {
            "name": "A3",
            "midi": 57,
            "time": 105.50000000000011,
            "velocity": 0.7874015748031497,
            "duration": 0.5000000000000142
          },
          {
            "name": "D3",
            "midi": 50,
            "time": 105.50000000000011,
            "velocity": 0.7874015748031497,
            "duration": 0.2500000000000142
          },
          {
            "name": "A#4",
            "midi": 70,
            "time": 105.50000000000011,
            "velocity": 0.7874015748031497,
            "duration": 0.2500000000000142
          },
          {
            "name": "F#3",
            "midi": 54,
            "time": 105.50000000000011,
            "velocity": 0.7874015748031497,
            "duration": 0.5000000000000142
          },
          {
            "name": "D3",
            "midi": 50,
            "time": 105.50000000000011,
            "velocity": 0.7874015748031497,
            "duration": 0.5000000000000142
          },
          {
            "name": "D2",
            "midi": 38,
            "time": 105.50000000000011,
            "velocity": 0.7874015748031497,
            "duration": 0.008333333333339965
          },
          {
            "name": "F#3",
            "midi": 54,
            "time": 105.50000000000011,
            "velocity": 0.7401574803149606,
            "duration": 0.5000000000000142
          },
          {
            "name": "A#2",
            "midi": 46,
            "time": 105.50000000000011,
            "velocity": 0.5275590551181102,
            "duration": 0.01666666666667993
          },
          {
            "name": "F#1",
            "midi": 30,
            "time": 105.75000000000013,
            "velocity": 0.7874015748031497,
            "duration": 0.25
          },
          {
            "name": "A4",
            "midi": 69,
            "time": 105.75000000000013,
            "velocity": 0.7874015748031497,
            "duration": 0.25
          },
          {
            "name": "D3",
            "midi": 50,
            "time": 105.75000000000013,
            "velocity": 0.7874015748031497,
            "duration": 0.25
          },
          {
            "name": "A#2",
            "midi": 46,
            "time": 105.75000000000013,
            "velocity": 0.5275590551181102,
            "duration": 0.01666666666666572
          },
          {
            "name": "G1",
            "midi": 31,
            "time": 106.00000000000013,
            "velocity": 0.7874015748031497,
            "duration": 0.25
          },
          {
            "name": "A#3",
            "midi": 58,
            "time": 106.00000000000013,
            "velocity": 0.7874015748031497,
            "duration": 0.5
          },
          {
            "name": "D3",
            "midi": 50,
            "time": 106.00000000000013,
            "velocity": 0.7874015748031497,
            "duration": 0.25
          },
          {
            "name": "G3",
            "midi": 55,
            "time": 106.00000000000013,
            "velocity": 0.7874015748031497,
            "duration": 0.5
          },
          {
            "name": "A#4",
            "midi": 70,
            "time": 106.00000000000013,
            "velocity": 0.7874015748031497,
            "duration": 0.25
          },
          {
            "name": "D3",
            "midi": 50,
            "time": 106.00000000000013,
            "velocity": 0.7874015748031497,
            "duration": 0.5
          },
          {
            "name": "G3",
            "midi": 55,
            "time": 106.00000000000013,
            "velocity": 0.7874015748031497,
            "duration": 0.5
          },
          {
            "name": "A#2",
            "midi": 46,
            "time": 106.00000000000013,
            "velocity": 0.5275590551181102,
            "duration": 0.125
          },
          {
            "name": "C2",
            "midi": 36,
            "time": 106.00000000000013,
            "velocity": 0.7716535433070866,
            "duration": 0.0625
          },
          {
            "name": "G1",
            "midi": 31,
            "time": 106.25000000000013,
            "velocity": 0.7874015748031497,
            "duration": 0.25
          },
          {
            "name": "D3",
            "midi": 50,
            "time": 106.25000000000013,
            "velocity": 0.7874015748031497,
            "duration": 0.25
          },
          {
            "name": "C2",
            "midi": 36,
            "time": 106.25000000000013,
            "velocity": 0.7716535433070866,
            "duration": 0.0625
          },
          {
            "name": "A#2",
            "midi": 46,
            "time": 106.25000000000013,
            "velocity": 0.5275590551181102,
            "duration": 0.01666666666666572
          },
          {
            "name": "G1",
            "midi": 31,
            "time": 106.50000000000013,
            "velocity": 0.7874015748031497,
            "duration": 0.2500000000000142
          },
          {
            "name": "G3",
            "midi": 55,
            "time": 106.50000000000013,
            "velocity": 0.7874015748031497,
            "duration": 0.5000000000000142
          },
          {
            "name": "A#3",
            "midi": 58,
            "time": 106.50000000000013,
            "velocity": 0.7874015748031497,
            "duration": 0.5000000000000142
          },
          {
            "name": "D3",
            "midi": 50,
            "time": 106.50000000000013,
            "velocity": 0.7874015748031497,
            "duration": 0.2500000000000142
          },
          {
            "name": "D3",
            "midi": 50,
            "time": 106.50000000000013,
            "velocity": 0.7874015748031497,
            "duration": 0.5000000000000142
          },
          {
            "name": "G3",
            "midi": 55,
            "time": 106.50000000000013,
            "velocity": 0.7874015748031497,
            "duration": 0.5000000000000142
          },
          {
            "name": "F#3",
            "midi": 54,
            "time": 106.50000000000013,
            "velocity": 0.7401574803149606,
            "duration": 0.008333333333339965
          },
          {
            "name": "D2",
            "midi": 38,
            "time": 106.50000000000013,
            "velocity": 0.7874015748031497,
            "duration": 0.01666666666667993
          },
          {
            "name": "A#2",
            "midi": 46,
            "time": 106.50000000000013,
            "velocity": 0.5275590551181102,
            "duration": 0.01666666666667993
          },
          {
            "name": "G1",
            "midi": 31,
            "time": 106.75000000000014,
            "velocity": 0.7874015748031497,
            "duration": 0.25
          },
          {
            "name": "D3",
            "midi": 50,
            "time": 106.75000000000014,
            "velocity": 0.7874015748031497,
            "duration": 0.25
          },
          {
            "name": "A#2",
            "midi": 46,
            "time": 106.75000000000014,
            "velocity": 0.5275590551181102,
            "duration": 0.01666666666666572
          },
          {
            "name": "F1",
            "midi": 29,
            "time": 107.00000000000014,
            "velocity": 0.7874015748031497,
            "duration": 0.25
          },
          {
            "name": "C3",
            "midi": 48,
            "time": 107.00000000000014,
            "velocity": 0.7874015748031497,
            "duration": 0.25
          },
          {
            "name": "A3",
            "midi": 57,
            "time": 107.00000000000014,
            "velocity": 0.7874015748031497,
            "duration": 0.5
          },
          {
            "name": "F3",
            "midi": 53,
            "time": 107.00000000000014,
            "velocity": 0.7874015748031497,
            "duration": 0.5
          },
          {
            "name": "A4",
            "midi": 69,
            "time": 107.00000000000014,
            "velocity": 0.7874015748031497,
            "duration": 0.25
          },
          {
            "name": "C3",
            "midi": 48,
            "time": 107.00000000000014,
            "velocity": 0.7874015748031497,
            "duration": 0.5
          },
          {
            "name": "F3",
            "midi": 53,
            "time": 107.00000000000014,
            "velocity": 0.7874015748031497,
            "duration": 0.5
          },
          {
            "name": "A#2",
            "midi": 46,
            "time": 107.00000000000014,
            "velocity": 0.5275590551181102,
            "duration": 0.01666666666666572
          },
          {
            "name": "C2",
            "midi": 36,
            "time": 107.00000000000014,
            "velocity": 0.7716535433070866,
            "duration": 0.0625
          },
          {
            "name": "F1",
            "midi": 29,
            "time": 107.25000000000014,
            "velocity": 0.7874015748031497,
            "duration": 0.25
          },
          {
            "name": "C3",
            "midi": 48,
            "time": 107.25000000000014,
            "velocity": 0.7874015748031497,
            "duration": 0.25
          },
          {
            "name": "C2",
            "midi": 36,
            "time": 107.25000000000014,
            "velocity": 0.7716535433070866,
            "duration": 0.0625
          },
          {
            "name": "A#2",
            "midi": 46,
            "time": 107.25000000000014,
            "velocity": 0.5275590551181102,
            "duration": 0.01666666666666572
          },
          {
            "name": "A#4",
            "midi": 70,
            "time": 107.37500000000014,
            "velocity": 0.7874015748031497,
            "duration": 0.2500000000000142
          },
          {
            "name": "F1",
            "midi": 29,
            "time": 107.50000000000014,
            "velocity": 0.7874015748031497,
            "duration": 0.2500000000000142
          },
          {
            "name": "F3",
            "midi": 53,
            "time": 107.50000000000014,
            "velocity": 0.7874015748031497,
            "duration": 0.5000000000000142
          },
          {
            "name": "C3",
            "midi": 48,
            "time": 107.50000000000014,
            "velocity": 0.7874015748031497,
            "duration": 0.2500000000000142
          },
          {
            "name": "A3",
            "midi": 57,
            "time": 107.50000000000014,
            "velocity": 0.7874015748031497,
            "duration": 0.5000000000000142
          },
          {
            "name": "F3",
            "midi": 53,
            "time": 107.50000000000014,
            "velocity": 0.7874015748031497,
            "duration": 0.5000000000000142
          },
          {
            "name": "C3",
            "midi": 48,
            "time": 107.50000000000014,
            "velocity": 0.7874015748031497,
            "duration": 0.5000000000000142
          },
          {
            "name": "D2",
            "midi": 38,
            "time": 107.50000000000014,
            "velocity": 0.7874015748031497,
            "duration": 0.008333333333339965
          },
          {
            "name": "F#3",
            "midi": 54,
            "time": 107.50000000000014,
            "velocity": 0.7401574803149606,
            "duration": 0.008333333333339965
          },
          {
            "name": "A#2",
            "midi": 46,
            "time": 107.50000000000014,
            "velocity": 0.5275590551181102,
            "duration": 0.01666666666667993
          },
          {
            "name": "F1",
            "midi": 29,
            "time": 107.75000000000016,
            "velocity": 0.7874015748031497,
            "duration": 0.25
          },
          {
            "name": "C5",
            "midi": 72,
            "time": 107.75000000000016,
            "velocity": 0.7874015748031497,
            "duration": 0.25
          },
          {
            "name": "C3",
            "midi": 48,
            "time": 107.75000000000016,
            "velocity": 0.7874015748031497,
            "duration": 0.25
          },
          {
            "name": "A#2",
            "midi": 46,
            "time": 107.75000000000016,
            "velocity": 0.5275590551181102,
            "duration": 0.01666666666666572
          },
          {
            "name": "C1",
            "midi": 24,
            "time": 108.00000000000016,
            "velocity": 0.7874015748031497,
            "duration": 0.25
          },
          {
            "name": "E3",
            "midi": 52,
            "time": 108.00000000000016,
            "velocity": 0.7874015748031497,
            "duration": 0.5
          },
          {
            "name": "C3",
            "midi": 48,
            "time": 108.00000000000016,
            "velocity": 0.7874015748031497,
            "duration": 0.5
          },
          {
            "name": "G3",
            "midi": 55,
            "time": 108.00000000000016,
            "velocity": 0.7874015748031497,
            "duration": 0.5
          },
          {
            "name": "C5",
            "midi": 72,
            "time": 108.00000000000016,
            "velocity": 0.7874015748031497,
            "duration": 0.25
          },
          {
            "name": "C3",
            "midi": 48,
            "time": 108.00000000000016,
            "velocity": 0.7874015748031497,
            "duration": 0.5
          },
          {
            "name": "G2",
            "midi": 43,
            "time": 108.00000000000016,
            "velocity": 0.7874015748031497,
            "duration": 0.25
          },
          {
            "name": "A#2",
            "midi": 46,
            "time": 108.00000000000016,
            "velocity": 0.5275590551181102,
            "duration": 0.125
          },
          {
            "name": "C2",
            "midi": 36,
            "time": 108.00000000000016,
            "velocity": 0.7716535433070866,
            "duration": 0.0625
          },
          {
            "name": "C1",
            "midi": 24,
            "time": 108.25000000000016,
            "velocity": 0.7874015748031497,
            "duration": 0.25
          },
          {
            "name": "G2",
            "midi": 43,
            "time": 108.25000000000016,
            "velocity": 0.7874015748031497,
            "duration": 0.25
          },
          {
            "name": "C2",
            "midi": 36,
            "time": 108.25000000000016,
            "velocity": 0.7716535433070866,
            "duration": 0.0625
          },
          {
            "name": "A#2",
            "midi": 46,
            "time": 108.25000000000016,
            "velocity": 0.5275590551181102,
            "duration": 0.01666666666666572
          },
          {
            "name": "C1",
            "midi": 24,
            "time": 108.50000000000016,
            "velocity": 0.7874015748031497,
            "duration": 0.2500000000000142
          },
          {
            "name": "C3",
            "midi": 48,
            "time": 108.50000000000016,
            "velocity": 0.7874015748031497,
            "duration": 0.5000000000000142
          },
          {
            "name": "G3",
            "midi": 55,
            "time": 108.50000000000016,
            "velocity": 0.7874015748031497,
            "duration": 0.5000000000000142
          },
          {
            "name": "E3",
            "midi": 52,
            "time": 108.50000000000016,
            "velocity": 0.7874015748031497,
            "duration": 0.5000000000000142
          },
          {
            "name": "G2",
            "midi": 43,
            "time": 108.50000000000016,
            "velocity": 0.7874015748031497,
            "duration": 0.2500000000000142
          },
          {
            "name": "C3",
            "midi": 48,
            "time": 108.50000000000016,
            "velocity": 0.7874015748031497,
            "duration": 0.5000000000000142
          },
          {
            "name": "F#3",
            "midi": 54,
            "time": 108.50000000000016,
            "velocity": 0.7401574803149606,
            "duration": 0.008333333333339965
          },
          {
            "name": "D2",
            "midi": 38,
            "time": 108.50000000000016,
            "velocity": 0.7874015748031497,
            "duration": 0.01666666666667993
          },
          {
            "name": "A#2",
            "midi": 46,
            "time": 108.50000000000016,
            "velocity": 0.5275590551181102,
            "duration": 0.01666666666667993
          },
          {
            "name": "C1",
            "midi": 24,
            "time": 108.75000000000017,
            "velocity": 0.7874015748031497,
            "duration": 0.25
          },
          {
            "name": "G4",
            "midi": 67,
            "time": 108.75000000000017,
            "velocity": 0.7874015748031497,
            "duration": 0.25
          },
          {
            "name": "G2",
            "midi": 43,
            "time": 108.75000000000017,
            "velocity": 0.7874015748031497,
            "duration": 0.25
          },
          {
            "name": "D2",
            "midi": 38,
            "time": 108.75000000000017,
            "velocity": 0.7874015748031497,
            "duration": 0.0625
          },
          {
            "name": "A#2",
            "midi": 46,
            "time": 108.75000000000017,
            "velocity": 0.5275590551181102,
            "duration": 0.01666666666666572
          },
          {
            "name": "C1",
            "midi": 24,
            "time": 109.00000000000017,
            "velocity": 0.7874015748031497,
            "duration": 0.25
          },
          {
            "name": "C3",
            "midi": 48,
            "time": 109.00000000000017,
            "velocity": 0.7874015748031497,
            "duration": 0.3333333333333286
          },
          {
            "name": "E3",
            "midi": 52,
            "time": 109.00000000000017,
            "velocity": 0.7874015748031497,
            "duration": 0.3333333333333286
          },
          {
            "name": "G3",
            "midi": 55,
            "time": 109.00000000000017,
            "velocity": 0.7874015748031497,
            "duration": 0.3333333333333286
          },
          {
            "name": "C4",
            "midi": 60,
            "time": 109.00000000000017,
            "velocity": 0.8740157480314961,
            "duration": 0.3333333333333286
          },
          {
            "name": "G4",
            "midi": 67,
            "time": 109.00000000000017,
            "velocity": 0.7874015748031497,
            "duration": 0.25
          },
          {
            "name": "C4",
            "midi": 60,
            "time": 109.00000000000017,
            "velocity": 0.7874015748031497,
            "duration": 0.375
          },
          {
            "name": "C3",
            "midi": 48,
            "time": 109.00000000000017,
            "velocity": 0.7874015748031497,
            "duration": 0.375
          },
          {
            "name": "G#2",
            "midi": 44,
            "time": 109.00000000000017,
            "velocity": 0.5275590551181102,
            "duration": 0.01666666666666572
          },
          {
            "name": "C2",
            "midi": 36,
            "time": 109.00000000000017,
            "velocity": 0.7874015748031497,
            "duration": 0.0625
          },
          {
            "name": "D2",
            "midi": 38,
            "time": 109.25000000000017,
            "velocity": 0.7874015748031497,
            "duration": 0.0625
          },
          {
            "name": "A#2",
            "midi": 46,
            "time": 109.25000000000017,
            "velocity": 0.5275590551181102,
            "duration": 0.01666666666666572
          },
          {
            "name": "C1",
            "midi": 24,
            "time": 109.37500000000017,
            "velocity": 0.7874015748031497,
            "duration": 0.25
          },
          {
            "name": "C3",
            "midi": 48,
            "time": 109.37500000000017,
            "velocity": 0.7874015748031497,
            "duration": 0.25
          },
          {
            "name": "G3",
            "midi": 55,
            "time": 109.37500000000017,
            "velocity": 0.7874015748031497,
            "duration": 0.25
          },
          {
            "name": "C4",
            "midi": 60,
            "time": 109.37500000000017,
            "velocity": 0.8740157480314961,
            "duration": 0.25
          },
          {
            "name": "E3",
            "midi": 52,
            "time": 109.37500000000017,
            "velocity": 0.7874015748031497,
            "duration": 0.25
          },
          {
            "name": "C3",
            "midi": 48,
            "time": 109.37500000000017,
            "velocity": 0.7874015748031497,
            "duration": 0.375
          },
          {
            "name": "C4",
            "midi": 60,
            "time": 109.37500000000017,
            "velocity": 0.7874015748031497,
            "duration": 0.375
          },
          {
            "name": "C2",
            "midi": 36,
            "time": 109.37500000000017,
            "velocity": 0.7874015748031497,
            "duration": 0.0625
          },
          {
            "name": "G#2",
            "midi": 44,
            "time": 109.50000000000017,
            "velocity": 0.5275590551181102,
            "duration": 0.01666666666666572
          },
          {
            "name": "D1",
            "midi": 26,
            "time": 109.75000000000017,
            "velocity": 0.7874015748031497,
            "duration": 0.25
          },
          {
            "name": "D4",
            "midi": 62,
            "time": 109.75000000000017,
            "velocity": 0.8740157480314961,
            "duration": 0.25
          },
          {
            "name": "C3",
            "midi": 48,
            "time": 109.75000000000017,
            "velocity": 0.7874015748031497,
            "duration": 0.25
          },
          {
            "name": "E3",
            "midi": 52,
            "time": 109.75000000000017,
            "velocity": 0.7874015748031497,
            "duration": 0.25
          },
          {
            "name": "D3",
            "midi": 50,
            "time": 109.75000000000017,
            "velocity": 0.7874015748031497,
            "duration": 0.25
          },
          {
            "name": "D4",
            "midi": 62,
            "time": 109.75000000000017,
            "velocity": 0.7874015748031497,
            "duration": 0.25
          },
          {
            "name": "A3",
            "midi": 57,
            "time": 109.75000000000017,
            "velocity": 0.5275590551181102,
            "duration": 0.125
          },
          {
            "name": "C2",
            "midi": 36,
            "time": 109.75000000000017,
            "velocity": 0.7716535433070866,
            "duration": 0.0625
          },
          {
            "name": "D#3",
            "midi": 51,
            "time": 109.99166666666683,
            "velocity": 0.7874015748031497,
            "duration": 0.5
          },
          {
            "name": "D#1",
            "midi": 27,
            "time": 110.00000000000017,
            "velocity": 0.7874015748031497,
            "duration": 0.25
          },
          {
            "name": "D#4",
            "midi": 63,
            "time": 110.00000000000017,
            "velocity": 0.952755905511811,
            "duration": 1.40000000000002
          },
          {
            "name": "G3",
            "midi": 55,
            "time": 110.00000000000017,
            "velocity": 0.7874015748031497,
            "duration": 0.5
          },
          {
            "name": "C4",
            "midi": 60,
            "time": 110.00000000000017,
            "velocity": 0.7874015748031497,
            "duration": 0.5
          },
          {
            "name": "D#3",
            "midi": 51,
            "time": 110.00000000000017,
            "velocity": 0.7874015748031497,
            "duration": 0.5
          },
          {
            "name": "A#2",
            "midi": 46,
            "time": 110.00000000000017,
            "velocity": 0.7874015748031497,
            "duration": 0.25
          },
          {
            "name": "C#3",
            "midi": 49,
            "time": 110.00000000000017,
            "velocity": 0.5275590551181102,
            "duration": 0.125
          },
          {
            "name": "C2",
            "midi": 36,
            "time": 110.00000000000017,
            "velocity": 0.7716535433070866,
            "duration": 0.0625
          },
          {
            "name": "D#4",
            "midi": 63,
            "time": 110.00416666666683,
            "velocity": 0.7874015748031497,
            "duration": 1.9958333333333371
          },
          {
            "name": "D#1",
            "midi": 27,
            "time": 110.25000000000017,
            "velocity": 0.7874015748031497,
            "duration": 0.25
          },
          {
            "name": "A#2",
            "midi": 46,
            "time": 110.25000000000017,
            "velocity": 0.7874015748031497,
            "duration": 0.01666666666666572
          },
          {
            "name": "C2",
            "midi": 36,
            "time": 110.25000000000017,
            "velocity": 0.7716535433070866,
            "duration": 0.0625
          },
          {
            "name": "A#2",
            "midi": 46,
            "time": 110.25000000000017,
            "velocity": 0.5275590551181102,
            "duration": 0.25
          },
          {
            "name": "D#1",
            "midi": 27,
            "time": 110.50000000000017,
            "velocity": 0.7874015748031497,
            "duration": 0.2500000000000142
          },
          {
            "name": "C4",
            "midi": 60,
            "time": 110.50000000000017,
            "velocity": 0.7874015748031497,
            "duration": 0.5000000000000142
          },
          {
            "name": "D#3",
            "midi": 51,
            "time": 110.50000000000017,
            "velocity": 0.7874015748031497,
            "duration": 0.5000000000000142
          },
          {
            "name": "G3",
            "midi": 55,
            "time": 110.50000000000017,
            "velocity": 0.7874015748031497,
            "duration": 0.5000000000000142
          },
          {
            "name": "A#2",
            "midi": 46,
            "time": 110.50000000000017,
            "velocity": 0.7874015748031497,
            "duration": 0.01666666666667993
          },
          {
            "name": "D#3",
            "midi": 51,
            "time": 110.50000000000017,
            "velocity": 0.7874015748031497,
            "duration": 0.5000000000000142
          },
          {
            "name": "F#3",
            "midi": 54,
            "time": 110.50000000000017,
            "velocity": 0.7401574803149606,
            "duration": 0.008333333333339965
          },
          {
            "name": "D2",
            "midi": 38,
            "time": 110.50000000000017,
            "velocity": 0.7874015748031497,
            "duration": 0.01666666666667993
          },
          {
            "name": "A#2",
            "midi": 46,
            "time": 110.50000000000017,
            "velocity": 0.5275590551181102,
            "duration": 0.2500000000000142
          },
          {
            "name": "D#1",
            "midi": 27,
            "time": 110.75000000000018,
            "velocity": 0.7874015748031497,
            "duration": 0.25
          },
          {
            "name": "C5",
            "midi": 72,
            "time": 110.75000000000018,
            "velocity": 0.7874015748031497,
            "duration": 0.25
          },
          {
            "name": "A#2",
            "midi": 46,
            "time": 110.75000000000018,
            "velocity": 0.7874015748031497,
            "duration": 0.01666666666666572
          },
          {
            "name": "A#2",
            "midi": 46,
            "time": 110.75000000000018,
            "velocity": 0.5275590551181102,
            "duration": 0.25
          },
          {
            "name": "D#1",
            "midi": 27,
            "time": 111.00000000000018,
            "velocity": 0.7874015748031497,
            "duration": 0.25
          },
          {
            "name": "G3",
            "midi": 55,
            "time": 111.00000000000018,
            "velocity": 0.7874015748031497,
            "duration": 0.5
          },
          {
            "name": "D#3",
            "midi": 51,
            "time": 111.00000000000018,
            "velocity": 0.7874015748031497,
            "duration": 0.5
          },
          {
            "name": "C4",
            "midi": 60,
            "time": 111.00000000000018,
            "velocity": 0.7874015748031497,
            "duration": 0.5
          },
          {
            "name": "C5",
            "midi": 72,
            "time": 111.00000000000018,
            "velocity": 0.7874015748031497,
            "duration": 0.25
          },
          {
            "name": "A#2",
            "midi": 46,
            "time": 111.00000000000018,
            "velocity": 0.5275590551181102,
            "duration": 0.01666666666666572
          },
          {
            "name": "C2",
            "midi": 36,
            "time": 111.00000000000018,
            "velocity": 0.7716535433070866,
            "duration": 0.0625
          },
          {
            "name": "D#3",
            "midi": 51,
            "time": 111.00416666666685,
            "velocity": 0.7874015748031497,
            "duration": 0.5
          },
          {
            "name": "A#2",
            "midi": 46,
            "time": 111.01250000000019,
            "velocity": 0.7874015748031497,
            "duration": 0.25
          },
          {
            "name": "D#1",
            "midi": 27,
            "time": 111.25000000000018,
            "velocity": 0.7874015748031497,
            "duration": 0.25
          },
          {
            "name": "A#4",
            "midi": 70,
            "time": 111.25000000000018,
            "velocity": 0.7874015748031497,
            "duration": 0.25
          },
          {
            "name": "C2",
            "midi": 36,
            "time": 111.25000000000018,
            "velocity": 0.7716535433070866,
            "duration": 0.0625
          },
          {
            "name": "A#2",
            "midi": 46,
            "time": 111.25000000000018,
            "velocity": 0.5275590551181102,
            "duration": 0.01666666666666572
          },
          {
            "name": "A#2",
            "midi": 46,
            "time": 111.26250000000019,
            "velocity": 0.7874015748031497,
            "duration": 0.2499999999999858
          },
          {
            "name": "D#1",
            "midi": 27,
            "time": 111.50000000000018,
            "velocity": 0.7874015748031497,
            "duration": 0.2499999999999858
          },
          {
            "name": "G3",
            "midi": 55,
            "time": 111.50000000000018,
            "velocity": 0.7874015748031497,
            "duration": 0.4999999999999858
          },
          {
            "name": "C4",
            "midi": 60,
            "time": 111.50000000000018,
            "velocity": 0.7874015748031497,
            "duration": 0.4999999999999858
          },
          {
            "name": "D#3",
            "midi": 51,
            "time": 111.50000000000018,
            "velocity": 0.7874015748031497,
            "duration": 0.4999999999999858
          },
          {
            "name": "A4",
            "midi": 69,
            "time": 111.50000000000018,
            "velocity": 0.7874015748031497,
            "duration": 0.2499999999999858
          },
          {
            "name": "D2",
            "midi": 38,
            "time": 111.50000000000018,
            "velocity": 0.7874015748031497,
            "duration": 0.008333333333325754
          },
          {
            "name": "F#3",
            "midi": 54,
            "time": 111.50000000000018,
            "velocity": 0.7401574803149606,
            "duration": 0.008333333333325754
          },
          {
            "name": "A#2",
            "midi": 46,
            "time": 111.50000000000018,
            "velocity": 0.5275590551181102,
            "duration": 0.01666666666665151
          },
          {
            "name": "D#3",
            "midi": 51,
            "time": 111.51250000000017,
            "velocity": 0.7874015748031497,
            "duration": 0.5
          },
          {
            "name": "A#2",
            "midi": 46,
            "time": 111.51250000000017,
            "velocity": 0.7874015748031497,
            "duration": 0.25
          },
          {
            "name": "D#1",
            "midi": 27,
            "time": 111.75000000000017,
            "velocity": 0.7874015748031497,
            "duration": 0.25
          },
          {
            "name": "G4",
            "midi": 67,
            "time": 111.75000000000017,
            "velocity": 0.7874015748031497,
            "duration": 0.25
          },
          {
            "name": "A#2",
            "midi": 46,
            "time": 111.75000000000017,
            "velocity": 0.5275590551181102,
            "duration": 0.01666666666666572
          },
          {
            "name": "A#2",
            "midi": 46,
            "time": 111.76250000000017,
            "velocity": 0.7874015748031497,
            "duration": 0.25
          },
          {
            "name": "D1",
            "midi": 26,
            "time": 112.00000000000017,
            "velocity": 0.7874015748031497,
            "duration": 0.25
          },
          {
            "name": "D3",
            "midi": 50,
            "time": 112.00000000000017,
            "velocity": 0.7874015748031497,
            "duration": 0.5
          },
          {
            "name": "A3",
            "midi": 57,
            "time": 112.00000000000017,
            "velocity": 0.7874015748031497,
            "duration": 0.5
          },
          {
            "name": "F#3",
            "midi": 54,
            "time": 112.00000000000017,
            "velocity": 0.7874015748031497,
            "duration": 0.5
          },
          {
            "name": "F#4",
            "midi": 66,
            "time": 112.00000000000017,
            "velocity": 0.7874015748031497,
            "duration": 0.25
          },
          {
            "name": "A#2",
            "midi": 46,
            "time": 112.00000000000017,
            "velocity": 0.5275590551181102,
            "duration": 0.125
          },
          {
            "name": "C2",
            "midi": 36,
            "time": 112.00000000000017,
            "velocity": 0.7716535433070866,
            "duration": 0.0625
          },
          {
            "name": "D3",
            "midi": 50,
            "time": 112.00416666666683,
            "velocity": 0.7874015748031497,
            "duration": 0.5
          },
          {
            "name": "A2",
            "midi": 45,
            "time": 112.01250000000017,
            "velocity": 0.7874015748031497,
            "duration": 0.25
          },
          {
            "name": "D1",
            "midi": 26,
            "time": 112.25000000000017,
            "velocity": 0.7874015748031497,
            "duration": 0.25
          },
          {
            "name": "A#2",
            "midi": 46,
            "time": 112.25000000000017,
            "velocity": 0.5275590551181102,
            "duration": 0.01666666666666572
          },
          {
            "name": "D2",
            "midi": 38,
            "time": 112.25000000000017,
            "velocity": 0.7874015748031497,
            "duration": 0.01666666666666572
          },
          {
            "name": "A2",
            "midi": 45,
            "time": 112.26250000000017,
            "velocity": 0.7874015748031497,
            "duration": 0.2499999999999858
          },
          {
            "name": "C2",
            "midi": 36,
            "time": 112.37500000000017,
            "velocity": 0.7716535433070866,
            "duration": 0.0625
          },
          {
            "name": "D1",
            "midi": 26,
            "time": 112.50000000000017,
            "velocity": 0.7874015748031497,
            "duration": 0.2499999999999858
          },
          {
            "name": "F#3",
            "midi": 54,
            "time": 112.50000000000017,
            "velocity": 0.7874015748031497,
            "duration": 0.008333333333325754
          },
          {
            "name": "A3",
            "midi": 57,
            "time": 112.50000000000017,
            "velocity": 0.7874015748031497,
            "duration": 0.4999999999999858
          },
          {
            "name": "D3",
            "midi": 50,
            "time": 112.50000000000017,
            "velocity": 0.7874015748031497,
            "duration": 0.4999999999999858
          },
          {
            "name": "D2",
            "midi": 38,
            "time": 112.50000000000017,
            "velocity": 0.7874015748031497,
            "duration": 0.01666666666665151
          },
          {
            "name": "A#2",
            "midi": 46,
            "time": 112.50000000000017,
            "velocity": 0.5275590551181102,
            "duration": 0.01666666666665151
          },
          {
            "name": "F#3",
            "midi": 54,
            "time": 112.50000000000017,
            "velocity": 0.7401574803149606,
            "duration": 0.4999999999999858
          },
          {
            "name": "A2",
            "midi": 45,
            "time": 112.51250000000016,
            "velocity": 0.7874015748031497,
            "duration": 0.25
          },
          {
            "name": "D3",
            "midi": 50,
            "time": 112.51250000000016,
            "velocity": 0.7874015748031497,
            "duration": 0.5
          },
          {
            "name": "D1",
            "midi": 26,
            "time": 112.75000000000016,
            "velocity": 0.7874015748031497,
            "duration": 0.25
          },
          {
            "name": "A#2",
            "midi": 46,
            "time": 112.75000000000016,
            "velocity": 0.5275590551181102,
            "duration": 0.01666666666666572
          },
          {
            "name": "A2",
            "midi": 45,
            "time": 112.76250000000016,
            "velocity": 0.7874015748031497,
            "duration": 0.25
          },
          {
            "name": "D1",
            "midi": 26,
            "time": 113.00000000000016,
            "velocity": 0.7874015748031497,
            "duration": 0.25
          },
          {
            "name": "D3",
            "midi": 50,
            "time": 113.00000000000016,
            "velocity": 0.7874015748031497,
            "duration": 0.4000000000000057
          },
          {
            "name": "F#3",
            "midi": 54,
            "time": 113.00000000000016,
            "velocity": 0.7874015748031497,
            "duration": 0.4000000000000057
          },
          {
            "name": "F#2",
            "midi": 42,
            "time": 113.00000000000016,
            "velocity": 0.7874015748031497,
            "duration": 0.4000000000000057
          },
          {
            "name": "F#4",
            "midi": 66,
            "time": 113.00000000000016,
            "velocity": 0.7874015748031497,
            "duration": 0.25
          },
          {
            "name": "C2",
            "midi": 36,
            "time": 113.00000000000016,
            "velocity": 0.7716535433070866,
            "duration": 0.0625
          },
          {
            "name": "C#3",
            "midi": 49,
            "time": 113.00000000000016,
            "velocity": 0.7874015748031497,
            "duration": 0.01666666666666572
          },
          {
            "name": "D3",
            "midi": 50,
            "time": 113.01666666666682,
            "velocity": 0.7874015748031497,
            "duration": 0.4833333333333343
          },
          {
            "name": "A2",
            "midi": 45,
            "time": 113.02500000000016,
            "velocity": 0.7874015748031497,
            "duration": 0.25
          },
          {
            "name": "D2",
            "midi": 38,
            "time": 113.25000000000016,
            "velocity": 0.7874015748031497,
            "duration": 0.0625
          },
          {
            "name": "F1",
            "midi": 29,
            "time": 113.37500000000016,
            "velocity": 0.7874015748031497,
            "duration": 0.25
          },
          {
            "name": "G3",
            "midi": 55,
            "time": 113.37500000000016,
            "velocity": 0.7874015748031497,
            "duration": 0.4250000000000256
          },
          {
            "name": "G2",
            "midi": 43,
            "time": 113.37500000000016,
            "velocity": 0.7874015748031497,
            "duration": 0.4250000000000256
          },
          {
            "name": "G4",
            "midi": 67,
            "time": 113.37500000000016,
            "velocity": 0.7874015748031497,
            "duration": 0.25
          },
          {
            "name": "A2",
            "midi": 45,
            "time": 113.37500000000016,
            "velocity": 0.7874015748031497,
            "duration": 0.125
          },
          {
            "name": "F3",
            "midi": 53,
            "time": 113.37500000000016,
            "velocity": 0.8740157480314961,
            "duration": 0.4250000000000256
          },
          {
            "name": "C2",
            "midi": 36,
            "time": 113.37500000000016,
            "velocity": 0.7637795275590551,
            "duration": 0.008333333333339965
          },
          {
            "name": "A3",
            "midi": 57,
            "time": 113.37500000000016,
            "velocity": 0.7874015748031497,
            "duration": 0.008333333333339965
          },
          {
            "name": "D3",
            "midi": 50,
            "time": 113.50000000000016,
            "velocity": 0.7874015748031497,
            "duration": 0.5000000000000284
          },
          {
            "name": "C3",
            "midi": 48,
            "time": 113.50000000000016,
            "velocity": 0.7874015748031497,
            "duration": 0.25
          },
          {
            "name": "D2",
            "midi": 38,
            "time": 113.62500000000016,
            "velocity": 0.7874015748031497,
            "duration": 0.0625
          },
          {
            "name": "A1",
            "midi": 33,
            "time": 113.75000000000016,
            "velocity": 0.7874015748031497,
            "duration": 0.2500000000000284
          },
          {
            "name": "A3",
            "midi": 57,
            "time": 113.75000000000016,
            "velocity": 0.7874015748031497,
            "duration": 0.2500000000000284
          },
          {
            "name": "A2",
            "midi": 45,
            "time": 113.75000000000016,
            "velocity": 0.7874015748031497,
            "duration": 0.2500000000000284
          },
          {
            "name": "A4",
            "midi": 69,
            "time": 113.75000000000016,
            "velocity": 0.7874015748031497,
            "duration": 0.2500000000000284
          },
          {
            "name": "A3",
            "midi": 57,
            "time": 113.75000000000016,
            "velocity": 0.7874015748031497,
            "duration": 0.2500000000000284
          },
          {
            "name": "A#2",
            "midi": 46,
            "time": 113.75000000000016,
            "velocity": 0.5275590551181102,
            "duration": 0.01666666666667993
          },
          {
            "name": "C2",
            "midi": 36,
            "time": 113.75000000000016,
            "velocity": 0.7637795275590551,
            "duration": 0.008333333333339965
          },
          {
            "name": "D#3",
            "midi": 51,
            "time": 113.77500000000018,
            "velocity": 0.7874015748031497,
            "duration": 0.22500000000000853
          },
          {
            "name": "A#1",
            "midi": 34,
            "time": 114.00000000000018,
            "velocity": 0.7874015748031497,
            "duration": 0.25
          },
          {
            "name": "F3",
            "midi": 53,
            "time": 114.00000000000018,
            "velocity": 0.7874015748031497,
            "duration": 0.5
          },
          {
            "name": "C#3",
            "midi": 49,
            "time": 114.00000000000018,
            "velocity": 0.7874015748031497,
            "duration": 0.125
          },
          {
            "name": "A#2",
            "midi": 46,
            "time": 114.00000000000018,
            "velocity": 0.7874015748031497,
            "duration": 0.2666666666666657
          },
          {
            "name": "A#3",
            "midi": 58,
            "time": 114.00000000000018,
            "velocity": 0.7874015748031497,
            "duration": 0.9999999999999858
          },
          {
            "name": "A#4",
            "midi": 70,
            "time": 114.00000000000018,
            "velocity": 0.7874015748031497,
            "duration": 0.25
          },
          {
            "name": "A#3",
            "midi": 58,
            "time": 114.00000000000018,
            "velocity": 0.7874015748031497,
            "duration": 1.3999999999999915
          },
          {
            "name": "A#3",
            "midi": 58,
            "time": 114.00000000000018,
            "velocity": 0.7874015748031497,
            "duration": 1.5041666666666487
          },
          {
            "name": "C#3",
            "midi": 49,
            "time": 114.00000000000018,
            "velocity": 0.8188976377952756,
            "duration": 0.5
          },
          {
            "name": "C2",
            "midi": 36,
            "time": 114.00000000000018,
            "velocity": 0.7716535433070866,
            "duration": 0.0625
          },
          {
            "name": "A#2",
            "midi": 46,
            "time": 114.00416666666685,
            "velocity": 0.7874015748031497,
            "duration": 0.4958333333333371
          },
          {
            "name": "F2",
            "midi": 41,
            "time": 114.01250000000019,
            "velocity": 0.7874015748031497,
            "duration": 0.25
          },
          {
            "name": "A#1",
            "midi": 34,
            "time": 114.25000000000018,
            "velocity": 0.7874015748031497,
            "duration": 0.25
          },
          {
            "name": "C2",
            "midi": 36,
            "time": 114.25000000000018,
            "velocity": 0.7716535433070866,
            "duration": 0.0625
          },
          {
            "name": "A#2",
            "midi": 46,
            "time": 114.25000000000018,
            "velocity": 0.5275590551181102,
            "duration": 0.2541666666666629
          },
          {
            "name": "F2",
            "midi": 41,
            "time": 114.26250000000019,
            "velocity": 0.7874015748031497,
            "duration": 0.2499999999999858
          },
          {
            "name": "A#1",
            "midi": 34,
            "time": 114.50000000000018,
            "velocity": 0.7874015748031497,
            "duration": 0.2499999999999858
          },
          {
            "name": "A#2",
            "midi": 46,
            "time": 114.50000000000018,
            "velocity": 0.7874015748031497,
            "duration": 0.01666666666665151
          },
          {
            "name": "F3",
            "midi": 53,
            "time": 114.50000000000018,
            "velocity": 0.7874015748031497,
            "duration": 0.4999999999999858
          },
          {
            "name": "C#3",
            "midi": 49,
            "time": 114.50000000000018,
            "velocity": 0.7874015748031497,
            "duration": 0.4999999999999858
          },
          {
            "name": "F#3",
            "midi": 54,
            "time": 114.50000000000018,
            "velocity": 0.7401574803149606,
            "duration": 0.008333333333325754
          },
          {
            "name": "A#2",
            "midi": 46,
            "time": 114.50000000000018,
            "velocity": 0.5275590551181102,
            "duration": 0.2666666666666515
          },
          {
            "name": "D2",
            "midi": 38,
            "time": 114.50000000000018,
            "velocity": 0.7874015748031497,
            "duration": 0.01666666666665151
          },
          {
            "name": "A#2",
            "midi": 46,
            "time": 114.51250000000017,
            "velocity": 0.7874015748031497,
            "duration": 0.48749999999999716
          },
          {
            "name": "F2",
            "midi": 41,
            "time": 114.51250000000017,
            "velocity": 0.7874015748031497,
            "duration": 0.25
          },
          {
            "name": "A#1",
            "midi": 34,
            "time": 114.75000000000017,
            "velocity": 0.7874015748031497,
            "duration": 0.25
          },
          {
            "name": "A#4",
            "midi": 70,
            "time": 114.75000000000017,
            "velocity": 0.7874015748031497,
            "duration": 0.25
          },
          {
            "name": "A#2",
            "midi": 46,
            "time": 114.75000000000017,
            "velocity": 0.5275590551181102,
            "duration": 0.26250000000000284
          },
          {
            "name": "F2",
            "midi": 41,
            "time": 114.76250000000017,
            "velocity": 0.7874015748031497,
            "duration": 0.25
          },
          {
            "name": "A#1",
            "midi": 34,
            "time": 115.00000000000017,
            "velocity": 0.7874015748031497,
            "duration": 0.25
          },
          {
            "name": "A#2",
            "midi": 46,
            "time": 115.00000000000017,
            "velocity": 0.7874015748031497,
            "duration": 0.01666666666666572
          },
          {
            "name": "C#3",
            "midi": 49,
            "time": 115.00000000000017,
            "velocity": 0.7874015748031497,
            "duration": 0.375
          },
          {
            "name": "F3",
            "midi": 53,
            "time": 115.00000000000017,
            "velocity": 0.7874015748031497,
            "duration": 0.26250000000000284
          },
          {
            "name": "A#4",
            "midi": 70,
            "time": 115.00000000000017,
            "velocity": 0.7874015748031497,
            "duration": 0.25
          },
          {
            "name": "C2",
            "midi": 36,
            "time": 115.00000000000017,
            "velocity": 0.7716535433070866,
            "duration": 0.0625
          },
          {
            "name": "A#2",
            "midi": 46,
            "time": 115.00000000000017,
            "velocity": 0.5275590551181102,
            "duration": 0.2666666666666657
          },
          {
            "name": "A#3",
            "midi": 58,
            "time": 115.00416666666683,
            "velocity": 0.7874015748031497,
            "duration": 0.9958333333333229
          },
          {
            "name": "F3",
            "midi": 53,
            "time": 115.01250000000017,
            "velocity": 0.7874015748031497,
            "duration": 0.36249999999999716
          },
          {
            "name": "A#1",
            "midi": 34,
            "time": 115.25000000000017,
            "velocity": 0.7874015748031497,
            "duration": 0.25
          },
          {
            "name": "A#2",
            "midi": 46,
            "time": 115.25000000000017,
            "velocity": 0.5275590551181102,
            "duration": 0.125
          },
          {
            "name": "C2",
            "midi": 36,
            "time": 115.25000000000017,
            "velocity": 0.7716535433070866,
            "duration": 0.0625
          },
          {
            "name": "F3",
            "midi": 53,
            "time": 115.26250000000017,
            "velocity": 0.7874015748031497,
            "duration": 0.2499999999999858
          },
          {
            "name": "C#3",
            "midi": 49,
            "time": 115.37500000000017,
            "velocity": 0.7874015748031497,
            "duration": 0.3749999999999858
          },
          {
            "name": "A#2",
            "midi": 46,
            "time": 115.37500000000017,
            "velocity": 0.7874015748031497,
            "duration": 0.1416666666666515
          },
          {
            "name": "F3",
            "midi": 53,
            "time": 115.37500000000017,
            "velocity": 0.7874015748031497,
            "duration": 0.3749999999999858
          },
          {
            "name": "A4",
            "midi": 69,
            "time": 115.37500000000017,
            "velocity": 0.7874015748031497,
            "duration": 0.2499999999999858
          },
          {
            "name": "A#1",
            "midi": 34,
            "time": 115.50000000000017,
            "velocity": 0.7874015748031497,
            "duration": 0.2499999999999858
          },
          {
            "name": "F#3",
            "midi": 54,
            "time": 115.50000000000017,
            "velocity": 0.7401574803149606,
            "duration": 0.008333333333325754
          },
          {
            "name": "A#2",
            "midi": 46,
            "time": 115.50000000000017,
            "velocity": 0.5275590551181102,
            "duration": 0.2499999999999858
          },
          {
            "name": "D2",
            "midi": 38,
            "time": 115.50000000000017,
            "velocity": 0.7874015748031497,
            "duration": 0.008333333333325754
          },
          {
            "name": "A#3",
            "midi": 58,
            "time": 115.51250000000016,
            "velocity": 0.7874015748031497,
            "duration": 0.5
          },
          {
            "name": "F3",
            "midi": 53,
            "time": 115.51250000000016,
            "velocity": 0.7874015748031497,
            "duration": 0.25
          },
          {
            "name": "A#1",
            "midi": 34,
            "time": 115.75000000000016,
            "velocity": 0.7874015748031497,
            "duration": 0.25
          },
          {
            "name": "F3",
            "midi": 53,
            "time": 115.75000000000016,
            "velocity": 0.7874015748031497,
            "duration": 0.25
          },
          {
            "name": "C#3",
            "midi": 49,
            "time": 115.75000000000016,
            "velocity": 0.7874015748031497,
            "duration": 0.25
          },
          {
            "name": "A#2",
            "midi": 46,
            "time": 115.75000000000016,
            "velocity": 0.7874015748031497,
            "duration": 0.01666666666666572
          },
          {
            "name": "G4",
            "midi": 67,
            "time": 115.75000000000016,
            "velocity": 0.7874015748031497,
            "duration": 0.25
          },
          {
            "name": "A#2",
            "midi": 46,
            "time": 115.75000000000016,
            "velocity": 0.5275590551181102,
            "duration": 0.25
          },
          {
            "name": "F3",
            "midi": 53,
            "time": 115.76250000000016,
            "velocity": 0.7874015748031497,
            "duration": 0.25
          },
          {
            "name": "A1",
            "midi": 33,
            "time": 116.00000000000016,
            "velocity": 0.7874015748031497,
            "duration": 0.25
          },
          {
            "name": "F3",
            "midi": 53,
            "time": 116.00000000000016,
            "velocity": 0.7874015748031497,
            "duration": 0.26250000000000284
          },
          {
            "name": "A3",
            "midi": 57,
            "time": 116.00000000000016,
            "velocity": 0.7874015748031497,
            "duration": 0.5
          },
          {
            "name": "C3",
            "midi": 48,
            "time": 116.00000000000016,
            "velocity": 0.7874015748031497,
            "duration": 0.5
          },
          {
            "name": "A4",
            "midi": 69,
            "time": 116.00000000000016,
            "velocity": 0.7874015748031497,
            "duration": 0.25
          },
          {
            "name": "A3",
            "midi": 57,
            "time": 116.00000000000016,
            "velocity": 0.7874015748031497,
            "duration": 0.5041666666666629
          },
          {
            "name": "A#2",
            "midi": 46,
            "time": 116.00000000000016,
            "velocity": 0.5275590551181102,
            "duration": 0.125
          },
          {
            "name": "C2",
            "midi": 36,
            "time": 116.00000000000016,
            "velocity": 0.7716535433070866,
            "duration": 0.0625
          },
          {
            "name": "A3",
            "midi": 57,
            "time": 116.00416666666682,
            "velocity": 0.7874015748031497,
            "duration": 0.9958333333333229
          },
          {
            "name": "F3",
            "midi": 53,
            "time": 116.01250000000016,
            "velocity": 0.7874015748031497,
            "duration": 0.48749999999999716
          },
          {
            "name": "A1",
            "midi": 33,
            "time": 116.25000000000016,
            "velocity": 0.7874015748031497,
            "duration": 0.25
          },
          {
            "name": "C2",
            "midi": 36,
            "time": 116.25000000000016,
            "velocity": 0.7716535433070866,
            "duration": 0.0625
          },
          {
            "name": "A#2",
            "midi": 46,
            "time": 116.25000000000016,
            "velocity": 0.5275590551181102,
            "duration": 0.01666666666666572
          },
          {
            "name": "F3",
            "midi": 53,
            "time": 116.26250000000016,
            "velocity": 0.7874015748031497,
            "duration": 0.2499999999999858
          },
          {
            "name": "A1",
            "midi": 33,
            "time": 116.50000000000016,
            "velocity": 0.7874015748031497,
            "duration": 0.2499999999999858
          },
          {
            "name": "F3",
            "midi": 53,
            "time": 116.50000000000016,
            "velocity": 0.7874015748031497,
            "duration": 0.26249999999998863
          },
          {
            "name": "C3",
            "midi": 48,
            "time": 116.50000000000016,
            "velocity": 0.7874015748031497,
            "duration": 0.4999999999999858
          },
          {
            "name": "A3",
            "midi": 57,
            "time": 116.50000000000016,
            "velocity": 0.7874015748031497,
            "duration": 0.5124999999999886
          },
          {
            "name": "F#3",
            "midi": 54,
            "time": 116.50000000000016,
            "velocity": 0.7401574803149606,
            "duration": 0.008333333333325754
          },
          {
            "name": "A#2",
            "midi": 46,
            "time": 116.50000000000016,
            "velocity": 0.5275590551181102,
            "duration": 0.01666666666665151
          },
          {
            "name": "D2",
            "midi": 38,
            "time": 116.50000000000016,
            "velocity": 0.7874015748031497,
            "duration": 0.01666666666665151
          },
          {
            "name": "F3",
            "midi": 53,
            "time": 116.51250000000014,
            "velocity": 0.7874015748031497,
            "duration": 0.48749999999999716
          },
          {
            "name": "A3",
            "midi": 57,
            "time": 116.51250000000014,
            "velocity": 0.7874015748031497,
            "duration": 0.9874999999999972
          },
          {
            "name": "A1",
            "midi": 33,
            "time": 116.75000000000014,
            "velocity": 0.7874015748031497,
            "duration": 0.25
          },
          {
            "name": "A#2",
            "midi": 46,
            "time": 116.75000000000014,
            "velocity": 0.5275590551181102,
            "duration": 0.01666666666666572
          },
          {
            "name": "F3",
            "midi": 53,
            "time": 116.76250000000014,
            "velocity": 0.7874015748031497,
            "duration": 0.25
          },
          {
            "name": "A1",
            "midi": 33,
            "time": 117.00000000000014,
            "velocity": 0.7874015748031497,
            "duration": 0.25
          },
          {
            "name": "C3",
            "midi": 48,
            "time": 117.00000000000014,
            "velocity": 0.7874015748031497,
            "duration": 0.5
          },
          {
            "name": "A3",
            "midi": 57,
            "time": 117.00000000000014,
            "velocity": 0.7874015748031497,
            "duration": 0.5166666666666799
          },
          {
            "name": "F3",
            "midi": 53,
            "time": 117.00000000000014,
            "velocity": 0.7874015748031497,
            "duration": 0.2750000000000057
          },
          {
            "name": "A4",
            "midi": 69,
            "time": 117.00000000000014,
            "velocity": 0.7874015748031497,
            "duration": 0.25
          },
          {
            "name": "D2",
            "midi": 38,
            "time": 117.00000000000014,
            "velocity": 0.7874015748031497,
            "duration": 0.0625
          },
          {
            "name": "A#2",
            "midi": 46,
            "time": 117.00000000000014,
            "velocity": 0.5275590551181102,
            "duration": 0.01666666666666572
          },
          {
            "name": "A3",
            "midi": 57,
            "time": 117.01666666666681,
            "velocity": 0.7874015748031497,
            "duration": 0.9833333333333485
          },
          {
            "name": "F3",
            "midi": 53,
            "time": 117.02500000000015,
            "velocity": 0.7874015748031497,
            "duration": 0.4749999999999943
          },
          {
            "name": "C2",
            "midi": 36,
            "time": 117.12500000000014,
            "velocity": 0.7716535433070866,
            "duration": 0.0625
          },
          {
            "name": "A1",
            "midi": 33,
            "time": 117.25000000000014,
            "velocity": 0.7874015748031497,
            "duration": 0.25
          },
          {
            "name": "A#2",
            "midi": 46,
            "time": 117.25000000000014,
            "velocity": 0.5275590551181102,
            "duration": 0.01666666666666572
          },
          {
            "name": "F3",
            "midi": 53,
            "time": 117.27500000000015,
            "velocity": 0.7874015748031497,
            "duration": 0.2500000000000142
          },
          {
            "name": "A#4",
            "midi": 70,
            "time": 117.37500000000014,
            "velocity": 0.7874015748031497,
            "duration": 0.2500000000000142
          },
          {
            "name": "C2",
            "midi": 36,
            "time": 117.37500000000014,
            "velocity": 0.7716535433070866,
            "duration": 0.0625
          },
          {
            "name": "A1",
            "midi": 33,
            "time": 117.50000000000014,
            "velocity": 0.7874015748031497,
            "duration": 0.2500000000000142
          },
          {
            "name": "F3",
            "midi": 53,
            "time": 117.50000000000014,
            "velocity": 0.7874015748031497,
            "duration": 0.2750000000000199
          },
          {
            "name": "A3",
            "midi": 57,
            "time": 117.50000000000014,
            "velocity": 0.7874015748031497,
            "duration": 0.5000000000000142
          },
          {
            "name": "C3",
            "midi": 48,
            "time": 117.50000000000014,
            "velocity": 0.7874015748031497,
            "duration": 0.5000000000000142
          },
          {
            "name": "A#2",
            "midi": 46,
            "time": 117.50000000000014,
            "velocity": 0.5275590551181102,
            "duration": 0.01666666666667993
          },
          {
            "name": "F#3",
            "midi": 54,
            "time": 117.50000000000014,
            "velocity": 0.7401574803149606,
            "duration": 0.008333333333339965
          },
          {
            "name": "D2",
            "midi": 38,
            "time": 117.50000000000014,
            "velocity": 0.7874015748031497,
            "duration": 0.008333333333339965
          },
          {
            "name": "F3",
            "midi": 53,
            "time": 117.52500000000016,
            "velocity": 0.7874015748031497,
            "duration": 0.4749999999999943
          },
          {
            "name": "A3",
            "midi": 57,
            "time": 117.52500000000016,
            "velocity": 0.7874015748031497,
            "duration": 0.5
          },
          {
            "name": "A1",
            "midi": 33,
            "time": 117.75000000000016,
            "velocity": 0.7874015748031497,
            "duration": 0.25
          },
          {
            "name": "C5",
            "midi": 72,
            "time": 117.75000000000016,
            "velocity": 0.7874015748031497,
            "duration": 0.25
          },
          {
            "name": "A#2",
            "midi": 46,
            "time": 117.75000000000016,
            "velocity": 0.5275590551181102,
            "duration": 0.01666666666666572
          },
          {
            "name": "F3",
            "midi": 53,
            "time": 117.77500000000016,
            "velocity": 0.7874015748031497,
            "duration": 0.25
          },
          {
            "name": "C1",
            "midi": 24,
            "time": 118.00000000000016,
            "velocity": 0.7874015748031497,
            "duration": 0.25
          },
          {
            "name": "E3",
            "midi": 52,
            "time": 118.00000000000016,
            "velocity": 0.7874015748031497,
            "duration": 0.5
          },
          {
            "name": "C3",
            "midi": 48,
            "time": 118.00000000000016,
            "velocity": 0.7874015748031497,
            "duration": 0.5
          },
          {
            "name": "G3",
            "midi": 55,
            "time": 118.00000000000016,
            "velocity": 0.7874015748031497,
            "duration": 0.26250000000000284
          },
          {
            "name": "C5",
            "midi": 72,
            "time": 118.00000000000016,
            "velocity": 0.7874015748031497,
            "duration": 0.25
          },
          {
            "name": "C4",
            "midi": 60,
            "time": 118.00000000000016,
            "velocity": 0.7874015748031497,
            "duration": 0.5041666666666629
          },
          {
            "name": "C#3",
            "midi": 49,
            "time": 118.00000000000016,
            "velocity": 0.5275590551181102,
            "duration": 0.125
          },
          {
            "name": "C2",
            "midi": 36,
            "time": 118.00000000000016,
            "velocity": 0.7716535433070866,
            "duration": 0.0625
          },
          {
            "name": "C4",
            "midi": 60,
            "time": 118.00416666666682,
            "velocity": 0.7874015748031497,
            "duration": 1.0083333333333258
          },
          {
            "name": "G3",
            "midi": 55,
            "time": 118.01250000000016,
            "velocity": 0.7874015748031497,
            "duration": 0.48749999999999716
          },
          {
            "name": "C1",
            "midi": 24,
            "time": 118.25000000000016,
            "velocity": 0.7874015748031497,
            "duration": 0.25
          },
          {
            "name": "C2",
            "midi": 36,
            "time": 118.25000000000016,
            "velocity": 0.7716535433070866,
            "duration": 0.0625
          },
          {
            "name": "A#2",
            "midi": 46,
            "time": 118.25000000000016,
            "velocity": 0.5275590551181102,
            "duration": 0.01666666666666572
          },
          {
            "name": "G3",
            "midi": 55,
            "time": 118.26250000000016,
            "velocity": 0.7874015748031497,
            "duration": 0.2499999999999858
          },
          {
            "name": "C1",
            "midi": 24,
            "time": 118.50000000000016,
            "velocity": 0.7874015748031497,
            "duration": 0.2499999999999858
          },
          {
            "name": "C3",
            "midi": 48,
            "time": 118.50000000000016,
            "velocity": 0.7874015748031497,
            "duration": 0.4999999999999858
          },
          {
            "name": "G3",
            "midi": 55,
            "time": 118.50000000000016,
            "velocity": 0.7874015748031497,
            "duration": 0.26249999999998863
          },
          {
            "name": "E3",
            "midi": 52,
            "time": 118.50000000000016,
            "velocity": 0.7874015748031497,
            "duration": 0.4999999999999858
          },
          {
            "name": "F#3",
            "midi": 54,
            "time": 118.50000000000016,
            "velocity": 0.7401574803149606,
            "duration": 0.008333333333325754
          },
          {
            "name": "A#2",
            "midi": 46,
            "time": 118.50000000000016,
            "velocity": 0.5275590551181102,
            "duration": 0.01666666666665151
          },
          {
            "name": "D2",
            "midi": 38,
            "time": 118.50000000000016,
            "velocity": 0.7874015748031497,
            "duration": 0.01666666666665151
          },
          {
            "name": "C4",
            "midi": 60,
            "time": 118.51250000000014,
            "velocity": 0.7874015748031497,
            "duration": 1.004166666666677
          },
          {
            "name": "G3",
            "midi": 55,
            "time": 118.51250000000014,
            "velocity": 0.7874015748031497,
            "duration": 0.48749999999999716
          },
          {
            "name": "C1",
            "midi": 24,
            "time": 118.75000000000014,
            "velocity": 0.7874015748031497,
            "duration": 0.25
          },
          {
            "name": "A#2",
            "midi": 46,
            "time": 118.75000000000014,
            "velocity": 0.5275590551181102,
            "duration": 0.01666666666666572
          },
          {
            "name": "D2",
            "midi": 38,
            "time": 118.75000000000014,
            "velocity": 0.7874015748031497,
            "duration": 0.01666666666666572
          },
          {
            "name": "F#3",
            "midi": 54,
            "time": 118.75000000000014,
            "velocity": 0.7401574803149606,
            "duration": 0.008333333333339965
          },
          {
            "name": "G3",
            "midi": 55,
            "time": 118.76250000000014,
            "velocity": 0.7874015748031497,
            "duration": 0.25
          },
          {
            "name": "C1",
            "midi": 24,
            "time": 119.00000000000014,
            "velocity": 0.7874015748031497,
            "duration": 0.25
          },
          {
            "name": "E3",
            "midi": 52,
            "time": 119.00000000000014,
            "velocity": 0.7874015748031497,
            "duration": 0.5
          },
          {
            "name": "G3",
            "midi": 55,
            "time": 119.00000000000014,
            "velocity": 0.7874015748031497,
            "duration": 0.2750000000000057
          },
          {
            "name": "C3",
            "midi": 48,
            "time": 119.00000000000014,
            "velocity": 0.7874015748031497,
            "duration": 0.5
          },
          {
            "name": "F#2",
            "midi": 42,
            "time": 119.00000000000014,
            "velocity": 0.5275590551181102,
            "duration": 0.01666666666666572
          },
          {
            "name": "C2",
            "midi": 36,
            "time": 119.00000000000014,
            "velocity": 0.7637795275590551,
            "duration": 0.0625
          },
          {
            "name": "F#3",
            "midi": 54,
            "time": 119.00000000000014,
            "velocity": 0.7874015748031497,
            "duration": 0.13333333333333997
          },
          {
            "name": "C4",
            "midi": 60,
            "time": 119.01666666666681,
            "velocity": 0.7874015748031497,
            "duration": 0.9833333333333769
          },
          {
            "name": "G3",
            "midi": 55,
            "time": 119.02500000000015,
            "velocity": 0.7874015748031497,
            "duration": 0.4749999999999943
          },
          {
            "name": "D2",
            "midi": 38,
            "time": 119.12500000000014,
            "velocity": 0.7716535433070866,
            "duration": 0.0625
          },
          {
            "name": "F#3",
            "midi": 54,
            "time": 119.12500000000014,
            "velocity": 0.7401574803149606,
            "duration": 0.25833333333333997
          },
          {
            "name": "C1",
            "midi": 24,
            "time": 119.25000000000014,
            "velocity": 0.7874015748031497,
            "duration": 0.25
          },
          {
            "name": "A#2",
            "midi": 46,
            "time": 119.25000000000014,
            "velocity": 0.5275590551181102,
            "duration": 0.01666666666666572
          },
          {
            "name": "G3",
            "midi": 55,
            "time": 119.27500000000015,
            "velocity": 0.7874015748031497,
            "duration": 0.2500000000000142
          },
          {
            "name": "D2",
            "midi": 38,
            "time": 119.37500000000014,
            "velocity": 0.7716535433070866,
            "duration": 0.0625
          },
          {
            "name": "F#3",
            "midi": 54,
            "time": 119.37500000000014,
            "velocity": 0.7401574803149606,
            "duration": 0.125
          },
          {
            "name": "C1",
            "midi": 24,
            "time": 119.50000000000014,
            "velocity": 0.7874015748031497,
            "duration": 0.2500000000000284
          },
          {
            "name": "E3",
            "midi": 52,
            "time": 119.50000000000014,
            "velocity": 0.7874015748031497,
            "duration": 0.5000000000000426
          },
          {
            "name": "C3",
            "midi": 48,
            "time": 119.50000000000014,
            "velocity": 0.7874015748031497,
            "duration": 0.5000000000000426
          },
          {
            "name": "G3",
            "midi": 55,
            "time": 119.50000000000014,
            "velocity": 0.7874015748031497,
            "duration": 0.2750000000000483
          },
          {
            "name": "A#2",
            "midi": 46,
            "time": 119.50000000000014,
            "velocity": 0.5275590551181102,
            "duration": 0.01666666666667993
          },
          {
            "name": "C2",
            "midi": 36,
            "time": 119.50000000000014,
            "velocity": 0.7874015748031497,
            "duration": 0.008333333333339965
          },
          {
            "name": "C4",
            "midi": 60,
            "time": 119.52500000000016,
            "velocity": 0.7874015748031497,
            "duration": 0.5000000000000284
          },
          {
            "name": "G3",
            "midi": 55,
            "time": 119.52500000000016,
            "velocity": 0.7874015748031497,
            "duration": 0.47500000000002274
          },
          {
            "name": "F#3",
            "midi": 54,
            "time": 119.60000000000016,
            "velocity": 0.7874015748031497,
            "duration": 0.5000000000000142
          },
          {
            "name": "D2",
            "midi": 38,
            "time": 119.62500000000017,
            "velocity": 0.7874015748031497,
            "duration": 0.008333333333339965
          },
          {
            "name": "C1",
            "midi": 24,
            "time": 119.75000000000017,
            "velocity": 0.7874015748031497,
            "duration": 0.2500000000000142
          },
          {
            "name": "A#2",
            "midi": 46,
            "time": 119.75000000000017,
            "velocity": 0.5275590551181102,
            "duration": 0.01666666666667993
          },
          {
            "name": "D2",
            "midi": 38,
            "time": 119.75000000000017,
            "velocity": 0.7874015748031497,
            "duration": 0.008333333333339965
          },
          {
            "name": "G3",
            "midi": 55,
            "time": 119.77500000000019,
            "velocity": 0.7874015748031497,
            "duration": 0.25
          },
          {
            "name": "A#1",
            "midi": 34,
            "time": 120.00000000000018,
            "velocity": 0.7874015748031497,
            "duration": 0.25
          },
          {
            "name": "A#2",
            "midi": 46,
            "time": 120.00000000000018,
            "velocity": 0.7874015748031497,
            "duration": 0.2666666666666657
          },
          {
            "name": "A#3",
            "midi": 58,
            "time": 120.00000000000018,
            "velocity": 0.7874015748031497,
            "duration": 0.5041666666666629
          },
          {
            "name": "C#3",
            "midi": 49,
            "time": 120.00000000000018,
            "velocity": 0.8188976377952756,
            "duration": 0.125
          },
          {
            "name": "C2",
            "midi": 36,
            "time": 120.00000000000018,
            "velocity": 0.7716535433070866,
            "duration": 0.0625
          },
          {
            "name": "A#3",
            "midi": 58,
            "time": 120.00416666666685,
            "velocity": 0.7874015748031497,
            "duration": 0.9958333333333229
          },
          {
            "name": "F3",
            "midi": 53,
            "time": 120.01250000000019,
            "velocity": 0.7874015748031497,
            "duration": 0.25
          },
          {
            "name": "A#1",
            "midi": 34,
            "time": 120.25000000000018,
            "velocity": 0.7874015748031497,
            "duration": 0.25
          },
          {
            "name": "F4",
            "midi": 65,
            "time": 120.25000000000018,
            "velocity": 0.7874015748031497,
            "duration": 0.25
          },
          {
            "name": "C2",
            "midi": 36,
            "time": 120.25000000000018,
            "velocity": 0.7716535433070866,
            "duration": 0.0625
          },
          {
            "name": "A#2",
            "midi": 46,
            "time": 120.25000000000018,
            "velocity": 0.5275590551181102,
            "duration": 0.2666666666666515
          },
          {
            "name": "F3",
            "midi": 53,
            "time": 120.26250000000019,
            "velocity": 0.7874015748031497,
            "duration": 0.2499999999999858
          },
          {
            "name": "A#1",
            "midi": 34,
            "time": 120.50000000000018,
            "velocity": 0.7874015748031497,
            "duration": 0.2499999999999858
          },
          {
            "name": "D5",
            "midi": 74,
            "time": 120.50000000000018,
            "velocity": 0.7874015748031497,
            "duration": 0.2499999999999858
          },
          {
            "name": "A#4",
            "midi": 70,
            "time": 120.50000000000018,
            "velocity": 0.7874015748031497,
            "duration": 0.29999999999998295
          },
          {
            "name": "D5",
            "midi": 74,
            "time": 120.50000000000018,
            "velocity": 0.7874015748031497,
            "duration": 0.29999999999998295
          },
          {
            "name": "A#2",
            "midi": 46,
            "time": 120.50000000000018,
            "velocity": 0.5275590551181102,
            "duration": 0.2666666666666515
          },
          {
            "name": "F#3",
            "midi": 54,
            "time": 120.50000000000018,
            "velocity": 0.7401574803149606,
            "duration": 0.008333333333325754
          },
          {
            "name": "D2",
            "midi": 38,
            "time": 120.50000000000018,
            "velocity": 0.7874015748031497,
            "duration": 0.01666666666665151
          },
          {
            "name": "F3",
            "midi": 53,
            "time": 120.51250000000017,
            "velocity": 0.7874015748031497,
            "duration": 0.25
          },
          {
            "name": "A#3",
            "midi": 58,
            "time": 120.51250000000017,
            "velocity": 0.7874015748031497,
            "duration": 0.5
          },
          {
            "name": "A#1",
            "midi": 34,
            "time": 120.75000000000017,
            "velocity": 0.7874015748031497,
            "duration": 0.25
          },
          {
            "name": "C5",
            "midi": 72,
            "time": 120.75000000000017,
            "velocity": 0.7874015748031497,
            "duration": 0.25
          },
          {
            "name": "A4",
            "midi": 69,
            "time": 120.75000000000017,
            "velocity": 0.7874015748031497,
            "duration": 0.45000000000000284
          },
          {
            "name": "C5",
            "midi": 72,
            "time": 120.75000000000017,
            "velocity": 0.7874015748031497,
            "duration": 0.45000000000000284
          },
          {
            "name": "A#2",
            "midi": 46,
            "time": 120.75000000000017,
            "velocity": 0.5275590551181102,
            "duration": 0.25
          },
          {
            "name": "F3",
            "midi": 53,
            "time": 120.76250000000017,
            "velocity": 0.7874015748031497,
            "duration": 0.25
          },
          {
            "name": "A1",
            "midi": 33,
            "time": 121.00000000000017,
            "velocity": 0.7874015748031497,
            "duration": 0.25
          },
          {
            "name": "A2",
            "midi": 45,
            "time": 121.00000000000017,
            "velocity": 0.7874015748031497,
            "duration": 0.9999999999999858
          },
          {
            "name": "A3",
            "midi": 57,
            "time": 121.00000000000017,
            "velocity": 0.7874015748031497,
            "duration": 0.5041666666666629
          },
          {
            "name": "C2",
            "midi": 36,
            "time": 121.00000000000017,
            "velocity": 0.7716535433070866,
            "duration": 0.0625
          },
          {
            "name": "A#2",
            "midi": 46,
            "time": 121.00000000000017,
            "velocity": 0.5275590551181102,
            "duration": 0.01666666666666572
          },
          {
            "name": "A3",
            "midi": 57,
            "time": 121.00416666666683,
            "velocity": 0.7874015748031497,
            "duration": 0.9958333333333229
          },
          {
            "name": "F3",
            "midi": 53,
            "time": 121.01250000000017,
            "velocity": 0.7874015748031497,
            "duration": 0.25
          },
          {
            "name": "A1",
            "midi": 33,
            "time": 121.25000000000017,
            "velocity": 0.7874015748031497,
            "duration": 0.25
          },
          {
            "name": "A4",
            "midi": 69,
            "time": 121.25000000000017,
            "velocity": 0.7874015748031497,
            "duration": 0.3499999999999801
          },
          {
            "name": "F4",
            "midi": 65,
            "time": 121.25000000000017,
            "velocity": 0.7874015748031497,
            "duration": 0.25
          },
          {
            "name": "F4",
            "midi": 65,
            "time": 121.25000000000017,
            "velocity": 0.7874015748031497,
            "duration": 0.549999999999983
          },
          {
            "name": "C2",
            "midi": 36,
            "time": 121.25000000000017,
            "velocity": 0.7716535433070866,
            "duration": 0.0625
          },
          {
            "name": "A#2",
            "midi": 46,
            "time": 121.25000000000017,
            "velocity": 0.5275590551181102,
            "duration": 0.01666666666666572
          },
          {
            "name": "F3",
            "midi": 53,
            "time": 121.26250000000017,
            "velocity": 0.7874015748031497,
            "duration": 0.2499999999999858
          },
          {
            "name": "A1",
            "midi": 33,
            "time": 121.50000000000017,
            "velocity": 0.7874015748031497,
            "duration": 0.2499999999999858
          },
          {
            "name": "A#3",
            "midi": 58,
            "time": 121.50000000000017,
            "velocity": 0.7086614173228346,
            "duration": 0.6999999999999886
          },
          {
            "name": "A#2",
            "midi": 46,
            "time": 121.50000000000017,
            "velocity": 0.5275590551181102,
            "duration": 0.01666666666665151
          },
          {
            "name": "F#3",
            "midi": 54,
            "time": 121.50000000000017,
            "velocity": 0.7401574803149606,
            "duration": 0.008333333333325754
          },
          {
            "name": "D2",
            "midi": 38,
            "time": 121.50000000000017,
            "velocity": 0.7874015748031497,
            "duration": 0.008333333333325754
          },
          {
            "name": "F3",
            "midi": 53,
            "time": 121.51250000000016,
            "velocity": 0.7874015748031497,
            "duration": 0.25
          },
          {
            "name": "A3",
            "midi": 57,
            "time": 121.51250000000016,
            "velocity": 0.7874015748031497,
            "duration": 0.5
          },
          {
            "name": "A1",
            "midi": 33,
            "time": 121.75000000000016,
            "velocity": 0.7874015748031497,
            "duration": 0.25
          },
          {
            "name": "C2",
            "midi": 36,
            "time": 121.75000000000016,
            "velocity": 0.7716535433070866,
            "duration": 0.0625
          },
          {
            "name": "A#2",
            "midi": 46,
            "time": 121.75000000000016,
            "velocity": 0.5275590551181102,
            "duration": 0.01666666666666572
          },
          {
            "name": "F3",
            "midi": 53,
            "time": 121.76250000000016,
            "velocity": 0.7874015748031497,
            "duration": 0.25
          },
          {
            "name": "F4",
            "midi": 65,
            "time": 121.80000000000015,
            "velocity": 0.7874015748031497,
            "duration": 0.25
          },
          {
            "name": "G1",
            "midi": 31,
            "time": 122.00000000000016,
            "velocity": 0.7874015748031497,
            "duration": 0.25
          },
          {
            "name": "D4",
            "midi": 62,
            "time": 122.00000000000016,
            "velocity": 0.7874015748031497,
            "duration": 0.20000000000000284
          },
          {
            "name": "G2",
            "midi": 43,
            "time": 122.00000000000016,
            "velocity": 0.7874015748031497,
            "duration": 0.9999999999999858
          },
          {
            "name": "A#4",
            "midi": 70,
            "time": 122.00000000000016,
            "velocity": 0.7874015748031497,
            "duration": 0.25
          },
          {
            "name": "G3",
            "midi": 55,
            "time": 122.00000000000016,
            "velocity": 0.7874015748031497,
            "duration": 0.5041666666666629
          },
          {
            "name": "C2",
            "midi": 36,
            "time": 122.00000000000016,
            "velocity": 0.7716535433070866,
            "duration": 0.0625
          },
          {
            "name": "A#2",
            "midi": 46,
            "time": 122.00000000000016,
            "velocity": 0.5275590551181102,
            "duration": 0.125
          },
          {
            "name": "G4",
            "midi": 67,
            "time": 122.00416666666682,
            "velocity": 0.7874015748031497,
            "duration": 0.48749999999999716
          },
          {
            "name": "A#4",
            "midi": 70,
            "time": 122.00416666666682,
            "velocity": 0.7874015748031497,
            "duration": 0.7291666666666572
          },
          {
            "name": "G3",
            "midi": 55,
            "time": 122.00416666666682,
            "velocity": 0.7874015748031497,
            "duration": 0.9958333333333229
          },
          {
            "name": "D3",
            "midi": 50,
            "time": 122.01250000000016,
            "velocity": 0.7874015748031497,
            "duration": 0.25
          },
          {
            "name": "G1",
            "midi": 31,
            "time": 122.25000000000016,
            "velocity": 0.7874015748031497,
            "duration": 0.25
          },
          {
            "name": "D4",
            "midi": 62,
            "time": 122.25000000000016,
            "velocity": 0.7874015748031497,
            "duration": 0.7499999999999858
          },
          {
            "name": "A4",
            "midi": 69,
            "time": 122.25000000000016,
            "velocity": 0.7874015748031497,
            "duration": 0.25
          },
          {
            "name": "C2",
            "midi": 36,
            "time": 122.25000000000016,
            "velocity": 0.5511811023622047,
            "duration": 0.0625
          },
          {
            "name": "A#2",
            "midi": 46,
            "time": 122.25000000000016,
            "velocity": 0.5275590551181102,
            "duration": 0.01666666666666572
          },
          {
            "name": "D3",
            "midi": 50,
            "time": 122.26250000000016,
            "velocity": 0.7874015748031497,
            "duration": 0.2499999999999858
          },
          {
            "name": "G1",
            "midi": 31,
            "time": 122.50000000000016,
            "velocity": 0.7874015748031497,
            "duration": 0.2499999999999858
          },
          {
            "name": "G4",
            "midi": 67,
            "time": 122.50000000000016,
            "velocity": 0.7874015748031497,
            "duration": 0.29999999999998295
          },
          {
            "name": "F4",
            "midi": 65,
            "time": 122.50000000000016,
            "velocity": 0.7874015748031497,
            "duration": 0.2499999999999858
          },
          {
            "name": "D2",
            "midi": 38,
            "time": 122.50000000000016,
            "velocity": 0.7874015748031497,
            "duration": 0.01666666666665151
          },
          {
            "name": "F#3",
            "midi": 54,
            "time": 122.50000000000016,
            "velocity": 0.7401574803149606,
            "duration": 0.008333333333325754
          },
          {
            "name": "A#2",
            "midi": 46,
            "time": 122.50000000000016,
            "velocity": 0.5275590551181102,
            "duration": 0.01666666666665151
          },
          {
            "name": "D3",
            "midi": 50,
            "time": 122.51250000000014,
            "velocity": 0.7874015748031497,
            "duration": 0.25
          },
          {
            "name": "G3",
            "midi": 55,
            "time": 122.51250000000014,
            "velocity": 0.7874015748031497,
            "duration": 0.5
          },
          {
            "name": "G1",
            "midi": 31,
            "time": 122.75000000000014,
            "velocity": 0.7874015748031497,
            "duration": 0.25
          },
          {
            "name": "A#4",
            "midi": 70,
            "time": 122.75000000000014,
            "velocity": 0.7874015748031497,
            "duration": 0.25
          },
          {
            "name": "A#4",
            "midi": 70,
            "time": 122.75000000000014,
            "velocity": 0.7874015748031497,
            "duration": 0.25
          },
          {
            "name": "A#2",
            "midi": 46,
            "time": 122.75000000000014,
            "velocity": 0.5275590551181102,
            "duration": 0.01666666666666572
          },
          {
            "name": "D3",
            "midi": 50,
            "time": 122.76250000000014,
            "velocity": 0.7874015748031497,
            "duration": 0.25
          },
          {
            "name": "F1",
            "midi": 29,
            "time": 123.00000000000014,
            "velocity": 0.7874015748031497,
            "duration": 0.25
          },
          {
            "name": "A4",
            "midi": 69,
            "time": 123.00000000000014,
            "velocity": 0.7874015748031497,
            "duration": 0.5
          },
          {
            "name": "C4",
            "midi": 60,
            "time": 123.00000000000014,
            "velocity": 0.7874015748031497,
            "duration": 0.20000000000000284
          },
          {
            "name": "F2",
            "midi": 41,
            "time": 123.00000000000014,
            "velocity": 0.7874015748031497,
            "duration": 0.9999999999999858
          },
          {
            "name": "F4",
            "midi": 65,
            "time": 123.00000000000014,
            "velocity": 0.7874015748031497,
            "duration": 0.4791666666666714
          },
          {
            "name": "F3",
            "midi": 53,
            "time": 123.00000000000014,
            "velocity": 0.7874015748031497,
            "duration": 0.5041666666666629
          },
          {
            "name": "C2",
            "midi": 36,
            "time": 123.00000000000014,
            "velocity": 0.7716535433070866,
            "duration": 0.0625
          },
          {
            "name": "A#2",
            "midi": 46,
            "time": 123.00000000000014,
            "velocity": 0.5275590551181102,
            "duration": 0.01666666666666572
          },
          {
            "name": "F3",
            "midi": 53,
            "time": 123.0041666666668,
            "velocity": 0.7874015748031497,
            "duration": 0.9958333333333229
          },
          {
            "name": "C3",
            "midi": 48,
            "time": 123.01250000000014,
            "velocity": 0.7874015748031497,
            "duration": 0.25
          },
          {
            "name": "F1",
            "midi": 29,
            "time": 123.25000000000014,
            "velocity": 0.7874015748031497,
            "duration": 0.25
          },
          {
            "name": "C4",
            "midi": 60,
            "time": 123.25000000000014,
            "velocity": 0.7874015748031497,
            "duration": 0.7499999999999858
          },
          {
            "name": "A4",
            "midi": 69,
            "time": 123.25000000000014,
            "velocity": 0.7874015748031497,
            "duration": 0.4791666666666572
          },
          {
            "name": "A#2",
            "midi": 46,
            "time": 123.25000000000014,
            "velocity": 0.5275590551181102,
            "duration": 0.01666666666666572
          },
          {
            "name": "C2",
            "midi": 36,
            "time": 123.25000000000014,
            "velocity": 0.7716535433070866,
            "duration": 0.0625
          },
          {
            "name": "C3",
            "midi": 48,
            "time": 123.26250000000014,
            "velocity": 0.7874015748031497,
            "duration": 0.2499999999999858
          },
          {
            "name": "F1",
            "midi": 29,
            "time": 123.50000000000014,
            "velocity": 0.7874015748031497,
            "duration": 0.2499999999999858
          },
          {
            "name": "F4",
            "midi": 65,
            "time": 123.50000000000014,
            "velocity": 0.7874015748031497,
            "duration": 0.2499999999999858
          },
          {
            "name": "F4",
            "midi": 65,
            "time": 123.50000000000014,
            "velocity": 0.7874015748031497,
            "duration": 0.4999999999999858
          },
          {
            "name": "F#3",
            "midi": 54,
            "time": 123.50000000000014,
            "velocity": 0.7401574803149606,
            "duration": 0.008333333333325754
          },
          {
            "name": "A#2",
            "midi": 46,
            "time": 123.50000000000014,
            "velocity": 0.5275590551181102,
            "duration": 0.01666666666665151
          },
          {
            "name": "D2",
            "midi": 38,
            "time": 123.50000000000014,
            "velocity": 0.7874015748031497,
            "duration": 0.008333333333325754
          },
          {
            "name": "F3",
            "midi": 53,
            "time": 123.51250000000013,
            "velocity": 0.7874015748031497,
            "duration": 0.5
          },
          {
            "name": "C3",
            "midi": 48,
            "time": 123.51250000000013,
            "velocity": 0.7874015748031497,
            "duration": 0.25
          },
          {
            "name": "F1",
            "midi": 29,
            "time": 123.75000000000013,
            "velocity": 0.7874015748031497,
            "duration": 0.25
          },
          {
            "name": "A4",
            "midi": 69,
            "time": 123.75000000000013,
            "velocity": 0.7874015748031497,
            "duration": 0.25
          },
          {
            "name": "F4",
            "midi": 65,
            "time": 123.75000000000013,
            "velocity": 0.7874015748031497,
            "duration": 0.25
          },
          {
            "name": "C2",
            "midi": 36,
            "time": 123.75000000000013,
            "velocity": 0.7716535433070866,
            "duration": 0.0625
          },
          {
            "name": "A#2",
            "midi": 46,
            "time": 123.75000000000013,
            "velocity": 0.5275590551181102,
            "duration": 0.01666666666666572
          },
          {
            "name": "C3",
            "midi": 48,
            "time": 123.76250000000013,
            "velocity": 0.7874015748031497,
            "duration": 0.25
          },
          {
            "name": "A#1",
            "midi": 34,
            "time": 124.00000000000013,
            "velocity": 0.7874015748031497,
            "duration": 0.25
          },
          {
            "name": "A#2",
            "midi": 46,
            "time": 124.00000000000013,
            "velocity": 0.7874015748031497,
            "duration": 0.125
          },
          {
            "name": "A#3",
            "midi": 58,
            "time": 124.00000000000013,
            "velocity": 0.7874015748031497,
            "duration": 0.5041666666666629
          },
          {
            "name": "C2",
            "midi": 36,
            "time": 124.00000000000013,
            "velocity": 0.7716535433070866,
            "duration": 0.0625
          },
          {
            "name": "A#2",
            "midi": 46,
            "time": 124.00000000000013,
            "velocity": 0.5275590551181102,
            "duration": 0.2666666666666657
          },
          {
            "name": "A#3",
            "midi": 58,
            "time": 124.00416666666679,
            "velocity": 0.7874015748031497,
            "duration": 0.9958333333333229
          },
          {
            "name": "F3",
            "midi": 53,
            "time": 124.01250000000013,
            "velocity": 0.7874015748031497,
            "duration": 0.25
          },
          {
            "name": "A#1",
            "midi": 34,
            "time": 124.25000000000013,
            "velocity": 0.7874015748031497,
            "duration": 0.25
          },
          {
            "name": "F4",
            "midi": 65,
            "time": 124.25000000000013,
            "velocity": 0.7874015748031497,
            "duration": 0.25
          },
          {
            "name": "A#2",
            "midi": 46,
            "time": 124.25000000000013,
            "velocity": 0.5275590551181102,
            "duration": 0.2666666666666515
          },
          {
            "name": "F3",
            "midi": 53,
            "time": 124.26250000000013,
            "velocity": 0.7874015748031497,
            "duration": 0.2499999999999858
          },
          {
            "name": "C2",
            "midi": 36,
            "time": 124.37500000000013,
            "velocity": 0.5511811023622047,
            "duration": 0.0625
          },
          {
            "name": "A#1",
            "midi": 34,
            "time": 124.50000000000013,
            "velocity": 0.7874015748031497,
            "duration": 0.2499999999999858
          },
          {
            "name": "A#4",
            "midi": 70,
            "time": 124.50000000000013,
            "velocity": 0.7874015748031497,
            "duration": 0.29999999999998295
          },
          {
            "name": "D5",
            "midi": 74,
            "time": 124.50000000000013,
            "velocity": 0.7874015748031497,
            "duration": 0.2499999999999858
          },
          {
            "name": "D5",
            "midi": 74,
            "time": 124.50000000000013,
            "velocity": 0.7874015748031497,
            "duration": 0.29999999999998295
          },
          {
            "name": "D2",
            "midi": 38,
            "time": 124.50000000000013,
            "velocity": 0.7874015748031497,
            "duration": 0.01666666666665151
          },
          {
            "name": "F#3",
            "midi": 54,
            "time": 124.50000000000013,
            "velocity": 0.7401574803149606,
            "duration": 0.008333333333325754
          },
          {
            "name": "A#2",
            "midi": 46,
            "time": 124.50000000000013,
            "velocity": 0.5275590551181102,
            "duration": 0.2666666666666515
          },
          {
            "name": "F3",
            "midi": 53,
            "time": 124.51250000000012,
            "velocity": 0.7874015748031497,
            "duration": 0.25
          },
          {
            "name": "A#3",
            "midi": 58,
            "time": 124.51250000000012,
            "velocity": 0.7874015748031497,
            "duration": 0.5
          },
          {
            "name": "A#1",
            "midi": 34,
            "time": 124.75000000000011,
            "velocity": 0.7874015748031497,
            "duration": 0.25
          },
          {
            "name": "A4",
            "midi": 69,
            "time": 124.75000000000011,
            "velocity": 0.7874015748031497,
            "duration": 0.45000000000000284
          },
          {
            "name": "C5",
            "midi": 72,
            "time": 124.75000000000011,
            "velocity": 0.7874015748031497,
            "duration": 0.25
          },
          {
            "name": "C5",
            "midi": 72,
            "time": 124.75000000000011,
            "velocity": 0.7874015748031497,
            "duration": 0.45000000000000284
          },
          {
            "name": "A#2",
            "midi": 46,
            "time": 124.75000000000011,
            "velocity": 0.5275590551181102,
            "duration": 0.25
          },
          {
            "name": "F3",
            "midi": 53,
            "time": 124.76250000000012,
            "velocity": 0.7874015748031497,
            "duration": 0.25
          },
          {
            "name": "A1",
            "midi": 33,
            "time": 125.00000000000011,
            "velocity": 0.7874015748031497,
            "duration": 0.25
          },
          {
            "name": "A2",
            "midi": 45,
            "time": 125.00000000000011,
            "velocity": 0.7874015748031497,
            "duration": 0.9999999999999858
          },
          {
            "name": "A3",
            "midi": 57,
            "time": 125.00000000000011,
            "velocity": 0.7874015748031497,
            "duration": 0.5041666666666629
          },
          {
            "name": "C2",
            "midi": 36,
            "time": 125.00000000000011,
            "velocity": 0.7716535433070866,
            "duration": 0.0625
          },
          {
            "name": "A#2",
            "midi": 46,
            "time": 125.00000000000011,
            "velocity": 0.5275590551181102,
            "duration": 0.01666666666666572
          },
          {
            "name": "A3",
            "midi": 57,
            "time": 125.00416666666678,
            "velocity": 0.7874015748031497,
            "duration": 0.9958333333333229
          },
          {
            "name": "F3",
            "midi": 53,
            "time": 125.01250000000012,
            "velocity": 0.7874015748031497,
            "duration": 0.25
          },
          {
            "name": "A1",
            "midi": 33,
            "time": 125.25000000000011,
            "velocity": 0.7874015748031497,
            "duration": 0.25
          },
          {
            "name": "A4",
            "midi": 69,
            "time": 125.25000000000011,
            "velocity": 0.7874015748031497,
            "duration": 0.3499999999999801
          },
          {
            "name": "F4",
            "midi": 65,
            "time": 125.25000000000011,
            "velocity": 0.7874015748031497,
            "duration": 0.25
          },
          {
            "name": "F4",
            "midi": 65,
            "time": 125.25000000000011,
            "velocity": 0.7874015748031497,
            "duration": 0.549999999999983
          },
          {
            "name": "A#2",
            "midi": 46,
            "time": 125.25000000000011,
            "velocity": 0.5275590551181102,
            "duration": 0.01666666666666572
          },
          {
            "name": "C2",
            "midi": 36,
            "time": 125.25000000000011,
            "velocity": 0.7716535433070866,
            "duration": 0.0625
          },
          {
            "name": "F3",
            "midi": 53,
            "time": 125.26250000000012,
            "velocity": 0.7874015748031497,
            "duration": 0.2499999999999858
          },
          {
            "name": "A1",
            "midi": 33,
            "time": 125.50000000000011,
            "velocity": 0.7874015748031497,
            "duration": 0.2499999999999858
          },
          {
            "name": "A#3",
            "midi": 58,
            "time": 125.50000000000011,
            "velocity": 0.7086614173228346,
            "duration": 1.099999999999966
          },
          {
            "name": "F#3",
            "midi": 54,
            "time": 125.50000000000011,
            "velocity": 0.7401574803149606,
            "duration": 0.008333333333325754
          },
          {
            "name": "A#2",
            "midi": 46,
            "time": 125.50000000000011,
            "velocity": 0.5275590551181102,
            "duration": 0.01666666666665151
          },
          {
            "name": "D2",
            "midi": 38,
            "time": 125.50000000000011,
            "velocity": 0.7874015748031497,
            "duration": 0.008333333333325754
          },
          {
            "name": "A3",
            "midi": 57,
            "time": 125.5125000000001,
            "velocity": 0.7874015748031497,
            "duration": 0.5
          },
          {
            "name": "F3",
            "midi": 53,
            "time": 125.5125000000001,
            "velocity": 0.7874015748031497,
            "duration": 0.25
          },
          {
            "name": "A1",
            "midi": 33,
            "time": 125.7500000000001,
            "velocity": 0.7874015748031497,
            "duration": 0.25
          },
          {
            "name": "F4",
            "midi": 65,
            "time": 125.7500000000001,
            "velocity": 0.7874015748031497,
            "duration": 0.25
          },
          {
            "name": "C2",
            "midi": 36,
            "time": 125.7500000000001,
            "velocity": 0.7716535433070866,
            "duration": 0.0625
          },
          {
            "name": "A#2",
            "midi": 46,
            "time": 125.7500000000001,
            "velocity": 0.5275590551181102,
            "duration": 0.01666666666666572
          },
          {
            "name": "F3",
            "midi": 53,
            "time": 125.7625000000001,
            "velocity": 0.7874015748031497,
            "duration": 0.25
          },
          {
            "name": "D#1",
            "midi": 27,
            "time": 126.0000000000001,
            "velocity": 0.7874015748031497,
            "duration": 0.25
          },
          {
            "name": "D#2",
            "midi": 39,
            "time": 126.0000000000001,
            "velocity": 0.7874015748031497,
            "duration": 1.1999999999999886
          },
          {
            "name": "D#4",
            "midi": 63,
            "time": 126.0000000000001,
            "velocity": 0.7874015748031497,
            "duration": 0.7291666666666572
          },
          {
            "name": "A#4",
            "midi": 70,
            "time": 126.0000000000001,
            "velocity": 0.7874015748031497,
            "duration": 0.25
          },
          {
            "name": "D#4",
            "midi": 63,
            "time": 126.0000000000001,
            "velocity": 0.7874015748031497,
            "duration": 1.1999999999999886
          },
          {
            "name": "A#2",
            "midi": 46,
            "time": 126.0000000000001,
            "velocity": 0.5275590551181102,
            "duration": 0.125
          },
          {
            "name": "C2",
            "midi": 36,
            "time": 126.0000000000001,
            "velocity": 0.7716535433070866,
            "duration": 0.0625
          },
          {
            "name": "D#3",
            "midi": 51,
            "time": 126.00416666666676,
            "velocity": 0.7874015748031497,
            "duration": 0.5
          },
          {
            "name": "A#2",
            "midi": 46,
            "time": 126.0125000000001,
            "velocity": 0.7874015748031497,
            "duration": 0.25
          },
          {
            "name": "G4",
            "midi": 67,
            "time": 126.02083333333344,
            "velocity": 0.7874015748031497,
            "duration": 0.3749999999999858
          },
          {
            "name": "A#4",
            "midi": 70,
            "time": 126.04166666666677,
            "velocity": 0.8740157480314961,
            "duration": 0.25
          },
          {
            "name": "D#1",
            "midi": 27,
            "time": 126.2500000000001,
            "velocity": 0.7874015748031497,
            "duration": 0.25
          },
          {
            "name": "A4",
            "midi": 69,
            "time": 126.2500000000001,
            "velocity": 0.7874015748031497,
            "duration": 0.25
          },
          {
            "name": "A4",
            "midi": 69,
            "time": 126.2500000000001,
            "velocity": 0.7874015748031497,
            "duration": 0.3749999999999858
          },
          {
            "name": "A#2",
            "midi": 46,
            "time": 126.2500000000001,
            "velocity": 0.5275590551181102,
            "duration": 0.01666666666666572
          },
          {
            "name": "A#2",
            "midi": 46,
            "time": 126.2625000000001,
            "velocity": 0.7874015748031497,
            "duration": 0.2499999999999858
          },
          {
            "name": "C2",
            "midi": 36,
            "time": 126.3750000000001,
            "velocity": 0.7716535433070866,
            "duration": 0.0625
          },
          {
            "name": "D#1",
            "midi": 27,
            "time": 126.5000000000001,
            "velocity": 0.7874015748031497,
            "duration": 0.2499999999999858
          },
          {
            "name": "G4",
            "midi": 67,
            "time": 126.5000000000001,
            "velocity": 0.7874015748031497,
            "duration": 0.2499999999999858
          },
          {
            "name": "G4",
            "midi": 67,
            "time": 126.5000000000001,
            "velocity": 0.7874015748031497,
            "duration": 0.4583333333333144
          },
          {
            "name": "F#3",
            "midi": 54,
            "time": 126.5000000000001,
            "velocity": 0.7401574803149606,
            "duration": 0.008333333333325754
          },
          {
            "name": "D2",
            "midi": 38,
            "time": 126.5000000000001,
            "velocity": 0.7874015748031497,
            "duration": 0.01666666666665151
          },
          {
            "name": "A#2",
            "midi": 46,
            "time": 126.5000000000001,
            "velocity": 0.5275590551181102,
            "duration": 0.01666666666665151
          },
          {
            "name": "A#2",
            "midi": 46,
            "time": 126.51250000000009,
            "velocity": 0.7874015748031497,
            "duration": 0.25
          },
          {
            "name": "D#3",
            "midi": 51,
            "time": 126.51250000000009,
            "velocity": 0.7874015748031497,
            "duration": 0.5
          },
          {
            "name": "D#1",
            "midi": 27,
            "time": 126.75000000000009,
            "velocity": 0.7874015748031497,
            "duration": 0.25
          },
          {
            "name": "A#3",
            "midi": 58,
            "time": 126.75000000000009,
            "velocity": 0.7874015748031497,
            "duration": 1.0499999999999972
          },
          {
            "name": "D#4",
            "midi": 63,
            "time": 126.75000000000009,
            "velocity": 0.7874015748031497,
            "duration": 1.25
          },
          {
            "name": "G4",
            "midi": 67,
            "time": 126.75000000000009,
            "velocity": 0.7874015748031497,
            "duration": 0.25
          },
          {
            "name": "D2",
            "midi": 38,
            "time": 126.75000000000009,
            "velocity": 0.7874015748031497,
            "duration": 0.0625
          },
          {
            "name": "A#2",
            "midi": 46,
            "time": 126.75000000000009,
            "velocity": 0.5275590551181102,
            "duration": 0.01666666666666572
          },
          {
            "name": "A#2",
            "midi": 46,
            "time": 126.76250000000009,
            "velocity": 0.7874015748031497,
            "duration": 0.25
          },
          {
            "name": "D#1",
            "midi": 27,
            "time": 127.00000000000009,
            "velocity": 0.7874015748031497,
            "duration": 0.25
          },
          {
            "name": "G4",
            "midi": 67,
            "time": 127.00000000000009,
            "velocity": 0.6456692913385826,
            "duration": 0.29999999999999716
          },
          {
            "name": "G#2",
            "midi": 44,
            "time": 127.00000000000009,
            "velocity": 0.5275590551181102,
            "duration": 0.01666666666666572
          },
          {
            "name": "C2",
            "midi": 36,
            "time": 127.00000000000009,
            "velocity": 0.7874015748031497,
            "duration": 0.0625
          },
          {
            "name": "D#3",
            "midi": 51,
            "time": 127.00416666666675,
            "velocity": 0.7874015748031497,
            "duration": 0.5
          },
          {
            "name": "A#2",
            "midi": 46,
            "time": 127.01250000000009,
            "velocity": 0.7874015748031497,
            "duration": 0.12916666666666288
          },
          {
            "name": "D2",
            "midi": 38,
            "time": 127.12500000000009,
            "velocity": 0.7874015748031497,
            "duration": 0.0625
          },
          {
            "name": "A#2",
            "midi": 46,
            "time": 127.12500000000009,
            "velocity": 0.5275590551181102,
            "duration": 0.13750000000000284
          },
          {
            "name": "D#1",
            "midi": 27,
            "time": 127.25000000000009,
            "velocity": 0.7874015748031497,
            "duration": 0.25
          },
          {
            "name": "D#2",
            "midi": 39,
            "time": 127.25000000000009,
            "velocity": 0.7874015748031497,
            "duration": 0.75
          },
          {
            "name": "F4",
            "midi": 65,
            "time": 127.25000000000009,
            "velocity": 0.7874015748031497,
            "duration": 0.25
          },
          {
            "name": "F4",
            "midi": 65,
            "time": 127.25000000000009,
            "velocity": 0.7874015748031497,
            "duration": 0.3499999999999943
          },
          {
            "name": "A#2",
            "midi": 46,
            "time": 127.26250000000009,
            "velocity": 0.7874015748031497,
            "duration": 0.25
          },
          {
            "name": "C2",
            "midi": 36,
            "time": 127.37500000000009,
            "velocity": 0.7874015748031497,
            "duration": 0.0625
          },
          {
            "name": "D#1",
            "midi": 27,
            "time": 127.50000000000009,
            "velocity": 0.7874015748031497,
            "duration": 0.25
          },
          {
            "name": "D4",
            "midi": 62,
            "time": 127.50000000000009,
            "velocity": 0.7874015748031497,
            "duration": 0.25
          },
          {
            "name": "D4",
            "midi": 62,
            "time": 127.50000000000009,
            "velocity": 0.7874015748031497,
            "duration": 0.3499999999999943
          },
          {
            "name": "G#2",
            "midi": 44,
            "time": 127.50000000000009,
            "velocity": 0.5275590551181102,
            "duration": 0.01666666666666572
          },
          {
            "name": "D2",
            "midi": 38,
            "time": 127.50000000000009,
            "velocity": 0.7874015748031497,
            "duration": 0.0625
          },
          {
            "name": "A#2",
            "midi": 46,
            "time": 127.51250000000009,
            "velocity": 0.7874015748031497,
            "duration": 0.25
          },
          {
            "name": "D#3",
            "midi": 51,
            "time": 127.51250000000009,
            "velocity": 0.7874015748031497,
            "duration": 0.4999999999999858
          },
          {
            "name": "D#1",
            "midi": 27,
            "time": 127.75000000000009,
            "velocity": 0.7874015748031497,
            "duration": 0.25
          },
          {
            "name": "G4",
            "midi": 67,
            "time": 127.75000000000009,
            "velocity": 0.7874015748031497,
            "duration": 0.3499999999999943
          },
          {
            "name": "G4",
            "midi": 67,
            "time": 127.75000000000009,
            "velocity": 0.7874015748031497,
            "duration": 2.2499999999998295
          },
          {
            "name": "C2",
            "midi": 36,
            "time": 127.75000000000009,
            "velocity": 0.7716535433070866,
            "duration": 0.0625
          },
          {
            "name": "A#2",
            "midi": 46,
            "time": 127.75000000000009,
            "velocity": 0.5275590551181102,
            "duration": 0.125
          },
          {
            "name": "A#2",
            "midi": 46,
            "time": 127.76250000000009,
            "velocity": 0.7874015748031497,
            "duration": 0.2499999999999858
          },
          {
            "name": "C1",
            "midi": 24,
            "time": 128.00000000000009,
            "velocity": 0.7874015748031497,
            "duration": 0.25
          },
          {
            "name": "C4",
            "midi": 60,
            "time": 128.00000000000009,
            "velocity": 0.5511811023622047,
            "duration": 1.7999999999998408
          },
          {
            "name": "C4",
            "midi": 60,
            "time": 128.00000000000009,
            "velocity": 0.7874015748031497,
            "duration": 1.9999999999998295
          },
          {
            "name": "A#2",
            "midi": 46,
            "time": 128.00000000000009,
            "velocity": 0.5275590551181102,
            "duration": 0.125
          },
          {
            "name": "C2",
            "midi": 36,
            "time": 128.00000000000009,
            "velocity": 0.7716535433070866,
            "duration": 0.0625
          },
          {
            "name": "C3",
            "midi": 48,
            "time": 128.00416666666675,
            "velocity": 0.7874015748031497,
            "duration": 0.4999999999999716
          },
          {
            "name": "G2",
            "midi": 43,
            "time": 128.01250000000007,
            "velocity": 0.7874015748031497,
            "duration": 0.25
          },
          {
            "name": "E4",
            "midi": 64,
            "time": 128.03750000000008,
            "velocity": 0.5511811023622047,
            "duration": 1.7624999999998465
          },
          {
            "name": "G3",
            "midi": 55,
            "time": 128.03750000000008,
            "velocity": 0.5511811023622047,
            "duration": 1.9624999999998352
          },
          {
            "name": "C1",
            "midi": 24,
            "time": 128.25000000000009,
            "velocity": 0.7874015748031497,
            "duration": 0.24999999999997158
          },
          {
            "name": "A#2",
            "midi": 46,
            "time": 128.25000000000009,
            "velocity": 0.5275590551181102,
            "duration": 0.01666666666665151
          },
          {
            "name": "G2",
            "midi": 43,
            "time": 128.26250000000007,
            "velocity": 0.7874015748031497,
            "duration": 0.24999999999997158
          },
          {
            "name": "C2",
            "midi": 36,
            "time": 128.37500000000006,
            "velocity": 0.7716535433070866,
            "duration": 0.0625
          },
          {
            "name": "C1",
            "midi": 24,
            "time": 128.50000000000006,
            "velocity": 0.7874015748031497,
            "duration": 0.24999999999997158
          },
          {
            "name": "F#3",
            "midi": 54,
            "time": 128.50000000000006,
            "velocity": 0.7401574803149606,
            "duration": 0.008333333333325754
          },
          {
            "name": "D2",
            "midi": 38,
            "time": 128.50000000000006,
            "velocity": 0.7874015748031497,
            "duration": 0.01666666666665151
          },
          {
            "name": "A#2",
            "midi": 46,
            "time": 128.50000000000006,
            "velocity": 0.5275590551181102,
            "duration": 0.01666666666665151
          },
          {
            "name": "G2",
            "midi": 43,
            "time": 128.51250000000005,
            "velocity": 0.7874015748031497,
            "duration": 0.24999999999997158
          },
          {
            "name": "C3",
            "midi": 48,
            "time": 128.51250000000005,
            "velocity": 0.7874015748031497,
            "duration": 0.49999999999994316
          },
          {
            "name": "C1",
            "midi": 24,
            "time": 128.75000000000003,
            "velocity": 0.7874015748031497,
            "duration": 0.24999999999997158
          },
          {
            "name": "D2",
            "midi": 38,
            "time": 128.75000000000003,
            "velocity": 0.7874015748031497,
            "duration": 0.06249999999997158
          },
          {
            "name": "A#2",
            "midi": 46,
            "time": 128.75000000000003,
            "velocity": 0.5275590551181102,
            "duration": 0.01666666666665151
          },
          {
            "name": "G2",
            "midi": 43,
            "time": 128.76250000000002,
            "velocity": 0.7874015748031497,
            "duration": 0.24999999999997158
          },
          {
            "name": "C1",
            "midi": 24,
            "time": 129,
            "velocity": 0.7874015748031497,
            "duration": 0.24999999999997158
          },
          {
            "name": "G#2",
            "midi": 44,
            "time": 129,
            "velocity": 0.5275590551181102,
            "duration": 0.01666666666665151
          },
          {
            "name": "C2",
            "midi": 36,
            "time": 129,
            "velocity": 0.7874015748031497,
            "duration": 0.06249999999997158
          },
          {
            "name": "C3",
            "midi": 48,
            "time": 129.00416666666666,
            "velocity": 0.7874015748031497,
            "duration": 0.4999999999999716
          },
          {
            "name": "G2",
            "midi": 43,
            "time": 129.0125,
            "velocity": 0.7874015748031497,
            "duration": 0.24999999999997158
          },
          {
            "name": "D2",
            "midi": 38,
            "time": 129.12499999999997,
            "velocity": 0.7874015748031497,
            "duration": 0.0625
          },
          {
            "name": "A#2",
            "midi": 46,
            "time": 129.12499999999997,
            "velocity": 0.5275590551181102,
            "duration": 0.01666666666667993
          },
          {
            "name": "C1",
            "midi": 24,
            "time": 129.24999999999997,
            "velocity": 0.7874015748031497,
            "duration": 0.25
          },
          {
            "name": "G2",
            "midi": 43,
            "time": 129.26249999999996,
            "velocity": 0.7874015748031497,
            "duration": 0.25
          },
          {
            "name": "C2",
            "midi": 36,
            "time": 129.37499999999997,
            "velocity": 0.7874015748031497,
            "duration": 0.0625
          },
          {
            "name": "C1",
            "midi": 24,
            "time": 129.49999999999997,
            "velocity": 0.7874015748031497,
            "duration": 0.24999999999997158
          },
          {
            "name": "G#2",
            "midi": 44,
            "time": 129.49999999999997,
            "velocity": 0.5275590551181102,
            "duration": 0.01666666666665151
          },
          {
            "name": "D2",
            "midi": 38,
            "time": 129.49999999999997,
            "velocity": 0.7874015748031497,
            "duration": 0.06249999999997158
          },
          {
            "name": "G2",
            "midi": 43,
            "time": 129.51249999999996,
            "velocity": 0.7874015748031497,
            "duration": 0.24999999999997158
          },
          {
            "name": "C3",
            "midi": 48,
            "time": 129.51249999999996,
            "velocity": 0.7874015748031497,
            "duration": 0.49999999999994316
          },
          {
            "name": "C1",
            "midi": 24,
            "time": 129.74999999999994,
            "velocity": 0.7874015748031497,
            "duration": 0.24999999999997158
          },
          {
            "name": "C2",
            "midi": 36,
            "time": 129.74999999999994,
            "velocity": 0.7716535433070866,
            "duration": 0.06249999999997158
          },
          {
            "name": "A#2",
            "midi": 46,
            "time": 129.74999999999994,
            "velocity": 0.5275590551181102,
            "duration": 0.12499999999997158
          },
          {
            "name": "G2",
            "midi": 43,
            "time": 129.76249999999993,
            "velocity": 0.7874015748031497,
            "duration": 0.24999999999997158
          },
          {
            "name": "C2",
            "midi": 36,
            "time": 129.99999999999991,
            "velocity": 0.7874015748031497,
            "duration": 0.06249999999997158
          },
          {
            "name": "C3",
            "midi": 48,
            "time": 129.99999999999991,
            "velocity": 0.7874015748031497,
            "duration": 2.0000000000000284
          },
          {
            "name": "C2",
            "midi": 36,
            "time": 129.99999999999991,
            "velocity": 0.7874015748031497,
            "duration": 0.24999999999997158
          },
          {
            "name": "A#2",
            "midi": 46,
            "time": 129.99999999999991,
            "velocity": 0.5275590551181102,
            "duration": 0.01666666666665151
          },
          {
            "name": "C4",
            "midi": 60,
            "time": 130.00416666666658,
            "velocity": 0.7874015748031497,
            "duration": 0.49999999999994316
          },
          {
            "name": "G3",
            "midi": 55,
            "time": 130.0124999999999,
            "velocity": 0.7874015748031497,
            "duration": 0.24999999999997158
          },
          {
            "name": "D2",
            "midi": 38,
            "time": 130.1249999999999,
            "velocity": 0.7874015748031497,
            "duration": 0.0625
          },
          {
            "name": "C2",
            "midi": 36,
            "time": 130.2499999999999,
            "velocity": 0.7874015748031497,
            "duration": 0.18749999999997158
          },
          {
            "name": "A#2",
            "midi": 46,
            "time": 130.2499999999999,
            "velocity": 0.5275590551181102,
            "duration": 0.01666666666665151
          },
          {
            "name": "G3",
            "midi": 55,
            "time": 130.26249999999987,
            "velocity": 0.7874015748031497,
            "duration": 0.24999999999997158
          },
          {
            "name": "C2",
            "midi": 36,
            "time": 130.37499999999986,
            "velocity": 0.7874015748031497,
            "duration": 0.125
          },
          {
            "name": "C2",
            "midi": 36,
            "time": 130.49999999999986,
            "velocity": 0.7874015748031497,
            "duration": 0.24999999999997158
          },
          {
            "name": "D2",
            "midi": 38,
            "time": 130.49999999999986,
            "velocity": 0.7874015748031497,
            "duration": 0.06249999999997158
          },
          {
            "name": "A#2",
            "midi": 46,
            "time": 130.49999999999986,
            "velocity": 0.5275590551181102,
            "duration": 0.01666666666665151
          },
          {
            "name": "C4",
            "midi": 60,
            "time": 130.51249999999985,
            "velocity": 0.7874015748031497,
            "duration": 0.4999999999999716
          },
          {
            "name": "G3",
            "midi": 55,
            "time": 130.51249999999985,
            "velocity": 0.7874015748031497,
            "duration": 0.24999999999997158
          },
          {
            "name": "C2",
            "midi": 36,
            "time": 130.74999999999983,
            "velocity": 0.7874015748031497,
            "duration": 0.0625
          },
          {
            "name": "A#2",
            "midi": 46,
            "time": 130.74999999999983,
            "velocity": 0.5275590551181102,
            "duration": 0.125
          },
          {
            "name": "C2",
            "midi": 36,
            "time": 130.74999999999983,
            "velocity": 0.7874015748031497,
            "duration": 0.25
          },
          {
            "name": "G3",
            "midi": 55,
            "time": 130.76249999999982,
            "velocity": 0.7874015748031497,
            "duration": 0.25
          },
          {
            "name": "C2",
            "midi": 36,
            "time": 130.99999999999983,
            "velocity": 0.7874015748031497,
            "duration": 0.25000000000005684
          },
          {
            "name": "D2",
            "midi": 38,
            "time": 130.99999999999983,
            "velocity": 0.5748031496062992,
            "duration": 0.0625
          },
          {
            "name": "C4",
            "midi": 60,
            "time": 131.0041666666665,
            "velocity": 0.7874015748031497,
            "duration": 0.5000000000001137
          },
          {
            "name": "G3",
            "midi": 55,
            "time": 131.01249999999982,
            "velocity": 0.7874015748031497,
            "duration": 0.25000000000005684
          },
          {
            "name": "D2",
            "midi": 38,
            "time": 131.0416666666665,
            "velocity": 0.6062992125984252,
            "duration": 0.06250000000002842
          },
          {
            "name": "D2",
            "midi": 38,
            "time": 131.08333333333317,
            "velocity": 0.6535433070866141,
            "duration": 0.06250000000002842
          },
          {
            "name": "D2",
            "midi": 38,
            "time": 131.12499999999986,
            "velocity": 0.4015748031496063,
            "duration": 0.06250000000002842
          },
          {
            "name": "D2",
            "midi": 38,
            "time": 131.16666666666654,
            "velocity": 0.4015748031496063,
            "duration": 0.0625
          },
          {
            "name": "C2",
            "midi": 36,
            "time": 131.2499999999999,
            "velocity": 0.7874015748031497,
            "duration": 0.25000000000005684
          },
          {
            "name": "G3",
            "midi": 55,
            "time": 131.26249999999987,
            "velocity": 0.7874015748031497,
            "duration": 0.25000000000005684
          },
          {
            "name": "D2",
            "midi": 38,
            "time": 131.29166666666654,
            "velocity": 0.5748031496062992,
            "duration": 0.0625
          },
          {
            "name": "D2",
            "midi": 38,
            "time": 131.3333333333332,
            "velocity": 0.6220472440944882,
            "duration": 0.06250000000002842
          },
          {
            "name": "D2",
            "midi": 38,
            "time": 131.3749999999999,
            "velocity": 0.6535433070866141,
            "duration": 0.06250000000002842
          },
          {
            "name": "D2",
            "midi": 38,
            "time": 131.41666666666657,
            "velocity": 0.7007874015748031,
            "duration": 0.06250000000002842
          },
          {
            "name": "D2",
            "midi": 38,
            "time": 131.45833333333326,
            "velocity": 0.4015748031496063,
            "duration": 0.0625
          },
          {
            "name": "C2",
            "midi": 36,
            "time": 131.49999999999994,
            "velocity": 0.7874015748031497,
            "duration": 0.25
          },
          {
            "name": "G3",
            "midi": 55,
            "time": 131.49999999999994,
            "velocity": 0.7874015748031497,
            "duration": 0.5
          },
          {
            "name": "C4",
            "midi": 60,
            "time": 131.49999999999994,
            "velocity": 0.7874015748031497,
            "duration": 0.25
          },
          {
            "name": "D2",
            "midi": 38,
            "time": 131.62499999999991,
            "velocity": 0.5433070866141733,
            "duration": 0.0625
          },
          {
            "name": "D2",
            "midi": 38,
            "time": 131.66666666666657,
            "velocity": 0.5905511811023622,
            "duration": 0.06250000000002842
          },
          {
            "name": "D2",
            "midi": 38,
            "time": 131.70833333333326,
            "velocity": 0.6220472440944882,
            "duration": 0.06250000000002842
          },
          {
            "name": "F1",
            "midi": 29,
            "time": 131.74999999999994,
            "velocity": 0.7874015748031497,
            "duration": 0.125
          },
          {
            "name": "F4",
            "midi": 65,
            "time": 131.74999999999994,
            "velocity": 0.7874015748031497,
            "duration": 0.12916666666666288
          },
          {
            "name": "C2",
            "midi": 36,
            "time": 131.74999999999994,
            "velocity": 0.7874015748031497,
            "duration": 0.0625
          },
          {
            "name": "C#3",
            "midi": 49,
            "time": 131.74999999999994,
            "velocity": 0.7874015748031497,
            "duration": 0.0625
          },
          {
            "name": "F#1",
            "midi": 30,
            "time": 131.87499999999994,
            "velocity": 0.7874015748031497,
            "duration": 0.125
          },
          {
            "name": "F#4",
            "midi": 66,
            "time": 131.87499999999994,
            "velocity": 0.7874015748031497,
            "duration": 0.13333333333332575
          },
          {
            "name": "D2",
            "midi": 38,
            "time": 131.87499999999994,
            "velocity": 0.7874015748031497,
            "duration": 0.0625
          },
          {
            "name": "A3",
            "midi": 57,
            "time": 131.87499999999994,
            "velocity": 0.8188976377952756,
            "duration": 0.125
          },
          {
            "name": "G1",
            "midi": 31,
            "time": 131.99999999999994,
            "velocity": 0.7874015748031497,
            "duration": 0.9999999999999432
          },
          {
            "name": "C3",
            "midi": 48,
            "time": 131.99999999999994,
            "velocity": 0.4330708661417323,
            "duration": 0.0625
          },
          {
            "name": "C4",
            "midi": 60,
            "time": 131.99999999999994,
            "velocity": 0.4330708661417323,
            "duration": 0.0625
          },
          {
            "name": "G4",
            "midi": 67,
            "time": 131.99999999999994,
            "velocity": 0.7874015748031497,
            "duration": 0.7999999999999545
          },
          {
            "name": "C#3",
            "midi": 49,
            "time": 131.99999999999994,
            "velocity": 0.8188976377952756,
            "duration": 0.125
          },
          {
            "name": "C2",
            "midi": 36,
            "time": 131.99999999999994,
            "velocity": 0.7874015748031497,
            "duration": 0.0625
          },
          {
            "name": "C4",
            "midi": 60,
            "time": 132.12499999999994,
            "velocity": 0.4330708661417323,
            "duration": 0.0625
          },
          {
            "name": "C3",
            "midi": 48,
            "time": 132.12499999999994,
            "velocity": 0.4330708661417323,
            "duration": 0.0625
          },
          {
            "name": "C3",
            "midi": 48,
            "time": 132.24999999999994,
            "velocity": 0.4330708661417323,
            "duration": 0.06249999999997158
          },
          {
            "name": "C4",
            "midi": 60,
            "time": 132.24999999999994,
            "velocity": 0.4330708661417323,
            "duration": 0.06249999999997158
          },
          {
            "name": "C3",
            "midi": 48,
            "time": 132.4999999999999,
            "velocity": 0.4330708661417323,
            "duration": 0.0625
          },
          {
            "name": "C4",
            "midi": 60,
            "time": 132.4999999999999,
            "velocity": 0.4330708661417323,
            "duration": 0.0625
          },
          {
            "name": "G#2",
            "midi": 44,
            "time": 132.4999999999999,
            "velocity": 0.5275590551181102,
            "duration": 0.0625
          },
          {
            "name": "C4",
            "midi": 60,
            "time": 132.7499999999999,
            "velocity": 0.4330708661417323,
            "duration": 0.0625
          },
          {
            "name": "C3",
            "midi": 48,
            "time": 132.7499999999999,
            "velocity": 0.4330708661417323,
            "duration": 0.0625
          },
          {
            "name": "C4",
            "midi": 60,
            "time": 132.8749999999999,
            "velocity": 0.4330708661417323,
            "duration": 0.0625
          },
          {
            "name": "C3",
            "midi": 48,
            "time": 132.8749999999999,
            "velocity": 0.4330708661417323,
            "duration": 0.0625
          },
          {
            "name": "C4",
            "midi": 60,
            "time": 132.9999999999999,
            "velocity": 0.4330708661417323,
            "duration": 0.5999999999999943
          },
          {
            "name": "C3",
            "midi": 48,
            "time": 132.9999999999999,
            "velocity": 0.4330708661417323,
            "duration": 0.8000000000000114
          },
          {
            "name": "G#2",
            "midi": 44,
            "time": 132.9999999999999,
            "velocity": 0.5275590551181102,
            "duration": 0.0625
          },
          {
            "name": "A4",
            "midi": 69,
            "time": 133.4999999999999,
            "velocity": 0.7874015748031497,
            "duration": 0.25
          },
          {
            "name": "G#2",
            "midi": 44,
            "time": 133.4999999999999,
            "velocity": 0.5275590551181102,
            "duration": 0.0625
          },
          {
            "name": "A#4",
            "midi": 70,
            "time": 133.7499999999999,
            "velocity": 0.7874015748031497,
            "duration": 0.25
          },
          {
            "name": "E1",
            "midi": 28,
            "time": 133.9999999999999,
            "velocity": 0.7874015748031497,
            "duration": 0.25
          },
          {
            "name": "C5",
            "midi": 72,
            "time": 133.9999999999999,
            "velocity": 0.8031496062992126,
            "duration": 0.25
          },
          {
            "name": "C5",
            "midi": 72,
            "time": 133.9999999999999,
            "velocity": 0.7874015748031497,
            "duration": 0.25
          },
          {
            "name": "E2",
            "midi": 40,
            "time": 133.9999999999999,
            "velocity": 0.7874015748031497,
            "duration": 0.0625
          },
          {
            "name": "E3",
            "midi": 52,
            "time": 133.9999999999999,
            "velocity": 0.7874015748031497,
            "duration": 1.7999999999998408
          },
          {
            "name": "C4",
            "midi": 60,
            "time": 133.9999999999999,
            "velocity": 0.7874015748031497,
            "duration": 0.3333333333333144
          },
          {
            "name": "C2",
            "midi": 36,
            "time": 133.9999999999999,
            "velocity": 0.7716535433070866,
            "duration": 0.0625
          },
          {
            "name": "C#3",
            "midi": 49,
            "time": 133.9999999999999,
            "velocity": 0.8188976377952756,
            "duration": 0.125
          },
          {
            "name": "C3",
            "midi": 48,
            "time": 134.01249999999987,
            "velocity": 0.7874015748031497,
            "duration": 0.25
          },
          {
            "name": "C4",
            "midi": 60,
            "time": 134.08333333333323,
            "velocity": 0.7874015748031497,
            "duration": 0.7499999999999147
          },
          {
            "name": "E2",
            "midi": 40,
            "time": 134.1249999999999,
            "velocity": 0.7874015748031497,
            "duration": 0.0625
          },
          {
            "name": "E4",
            "midi": 64,
            "time": 134.20833333333323,
            "velocity": 0.7874015748031497,
            "duration": 0.24999999999997158
          },
          {
            "name": "E1",
            "midi": 28,
            "time": 134.2499999999999,
            "velocity": 0.7874015748031497,
            "duration": 0.24999999999997158
          },
          {
            "name": "E2",
            "midi": 40,
            "time": 134.2499999999999,
            "velocity": 0.7874015748031497,
            "duration": 0.06249999999997158
          },
          {
            "name": "A#2",
            "midi": 46,
            "time": 134.2499999999999,
            "velocity": 0.5275590551181102,
            "duration": 0.01666666666665151
          },
          {
            "name": "C3",
            "midi": 48,
            "time": 134.26249999999987,
            "velocity": 0.7874015748031497,
            "duration": 0.24999999999997158
          },
          {
            "name": "G4",
            "midi": 67,
            "time": 134.3333333333332,
            "velocity": 0.7874015748031497,
            "duration": 0.24999999999997158
          },
          {
            "name": "C2",
            "midi": 36,
            "time": 134.37499999999986,
            "velocity": 0.5511811023622047,
            "duration": 0.0625
          },
          {
            "name": "E1",
            "midi": 28,
            "time": 134.49999999999986,
            "velocity": 0.7874015748031497,
            "duration": 0.24999999999997158
          },
          {
            "name": "C5",
            "midi": 72,
            "time": 134.49999999999986,
            "velocity": 0.8031496062992126,
            "duration": 0.24999999999997158
          },
          {
            "name": "C5",
            "midi": 72,
            "time": 134.49999999999986,
            "velocity": 0.7874015748031497,
            "duration": 0.24999999999997158
          },
          {
            "name": "E2",
            "midi": 40,
            "time": 134.49999999999986,
            "velocity": 0.7874015748031497,
            "duration": 0.06249999999997158
          },
          {
            "name": "D2",
            "midi": 38,
            "time": 134.49999999999986,
            "velocity": 0.7874015748031497,
            "duration": 0.01666666666665151
          },
          {
            "name": "F#3",
            "midi": 54,
            "time": 134.49999999999986,
            "velocity": 0.7401574803149606,
            "duration": 0.008333333333325754
          },
          {
            "name": "A#2",
            "midi": 46,
            "time": 134.49999999999986,
            "velocity": 0.5275590551181102,
            "duration": 0.01666666666665151
          },
          {
            "name": "C3",
            "midi": 48,
            "time": 134.51249999999985,
            "velocity": 0.7874015748031497,
            "duration": 0.24999999999997158
          },
          {
            "name": "C4",
            "midi": 60,
            "time": 134.58333333333317,
            "velocity": 0.7874015748031497,
            "duration": 0.8999999999999204
          },
          {
            "name": "E2",
            "midi": 40,
            "time": 134.62499999999983,
            "velocity": 0.7874015748031497,
            "duration": 0.0625
          },
          {
            "name": "E4",
            "midi": 64,
            "time": 134.70833333333317,
            "velocity": 0.7874015748031497,
            "duration": 0.24999999999997158
          },
          {
            "name": "E1",
            "midi": 28,
            "time": 134.74999999999983,
            "velocity": 0.7874015748031497,
            "duration": 0.24999999999997158
          },
          {
            "name": "C5",
            "midi": 72,
            "time": 134.74999999999983,
            "velocity": 0.7874015748031497,
            "duration": 0.24999999999997158
          },
          {
            "name": "E2",
            "midi": 40,
            "time": 134.74999999999983,
            "velocity": 0.7874015748031497,
            "duration": 0.06249999999997158
          },
          {
            "name": "A#2",
            "midi": 46,
            "time": 134.74999999999983,
            "velocity": 0.5275590551181102,
            "duration": 0.01666666666665151
          },
          {
            "name": "C3",
            "midi": 48,
            "time": 134.76249999999982,
            "velocity": 0.7874015748031497,
            "duration": 0.24999999999997158
          },
          {
            "name": "G4",
            "midi": 67,
            "time": 134.83333333333314,
            "velocity": 0.7874015748031497,
            "duration": 0.24999999999997158
          },
          {
            "name": "E1",
            "midi": 28,
            "time": 134.9999999999998,
            "velocity": 0.7874015748031497,
            "duration": 0.24999999999997158
          },
          {
            "name": "C3",
            "midi": 48,
            "time": 134.9999999999998,
            "velocity": 0.7874015748031497,
            "duration": 0.2624999999999602
          },
          {
            "name": "C5",
            "midi": 72,
            "time": 134.9999999999998,
            "velocity": 0.8031496062992126,
            "duration": 0.24999999999997158
          },
          {
            "name": "C5",
            "midi": 72,
            "time": 134.9999999999998,
            "velocity": 0.7874015748031497,
            "duration": 0.24999999999997158
          },
          {
            "name": "E2",
            "midi": 40,
            "time": 134.9999999999998,
            "velocity": 0.7874015748031497,
            "duration": 0.06249999999997158
          },
          {
            "name": "C2",
            "midi": 36,
            "time": 134.9999999999998,
            "velocity": 0.7716535433070866,
            "duration": 0.06249999999997158
          },
          {
            "name": "A#2",
            "midi": 46,
            "time": 134.9999999999998,
            "velocity": 0.5275590551181102,
            "duration": 0.01666666666665151
          },
          {
            "name": "C3",
            "midi": 48,
            "time": 135.0124999999998,
            "velocity": 0.7874015748031497,
            "duration": 0.3874999999999602
          },
          {
            "name": "C4",
            "midi": 60,
            "time": 135.08333333333312,
            "velocity": 0.47244094488188976,
            "duration": 0.8999999999999488
          },
          {
            "name": "E2",
            "midi": 40,
            "time": 135.12499999999977,
            "velocity": 0.7874015748031497,
            "duration": 0.0625
          },
          {
            "name": "E4",
            "midi": 64,
            "time": 135.20833333333312,
            "velocity": 0.7874015748031497,
            "duration": 0.24999999999997158
          },
          {
            "name": "E1",
            "midi": 28,
            "time": 135.24999999999977,
            "velocity": 0.7874015748031497,
            "duration": 0.25
          },
          {
            "name": "A#4",
            "midi": 70,
            "time": 135.24999999999977,
            "velocity": 0.7874015748031497,
            "duration": 0.25
          },
          {
            "name": "E2",
            "midi": 40,
            "time": 135.24999999999977,
            "velocity": 0.7874015748031497,
            "duration": 0.06249999999997158
          },
          {
            "name": "A#2",
            "midi": 46,
            "time": 135.24999999999977,
            "velocity": 0.5275590551181102,
            "duration": 0.01666666666665151
          },
          {
            "name": "C2",
            "midi": 36,
            "time": 135.24999999999977,
            "velocity": 0.7716535433070866,
            "duration": 0.06249999999997158
          },
          {
            "name": "C3",
            "midi": 48,
            "time": 135.26249999999976,
            "velocity": 0.7874015748031497,
            "duration": 0.25
          },
          {
            "name": "G4",
            "midi": 67,
            "time": 135.3333333333331,
            "velocity": 0.7874015748031497,
            "duration": 0.25
          },
          {
            "name": "E1",
            "midi": 28,
            "time": 135.49999999999977,
            "velocity": 0.7874015748031497,
            "duration": 0.24999999999997158
          },
          {
            "name": "C3",
            "midi": 48,
            "time": 135.49999999999977,
            "velocity": 0.7874015748031497,
            "duration": 0.2624999999999602
          },
          {
            "name": "C5",
            "midi": 72,
            "time": 135.49999999999977,
            "velocity": 0.8031496062992126,
            "duration": 0.24999999999997158
          },
          {
            "name": "A4",
            "midi": 69,
            "time": 135.49999999999977,
            "velocity": 0.7874015748031497,
            "duration": 0.24999999999997158
          },
          {
            "name": "E2",
            "midi": 40,
            "time": 135.49999999999977,
            "velocity": 0.7874015748031497,
            "duration": 0.06249999999997158
          },
          {
            "name": "F#3",
            "midi": 54,
            "time": 135.49999999999977,
            "velocity": 0.7401574803149606,
            "duration": 0.008333333333325754
          },
          {
            "name": "A#2",
            "midi": 46,
            "time": 135.49999999999977,
            "velocity": 0.5275590551181102,
            "duration": 0.01666666666665151
          },
          {
            "name": "D2",
            "midi": 38,
            "time": 135.49999999999977,
            "velocity": 0.7874015748031497,
            "duration": 0.008333333333325754
          },
          {
            "name": "C3",
            "midi": 48,
            "time": 135.51249999999976,
            "velocity": 0.7874015748031497,
            "duration": 0.3874999999999602
          },
          {
            "name": "C4",
            "midi": 60,
            "time": 135.5833333333331,
            "velocity": 0.47244094488188976,
            "duration": 0.4166666666666572
          },
          {
            "name": "E2",
            "midi": 40,
            "time": 135.62499999999974,
            "velocity": 0.7874015748031497,
            "duration": 0.0625
          },
          {
            "name": "E4",
            "midi": 64,
            "time": 135.7083333333331,
            "velocity": 0.7874015748031497,
            "duration": 0.24999999999997158
          },
          {
            "name": "E1",
            "midi": 28,
            "time": 135.74999999999974,
            "velocity": 0.7874015748031497,
            "duration": 0.25
          },
          {
            "name": "C5",
            "midi": 72,
            "time": 135.74999999999974,
            "velocity": 0.7874015748031497,
            "duration": 0.25
          },
          {
            "name": "E2",
            "midi": 40,
            "time": 135.74999999999974,
            "velocity": 0.7874015748031497,
            "duration": 0.06249999999997158
          },
          {
            "name": "C2",
            "midi": 36,
            "time": 135.74999999999974,
            "velocity": 0.7716535433070866,
            "duration": 0.06249999999997158
          },
          {
            "name": "A#2",
            "midi": 46,
            "time": 135.74999999999974,
            "velocity": 0.5275590551181102,
            "duration": 0.01666666666665151
          },
          {
            "name": "C3",
            "midi": 48,
            "time": 135.76249999999973,
            "velocity": 0.7874015748031497,
            "duration": 0.25
          },
          {
            "name": "G4",
            "midi": 67,
            "time": 135.83333333333306,
            "velocity": 0.7874015748031497,
            "duration": 0.25
          },
          {
            "name": "E3",
            "midi": 52,
            "time": 135.95833333333306,
            "velocity": 0.7874015748031497,
            "duration": 0.0625
          },
          {
            "name": "D#1",
            "midi": 27,
            "time": 135.99999999999974,
            "velocity": 0.7874015748031497,
            "duration": 0.24999999999997158
          },
          {
            "name": "C5",
            "midi": 72,
            "time": 135.99999999999974,
            "velocity": 0.8031496062992126,
            "duration": 0.24999999999997158
          },
          {
            "name": "D#2",
            "midi": 39,
            "time": 135.99999999999974,
            "velocity": 0.7874015748031497,
            "duration": 0.06249999999997158
          },
          {
            "name": "D#3",
            "midi": 51,
            "time": 135.99999999999974,
            "velocity": 0.7874015748031497,
            "duration": 1.799999999999784
          },
          {
            "name": "D#3",
            "midi": 51,
            "time": 135.99999999999974,
            "velocity": 0.7874015748031497,
            "duration": 1.9999999999997726
          },
          {
            "name": "C2",
            "midi": 36,
            "time": 135.99999999999974,
            "velocity": 0.7716535433070866,
            "duration": 0.06249999999997158
          },
          {
            "name": "A#2",
            "midi": 46,
            "time": 135.99999999999974,
            "velocity": 0.5275590551181102,
            "duration": 0.12499999999997158
          },
          {
            "name": "C3",
            "midi": 48,
            "time": 136.01249999999973,
            "velocity": 0.7874015748031497,
            "duration": 0.24999999999997158
          },
          {
            "name": "C4",
            "midi": 60,
            "time": 136.08333333333306,
            "velocity": 0.7874015748031497,
            "duration": 0.24999999999997158
          },
          {
            "name": "D#2",
            "midi": 39,
            "time": 136.12499999999972,
            "velocity": 0.7874015748031497,
            "duration": 0.0625
          },
          {
            "name": "D#4",
            "midi": 63,
            "time": 136.20833333333306,
            "velocity": 0.7874015748031497,
            "duration": 0.24999999999997158
          },
          {
            "name": "D#1",
            "midi": 27,
            "time": 136.24999999999972,
            "velocity": 0.7874015748031497,
            "duration": 0.24999999999997158
          },
          {
            "name": "D#2",
            "midi": 39,
            "time": 136.24999999999972,
            "velocity": 0.7874015748031497,
            "duration": 0.06249999999997158
          },
          {
            "name": "A#2",
            "midi": 46,
            "time": 136.24999999999972,
            "velocity": 0.5275590551181102,
            "duration": 0.01666666666665151
          },
          {
            "name": "C3",
            "midi": 48,
            "time": 136.2624999999997,
            "velocity": 0.7874015748031497,
            "duration": 0.24999999999997158
          },
          {
            "name": "G4",
            "midi": 67,
            "time": 136.33333333333303,
            "velocity": 0.7874015748031497,
            "duration": 0.24999999999997158
          },
          {
            "name": "C2",
            "midi": 36,
            "time": 136.3749999999997,
            "velocity": 0.5511811023622047,
            "duration": 0.0625
          },
          {
            "name": "D#1",
            "midi": 27,
            "time": 136.4999999999997,
            "velocity": 0.7874015748031497,
            "duration": 0.24999999999997158
          },
          {
            "name": "C5",
            "midi": 72,
            "time": 136.4999999999997,
            "velocity": 0.8031496062992126,
            "duration": 0.24999999999997158
          },
          {
            "name": "D#2",
            "midi": 39,
            "time": 136.4999999999997,
            "velocity": 0.7874015748031497,
            "duration": 0.06249999999997158
          },
          {
            "name": "D2",
            "midi": 38,
            "time": 136.4999999999997,
            "velocity": 0.7874015748031497,
            "duration": 0.01666666666665151
          },
          {
            "name": "F#3",
            "midi": 54,
            "time": 136.4999999999997,
            "velocity": 0.7401574803149606,
            "duration": 0.008333333333325754
          },
          {
            "name": "A#2",
            "midi": 46,
            "time": 136.4999999999997,
            "velocity": 0.5275590551181102,
            "duration": 0.01666666666665151
          },
          {
            "name": "C3",
            "midi": 48,
            "time": 136.51249999999968,
            "velocity": 0.7874015748031497,
            "duration": 0.24999999999997158
          },
          {
            "name": "C4",
            "midi": 60,
            "time": 136.583333333333,
            "velocity": 0.7874015748031497,
            "duration": 0.24999999999997158
          },
          {
            "name": "D#2",
            "midi": 39,
            "time": 136.62499999999966,
            "velocity": 0.7874015748031497,
            "duration": 0.0625
          },
          {
            "name": "D#4",
            "midi": 63,
            "time": 136.708333333333,
            "velocity": 0.7874015748031497,
            "duration": 0.24999999999997158
          },
          {
            "name": "D#1",
            "midi": 27,
            "time": 136.74999999999966,
            "velocity": 0.7874015748031497,
            "duration": 0.24999999999997158
          },
          {
            "name": "D#2",
            "midi": 39,
            "time": 136.74999999999966,
            "velocity": 0.7874015748031497,
            "duration": 0.06249999999997158
          },
          {
            "name": "A#2",
            "midi": 46,
            "time": 136.74999999999966,
            "velocity": 0.5275590551181102,
            "duration": 0.01666666666665151
          },
          {
            "name": "C3",
            "midi": 48,
            "time": 136.76249999999965,
            "velocity": 0.7874015748031497,
            "duration": 0.24999999999997158
          },
          {
            "name": "G4",
            "midi": 67,
            "time": 136.83333333333297,
            "velocity": 0.7874015748031497,
            "duration": 0.24999999999997158
          },
          {
            "name": "D#1",
            "midi": 27,
            "time": 136.99999999999963,
            "velocity": 0.7874015748031497,
            "duration": 0.24999999999997158
          },
          {
            "name": "C5",
            "midi": 72,
            "time": 136.99999999999963,
            "velocity": 0.8031496062992126,
            "duration": 0.24999999999997158
          },
          {
            "name": "D#3",
            "midi": 51,
            "time": 136.99999999999963,
            "velocity": 0.47244094488188976,
            "duration": 0.9999999999998863
          },
          {
            "name": "D#5",
            "midi": 75,
            "time": 136.99999999999963,
            "velocity": 0.7874015748031497,
            "duration": 0.24999999999997158
          },
          {
            "name": "D#2",
            "midi": 39,
            "time": 136.99999999999963,
            "velocity": 0.7874015748031497,
            "duration": 0.06249999999997158
          },
          {
            "name": "C2",
            "midi": 36,
            "time": 136.99999999999963,
            "velocity": 0.7716535433070866,
            "duration": 0.06249999999997158
          },
          {
            "name": "A#2",
            "midi": 46,
            "time": 136.99999999999963,
            "velocity": 0.5275590551181102,
            "duration": 0.01666666666665151
          },
          {
            "name": "C3",
            "midi": 48,
            "time": 137.01249999999962,
            "velocity": 0.7874015748031497,
            "duration": 0.24999999999997158
          },
          {
            "name": "C4",
            "midi": 60,
            "time": 137.08333333333294,
            "velocity": 0.47244094488188976,
            "duration": 0.24999999999997158
          },
          {
            "name": "D#2",
            "midi": 39,
            "time": 137.1249999999996,
            "velocity": 0.7874015748031497,
            "duration": 0.0625
          },
          {
            "name": "D#4",
            "midi": 63,
            "time": 137.20833333333294,
            "velocity": 0.7874015748031497,
            "duration": 0.24999999999997158
          },
          {
            "name": "D#1",
            "midi": 27,
            "time": 137.2499999999996,
            "velocity": 0.7874015748031497,
            "duration": 0.24999999999997158
          },
          {
            "name": "D5",
            "midi": 74,
            "time": 137.2499999999996,
            "velocity": 0.7874015748031497,
            "duration": 0.24999999999997158
          },
          {
            "name": "D#2",
            "midi": 39,
            "time": 137.2499999999996,
            "velocity": 0.7874015748031497,
            "duration": 0.06249999999997158
          },
          {
            "name": "A#2",
            "midi": 46,
            "time": 137.2499999999996,
            "velocity": 0.5275590551181102,
            "duration": 0.01666666666665151
          },
          {
            "name": "C2",
            "midi": 36,
            "time": 137.2499999999996,
            "velocity": 0.7716535433070866,
            "duration": 0.06249999999997158
          },
          {
            "name": "C3",
            "midi": 48,
            "time": 137.2624999999996,
            "velocity": 0.7874015748031497,
            "duration": 0.24999999999997158
          },
          {
            "name": "G4",
            "midi": 67,
            "time": 137.33333333333292,
            "velocity": 0.7874015748031497,
            "duration": 0.24999999999997158
          },
          {
            "name": "D#1",
            "midi": 27,
            "time": 137.49999999999957,
            "velocity": 0.7874015748031497,
            "duration": 0.24999999999997158
          },
          {
            "name": "C5",
            "midi": 72,
            "time": 137.49999999999957,
            "velocity": 0.8031496062992126,
            "duration": 0.24999999999997158
          },
          {
            "name": "A4",
            "midi": 69,
            "time": 137.49999999999957,
            "velocity": 0.7874015748031497,
            "duration": 0.24999999999997158
          },
          {
            "name": "D#2",
            "midi": 39,
            "time": 137.49999999999957,
            "velocity": 0.7874015748031497,
            "duration": 0.06249999999997158
          },
          {
            "name": "F#3",
            "midi": 54,
            "time": 137.49999999999957,
            "velocity": 0.7401574803149606,
            "duration": 0.008333333333325754
          },
          {
            "name": "A#2",
            "midi": 46,
            "time": 137.49999999999957,
            "velocity": 0.5275590551181102,
            "duration": 0.01666666666665151
          },
          {
            "name": "D2",
            "midi": 38,
            "time": 137.49999999999957,
            "velocity": 0.7874015748031497,
            "duration": 0.008333333333325754
          },
          {
            "name": "C3",
            "midi": 48,
            "time": 137.51249999999956,
            "velocity": 0.7874015748031497,
            "duration": 0.24999999999997158
          },
          {
            "name": "C4",
            "midi": 60,
            "time": 137.5833333333329,
            "velocity": 0.47244094488188976,
            "duration": 0.24999999999997158
          },
          {
            "name": "D#2",
            "midi": 39,
            "time": 137.62499999999955,
            "velocity": 0.7874015748031497,
            "duration": 0.0625
          },
          {
            "name": "D#4",
            "midi": 63,
            "time": 137.7083333333329,
            "velocity": 0.7874015748031497,
            "duration": 0.24999999999997158
          },
          {
            "name": "D#1",
            "midi": 27,
            "time": 137.74999999999955,
            "velocity": 0.7874015748031497,
            "duration": 0.24999999999997158
          },
          {
            "name": "D#2",
            "midi": 39,
            "time": 137.74999999999955,
            "velocity": 0.7874015748031497,
            "duration": 0.06249999999997158
          },
          {
            "name": "C2",
            "midi": 36,
            "time": 137.74999999999955,
            "velocity": 0.7716535433070866,
            "duration": 0.06249999999997158
          },
          {
            "name": "A#2",
            "midi": 46,
            "time": 137.74999999999955,
            "velocity": 0.5275590551181102,
            "duration": 0.01666666666665151
          },
          {
            "name": "C3",
            "midi": 48,
            "time": 137.76249999999953,
            "velocity": 0.7874015748031497,
            "duration": 0.24999999999997158
          },
          {
            "name": "C5",
            "midi": 72,
            "time": 137.79999999999953,
            "velocity": 0.7874015748031497,
            "duration": 0.24999999999997158
          },
          {
            "name": "G4",
            "midi": 67,
            "time": 137.83333333333286,
            "velocity": 0.7874015748031497,
            "duration": 0.24999999999997158
          },
          {
            "name": "D#3",
            "midi": 51,
            "time": 137.95833333333286,
            "velocity": 0.7874015748031497,
            "duration": 0.06249999999997158
          },
          {
            "name": "D1",
            "midi": 26,
            "time": 137.99999999999952,
            "velocity": 0.7874015748031497,
            "duration": 0.24999999999997158
          },
          {
            "name": "A#4",
            "midi": 70,
            "time": 137.99999999999952,
            "velocity": 0.8031496062992126,
            "duration": 0.24999999999997158
          },
          {
            "name": "A#4",
            "midi": 70,
            "time": 137.99999999999952,
            "velocity": 0.7874015748031497,
            "duration": 0.24999999999997158
          },
          {
            "name": "D2",
            "midi": 38,
            "time": 137.99999999999952,
            "velocity": 0.7874015748031497,
            "duration": 0.06249999999997158
          },
          {
            "name": "D3",
            "midi": 50,
            "time": 137.99999999999952,
            "velocity": 0.7874015748031497,
            "duration": 1.799999999999784
          },
          {
            "name": "D3",
            "midi": 50,
            "time": 137.99999999999952,
            "velocity": 0.7874015748031497,
            "duration": 1.9999999999997726
          },
          {
            "name": "C2",
            "midi": 36,
            "time": 137.99999999999952,
            "velocity": 0.7716535433070866,
            "duration": 0.06249999999997158
          },
          {
            "name": "A#2",
            "midi": 46,
            "time": 137.99999999999952,
            "velocity": 0.5275590551181102,
            "duration": 0.12499999999997158
          },
          {
            "name": "A#2",
            "midi": 46,
            "time": 138.0124999999995,
            "velocity": 0.7874015748031497,
            "duration": 0.24999999999997158
          },
          {
            "name": "F3",
            "midi": 53,
            "time": 138.08333333333283,
            "velocity": 0.7874015748031497,
            "duration": 0.24999999999997158
          },
          {
            "name": "D2",
            "midi": 38,
            "time": 138.1249999999995,
            "velocity": 0.7874015748031497,
            "duration": 0.0625
          },
          {
            "name": "A#3",
            "midi": 58,
            "time": 138.20833333333283,
            "velocity": 0.7874015748031497,
            "duration": 0.24999999999997158
          },
          {
            "name": "D1",
            "midi": 26,
            "time": 138.2499999999995,
            "velocity": 0.7874015748031497,
            "duration": 0.24999999999997158
          },
          {
            "name": "A#4",
            "midi": 70,
            "time": 138.2499999999995,
            "velocity": 0.7874015748031497,
            "duration": 0.24999999999997158
          },
          {
            "name": "D2",
            "midi": 38,
            "time": 138.2499999999995,
            "velocity": 0.7874015748031497,
            "duration": 0.06249999999997158
          },
          {
            "name": "A#2",
            "midi": 46,
            "time": 138.2499999999995,
            "velocity": 0.5275590551181102,
            "duration": 0.01666666666665151
          },
          {
            "name": "A#2",
            "midi": 46,
            "time": 138.26249999999948,
            "velocity": 0.7874015748031497,
            "duration": 0.24999999999997158
          },
          {
            "name": "D4",
            "midi": 62,
            "time": 138.3333333333328,
            "velocity": 0.7874015748031497,
            "duration": 0.24999999999997158
          },
          {
            "name": "C2",
            "midi": 36,
            "time": 138.37499999999946,
            "velocity": 0.5511811023622047,
            "duration": 0.0625
          },
          {
            "name": "D1",
            "midi": 26,
            "time": 138.49999999999946,
            "velocity": 0.7874015748031497,
            "duration": 0.24999999999997158
          },
          {
            "name": "A#4",
            "midi": 70,
            "time": 138.49999999999946,
            "velocity": 0.8031496062992126,
            "duration": 0.24999999999997158
          },
          {
            "name": "D2",
            "midi": 38,
            "time": 138.49999999999946,
            "velocity": 0.7874015748031497,
            "duration": 0.01666666666665151
          },
          {
            "name": "D2",
            "midi": 38,
            "time": 138.49999999999946,
            "velocity": 0.7874015748031497,
            "duration": 0.06249999999997158
          },
          {
            "name": "F#3",
            "midi": 54,
            "time": 138.49999999999946,
            "velocity": 0.7401574803149606,
            "duration": 0.008333333333325754
          },
          {
            "name": "A#2",
            "midi": 46,
            "time": 138.49999999999946,
            "velocity": 0.5275590551181102,
            "duration": 0.01666666666665151
          },
          {
            "name": "A#2",
            "midi": 46,
            "time": 138.51249999999945,
            "velocity": 0.7874015748031497,
            "duration": 0.24999999999997158
          },
          {
            "name": "F3",
            "midi": 53,
            "time": 138.58333333333277,
            "velocity": 0.7874015748031497,
            "duration": 0.24999999999997158
          },
          {
            "name": "D2",
            "midi": 38,
            "time": 138.62499999999943,
            "velocity": 0.7874015748031497,
            "duration": 0.0625
          },
          {
            "name": "A#3",
            "midi": 58,
            "time": 138.70833333333277,
            "velocity": 0.7874015748031497,
            "duration": 0.24999999999997158
          },
          {
            "name": "D1",
            "midi": 26,
            "time": 138.74999999999943,
            "velocity": 0.7874015748031497,
            "duration": 0.24999999999997158
          },
          {
            "name": "D2",
            "midi": 38,
            "time": 138.74999999999943,
            "velocity": 0.7874015748031497,
            "duration": 0.06249999999997158
          },
          {
            "name": "A#2",
            "midi": 46,
            "time": 138.74999999999943,
            "velocity": 0.5275590551181102,
            "duration": 0.01666666666665151
          },
          {
            "name": "A#2",
            "midi": 46,
            "time": 138.76249999999942,
            "velocity": 0.7874015748031497,
            "duration": 0.24999999999997158
          },
          {
            "name": "D4",
            "midi": 62,
            "time": 138.83333333333275,
            "velocity": 0.7874015748031497,
            "duration": 0.24999999999997158
          },
          {
            "name": "D1",
            "midi": 26,
            "time": 138.9999999999994,
            "velocity": 0.7874015748031497,
            "duration": 0.24999999999997158
          },
          {
            "name": "A#4",
            "midi": 70,
            "time": 138.9999999999994,
            "velocity": 0.8031496062992126,
            "duration": 0.24999999999997158
          },
          {
            "name": "A#4",
            "midi": 70,
            "time": 138.9999999999994,
            "velocity": 0.7874015748031497,
            "duration": 0.24999999999997158
          },
          {
            "name": "D2",
            "midi": 38,
            "time": 138.9999999999994,
            "velocity": 0.7874015748031497,
            "duration": 0.06249999999997158
          },
          {
            "name": "C2",
            "midi": 36,
            "time": 138.9999999999994,
            "velocity": 0.7716535433070866,
            "duration": 0.06249999999997158
          },
          {
            "name": "A#2",
            "midi": 46,
            "time": 138.9999999999994,
            "velocity": 0.5275590551181102,
            "duration": 0.01666666666665151
          },
          {
            "name": "A#2",
            "midi": 46,
            "time": 139.0124999999994,
            "velocity": 0.7874015748031497,
            "duration": 0.24999999999997158
          },
          {
            "name": "F3",
            "midi": 53,
            "time": 139.08333333333272,
            "velocity": 0.47244094488188976,
            "duration": 0.24999999999997158
          },
          {
            "name": "D2",
            "midi": 38,
            "time": 139.12499999999937,
            "velocity": 0.7874015748031497,
            "duration": 0.0625
          },
          {
            "name": "A#3",
            "midi": 58,
            "time": 139.20833333333272,
            "velocity": 0.7874015748031497,
            "duration": 0.24999999999997158
          },
          {
            "name": "D1",
            "midi": 26,
            "time": 139.24999999999937,
            "velocity": 0.7874015748031497,
            "duration": 0.24999999999997158
          },
          {
            "name": "C5",
            "midi": 72,
            "time": 139.24999999999937,
            "velocity": 0.7874015748031497,
            "duration": 0.24999999999997158
          },
          {
            "name": "D2",
            "midi": 38,
            "time": 139.24999999999937,
            "velocity": 0.7874015748031497,
            "duration": 0.06249999999997158
          },
          {
            "name": "A#2",
            "midi": 46,
            "time": 139.24999999999937,
            "velocity": 0.5275590551181102,
            "duration": 0.01666666666665151
          },
          {
            "name": "C2",
            "midi": 36,
            "time": 139.24999999999937,
            "velocity": 0.7716535433070866,
            "duration": 0.06249999999997158
          },
          {
            "name": "A#2",
            "midi": 46,
            "time": 139.26249999999936,
            "velocity": 0.7874015748031497,
            "duration": 0.24999999999997158
          },
          {
            "name": "D4",
            "midi": 62,
            "time": 139.3333333333327,
            "velocity": 0.7874015748031497,
            "duration": 0.24999999999997158
          },
          {
            "name": "D1",
            "midi": 26,
            "time": 139.49999999999935,
            "velocity": 0.7874015748031497,
            "duration": 0.24999999999997158
          },
          {
            "name": "A#4",
            "midi": 70,
            "time": 139.49999999999935,
            "velocity": 0.8031496062992126,
            "duration": 0.24999999999997158
          },
          {
            "name": "A#4",
            "midi": 70,
            "time": 139.49999999999935,
            "velocity": 0.7874015748031497,
            "duration": 0.24999999999997158
          },
          {
            "name": "D2",
            "midi": 38,
            "time": 139.49999999999935,
            "velocity": 0.7874015748031497,
            "duration": 0.008333333333325754
          },
          {
            "name": "F#3",
            "midi": 54,
            "time": 139.49999999999935,
            "velocity": 0.7401574803149606,
            "duration": 0.008333333333325754
          },
          {
            "name": "A#2",
            "midi": 46,
            "time": 139.49999999999935,
            "velocity": 0.5275590551181102,
            "duration": 0.01666666666665151
          },
          {
            "name": "D2",
            "midi": 38,
            "time": 139.49999999999935,
            "velocity": 0.7874015748031497,
            "duration": 0.06249999999997158
          },
          {
            "name": "A#2",
            "midi": 46,
            "time": 139.51249999999933,
            "velocity": 0.7874015748031497,
            "duration": 0.24999999999997158
          },
          {
            "name": "F3",
            "midi": 53,
            "time": 139.58333333333266,
            "velocity": 0.47244094488188976,
            "duration": 0.24999999999997158
          },
          {
            "name": "D2",
            "midi": 38,
            "time": 139.62499999999932,
            "velocity": 0.7874015748031497,
            "duration": 0.0625
          },
          {
            "name": "A#3",
            "midi": 58,
            "time": 139.70833333333266,
            "velocity": 0.7874015748031497,
            "duration": 0.24999999999997158
          },
          {
            "name": "D1",
            "midi": 26,
            "time": 139.74999999999932,
            "velocity": 0.7874015748031497,
            "duration": 0.24999999999997158
          },
          {
            "name": "D2",
            "midi": 38,
            "time": 139.74999999999932,
            "velocity": 0.7874015748031497,
            "duration": 0.06249999999997158
          },
          {
            "name": "C2",
            "midi": 36,
            "time": 139.74999999999932,
            "velocity": 0.7716535433070866,
            "duration": 0.06249999999997158
          },
          {
            "name": "A#2",
            "midi": 46,
            "time": 139.74999999999932,
            "velocity": 0.5275590551181102,
            "duration": 0.01666666666665151
          },
          {
            "name": "A#2",
            "midi": 46,
            "time": 139.7624999999993,
            "velocity": 0.7874015748031497,
            "duration": 0.24999999999997158
          },
          {
            "name": "C#5",
            "midi": 73,
            "time": 139.7999999999993,
            "velocity": 0.7874015748031497,
            "duration": 0.24999999999997158
          },
          {
            "name": "D4",
            "midi": 62,
            "time": 139.83333333333263,
            "velocity": 0.7874015748031497,
            "duration": 0.24999999999997158
          },
          {
            "name": "D3",
            "midi": 50,
            "time": 139.95833333333263,
            "velocity": 0.7874015748031497,
            "duration": 0.06249999999997158
          },
          {
            "name": "C#1",
            "midi": 25,
            "time": 139.9999999999993,
            "velocity": 0.7874015748031497,
            "duration": 0.24999999999997158
          },
          {
            "name": "A#4",
            "midi": 70,
            "time": 139.9999999999993,
            "velocity": 0.8031496062992126,
            "duration": 0.24999999999997158
          },
          {
            "name": "C#2",
            "midi": 37,
            "time": 139.9999999999993,
            "velocity": 0.7874015748031497,
            "duration": 0.06249999999997158
          },
          {
            "name": "C#3",
            "midi": 49,
            "time": 139.9999999999993,
            "velocity": 0.7874015748031497,
            "duration": 1.7999999999998124
          },
          {
            "name": "C#3",
            "midi": 49,
            "time": 139.9999999999993,
            "velocity": 0.7874015748031497,
            "duration": 1.999999999999801
          },
          {
            "name": "A#2",
            "midi": 46,
            "time": 139.9999999999993,
            "velocity": 0.5275590551181102,
            "duration": 0.12499999999997158
          },
          {
            "name": "C2",
            "midi": 36,
            "time": 139.9999999999993,
            "velocity": 0.7716535433070866,
            "duration": 0.06249999999997158
          },
          {
            "name": "A2",
            "midi": 45,
            "time": 140.01249999999928,
            "velocity": 0.7874015748031497,
            "duration": 0.24999999999997158
          },
          {
            "name": "E3",
            "midi": 52,
            "time": 140.0833333333326,
            "velocity": 0.7874015748031497,
            "duration": 0.24999999999997158
          },
          {
            "name": "C#2",
            "midi": 37,
            "time": 140.12499999999926,
            "velocity": 0.7874015748031497,
            "duration": 0.0625
          },
          {
            "name": "A#3",
            "midi": 58,
            "time": 140.2083333333326,
            "velocity": 0.7874015748031497,
            "duration": 0.24999999999997158
          },
          {
            "name": "C#1",
            "midi": 25,
            "time": 140.24999999999926,
            "velocity": 0.7874015748031497,
            "duration": 0.24999999999997158
          },
          {
            "name": "C#2",
            "midi": 37,
            "time": 140.24999999999926,
            "velocity": 0.7874015748031497,
            "duration": 0.06249999999997158
          },
          {
            "name": "A#2",
            "midi": 46,
            "time": 140.24999999999926,
            "velocity": 0.5275590551181102,
            "duration": 0.01666666666665151
          },
          {
            "name": "A2",
            "midi": 45,
            "time": 140.26249999999925,
            "velocity": 0.7874015748031497,
            "duration": 0.24999999999997158
          },
          {
            "name": "C#4",
            "midi": 61,
            "time": 140.33333333333258,
            "velocity": 0.7874015748031497,
            "duration": 0.24999999999997158
          },
          {
            "name": "C2",
            "midi": 36,
            "time": 140.37499999999923,
            "velocity": 0.7716535433070866,
            "duration": 0.0625
          },
          {
            "name": "C#1",
            "midi": 25,
            "time": 140.49999999999923,
            "velocity": 0.7874015748031497,
            "duration": 0.24999999999997158
          },
          {
            "name": "A#4",
            "midi": 70,
            "time": 140.49999999999923,
            "velocity": 0.8031496062992126,
            "duration": 0.24999999999997158
          },
          {
            "name": "C#2",
            "midi": 37,
            "time": 140.49999999999923,
            "velocity": 0.7874015748031497,
            "duration": 0.06249999999997158
          },
          {
            "name": "F#3",
            "midi": 54,
            "time": 140.49999999999923,
            "velocity": 0.7401574803149606,
            "duration": 0.008333333333325754
          },
          {
            "name": "D2",
            "midi": 38,
            "time": 140.49999999999923,
            "velocity": 0.7874015748031497,
            "duration": 0.01666666666665151
          },
          {
            "name": "A#2",
            "midi": 46,
            "time": 140.49999999999923,
            "velocity": 0.5275590551181102,
            "duration": 0.01666666666665151
          },
          {
            "name": "A2",
            "midi": 45,
            "time": 140.51249999999922,
            "velocity": 0.7874015748031497,
            "duration": 0.24999999999997158
          },
          {
            "name": "E3",
            "midi": 52,
            "time": 140.58333333333255,
            "velocity": 0.7874015748031497,
            "duration": 0.24999999999997158
          },
          {
            "name": "C#2",
            "midi": 37,
            "time": 140.6249999999992,
            "velocity": 0.7874015748031497,
            "duration": 0.0625
          },
          {
            "name": "A#3",
            "midi": 58,
            "time": 140.70833333333255,
            "velocity": 0.7874015748031497,
            "duration": 0.24999999999997158
          },
          {
            "name": "C#1",
            "midi": 25,
            "time": 140.7499999999992,
            "velocity": 0.7874015748031497,
            "duration": 0.24999999999997158
          },
          {
            "name": "C#2",
            "midi": 37,
            "time": 140.7499999999992,
            "velocity": 0.7874015748031497,
            "duration": 0.06249999999997158
          },
          {
            "name": "D2",
            "midi": 38,
            "time": 140.7499999999992,
            "velocity": 0.7874015748031497,
            "duration": 0.06249999999997158
          },
          {
            "name": "A#2",
            "midi": 46,
            "time": 140.7499999999992,
            "velocity": 0.5275590551181102,
            "duration": 0.01666666666665151
          },
          {
            "name": "A2",
            "midi": 45,
            "time": 140.7624999999992,
            "velocity": 0.7874015748031497,
            "duration": 0.24999999999997158
          },
          {
            "name": "C#4",
            "midi": 61,
            "time": 140.83333333333252,
            "velocity": 0.7874015748031497,
            "duration": 0.24999999999997158
          },
          {
            "name": "C#1",
            "midi": 25,
            "time": 140.99999999999918,
            "velocity": 0.7874015748031497,
            "duration": 0.24999999999997158
          },
          {
            "name": "A#4",
            "midi": 70,
            "time": 140.99999999999918,
            "velocity": 0.8031496062992126,
            "duration": 0.24999999999997158
          },
          {
            "name": "C#5",
            "midi": 73,
            "time": 140.99999999999918,
            "velocity": 0.7874015748031497,
            "duration": 0.24999999999997158
          },
          {
            "name": "C#2",
            "midi": 37,
            "time": 140.99999999999918,
            "velocity": 0.7874015748031497,
            "duration": 0.06249999999997158
          },
          {
            "name": "G#2",
            "midi": 44,
            "time": 140.99999999999918,
            "velocity": 0.5275590551181102,
            "duration": 0.01666666666665151
          },
          {
            "name": "C2",
            "midi": 36,
            "time": 140.99999999999918,
            "velocity": 0.7874015748031497,
            "duration": 0.06249999999997158
          },
          {
            "name": "A2",
            "midi": 45,
            "time": 141.01249999999916,
            "velocity": 0.7874015748031497,
            "duration": 0.24999999999997158
          },
          {
            "name": "E3",
            "midi": 52,
            "time": 141.0833333333325,
            "velocity": 0.47244094488188976,
            "duration": 0.25
          },
          {
            "name": "C#2",
            "midi": 37,
            "time": 141.12499999999915,
            "velocity": 0.7874015748031497,
            "duration": 0.0625
          },
          {
            "name": "D2",
            "midi": 38,
            "time": 141.12499999999915,
            "velocity": 0.7874015748031497,
            "duration": 0.0625
          },
          {
            "name": "A#2",
            "midi": 46,
            "time": 141.12499999999915,
            "velocity": 0.5275590551181102,
            "duration": 0.01666666666667993
          },
          {
            "name": "A#3",
            "midi": 58,
            "time": 141.2083333333325,
            "velocity": 0.7874015748031497,
            "duration": 0.25
          },
          {
            "name": "C#1",
            "midi": 25,
            "time": 141.24999999999915,
            "velocity": 0.7874015748031497,
            "duration": 0.25
          },
          {
            "name": "C5",
            "midi": 72,
            "time": 141.24999999999915,
            "velocity": 0.7874015748031497,
            "duration": 0.25
          },
          {
            "name": "C#2",
            "midi": 37,
            "time": 141.24999999999915,
            "velocity": 0.7874015748031497,
            "duration": 0.0625
          },
          {
            "name": "A2",
            "midi": 45,
            "time": 141.26249999999914,
            "velocity": 0.7874015748031497,
            "duration": 0.25
          },
          {
            "name": "C#4",
            "midi": 61,
            "time": 141.3333333333325,
            "velocity": 0.7874015748031497,
            "duration": 0.24999999999997158
          },
          {
            "name": "C2",
            "midi": 36,
            "time": 141.37499999999915,
            "velocity": 0.7874015748031497,
            "duration": 0.0625
          },
          {
            "name": "C#1",
            "midi": 25,
            "time": 141.49999999999915,
            "velocity": 0.7874015748031497,
            "duration": 0.24999999999997158
          },
          {
            "name": "A#4",
            "midi": 70,
            "time": 141.49999999999915,
            "velocity": 0.8031496062992126,
            "duration": 0.24999999999997158
          },
          {
            "name": "C#2",
            "midi": 37,
            "time": 141.49999999999915,
            "velocity": 0.7874015748031497,
            "duration": 0.06249999999997158
          },
          {
            "name": "G#2",
            "midi": 44,
            "time": 141.49999999999915,
            "velocity": 0.5275590551181102,
            "duration": 0.01666666666665151
          },
          {
            "name": "D2",
            "midi": 38,
            "time": 141.49999999999915,
            "velocity": 0.7874015748031497,
            "duration": 0.06249999999997158
          },
          {
            "name": "A2",
            "midi": 45,
            "time": 141.51249999999914,
            "velocity": 0.7874015748031497,
            "duration": 0.24999999999997158
          },
          {
            "name": "E3",
            "midi": 52,
            "time": 141.58333333333246,
            "velocity": 0.47244094488188976,
            "duration": 0.24999999999997158
          },
          {
            "name": "C#2",
            "midi": 37,
            "time": 141.62499999999912,
            "velocity": 0.7874015748031497,
            "duration": 0.0625
          },
          {
            "name": "A#3",
            "midi": 58,
            "time": 141.70833333333246,
            "velocity": 0.7874015748031497,
            "duration": 0.24999999999997158
          },
          {
            "name": "C#1",
            "midi": 25,
            "time": 141.74999999999912,
            "velocity": 0.7874015748031497,
            "duration": 0.24999999999997158
          },
          {
            "name": "A#4",
            "midi": 70,
            "time": 141.74999999999912,
            "velocity": 0.7874015748031497,
            "duration": 0.24999999999997158
          },
          {
            "name": "C#2",
            "midi": 37,
            "time": 141.74999999999912,
            "velocity": 0.7874015748031497,
            "duration": 0.06249999999997158
          },
          {
            "name": "C2",
            "midi": 36,
            "time": 141.74999999999912,
            "velocity": 0.7716535433070866,
            "duration": 0.06249999999997158
          },
          {
            "name": "A#2",
            "midi": 46,
            "time": 141.74999999999912,
            "velocity": 0.5275590551181102,
            "duration": 0.12499999999997158
          },
          {
            "name": "A2",
            "midi": 45,
            "time": 141.7624999999991,
            "velocity": 0.7874015748031497,
            "duration": 0.24999999999997158
          },
          {
            "name": "C#4",
            "midi": 61,
            "time": 141.83333333333243,
            "velocity": 0.7874015748031497,
            "duration": 0.24999999999997158
          },
          {
            "name": "C#3",
            "midi": 49,
            "time": 141.95833333333243,
            "velocity": 0.7874015748031497,
            "duration": 0.06249999999997158
          },
          {
            "name": "C1",
            "midi": 24,
            "time": 141.9999999999991,
            "velocity": 0.7874015748031497,
            "duration": 0.24999999999997158
          },
          {
            "name": "A4",
            "midi": 69,
            "time": 141.9999999999991,
            "velocity": 0.7874015748031497,
            "duration": 0.39999999999994884
          },
          {
            "name": "C4",
            "midi": 60,
            "time": 141.9999999999991,
            "velocity": 0.7874015748031497,
            "duration": 0.39999999999994884
          },
          {
            "name": "F4",
            "midi": 65,
            "time": 141.9999999999991,
            "velocity": 0.7874015748031497,
            "duration": 0.39999999999994884
          },
          {
            "name": "A#4",
            "midi": 70,
            "time": 141.9999999999991,
            "velocity": 0.7874015748031497,
            "duration": 0.24999999999997158
          },
          {
            "name": "C2",
            "midi": 36,
            "time": 141.9999999999991,
            "velocity": 0.7874015748031497,
            "duration": 0.06249999999997158
          },
          {
            "name": "C3",
            "midi": 48,
            "time": 141.9999999999991,
            "velocity": 0.7874015748031497,
            "duration": 1.799999999999784
          },
          {
            "name": "C3",
            "midi": 48,
            "time": 141.9999999999991,
            "velocity": 0.7874015748031497,
            "duration": 1.9999999999997726
          },
          {
            "name": "C2",
            "midi": 36,
            "time": 141.9999999999991,
            "velocity": 0.7716535433070866,
            "duration": 0.06249999999997158
          },
          {
            "name": "A#2",
            "midi": 46,
            "time": 141.9999999999991,
            "velocity": 0.5275590551181102,
            "duration": 0.12499999999997158
          },
          {
            "name": "F2",
            "midi": 41,
            "time": 142.01249999999908,
            "velocity": 0.7874015748031497,
            "duration": 0.24999999999997158
          },
          {
            "name": "C2",
            "midi": 36,
            "time": 142.12499999999906,
            "velocity": 0.7874015748031497,
            "duration": 0.0625
          },
          {
            "name": "C1",
            "midi": 24,
            "time": 142.24999999999906,
            "velocity": 0.7874015748031497,
            "duration": 0.24999999999997158
          },
          {
            "name": "C2",
            "midi": 36,
            "time": 142.24999999999906,
            "velocity": 0.7874015748031497,
            "duration": 0.06249999999997158
          },
          {
            "name": "A#2",
            "midi": 46,
            "time": 142.24999999999906,
            "velocity": 0.5275590551181102,
            "duration": 0.01666666666665151
          },
          {
            "name": "F2",
            "midi": 41,
            "time": 142.26249999999905,
            "velocity": 0.7874015748031497,
            "duration": 0.24999999999997158
          },
          {
            "name": "C2",
            "midi": 36,
            "time": 142.37499999999903,
            "velocity": 0.5511811023622047,
            "duration": 0.0625
          },
          {
            "name": "C1",
            "midi": 24,
            "time": 142.49999999999903,
            "velocity": 0.7874015748031497,
            "duration": 0.24999999999997158
          },
          {
            "name": "A4",
            "midi": 69,
            "time": 142.49999999999903,
            "velocity": 0.7874015748031497,
            "duration": 0.24999999999997158
          },
          {
            "name": "F4",
            "midi": 65,
            "time": 142.49999999999903,
            "velocity": 0.7874015748031497,
            "duration": 0.2999999999999545
          },
          {
            "name": "C4",
            "midi": 60,
            "time": 142.49999999999903,
            "velocity": 0.7874015748031497,
            "duration": 0.24999999999997158
          },
          {
            "name": "A4",
            "midi": 69,
            "time": 142.49999999999903,
            "velocity": 0.7874015748031497,
            "duration": 0.2999999999999545
          },
          {
            "name": "C2",
            "midi": 36,
            "time": 142.49999999999903,
            "velocity": 0.7874015748031497,
            "duration": 0.06249999999997158
          },
          {
            "name": "D2",
            "midi": 38,
            "time": 142.49999999999903,
            "velocity": 0.7874015748031497,
            "duration": 0.01666666666665151
          },
          {
            "name": "F#3",
            "midi": 54,
            "time": 142.49999999999903,
            "velocity": 0.7401574803149606,
            "duration": 0.008333333333325754
          },
          {
            "name": "A#2",
            "midi": 46,
            "time": 142.49999999999903,
            "velocity": 0.5275590551181102,
            "duration": 0.01666666666665151
          },
          {
            "name": "F2",
            "midi": 41,
            "time": 142.51249999999902,
            "velocity": 0.7874015748031497,
            "duration": 0.24999999999997158
          },
          {
            "name": "C2",
            "midi": 36,
            "time": 142.624999999999,
            "velocity": 0.7874015748031497,
            "duration": 0.0625
          },
          {
            "name": "C1",
            "midi": 24,
            "time": 142.749999999999,
            "velocity": 0.7874015748031497,
            "duration": 0.24999999999997158
          },
          {
            "name": "C2",
            "midi": 36,
            "time": 142.749999999999,
            "velocity": 0.7874015748031497,
            "duration": 0.06249999999997158
          },
          {
            "name": "A#2",
            "midi": 46,
            "time": 142.749999999999,
            "velocity": 0.5275590551181102,
            "duration": 0.01666666666665151
          },
          {
            "name": "F2",
            "midi": 41,
            "time": 142.762499999999,
            "velocity": 0.7874015748031497,
            "duration": 0.24999999999997158
          },
          {
            "name": "C1",
            "midi": 24,
            "time": 142.99999999999898,
            "velocity": 0.7874015748031497,
            "duration": 0.24999999999997158
          },
          {
            "name": "A4",
            "midi": 69,
            "time": 142.99999999999898,
            "velocity": 0.7874015748031497,
            "duration": 0.2999999999999545
          },
          {
            "name": "F4",
            "midi": 65,
            "time": 142.99999999999898,
            "velocity": 0.7874015748031497,
            "duration": 0.24999999999997158
          },
          {
            "name": "C3",
            "midi": 48,
            "time": 142.99999999999898,
            "velocity": 0.7874015748031497,
            "duration": 0.9999999999998863
          },
          {
            "name": "C4",
            "midi": 60,
            "time": 142.99999999999898,
            "velocity": 0.7874015748031497,
            "duration": 0.24999999999997158
          },
          {
            "name": "C2",
            "midi": 36,
            "time": 142.99999999999898,
            "velocity": 0.7874015748031497,
            "duration": 0.06249999999997158
          },
          {
            "name": "C2",
            "midi": 36,
            "time": 142.99999999999898,
            "velocity": 0.7716535433070866,
            "duration": 0.06249999999997158
          },
          {
            "name": "A#2",
            "midi": 46,
            "time": 142.99999999999898,
            "velocity": 0.5275590551181102,
            "duration": 0.01666666666665151
          },
          {
            "name": "F2",
            "midi": 41,
            "time": 143.01249999999897,
            "velocity": 0.7874015748031497,
            "duration": 0.24999999999997158
          },
          {
            "name": "C2",
            "midi": 36,
            "time": 143.12499999999895,
            "velocity": 0.7874015748031497,
            "duration": 0.0625
          },
          {
            "name": "C1",
            "midi": 24,
            "time": 143.24999999999895,
            "velocity": 0.7874015748031497,
            "duration": 0.24999999999997158
          },
          {
            "name": "F4",
            "midi": 65,
            "time": 143.24999999999895,
            "velocity": 0.7874015748031497,
            "duration": 0.5499999999999261
          },
          {
            "name": "D5",
            "midi": 74,
            "time": 143.24999999999895,
            "velocity": 0.7874015748031497,
            "duration": 0.24999999999997158
          },
          {
            "name": "D5",
            "midi": 74,
            "time": 143.24999999999895,
            "velocity": 0.7874015748031497,
            "duration": 0.2999999999999545
          },
          {
            "name": "C2",
            "midi": 36,
            "time": 143.24999999999895,
            "velocity": 0.7874015748031497,
            "duration": 0.06249999999997158
          },
          {
            "name": "A#2",
            "midi": 46,
            "time": 143.24999999999895,
            "velocity": 0.5275590551181102,
            "duration": 0.01666666666665151
          },
          {
            "name": "C2",
            "midi": 36,
            "time": 143.24999999999895,
            "velocity": 0.7716535433070866,
            "duration": 0.06249999999997158
          },
          {
            "name": "F2",
            "midi": 41,
            "time": 143.26249999999894,
            "velocity": 0.7874015748031497,
            "duration": 0.24999999999997158
          },
          {
            "name": "C1",
            "midi": 24,
            "time": 143.49999999999892,
            "velocity": 0.7874015748031497,
            "duration": 0.24999999999997158
          },
          {
            "name": "A#4",
            "midi": 70,
            "time": 143.49999999999892,
            "velocity": 0.7874015748031497,
            "duration": 0.24999999999997158
          },
          {
            "name": "A#4",
            "midi": 70,
            "time": 143.49999999999892,
            "velocity": 0.7874015748031497,
            "duration": 0.2999999999999545
          },
          {
            "name": "C2",
            "midi": 36,
            "time": 143.49999999999892,
            "velocity": 0.7874015748031497,
            "duration": 0.06249999999997158
          },
          {
            "name": "F#3",
            "midi": 54,
            "time": 143.49999999999892,
            "velocity": 0.7401574803149606,
            "duration": 0.008333333333325754
          },
          {
            "name": "A#2",
            "midi": 46,
            "time": 143.49999999999892,
            "velocity": 0.5275590551181102,
            "duration": 0.01666666666665151
          },
          {
            "name": "D2",
            "midi": 38,
            "time": 143.49999999999892,
            "velocity": 0.7874015748031497,
            "duration": 0.008333333333325754
          },
          {
            "name": "F2",
            "midi": 41,
            "time": 143.5124999999989,
            "velocity": 0.7874015748031497,
            "duration": 0.24999999999997158
          },
          {
            "name": "C2",
            "midi": 36,
            "time": 143.6249999999989,
            "velocity": 0.7874015748031497,
            "duration": 0.0625
          },
          {
            "name": "C1",
            "midi": 24,
            "time": 143.7499999999989,
            "velocity": 0.7874015748031497,
            "duration": 0.24999999999997158
          },
          {
            "name": "E4",
            "midi": 64,
            "time": 143.7499999999989,
            "velocity": 0.7874015748031497,
            "duration": 0.24999999999997158
          },
          {
            "name": "A4",
            "midi": 69,
            "time": 143.7499999999989,
            "velocity": 0.7874015748031497,
            "duration": 0.2999999999999545
          },
          {
            "name": "C2",
            "midi": 36,
            "time": 143.7499999999989,
            "velocity": 0.7874015748031497,
            "duration": 0.06249999999997158
          },
          {
            "name": "C2",
            "midi": 36,
            "time": 143.7499999999989,
            "velocity": 0.7716535433070866,
            "duration": 0.06249999999997158
          },
          {
            "name": "A#2",
            "midi": 46,
            "time": 143.7499999999989,
            "velocity": 0.5275590551181102,
            "duration": 0.01666666666665151
          },
          {
            "name": "F2",
            "midi": 41,
            "time": 143.76249999999888,
            "velocity": 0.7874015748031497,
            "duration": 0.24999999999997158
          },
          {
            "name": "A4",
            "midi": 69,
            "time": 143.79999999999887,
            "velocity": 0.7874015748031497,
            "duration": 0.24999999999997158
          },
          {
            "name": "C3",
            "midi": 48,
            "time": 143.9583333333322,
            "velocity": 0.7874015748031497,
            "duration": 0.06249999999997158
          },
          {
            "name": "G1",
            "midi": 31,
            "time": 143.99999999999886,
            "velocity": 0.7874015748031497,
            "duration": 0.24999999999997158
          },
          {
            "name": "D4",
            "midi": 62,
            "time": 143.99999999999886,
            "velocity": 0.7874015748031497,
            "duration": 1.1999999999998465
          },
          {
            "name": "G4",
            "midi": 67,
            "time": 143.99999999999886,
            "velocity": 0.7874015748031497,
            "duration": 0.24999999999997158
          },
          {
            "name": "G4",
            "midi": 67,
            "time": 143.99999999999886,
            "velocity": 0.7874015748031497,
            "duration": 0.9999999999998863
          },
          {
            "name": "G2",
            "midi": 43,
            "time": 143.99999999999886,
            "velocity": 0.7874015748031497,
            "duration": 0.06249999999997158
          },
          {
            "name": "G3",
            "midi": 55,
            "time": 143.99999999999886,
            "velocity": 0.7874015748031497,
            "duration": 0.7999999999998977
          },
          {
            "name": "G3",
            "midi": 55,
            "time": 143.99999999999886,
            "velocity": 0.7874015748031497,
            "duration": 1.799999999999784
          },
          {
            "name": "C2",
            "midi": 36,
            "time": 143.99999999999886,
            "velocity": 0.7716535433070866,
            "duration": 0.06249999999997158
          },
          {
            "name": "C#3",
            "midi": 49,
            "time": 143.99999999999886,
            "velocity": 0.7716535433070866,
            "duration": 0.12499999999997158
          },
          {
            "name": "B2",
            "midi": 47,
            "time": 144.01249999999885,
            "velocity": 0.7874015748031497,
            "duration": 0.24999999999997158
          },
          {
            "name": "G2",
            "midi": 43,
            "time": 144.12499999999883,
            "velocity": 0.7874015748031497,
            "duration": 0.0625
          },
          {
            "name": "G1",
            "midi": 31,
            "time": 144.24999999999883,
            "velocity": 0.7874015748031497,
            "duration": 0.24999999999997158
          },
          {
            "name": "D3",
            "midi": 50,
            "time": 144.24999999999883,
            "velocity": 0.6299212598425197,
            "duration": 0.2999999999999545
          },
          {
            "name": "G2",
            "midi": 43,
            "time": 144.24999999999883,
            "velocity": 0.7874015748031497,
            "duration": 0.06249999999997158
          },
          {
            "name": "A#2",
            "midi": 46,
            "time": 144.24999999999883,
            "velocity": 0.5275590551181102,
            "duration": 0.01666666666665151
          },
          {
            "name": "B2",
            "midi": 47,
            "time": 144.26249999999882,
            "velocity": 0.7874015748031497,
            "duration": 0.24999999999997158
          },
          {
            "name": "C2",
            "midi": 36,
            "time": 144.3749999999988,
            "velocity": 0.5511811023622047,
            "duration": 0.0625
          },
          {
            "name": "G1",
            "midi": 31,
            "time": 144.4999999999988,
            "velocity": 0.7874015748031497,
            "duration": 0.24999999999997158
          },
          {
            "name": "G3",
            "midi": 55,
            "time": 144.4999999999988,
            "velocity": 0.6299212598425197,
            "duration": 1.4791666666664867
          },
          {
            "name": "G2",
            "midi": 43,
            "time": 144.4999999999988,
            "velocity": 0.7874015748031497,
            "duration": 0.06249999999997158
          },
          {
            "name": "D2",
            "midi": 38,
            "time": 144.4999999999988,
            "velocity": 0.7874015748031497,
            "duration": 0.01666666666665151
          },
          {
            "name": "F#3",
            "midi": 54,
            "time": 144.4999999999988,
            "velocity": 0.7401574803149606,
            "duration": 0.008333333333325754
          },
          {
            "name": "A#2",
            "midi": 46,
            "time": 144.4999999999988,
            "velocity": 0.5275590551181102,
            "duration": 0.01666666666665151
          },
          {
            "name": "B2",
            "midi": 47,
            "time": 144.5124999999988,
            "velocity": 0.7874015748031497,
            "duration": 0.24999999999997158
          },
          {
            "name": "G2",
            "midi": 43,
            "time": 144.62499999999878,
            "velocity": 0.7874015748031497,
            "duration": 0.0625
          },
          {
            "name": "G1",
            "midi": 31,
            "time": 144.74999999999878,
            "velocity": 0.7874015748031497,
            "duration": 0.24999999999997158
          },
          {
            "name": "G2",
            "midi": 43,
            "time": 144.74999999999878,
            "velocity": 0.7874015748031497,
            "duration": 0.06249999999997158
          },
          {
            "name": "A#2",
            "midi": 46,
            "time": 144.74999999999878,
            "velocity": 0.5275590551181102,
            "duration": 0.01666666666665151
          },
          {
            "name": "B2",
            "midi": 47,
            "time": 144.76249999999877,
            "velocity": 0.7874015748031497,
            "duration": 0.24999999999997158
          },
          {
            "name": "G1",
            "midi": 31,
            "time": 144.99999999999875,
            "velocity": 0.7874015748031497,
            "duration": 0.24999999999997158
          },
          {
            "name": "A4",
            "midi": 69,
            "time": 144.99999999999875,
            "velocity": 0.7874015748031497,
            "duration": 0.1999999999999602
          },
          {
            "name": "A4",
            "midi": 69,
            "time": 144.99999999999875,
            "velocity": 0.7874015748031497,
            "duration": 0.24999999999997158
          },
          {
            "name": "G2",
            "midi": 43,
            "time": 144.99999999999875,
            "velocity": 0.7874015748031497,
            "duration": 0.06249999999997158
          },
          {
            "name": "C2",
            "midi": 36,
            "time": 144.99999999999875,
            "velocity": 0.7716535433070866,
            "duration": 0.06249999999997158
          },
          {
            "name": "A#2",
            "midi": 46,
            "time": 144.99999999999875,
            "velocity": 0.5275590551181102,
            "duration": 0.01666666666665151
          },
          {
            "name": "B2",
            "midi": 47,
            "time": 145.01249999999874,
            "velocity": 0.7874015748031497,
            "duration": 0.24999999999997158
          },
          {
            "name": "G4",
            "midi": 67,
            "time": 145.12499999999872,
            "velocity": 0.7874015748031497,
            "duration": 0.3249999999999602
          },
          {
            "name": "G2",
            "midi": 43,
            "time": 145.12499999999872,
            "velocity": 0.7874015748031497,
            "duration": 0.0625
          },
          {
            "name": "G4",
            "midi": 67,
            "time": 145.1999999999987,
            "velocity": 0.7874015748031497,
            "duration": 0.39999999999994884
          },
          {
            "name": "G1",
            "midi": 31,
            "time": 145.24999999999872,
            "velocity": 0.7874015748031497,
            "duration": 0.24999999999997158
          },
          {
            "name": "F4",
            "midi": 65,
            "time": 145.24999999999872,
            "velocity": 0.7874015748031497,
            "duration": 0.4499999999999318
          },
          {
            "name": "G2",
            "midi": 43,
            "time": 145.24999999999872,
            "velocity": 0.7874015748031497,
            "duration": 0.06249999999997158
          },
          {
            "name": "A#2",
            "midi": 46,
            "time": 145.24999999999872,
            "velocity": 0.5275590551181102,
            "duration": 0.01666666666665151
          },
          {
            "name": "C2",
            "midi": 36,
            "time": 145.24999999999872,
            "velocity": 0.7716535433070866,
            "duration": 0.06249999999997158
          },
          {
            "name": "B2",
            "midi": 47,
            "time": 145.2624999999987,
            "velocity": 0.7874015748031497,
            "duration": 0.24999999999997158
          },
          {
            "name": "F4",
            "midi": 65,
            "time": 145.44999999999868,
            "velocity": 0.7874015748031497,
            "duration": 0.3499999999999659
          },
          {
            "name": "G1",
            "midi": 31,
            "time": 145.4999999999987,
            "velocity": 0.7874015748031497,
            "duration": 0.24999999999997158
          },
          {
            "name": "D4",
            "midi": 62,
            "time": 145.4999999999987,
            "velocity": 0.7874015748031497,
            "duration": 0.49999999999994316
          },
          {
            "name": "G2",
            "midi": 43,
            "time": 145.4999999999987,
            "velocity": 0.7874015748031497,
            "duration": 0.06249999999997158
          },
          {
            "name": "F#3",
            "midi": 54,
            "time": 145.4999999999987,
            "velocity": 0.7401574803149606,
            "duration": 0.008333333333325754
          },
          {
            "name": "A#2",
            "midi": 46,
            "time": 145.4999999999987,
            "velocity": 0.5275590551181102,
            "duration": 0.01666666666665151
          },
          {
            "name": "D2",
            "midi": 38,
            "time": 145.4999999999987,
            "velocity": 0.7874015748031497,
            "duration": 0.008333333333325754
          },
          {
            "name": "B2",
            "midi": 47,
            "time": 145.51249999999868,
            "velocity": 0.7874015748031497,
            "duration": 0.24999999999997158
          },
          {
            "name": "G2",
            "midi": 43,
            "time": 145.62499999999866,
            "velocity": 0.7874015748031497,
            "duration": 0.0625
          },
          {
            "name": "D4",
            "midi": 62,
            "time": 145.69999999999865,
            "velocity": 0.7874015748031497,
            "duration": 0.29999999999998295
          },
          {
            "name": "G1",
            "midi": 31,
            "time": 145.74999999999866,
            "velocity": 0.7874015748031497,
            "duration": 0.24999999999997158
          },
          {
            "name": "G2",
            "midi": 43,
            "time": 145.74999999999866,
            "velocity": 0.7874015748031497,
            "duration": 0.06249999999997158
          },
          {
            "name": "C2",
            "midi": 36,
            "time": 145.74999999999866,
            "velocity": 0.7716535433070866,
            "duration": 0.06249999999997158
          },
          {
            "name": "A#2",
            "midi": 46,
            "time": 145.74999999999866,
            "velocity": 0.5275590551181102,
            "duration": 0.01666666666665151
          },
          {
            "name": "B2",
            "midi": 47,
            "time": 145.76249999999865,
            "velocity": 0.7874015748031497,
            "duration": 0.24999999999997158
          },
          {
            "name": "G3",
            "midi": 55,
            "time": 145.9166666666653,
            "velocity": 0.7874015748031497,
            "duration": 0.08333333333334281
          },
          {
            "name": "C1",
            "midi": 24,
            "time": 145.99999999999864,
            "velocity": 0.7874015748031497,
            "duration": 0.25
          },
          {
            "name": "D4",
            "midi": 62,
            "time": 145.99999999999864,
            "velocity": 0.7559055118110236,
            "duration": 0.39999999999997726
          },
          {
            "name": "A4",
            "midi": 69,
            "time": 145.99999999999864,
            "velocity": 0.8740157480314961,
            "duration": 0.5999999999999375
          },
          {
            "name": "G3",
            "midi": 55,
            "time": 145.99999999999864,
            "velocity": 0.7559055118110236,
            "duration": 0.39999999999997726
          },
          {
            "name": "A#3",
            "midi": 58,
            "time": 145.99999999999864,
            "velocity": 0.7559055118110236,
            "duration": 0.39999999999997726
          },
          {
            "name": "A4",
            "midi": 69,
            "time": 145.99999999999864,
            "velocity": 0.7874015748031497,
            "duration": 0.9999999999999147
          },
          {
            "name": "C2",
            "midi": 36,
            "time": 145.99999999999864,
            "velocity": 0.7874015748031497,
            "duration": 0.0625
          },
          {
            "name": "D3",
            "midi": 50,
            "time": 145.99999999999864,
            "velocity": 0.7874015748031497,
            "duration": 1.7999999999998124
          },
          {
            "name": "F3",
            "midi": 53,
            "time": 145.99999999999864,
            "velocity": 0.7874015748031497,
            "duration": 0.9999999999999147
          },
          {
            "name": "A#2",
            "midi": 46,
            "time": 145.99999999999864,
            "velocity": 0.5275590551181102,
            "duration": 0.125
          },
          {
            "name": "C2",
            "midi": 36,
            "time": 145.99999999999864,
            "velocity": 0.7716535433070866,
            "duration": 0.0625
          },
          {
            "name": "G2",
            "midi": 43,
            "time": 146.01249999999862,
            "velocity": 0.7874015748031497,
            "duration": 0.25
          },
          {
            "name": "C2",
            "midi": 36,
            "time": 146.12499999999864,
            "velocity": 0.7874015748031497,
            "duration": 0.0625
          },
          {
            "name": "C1",
            "midi": 24,
            "time": 146.24999999999864,
            "velocity": 0.7874015748031497,
            "duration": 0.24999999999997158
          },
          {
            "name": "C2",
            "midi": 36,
            "time": 146.24999999999864,
            "velocity": 0.7874015748031497,
            "duration": 0.06249999999997158
          },
          {
            "name": "A#2",
            "midi": 46,
            "time": 146.24999999999864,
            "velocity": 0.5275590551181102,
            "duration": 0.01666666666665151
          },
          {
            "name": "G2",
            "midi": 43,
            "time": 146.26249999999862,
            "velocity": 0.7874015748031497,
            "duration": 0.24999999999997158
          },
          {
            "name": "C2",
            "midi": 36,
            "time": 146.3749999999986,
            "velocity": 0.7716535433070866,
            "duration": 0.0625
          },
          {
            "name": "C1",
            "midi": 24,
            "time": 146.4999999999986,
            "velocity": 0.7874015748031497,
            "duration": 0.24999999999997158
          },
          {
            "name": "A#3",
            "midi": 58,
            "time": 146.4999999999986,
            "velocity": 0.7559055118110236,
            "duration": 0.39999999999994884
          },
          {
            "name": "D4",
            "midi": 62,
            "time": 146.4999999999986,
            "velocity": 0.7559055118110236,
            "duration": 0.39999999999994884
          },
          {
            "name": "G3",
            "midi": 55,
            "time": 146.4999999999986,
            "velocity": 0.7559055118110236,
            "duration": 0.39999999999994884
          },
          {
            "name": "C2",
            "midi": 36,
            "time": 146.4999999999986,
            "velocity": 0.7874015748031497,
            "duration": 0.06249999999997158
          },
          {
            "name": "F#3",
            "midi": 54,
            "time": 146.4999999999986,
            "velocity": 0.7401574803149606,
            "duration": 0.008333333333325754
          },
          {
            "name": "D2",
            "midi": 38,
            "time": 146.4999999999986,
            "velocity": 0.7874015748031497,
            "duration": 0.01666666666665151
          },
          {
            "name": "A#2",
            "midi": 46,
            "time": 146.4999999999986,
            "velocity": 0.5275590551181102,
            "duration": 0.01666666666665151
          },
          {
            "name": "G2",
            "midi": 43,
            "time": 146.5124999999986,
            "velocity": 0.7874015748031497,
            "duration": 0.24999999999997158
          },
          {
            "name": "C2",
            "midi": 36,
            "time": 146.62499999999858,
            "velocity": 0.7874015748031497,
            "duration": 0.0625
          },
          {
            "name": "C1",
            "midi": 24,
            "time": 146.74999999999858,
            "velocity": 0.7874015748031497,
            "duration": 0.24999999999997158
          },
          {
            "name": "C2",
            "midi": 36,
            "time": 146.74999999999858,
            "velocity": 0.7874015748031497,
            "duration": 0.06249999999997158
          },
          {
            "name": "D2",
            "midi": 38,
            "time": 146.74999999999858,
            "velocity": 0.7874015748031497,
            "duration": 0.06249999999997158
          },
          {
            "name": "A#2",
            "midi": 46,
            "time": 146.74999999999858,
            "velocity": 0.5275590551181102,
            "duration": 0.01666666666665151
          },
          {
            "name": "G2",
            "midi": 43,
            "time": 146.76249999999857,
            "velocity": 0.7874015748031497,
            "duration": 0.24999999999997158
          },
          {
            "name": "C2",
            "midi": 36,
            "time": 146.99999999999855,
            "velocity": 0.7874015748031497,
            "duration": 0.06249999999997158
          },
          {
            "name": "A#3",
            "midi": 58,
            "time": 146.99999999999855,
            "velocity": 0.7559055118110236,
            "duration": 0.39999999999994884
          },
          {
            "name": "G3",
            "midi": 55,
            "time": 146.99999999999855,
            "velocity": 0.7559055118110236,
            "duration": 0.39999999999994884
          },
          {
            "name": "A#4",
            "midi": 70,
            "time": 146.99999999999855,
            "velocity": 0.8740157480314961,
            "duration": 0.9999999999998863
          },
          {
            "name": "D4",
            "midi": 62,
            "time": 146.99999999999855,
            "velocity": 0.7559055118110236,
            "duration": 0.39999999999994884
          },
          {
            "name": "G4",
            "midi": 67,
            "time": 146.99999999999855,
            "velocity": 0.7874015748031497,
            "duration": 0.2999999999999545
          },
          {
            "name": "C3",
            "midi": 48,
            "time": 146.99999999999855,
            "velocity": 0.7874015748031497,
            "duration": 0.9999999999998863
          },
          {
            "name": "G#2",
            "midi": 44,
            "time": 146.99999999999855,
            "velocity": 0.5275590551181102,
            "duration": 0.01666666666665151
          },
          {
            "name": "C2",
            "midi": 36,
            "time": 146.99999999999855,
            "velocity": 0.7874015748031497,
            "duration": 0.24999999999997158
          },
          {
            "name": "G2",
            "midi": 43,
            "time": 147.01249999999854,
            "velocity": 0.7874015748031497,
            "duration": 0.24999999999997158
          },
          {
            "name": "D2",
            "midi": 38,
            "time": 147.12499999999852,
            "velocity": 0.7874015748031497,
            "duration": 0.0625
          },
          {
            "name": "A#2",
            "midi": 46,
            "time": 147.12499999999852,
            "velocity": 0.5275590551181102,
            "duration": 0.01666666666667993
          },
          {
            "name": "C2",
            "midi": 36,
            "time": 147.24999999999852,
            "velocity": 0.7874015748031497,
            "duration": 0.18749999999997158
          },
          {
            "name": "G2",
            "midi": 43,
            "time": 147.2624999999985,
            "velocity": 0.7874015748031497,
            "duration": 0.24999999999997158
          },
          {
            "name": "C2",
            "midi": 36,
            "time": 147.3749999999985,
            "velocity": 0.7874015748031497,
            "duration": 0.125
          },
          {
            "name": "C2",
            "midi": 36,
            "time": 147.4999999999985,
            "velocity": 0.7874015748031497,
            "duration": 0.24999999999997158
          },
          {
            "name": "A#3",
            "midi": 58,
            "time": 147.4999999999985,
            "velocity": 0.7559055118110236,
            "duration": 0.39999999999994884
          },
          {
            "name": "D4",
            "midi": 62,
            "time": 147.4999999999985,
            "velocity": 0.7559055118110236,
            "duration": 0.39999999999994884
          },
          {
            "name": "G3",
            "midi": 55,
            "time": 147.4999999999985,
            "velocity": 0.7559055118110236,
            "duration": 0.39999999999994884
          },
          {
            "name": "A4",
            "midi": 69,
            "time": 147.4999999999985,
            "velocity": 0.7874015748031497,
            "duration": 0.24999999999997158
          },
          {
            "name": "G#2",
            "midi": 44,
            "time": 147.4999999999985,
            "velocity": 0.5275590551181102,
            "duration": 0.01666666666665151
          },
          {
            "name": "D2",
            "midi": 38,
            "time": 147.4999999999985,
            "velocity": 0.7874015748031497,
            "duration": 0.06249999999997158
          },
          {
            "name": "G2",
            "midi": 43,
            "time": 147.51249999999848,
            "velocity": 0.7874015748031497,
            "duration": 0.24999999999997158
          },
          {
            "name": "C2",
            "midi": 36,
            "time": 147.74999999999847,
            "velocity": 0.7874015748031497,
            "duration": 0.24999999999997158
          },
          {
            "name": "A#4",
            "midi": 70,
            "time": 147.74999999999847,
            "velocity": 0.7874015748031497,
            "duration": 0.24999999999997158
          },
          {
            "name": "A#2",
            "midi": 46,
            "time": 147.74999999999847,
            "velocity": 0.5275590551181102,
            "duration": 0.12499999999997158
          },
          {
            "name": "A2",
            "midi": 45,
            "time": 147.74999999999847,
            "velocity": 0.7716535433070866,
            "duration": 0.06249999999997158
          },
          {
            "name": "D2",
            "midi": 38,
            "time": 147.74999999999847,
            "velocity": 0.7874015748031497,
            "duration": 0.06249999999997158
          },
          {
            "name": "G2",
            "midi": 43,
            "time": 147.76249999999845,
            "velocity": 0.7874015748031497,
            "duration": 0.24999999999997158
          },
          {
            "name": "D3",
            "midi": 50,
            "time": 147.95833333333178,
            "velocity": 0.7874015748031497,
            "duration": 0.06249999999997158
          },
          {
            "name": "E1",
            "midi": 28,
            "time": 147.99999999999844,
            "velocity": 0.7874015748031497,
            "duration": 0.24999999999997158
          },
          {
            "name": "C5",
            "midi": 72,
            "time": 147.99999999999844,
            "velocity": 0.8031496062992126,
            "duration": 0.24999999999997158
          },
          {
            "name": "C5",
            "midi": 72,
            "time": 147.99999999999844,
            "velocity": 0.7874015748031497,
            "duration": 0.24999999999997158
          },
          {
            "name": "E2",
            "midi": 40,
            "time": 147.99999999999844,
            "velocity": 0.7874015748031497,
            "duration": 0.06249999999997158
          },
          {
            "name": "E3",
            "midi": 52,
            "time": 147.99999999999844,
            "velocity": 0.7874015748031497,
            "duration": 1.7999999999998124
          },
          {
            "name": "C4",
            "midi": 60,
            "time": 147.99999999999844,
            "velocity": 0.7874015748031497,
            "duration": 0.33333333333328596
          },
          {
            "name": "C2",
            "midi": 36,
            "time": 147.99999999999844,
            "velocity": 0.7716535433070866,
            "duration": 0.06249999999997158
          },
          {
            "name": "C#3",
            "midi": 49,
            "time": 147.99999999999844,
            "velocity": 0.7716535433070866,
            "duration": 0.12499999999997158
          },
          {
            "name": "C3",
            "midi": 48,
            "time": 148.01249999999843,
            "velocity": 0.7874015748031497,
            "duration": 0.24999999999997158
          },
          {
            "name": "C4",
            "midi": 60,
            "time": 148.08333333333175,
            "velocity": 0.7874015748031497,
            "duration": 0.7499999999999147
          },
          {
            "name": "E2",
            "midi": 40,
            "time": 148.1249999999984,
            "velocity": 0.7874015748031497,
            "duration": 0.0625
          },
          {
            "name": "E4",
            "midi": 64,
            "time": 148.20833333333175,
            "velocity": 0.7874015748031497,
            "duration": 0.24999999999997158
          },
          {
            "name": "E1",
            "midi": 28,
            "time": 148.2499999999984,
            "velocity": 0.7874015748031497,
            "duration": 0.24999999999997158
          },
          {
            "name": "E2",
            "midi": 40,
            "time": 148.2499999999984,
            "velocity": 0.7874015748031497,
            "duration": 0.06249999999997158
          },
          {
            "name": "A#2",
            "midi": 46,
            "time": 148.2499999999984,
            "velocity": 0.5275590551181102,
            "duration": 0.01666666666665151
          },
          {
            "name": "C3",
            "midi": 48,
            "time": 148.2624999999984,
            "velocity": 0.7874015748031497,
            "duration": 0.24999999999997158
          },
          {
            "name": "G4",
            "midi": 67,
            "time": 148.33333333333172,
            "velocity": 0.7874015748031497,
            "duration": 0.24999999999997158
          },
          {
            "name": "C2",
            "midi": 36,
            "time": 148.37499999999838,
            "velocity": 0.5511811023622047,
            "duration": 0.0625
          },
          {
            "name": "E1",
            "midi": 28,
            "time": 148.49999999999838,
            "velocity": 0.7874015748031497,
            "duration": 0.24999999999997158
          },
          {
            "name": "C5",
            "midi": 72,
            "time": 148.49999999999838,
            "velocity": 0.8031496062992126,
            "duration": 0.24999999999997158
          },
          {
            "name": "C5",
            "midi": 72,
            "time": 148.49999999999838,
            "velocity": 0.7874015748031497,
            "duration": 0.24999999999997158
          },
          {
            "name": "E2",
            "midi": 40,
            "time": 148.49999999999838,
            "velocity": 0.7874015748031497,
            "duration": 0.06249999999997158
          },
          {
            "name": "D2",
            "midi": 38,
            "time": 148.49999999999838,
            "velocity": 0.7874015748031497,
            "duration": 0.01666666666665151
          },
          {
            "name": "F#3",
            "midi": 54,
            "time": 148.49999999999838,
            "velocity": 0.7401574803149606,
            "duration": 0.008333333333325754
          },
          {
            "name": "A#2",
            "midi": 46,
            "time": 148.49999999999838,
            "velocity": 0.5275590551181102,
            "duration": 0.01666666666665151
          },
          {
            "name": "C3",
            "midi": 48,
            "time": 148.51249999999837,
            "velocity": 0.7874015748031497,
            "duration": 0.24999999999997158
          },
          {
            "name": "C4",
            "midi": 60,
            "time": 148.5833333333317,
            "velocity": 0.7874015748031497,
            "duration": 0.8999999999999204
          },
          {
            "name": "E2",
            "midi": 40,
            "time": 148.62499999999835,
            "velocity": 0.7874015748031497,
            "duration": 0.0625
          },
          {
            "name": "E4",
            "midi": 64,
            "time": 148.7083333333317,
            "velocity": 0.7874015748031497,
            "duration": 0.24999999999997158
          },
          {
            "name": "E1",
            "midi": 28,
            "time": 148.74999999999835,
            "velocity": 0.7874015748031497,
            "duration": 0.24999999999997158
          },
          {
            "name": "C5",
            "midi": 72,
            "time": 148.74999999999835,
            "velocity": 0.7874015748031497,
            "duration": 0.24999999999997158
          },
          {
            "name": "E2",
            "midi": 40,
            "time": 148.74999999999835,
            "velocity": 0.7874015748031497,
            "duration": 0.06249999999997158
          },
          {
            "name": "A#2",
            "midi": 46,
            "time": 148.74999999999835,
            "velocity": 0.5275590551181102,
            "duration": 0.01666666666665151
          },
          {
            "name": "C3",
            "midi": 48,
            "time": 148.76249999999834,
            "velocity": 0.7874015748031497,
            "duration": 0.24999999999997158
          },
          {
            "name": "G4",
            "midi": 67,
            "time": 148.83333333333167,
            "velocity": 0.7874015748031497,
            "duration": 0.24999999999997158
          },
          {
            "name": "E1",
            "midi": 28,
            "time": 148.99999999999832,
            "velocity": 0.7874015748031497,
            "duration": 0.24999999999997158
          },
          {
            "name": "C3",
            "midi": 48,
            "time": 148.99999999999832,
            "velocity": 0.7874015748031497,
            "duration": 0.2624999999999602
          },
          {
            "name": "C5",
            "midi": 72,
            "time": 148.99999999999832,
            "velocity": 0.8031496062992126,
            "duration": 0.24999999999997158
          },
          {
            "name": "C5",
            "midi": 72,
            "time": 148.99999999999832,
            "velocity": 0.7874015748031497,
            "duration": 0.24999999999997158
          },
          {
            "name": "E2",
            "midi": 40,
            "time": 148.99999999999832,
            "velocity": 0.7874015748031497,
            "duration": 0.06249999999997158
          },
          {
            "name": "C2",
            "midi": 36,
            "time": 148.99999999999832,
            "velocity": 0.7716535433070866,
            "duration": 0.06249999999997158
          },
          {
            "name": "A#2",
            "midi": 46,
            "time": 148.99999999999832,
            "velocity": 0.5275590551181102,
            "duration": 0.01666666666665151
          },
          {
            "name": "C3",
            "midi": 48,
            "time": 149.0124999999983,
            "velocity": 0.7874015748031497,
            "duration": 0.3874999999999602
          },
          {
            "name": "C4",
            "midi": 60,
            "time": 149.08333333333164,
            "velocity": 0.47244094488188976,
            "duration": 0.8999999999999488
          },
          {
            "name": "E2",
            "midi": 40,
            "time": 149.1249999999983,
            "velocity": 0.7874015748031497,
            "duration": 0.0625
          },
          {
            "name": "E4",
            "midi": 64,
            "time": 149.20833333333164,
            "velocity": 0.7874015748031497,
            "duration": 0.24999999999997158
          },
          {
            "name": "E1",
            "midi": 28,
            "time": 149.2499999999983,
            "velocity": 0.7874015748031497,
            "duration": 0.25
          },
          {
            "name": "A#4",
            "midi": 70,
            "time": 149.2499999999983,
            "velocity": 0.7874015748031497,
            "duration": 0.25
          },
          {
            "name": "E2",
            "midi": 40,
            "time": 149.2499999999983,
            "velocity": 0.7874015748031497,
            "duration": 0.06249999999997158
          },
          {
            "name": "A#2",
            "midi": 46,
            "time": 149.2499999999983,
            "velocity": 0.5275590551181102,
            "duration": 0.01666666666665151
          },
          {
            "name": "C2",
            "midi": 36,
            "time": 149.2499999999983,
            "velocity": 0.7716535433070866,
            "duration": 0.06249999999997158
          },
          {
            "name": "C3",
            "midi": 48,
            "time": 149.26249999999828,
            "velocity": 0.7874015748031497,
            "duration": 0.25
          },
          {
            "name": "G4",
            "midi": 67,
            "time": 149.3333333333316,
            "velocity": 0.7874015748031497,
            "duration": 0.25
          },
          {
            "name": "E1",
            "midi": 28,
            "time": 149.4999999999983,
            "velocity": 0.7874015748031497,
            "duration": 0.24999999999997158
          },
          {
            "name": "C5",
            "midi": 72,
            "time": 149.4999999999983,
            "velocity": 0.8031496062992126,
            "duration": 0.24999999999997158
          },
          {
            "name": "C3",
            "midi": 48,
            "time": 149.4999999999983,
            "velocity": 0.7874015748031497,
            "duration": 0.2624999999999602
          },
          {
            "name": "A4",
            "midi": 69,
            "time": 149.4999999999983,
            "velocity": 0.7874015748031497,
            "duration": 0.24999999999997158
          },
          {
            "name": "E2",
            "midi": 40,
            "time": 149.4999999999983,
            "velocity": 0.7874015748031497,
            "duration": 0.06249999999997158
          },
          {
            "name": "F#3",
            "midi": 54,
            "time": 149.4999999999983,
            "velocity": 0.7401574803149606,
            "duration": 0.008333333333325754
          },
          {
            "name": "A#2",
            "midi": 46,
            "time": 149.4999999999983,
            "velocity": 0.5275590551181102,
            "duration": 0.01666666666665151
          },
          {
            "name": "D2",
            "midi": 38,
            "time": 149.4999999999983,
            "velocity": 0.7874015748031497,
            "duration": 0.008333333333325754
          },
          {
            "name": "C3",
            "midi": 48,
            "time": 149.51249999999828,
            "velocity": 0.7874015748031497,
            "duration": 0.3874999999999602
          },
          {
            "name": "C4",
            "midi": 60,
            "time": 149.5833333333316,
            "velocity": 0.47244094488188976,
            "duration": 0.4166666666666572
          },
          {
            "name": "E2",
            "midi": 40,
            "time": 149.62499999999827,
            "velocity": 0.7874015748031497,
            "duration": 0.0625
          },
          {
            "name": "E4",
            "midi": 64,
            "time": 149.7083333333316,
            "velocity": 0.7874015748031497,
            "duration": 0.24999999999997158
          },
          {
            "name": "E1",
            "midi": 28,
            "time": 149.74999999999827,
            "velocity": 0.7874015748031497,
            "duration": 0.25
          },
          {
            "name": "C5",
            "midi": 72,
            "time": 149.74999999999827,
            "velocity": 0.7874015748031497,
            "duration": 0.25
          },
          {
            "name": "E2",
            "midi": 40,
            "time": 149.74999999999827,
            "velocity": 0.7874015748031497,
            "duration": 0.06249999999997158
          },
          {
            "name": "C2",
            "midi": 36,
            "time": 149.74999999999827,
            "velocity": 0.7716535433070866,
            "duration": 0.06249999999997158
          },
          {
            "name": "A#2",
            "midi": 46,
            "time": 149.74999999999827,
            "velocity": 0.5275590551181102,
            "duration": 0.01666666666665151
          },
          {
            "name": "C3",
            "midi": 48,
            "time": 149.76249999999825,
            "velocity": 0.7874015748031497,
            "duration": 0.25
          },
          {
            "name": "G4",
            "midi": 67,
            "time": 149.83333333333158,
            "velocity": 0.7874015748031497,
            "duration": 0.25
          },
          {
            "name": "E3",
            "midi": 52,
            "time": 149.95833333333158,
            "velocity": 0.7874015748031497,
            "duration": 0.0625
          },
          {
            "name": "D#1",
            "midi": 27,
            "time": 149.99999999999827,
            "velocity": 0.7874015748031497,
            "duration": 0.24999999999997158
          },
          {
            "name": "C5",
            "midi": 72,
            "time": 149.99999999999827,
            "velocity": 0.8031496062992126,
            "duration": 0.24999999999997158
          },
          {
            "name": "D#2",
            "midi": 39,
            "time": 149.99999999999827,
            "velocity": 0.7874015748031497,
            "duration": 0.06249999999997158
          },
          {
            "name": "D#3",
            "midi": 51,
            "time": 149.99999999999827,
            "velocity": 0.7874015748031497,
            "duration": 1.799999999999784
          },
          {
            "name": "D#3",
            "midi": 51,
            "time": 149.99999999999827,
            "velocity": 0.7874015748031497,
            "duration": 1.9999999999997726
          },
          {
            "name": "C2",
            "midi": 36,
            "time": 149.99999999999827,
            "velocity": 0.7716535433070866,
            "duration": 0.06249999999997158
          },
          {
            "name": "A#2",
            "midi": 46,
            "time": 149.99999999999827,
            "velocity": 0.5275590551181102,
            "duration": 0.12499999999997158
          },
          {
            "name": "C3",
            "midi": 48,
            "time": 150.01249999999825,
            "velocity": 0.7874015748031497,
            "duration": 0.24999999999997158
          },
          {
            "name": "C4",
            "midi": 60,
            "time": 150.08333333333158,
            "velocity": 0.7874015748031497,
            "duration": 0.24999999999997158
          },
          {
            "name": "D#2",
            "midi": 39,
            "time": 150.12499999999824,
            "velocity": 0.7874015748031497,
            "duration": 0.0625
          },
          {
            "name": "D#4",
            "midi": 63,
            "time": 150.20833333333158,
            "velocity": 0.7874015748031497,
            "duration": 0.24999999999997158
          },
          {
            "name": "D#1",
            "midi": 27,
            "time": 150.24999999999824,
            "velocity": 0.7874015748031497,
            "duration": 0.24999999999997158
          },
          {
            "name": "D#2",
            "midi": 39,
            "time": 150.24999999999824,
            "velocity": 0.7874015748031497,
            "duration": 0.06249999999997158
          },
          {
            "name": "A#2",
            "midi": 46,
            "time": 150.24999999999824,
            "velocity": 0.5275590551181102,
            "duration": 0.01666666666665151
          },
          {
            "name": "C3",
            "midi": 48,
            "time": 150.26249999999823,
            "velocity": 0.7874015748031497,
            "duration": 0.24999999999997158
          },
          {
            "name": "G4",
            "midi": 67,
            "time": 150.33333333333155,
            "velocity": 0.7874015748031497,
            "duration": 0.24999999999997158
          },
          {
            "name": "C2",
            "midi": 36,
            "time": 150.3749999999982,
            "velocity": 0.5511811023622047,
            "duration": 0.0625
          },
          {
            "name": "D#1",
            "midi": 27,
            "time": 150.4999999999982,
            "velocity": 0.7874015748031497,
            "duration": 0.24999999999997158
          },
          {
            "name": "C5",
            "midi": 72,
            "time": 150.4999999999982,
            "velocity": 0.8031496062992126,
            "duration": 0.24999999999997158
          },
          {
            "name": "D#2",
            "midi": 39,
            "time": 150.4999999999982,
            "velocity": 0.7874015748031497,
            "duration": 0.06249999999997158
          },
          {
            "name": "D2",
            "midi": 38,
            "time": 150.4999999999982,
            "velocity": 0.7874015748031497,
            "duration": 0.01666666666665151
          },
          {
            "name": "F#3",
            "midi": 54,
            "time": 150.4999999999982,
            "velocity": 0.7401574803149606,
            "duration": 0.008333333333325754
          },
          {
            "name": "A#2",
            "midi": 46,
            "time": 150.4999999999982,
            "velocity": 0.5275590551181102,
            "duration": 0.01666666666665151
          },
          {
            "name": "C3",
            "midi": 48,
            "time": 150.5124999999982,
            "velocity": 0.7874015748031497,
            "duration": 0.24999999999997158
          },
          {
            "name": "C4",
            "midi": 60,
            "time": 150.58333333333152,
            "velocity": 0.7874015748031497,
            "duration": 0.24999999999997158
          },
          {
            "name": "D#2",
            "midi": 39,
            "time": 150.62499999999818,
            "velocity": 0.7874015748031497,
            "duration": 0.0625
          },
          {
            "name": "D#4",
            "midi": 63,
            "time": 150.70833333333152,
            "velocity": 0.7874015748031497,
            "duration": 0.24999999999997158
          },
          {
            "name": "D#1",
            "midi": 27,
            "time": 150.74999999999818,
            "velocity": 0.7874015748031497,
            "duration": 0.24999999999997158
          },
          {
            "name": "D#2",
            "midi": 39,
            "time": 150.74999999999818,
            "velocity": 0.7874015748031497,
            "duration": 0.06249999999997158
          },
          {
            "name": "A#2",
            "midi": 46,
            "time": 150.74999999999818,
            "velocity": 0.5275590551181102,
            "duration": 0.01666666666665151
          },
          {
            "name": "C3",
            "midi": 48,
            "time": 150.76249999999817,
            "velocity": 0.7874015748031497,
            "duration": 0.24999999999997158
          },
          {
            "name": "G4",
            "midi": 67,
            "time": 150.8333333333315,
            "velocity": 0.7874015748031497,
            "duration": 0.24999999999997158
          },
          {
            "name": "D#1",
            "midi": 27,
            "time": 150.99999999999815,
            "velocity": 0.7874015748031497,
            "duration": 0.24999999999997158
          },
          {
            "name": "C5",
            "midi": 72,
            "time": 150.99999999999815,
            "velocity": 0.8031496062992126,
            "duration": 0.24999999999997158
          },
          {
            "name": "D#3",
            "midi": 51,
            "time": 150.99999999999815,
            "velocity": 0.47244094488188976,
            "duration": 0.9999999999998863
          },
          {
            "name": "D#5",
            "midi": 75,
            "time": 150.99999999999815,
            "velocity": 0.7874015748031497,
            "duration": 0.24999999999997158
          },
          {
            "name": "D#2",
            "midi": 39,
            "time": 150.99999999999815,
            "velocity": 0.7874015748031497,
            "duration": 0.06249999999997158
          },
          {
            "name": "C2",
            "midi": 36,
            "time": 150.99999999999815,
            "velocity": 0.7716535433070866,
            "duration": 0.06249999999997158
          },
          {
            "name": "A#2",
            "midi": 46,
            "time": 150.99999999999815,
            "velocity": 0.5275590551181102,
            "duration": 0.01666666666665151
          },
          {
            "name": "C3",
            "midi": 48,
            "time": 151.01249999999814,
            "velocity": 0.7874015748031497,
            "duration": 0.24999999999997158
          },
          {
            "name": "C4",
            "midi": 60,
            "time": 151.08333333333147,
            "velocity": 0.47244094488188976,
            "duration": 0.24999999999997158
          },
          {
            "name": "D#2",
            "midi": 39,
            "time": 151.12499999999812,
            "velocity": 0.7874015748031497,
            "duration": 0.0625
          },
          {
            "name": "D2",
            "midi": 38,
            "time": 151.12499999999812,
            "velocity": 0.7716535433070866,
            "duration": 0.0625
          },
          {
            "name": "D#4",
            "midi": 63,
            "time": 151.20833333333147,
            "velocity": 0.7874015748031497,
            "duration": 0.24999999999997158
          },
          {
            "name": "D#1",
            "midi": 27,
            "time": 151.24999999999812,
            "velocity": 0.7874015748031497,
            "duration": 0.24999999999997158
          },
          {
            "name": "D5",
            "midi": 74,
            "time": 151.24999999999812,
            "velocity": 0.7874015748031497,
            "duration": 0.24999999999997158
          },
          {
            "name": "D#2",
            "midi": 39,
            "time": 151.24999999999812,
            "velocity": 0.7874015748031497,
            "duration": 0.06249999999997158
          },
          {
            "name": "A#2",
            "midi": 46,
            "time": 151.24999999999812,
            "velocity": 0.5275590551181102,
            "duration": 0.01666666666665151
          },
          {
            "name": "C3",
            "midi": 48,
            "time": 151.2624999999981,
            "velocity": 0.7874015748031497,
            "duration": 0.24999999999997158
          },
          {
            "name": "G4",
            "midi": 67,
            "time": 151.33333333333144,
            "velocity": 0.7874015748031497,
            "duration": 0.24999999999997158
          },
          {
            "name": "C2",
            "midi": 36,
            "time": 151.3749999999981,
            "velocity": 0.7716535433070866,
            "duration": 0.0625
          },
          {
            "name": "D#1",
            "midi": 27,
            "time": 151.4999999999981,
            "velocity": 0.7874015748031497,
            "duration": 0.24999999999997158
          },
          {
            "name": "C5",
            "midi": 72,
            "time": 151.4999999999981,
            "velocity": 0.8031496062992126,
            "duration": 0.24999999999997158
          },
          {
            "name": "A4",
            "midi": 69,
            "time": 151.4999999999981,
            "velocity": 0.7874015748031497,
            "duration": 0.24999999999997158
          },
          {
            "name": "D#2",
            "midi": 39,
            "time": 151.4999999999981,
            "velocity": 0.7874015748031497,
            "duration": 0.06249999999997158
          },
          {
            "name": "A#2",
            "midi": 46,
            "time": 151.4999999999981,
            "velocity": 0.5275590551181102,
            "duration": 0.01666666666665151
          },
          {
            "name": "D2",
            "midi": 38,
            "time": 151.4999999999981,
            "velocity": 0.7874015748031497,
            "duration": 0.008333333333325754
          },
          {
            "name": "F#3",
            "midi": 54,
            "time": 151.4999999999981,
            "velocity": 0.7401574803149606,
            "duration": 0.008333333333325754
          },
          {
            "name": "C3",
            "midi": 48,
            "time": 151.51249999999808,
            "velocity": 0.7874015748031497,
            "duration": 0.24999999999997158
          },
          {
            "name": "C4",
            "midi": 60,
            "time": 151.5833333333314,
            "velocity": 0.47244094488188976,
            "duration": 0.24999999999997158
          },
          {
            "name": "D#2",
            "midi": 39,
            "time": 151.62499999999807,
            "velocity": 0.7874015748031497,
            "duration": 0.0625
          },
          {
            "name": "D#4",
            "midi": 63,
            "time": 151.7083333333314,
            "velocity": 0.7874015748031497,
            "duration": 0.24999999999997158
          },
          {
            "name": "D#1",
            "midi": 27,
            "time": 151.74999999999807,
            "velocity": 0.7874015748031497,
            "duration": 0.24999999999997158
          },
          {
            "name": "D#2",
            "midi": 39,
            "time": 151.74999999999807,
            "velocity": 0.7874015748031497,
            "duration": 0.06249999999997158
          },
          {
            "name": "A#2",
            "midi": 46,
            "time": 151.74999999999807,
            "velocity": 0.5275590551181102,
            "duration": 0.01666666666665151
          },
          {
            "name": "C2",
            "midi": 36,
            "time": 151.74999999999807,
            "velocity": 0.7716535433070866,
            "duration": 0.06249999999997158
          },
          {
            "name": "C3",
            "midi": 48,
            "time": 151.76249999999806,
            "velocity": 0.7874015748031497,
            "duration": 0.24999999999997158
          },
          {
            "name": "C5",
            "midi": 72,
            "time": 151.79999999999805,
            "velocity": 0.7874015748031497,
            "duration": 0.24999999999997158
          },
          {
            "name": "G4",
            "midi": 67,
            "time": 151.83333333333138,
            "velocity": 0.7874015748031497,
            "duration": 0.24999999999997158
          },
          {
            "name": "D#3",
            "midi": 51,
            "time": 151.95833333333138,
            "velocity": 0.7874015748031497,
            "duration": 0.06249999999997158
          },
          {
            "name": "D1",
            "midi": 26,
            "time": 151.99999999999804,
            "velocity": 0.7874015748031497,
            "duration": 0.24999999999997158
          },
          {
            "name": "A#4",
            "midi": 70,
            "time": 151.99999999999804,
            "velocity": 0.8031496062992126,
            "duration": 0.24999999999997158
          },
          {
            "name": "A#4",
            "midi": 70,
            "time": 151.99999999999804,
            "velocity": 0.7874015748031497,
            "duration": 0.24999999999997158
          },
          {
            "name": "D2",
            "midi": 38,
            "time": 151.99999999999804,
            "velocity": 0.7874015748031497,
            "duration": 0.06249999999997158
          },
          {
            "name": "D3",
            "midi": 50,
            "time": 151.99999999999804,
            "velocity": 0.7874015748031497,
            "duration": 1.799999999999784
          },
          {
            "name": "D3",
            "midi": 50,
            "time": 151.99999999999804,
            "velocity": 0.7874015748031497,
            "duration": 1.9999999999997726
          },
          {
            "name": "C2",
            "midi": 36,
            "time": 151.99999999999804,
            "velocity": 0.7716535433070866,
            "duration": 0.06249999999997158
          },
          {
            "name": "C#3",
            "midi": 49,
            "time": 151.99999999999804,
            "velocity": 0.5511811023622047,
            "duration": 0.12499999999997158
          },
          {
            "name": "A#2",
            "midi": 46,
            "time": 152.01249999999803,
            "velocity": 0.7874015748031497,
            "duration": 0.24999999999997158
          },
          {
            "name": "F3",
            "midi": 53,
            "time": 152.08333333333135,
            "velocity": 0.7874015748031497,
            "duration": 0.24999999999997158
          },
          {
            "name": "D2",
            "midi": 38,
            "time": 152.124999999998,
            "velocity": 0.7874015748031497,
            "duration": 0.0625
          },
          {
            "name": "A#3",
            "midi": 58,
            "time": 152.20833333333135,
            "velocity": 0.7874015748031497,
            "duration": 0.24999999999997158
          },
          {
            "name": "D1",
            "midi": 26,
            "time": 152.249999999998,
            "velocity": 0.7874015748031497,
            "duration": 0.24999999999997158
          },
          {
            "name": "A#4",
            "midi": 70,
            "time": 152.249999999998,
            "velocity": 0.7874015748031497,
            "duration": 0.24999999999997158
          },
          {
            "name": "D2",
            "midi": 38,
            "time": 152.249999999998,
            "velocity": 0.7874015748031497,
            "duration": 0.06249999999997158
          },
          {
            "name": "A#2",
            "midi": 46,
            "time": 152.249999999998,
            "velocity": 0.5275590551181102,
            "duration": 0.01666666666665151
          },
          {
            "name": "A#2",
            "midi": 46,
            "time": 152.262499999998,
            "velocity": 0.7874015748031497,
            "duration": 0.24999999999997158
          },
          {
            "name": "D4",
            "midi": 62,
            "time": 152.33333333333132,
            "velocity": 0.7874015748031497,
            "duration": 0.24999999999997158
          },
          {
            "name": "C2",
            "midi": 36,
            "time": 152.37499999999798,
            "velocity": 0.5511811023622047,
            "duration": 0.0625
          },
          {
            "name": "D1",
            "midi": 26,
            "time": 152.49999999999798,
            "velocity": 0.7874015748031497,
            "duration": 0.24999999999997158
          },
          {
            "name": "A#4",
            "midi": 70,
            "time": 152.49999999999798,
            "velocity": 0.8031496062992126,
            "duration": 0.24999999999997158
          },
          {
            "name": "D2",
            "midi": 38,
            "time": 152.49999999999798,
            "velocity": 0.7874015748031497,
            "duration": 0.01666666666665151
          },
          {
            "name": "D2",
            "midi": 38,
            "time": 152.49999999999798,
            "velocity": 0.7874015748031497,
            "duration": 0.06249999999997158
          },
          {
            "name": "F#3",
            "midi": 54,
            "time": 152.49999999999798,
            "velocity": 0.7401574803149606,
            "duration": 0.008333333333325754
          },
          {
            "name": "A#2",
            "midi": 46,
            "time": 152.49999999999798,
            "velocity": 0.5275590551181102,
            "duration": 0.01666666666665151
          },
          {
            "name": "A#2",
            "midi": 46,
            "time": 152.51249999999797,
            "velocity": 0.7874015748031497,
            "duration": 0.24999999999997158
          },
          {
            "name": "F3",
            "midi": 53,
            "time": 152.5833333333313,
            "velocity": 0.7874015748031497,
            "duration": 0.24999999999997158
          },
          {
            "name": "D2",
            "midi": 38,
            "time": 152.62499999999795,
            "velocity": 0.7874015748031497,
            "duration": 0.0625
          },
          {
            "name": "A#3",
            "midi": 58,
            "time": 152.7083333333313,
            "velocity": 0.7874015748031497,
            "duration": 0.24999999999997158
          },
          {
            "name": "D1",
            "midi": 26,
            "time": 152.74999999999795,
            "velocity": 0.7874015748031497,
            "duration": 0.24999999999997158
          },
          {
            "name": "D2",
            "midi": 38,
            "time": 152.74999999999795,
            "velocity": 0.7874015748031497,
            "duration": 0.06249999999997158
          },
          {
            "name": "A#2",
            "midi": 46,
            "time": 152.74999999999795,
            "velocity": 0.5275590551181102,
            "duration": 0.01666666666665151
          },
          {
            "name": "A#2",
            "midi": 46,
            "time": 152.76249999999794,
            "velocity": 0.7874015748031497,
            "duration": 0.24999999999997158
          },
          {
            "name": "D4",
            "midi": 62,
            "time": 152.83333333333127,
            "velocity": 0.7874015748031497,
            "duration": 0.24999999999997158
          },
          {
            "name": "D1",
            "midi": 26,
            "time": 152.99999999999793,
            "velocity": 0.7874015748031497,
            "duration": 0.24999999999997158
          },
          {
            "name": "A#4",
            "midi": 70,
            "time": 152.99999999999793,
            "velocity": 0.8031496062992126,
            "duration": 0.24999999999997158
          },
          {
            "name": "A#4",
            "midi": 70,
            "time": 152.99999999999793,
            "velocity": 0.7874015748031497,
            "duration": 0.24999999999997158
          },
          {
            "name": "D2",
            "midi": 38,
            "time": 152.99999999999793,
            "velocity": 0.7874015748031497,
            "duration": 0.06249999999997158
          },
          {
            "name": "C2",
            "midi": 36,
            "time": 152.99999999999793,
            "velocity": 0.7716535433070866,
            "duration": 0.06249999999997158
          },
          {
            "name": "A#2",
            "midi": 46,
            "time": 152.99999999999793,
            "velocity": 0.5275590551181102,
            "duration": 0.01666666666665151
          },
          {
            "name": "A#2",
            "midi": 46,
            "time": 153.0124999999979,
            "velocity": 0.7874015748031497,
            "duration": 0.24999999999997158
          },
          {
            "name": "F3",
            "midi": 53,
            "time": 153.08333333333124,
            "velocity": 0.47244094488188976,
            "duration": 0.24999999999997158
          },
          {
            "name": "D2",
            "midi": 38,
            "time": 153.1249999999979,
            "velocity": 0.7874015748031497,
            "duration": 0.0625
          },
          {
            "name": "A#3",
            "midi": 58,
            "time": 153.20833333333124,
            "velocity": 0.7874015748031497,
            "duration": 0.24999999999997158
          },
          {
            "name": "D1",
            "midi": 26,
            "time": 153.2499999999979,
            "velocity": 0.7874015748031497,
            "duration": 0.24999999999997158
          },
          {
            "name": "C5",
            "midi": 72,
            "time": 153.2499999999979,
            "velocity": 0.7874015748031497,
            "duration": 0.24999999999997158
          },
          {
            "name": "D2",
            "midi": 38,
            "time": 153.2499999999979,
            "velocity": 0.7874015748031497,
            "duration": 0.06249999999997158
          },
          {
            "name": "A#2",
            "midi": 46,
            "time": 153.2499999999979,
            "velocity": 0.5275590551181102,
            "duration": 0.01666666666665151
          },
          {
            "name": "C2",
            "midi": 36,
            "time": 153.2499999999979,
            "velocity": 0.7716535433070866,
            "duration": 0.06249999999997158
          },
          {
            "name": "A#2",
            "midi": 46,
            "time": 153.26249999999789,
            "velocity": 0.7874015748031497,
            "duration": 0.24999999999997158
          },
          {
            "name": "D4",
            "midi": 62,
            "time": 153.3333333333312,
            "velocity": 0.7874015748031497,
            "duration": 0.24999999999997158
          },
          {
            "name": "D1",
            "midi": 26,
            "time": 153.49999999999787,
            "velocity": 0.7874015748031497,
            "duration": 0.24999999999997158
          },
          {
            "name": "A#4",
            "midi": 70,
            "time": 153.49999999999787,
            "velocity": 0.8031496062992126,
            "duration": 0.24999999999997158
          },
          {
            "name": "A#4",
            "midi": 70,
            "time": 153.49999999999787,
            "velocity": 0.7874015748031497,
            "duration": 0.24999999999997158
          },
          {
            "name": "D2",
            "midi": 38,
            "time": 153.49999999999787,
            "velocity": 0.7874015748031497,
            "duration": 0.008333333333325754
          },
          {
            "name": "F#3",
            "midi": 54,
            "time": 153.49999999999787,
            "velocity": 0.7401574803149606,
            "duration": 0.008333333333325754
          },
          {
            "name": "A#2",
            "midi": 46,
            "time": 153.49999999999787,
            "velocity": 0.5275590551181102,
            "duration": 0.01666666666665151
          },
          {
            "name": "D2",
            "midi": 38,
            "time": 153.49999999999787,
            "velocity": 0.7874015748031497,
            "duration": 0.06249999999997158
          },
          {
            "name": "A#2",
            "midi": 46,
            "time": 153.51249999999786,
            "velocity": 0.7874015748031497,
            "duration": 0.24999999999997158
          },
          {
            "name": "F3",
            "midi": 53,
            "time": 153.58333333333118,
            "velocity": 0.47244094488188976,
            "duration": 0.24999999999997158
          },
          {
            "name": "D2",
            "midi": 38,
            "time": 153.62499999999784,
            "velocity": 0.7874015748031497,
            "duration": 0.0625
          },
          {
            "name": "C2",
            "midi": 36,
            "time": 153.62499999999784,
            "velocity": 0.7716535433070866,
            "duration": 0.0625
          },
          {
            "name": "A#3",
            "midi": 58,
            "time": 153.70833333333118,
            "velocity": 0.7874015748031497,
            "duration": 0.24999999999997158
          },
          {
            "name": "D1",
            "midi": 26,
            "time": 153.74999999999784,
            "velocity": 0.7874015748031497,
            "duration": 0.24999999999997158
          },
          {
            "name": "D2",
            "midi": 38,
            "time": 153.74999999999784,
            "velocity": 0.7874015748031497,
            "duration": 0.06249999999997158
          },
          {
            "name": "A#2",
            "midi": 46,
            "time": 153.74999999999784,
            "velocity": 0.5275590551181102,
            "duration": 0.01666666666665151
          },
          {
            "name": "A#2",
            "midi": 46,
            "time": 153.76249999999783,
            "velocity": 0.7874015748031497,
            "duration": 0.24999999999997158
          },
          {
            "name": "C#5",
            "midi": 73,
            "time": 153.79999999999782,
            "velocity": 0.7874015748031497,
            "duration": 0.24999999999997158
          },
          {
            "name": "D4",
            "midi": 62,
            "time": 153.83333333333115,
            "velocity": 0.7874015748031497,
            "duration": 0.24999999999997158
          },
          {
            "name": "D3",
            "midi": 50,
            "time": 153.95833333333115,
            "velocity": 0.7874015748031497,
            "duration": 0.06249999999997158
          },
          {
            "name": "C#1",
            "midi": 25,
            "time": 153.9999999999978,
            "velocity": 0.7874015748031497,
            "duration": 0.24999999999997158
          },
          {
            "name": "A#4",
            "midi": 70,
            "time": 153.9999999999978,
            "velocity": 0.8031496062992126,
            "duration": 0.24999999999997158
          },
          {
            "name": "C#2",
            "midi": 37,
            "time": 153.9999999999978,
            "velocity": 0.7874015748031497,
            "duration": 0.06249999999997158
          },
          {
            "name": "C#3",
            "midi": 49,
            "time": 153.9999999999978,
            "velocity": 0.7874015748031497,
            "duration": 1.7999999999998124
          },
          {
            "name": "C#3",
            "midi": 49,
            "time": 153.9999999999978,
            "velocity": 0.7874015748031497,
            "duration": 1.999999999999801
          },
          {
            "name": "A#2",
            "midi": 46,
            "time": 153.9999999999978,
            "velocity": 0.5275590551181102,
            "duration": 0.12499999999997158
          },
          {
            "name": "C2",
            "midi": 36,
            "time": 153.9999999999978,
            "velocity": 0.7716535433070866,
            "duration": 0.06249999999997158
          },
          {
            "name": "A2",
            "midi": 45,
            "time": 154.0124999999978,
            "velocity": 0.7874015748031497,
            "duration": 0.24999999999997158
          },
          {
            "name": "E3",
            "midi": 52,
            "time": 154.08333333333113,
            "velocity": 0.7874015748031497,
            "duration": 0.24999999999997158
          },
          {
            "name": "C#2",
            "midi": 37,
            "time": 154.12499999999778,
            "velocity": 0.7874015748031497,
            "duration": 0.0625
          },
          {
            "name": "A#3",
            "midi": 58,
            "time": 154.20833333333113,
            "velocity": 0.7874015748031497,
            "duration": 0.24999999999997158
          },
          {
            "name": "C#1",
            "midi": 25,
            "time": 154.24999999999778,
            "velocity": 0.7874015748031497,
            "duration": 0.24999999999997158
          },
          {
            "name": "C#2",
            "midi": 37,
            "time": 154.24999999999778,
            "velocity": 0.7874015748031497,
            "duration": 0.06249999999997158
          },
          {
            "name": "A#2",
            "midi": 46,
            "time": 154.24999999999778,
            "velocity": 0.5275590551181102,
            "duration": 0.01666666666665151
          },
          {
            "name": "A2",
            "midi": 45,
            "time": 154.26249999999777,
            "velocity": 0.7874015748031497,
            "duration": 0.24999999999997158
          },
          {
            "name": "C#4",
            "midi": 61,
            "time": 154.3333333333311,
            "velocity": 0.7874015748031497,
            "duration": 0.24999999999997158
          },
          {
            "name": "C2",
            "midi": 36,
            "time": 154.37499999999775,
            "velocity": 0.7716535433070866,
            "duration": 0.0625
          },
          {
            "name": "C#1",
            "midi": 25,
            "time": 154.49999999999775,
            "velocity": 0.7874015748031497,
            "duration": 0.24999999999997158
          },
          {
            "name": "A#4",
            "midi": 70,
            "time": 154.49999999999775,
            "velocity": 0.8031496062992126,
            "duration": 0.24999999999997158
          },
          {
            "name": "C#2",
            "midi": 37,
            "time": 154.49999999999775,
            "velocity": 0.7874015748031497,
            "duration": 0.06249999999997158
          },
          {
            "name": "F#3",
            "midi": 54,
            "time": 154.49999999999775,
            "velocity": 0.7401574803149606,
            "duration": 0.008333333333325754
          },
          {
            "name": "D2",
            "midi": 38,
            "time": 154.49999999999775,
            "velocity": 0.7874015748031497,
            "duration": 0.01666666666665151
          },
          {
            "name": "A#2",
            "midi": 46,
            "time": 154.49999999999775,
            "velocity": 0.5275590551181102,
            "duration": 0.01666666666665151
          },
          {
            "name": "A2",
            "midi": 45,
            "time": 154.51249999999774,
            "velocity": 0.7874015748031497,
            "duration": 0.24999999999997158
          },
          {
            "name": "E3",
            "midi": 52,
            "time": 154.58333333333107,
            "velocity": 0.7874015748031497,
            "duration": 0.24999999999997158
          },
          {
            "name": "C#2",
            "midi": 37,
            "time": 154.62499999999773,
            "velocity": 0.7874015748031497,
            "duration": 0.0625
          },
          {
            "name": "A#3",
            "midi": 58,
            "time": 154.70833333333107,
            "velocity": 0.7874015748031497,
            "duration": 0.24999999999997158
          },
          {
            "name": "C#1",
            "midi": 25,
            "time": 154.74999999999773,
            "velocity": 0.7874015748031497,
            "duration": 0.24999999999997158
          },
          {
            "name": "C#2",
            "midi": 37,
            "time": 154.74999999999773,
            "velocity": 0.7874015748031497,
            "duration": 0.06249999999997158
          },
          {
            "name": "D2",
            "midi": 38,
            "time": 154.74999999999773,
            "velocity": 0.7874015748031497,
            "duration": 0.06249999999997158
          },
          {
            "name": "A#2",
            "midi": 46,
            "time": 154.74999999999773,
            "velocity": 0.5275590551181102,
            "duration": 0.01666666666665151
          },
          {
            "name": "A2",
            "midi": 45,
            "time": 154.76249999999771,
            "velocity": 0.7874015748031497,
            "duration": 0.24999999999997158
          },
          {
            "name": "C#4",
            "midi": 61,
            "time": 154.83333333333104,
            "velocity": 0.7874015748031497,
            "duration": 0.24999999999997158
          },
          {
            "name": "C#1",
            "midi": 25,
            "time": 154.9999999999977,
            "velocity": 0.7874015748031497,
            "duration": 0.24999999999997158
          },
          {
            "name": "A#4",
            "midi": 70,
            "time": 154.9999999999977,
            "velocity": 0.8031496062992126,
            "duration": 0.24999999999997158
          },
          {
            "name": "C#5",
            "midi": 73,
            "time": 154.9999999999977,
            "velocity": 0.7874015748031497,
            "duration": 0.24999999999997158
          },
          {
            "name": "C#2",
            "midi": 37,
            "time": 154.9999999999977,
            "velocity": 0.7874015748031497,
            "duration": 0.06249999999997158
          },
          {
            "name": "G#2",
            "midi": 44,
            "time": 154.9999999999977,
            "velocity": 0.5275590551181102,
            "duration": 0.01666666666665151
          },
          {
            "name": "C2",
            "midi": 36,
            "time": 154.9999999999977,
            "velocity": 0.7874015748031497,
            "duration": 0.06249999999997158
          },
          {
            "name": "A2",
            "midi": 45,
            "time": 155.0124999999977,
            "velocity": 0.7874015748031497,
            "duration": 0.24999999999997158
          },
          {
            "name": "E3",
            "midi": 52,
            "time": 155.083333333331,
            "velocity": 0.47244094488188976,
            "duration": 0.25
          },
          {
            "name": "C#2",
            "midi": 37,
            "time": 155.12499999999767,
            "velocity": 0.7874015748031497,
            "duration": 0.0625
          },
          {
            "name": "A#2",
            "midi": 46,
            "time": 155.12499999999767,
            "velocity": 0.5275590551181102,
            "duration": 0.01666666666667993
          },
          {
            "name": "A#3",
            "midi": 58,
            "time": 155.208333333331,
            "velocity": 0.7874015748031497,
            "duration": 0.25
          },
          {
            "name": "C#1",
            "midi": 25,
            "time": 155.24999999999767,
            "velocity": 0.7874015748031497,
            "duration": 0.25
          },
          {
            "name": "C5",
            "midi": 72,
            "time": 155.24999999999767,
            "velocity": 0.7874015748031497,
            "duration": 0.25
          },
          {
            "name": "C#2",
            "midi": 37,
            "time": 155.24999999999767,
            "velocity": 0.7874015748031497,
            "duration": 0.0625
          },
          {
            "name": "D2",
            "midi": 38,
            "time": 155.24999999999767,
            "velocity": 0.7874015748031497,
            "duration": 0.0625
          },
          {
            "name": "A2",
            "midi": 45,
            "time": 155.26249999999766,
            "velocity": 0.7874015748031497,
            "duration": 0.25
          },
          {
            "name": "C#4",
            "midi": 61,
            "time": 155.333333333331,
            "velocity": 0.7874015748031497,
            "duration": 0.24999999999997158
          },
          {
            "name": "C2",
            "midi": 36,
            "time": 155.37499999999767,
            "velocity": 0.7874015748031497,
            "duration": 0.0625
          },
          {
            "name": "C#1",
            "midi": 25,
            "time": 155.49999999999767,
            "velocity": 0.7874015748031497,
            "duration": 0.24999999999997158
          },
          {
            "name": "A#4",
            "midi": 70,
            "time": 155.49999999999767,
            "velocity": 0.8031496062992126,
            "duration": 0.24999999999997158
          },
          {
            "name": "C#2",
            "midi": 37,
            "time": 155.49999999999767,
            "velocity": 0.7874015748031497,
            "duration": 0.06249999999997158
          },
          {
            "name": "G#2",
            "midi": 44,
            "time": 155.49999999999767,
            "velocity": 0.5275590551181102,
            "duration": 0.01666666666665151
          },
          {
            "name": "D2",
            "midi": 38,
            "time": 155.49999999999767,
            "velocity": 0.7874015748031497,
            "duration": 0.06249999999997158
          },
          {
            "name": "A2",
            "midi": 45,
            "time": 155.51249999999766,
            "velocity": 0.7874015748031497,
            "duration": 0.24999999999997158
          },
          {
            "name": "E3",
            "midi": 52,
            "time": 155.58333333333098,
            "velocity": 0.47244094488188976,
            "duration": 0.24999999999997158
          },
          {
            "name": "C#2",
            "midi": 37,
            "time": 155.62499999999764,
            "velocity": 0.7874015748031497,
            "duration": 0.0625
          },
          {
            "name": "C2",
            "midi": 36,
            "time": 155.62499999999764,
            "velocity": 0.7874015748031497,
            "duration": 0.0625
          },
          {
            "name": "A#3",
            "midi": 58,
            "time": 155.70833333333098,
            "velocity": 0.7874015748031497,
            "duration": 0.24999999999997158
          },
          {
            "name": "C#1",
            "midi": 25,
            "time": 155.74999999999764,
            "velocity": 0.7874015748031497,
            "duration": 0.24999999999997158
          },
          {
            "name": "A#4",
            "midi": 70,
            "time": 155.74999999999764,
            "velocity": 0.7874015748031497,
            "duration": 0.24999999999997158
          },
          {
            "name": "C#2",
            "midi": 37,
            "time": 155.74999999999764,
            "velocity": 0.7874015748031497,
            "duration": 0.06249999999997158
          },
          {
            "name": "D2",
            "midi": 38,
            "time": 155.74999999999764,
            "velocity": 0.7874015748031497,
            "duration": 0.06249999999997158
          },
          {
            "name": "A#2",
            "midi": 46,
            "time": 155.74999999999764,
            "velocity": 0.5275590551181102,
            "duration": 0.12499999999997158
          },
          {
            "name": "A2",
            "midi": 45,
            "time": 155.74999999999764,
            "velocity": 0.7716535433070866,
            "duration": 0.06249999999997158
          },
          {
            "name": "A2",
            "midi": 45,
            "time": 155.76249999999763,
            "velocity": 0.7874015748031497,
            "duration": 0.24999999999997158
          },
          {
            "name": "C#4",
            "midi": 61,
            "time": 155.83333333333096,
            "velocity": 0.7874015748031497,
            "duration": 0.24999999999997158
          },
          {
            "name": "C#3",
            "midi": 49,
            "time": 155.95833333333096,
            "velocity": 0.7874015748031497,
            "duration": 0.06249999999997158
          },
          {
            "name": "C1",
            "midi": 24,
            "time": 155.9999999999976,
            "velocity": 0.7874015748031497,
            "duration": 0.24999999999997158
          },
          {
            "name": "F4",
            "midi": 65,
            "time": 155.9999999999976,
            "velocity": 0.7874015748031497,
            "duration": 0.39999999999994884
          },
          {
            "name": "C4",
            "midi": 60,
            "time": 155.9999999999976,
            "velocity": 0.7874015748031497,
            "duration": 0.39999999999994884
          },
          {
            "name": "A4",
            "midi": 69,
            "time": 155.9999999999976,
            "velocity": 0.7874015748031497,
            "duration": 0.39999999999994884
          },
          {
            "name": "A#4",
            "midi": 70,
            "time": 155.9999999999976,
            "velocity": 0.7874015748031497,
            "duration": 0.24999999999997158
          },
          {
            "name": "C3",
            "midi": 48,
            "time": 155.9999999999976,
            "velocity": 0.7874015748031497,
            "duration": 0.06249999999997158
          },
          {
            "name": "C3",
            "midi": 48,
            "time": 155.9999999999976,
            "velocity": 0.7874015748031497,
            "duration": 0.18749999999997158
          },
          {
            "name": "C3",
            "midi": 48,
            "time": 155.9999999999976,
            "velocity": 0.7874015748031497,
            "duration": 0.31249999999994316
          },
          {
            "name": "A#2",
            "midi": 46,
            "time": 155.9999999999976,
            "velocity": 0.5275590551181102,
            "duration": 0.12499999999997158
          },
          {
            "name": "C2",
            "midi": 36,
            "time": 155.9999999999976,
            "velocity": 0.7716535433070866,
            "duration": 0.06249999999997158
          },
          {
            "name": "F2",
            "midi": 41,
            "time": 156.0124999999976,
            "velocity": 0.7874015748031497,
            "duration": 0.24999999999997158
          },
          {
            "name": "C3",
            "midi": 48,
            "time": 156.12499999999758,
            "velocity": 0.7874015748031497,
            "duration": 0.43749999999994316
          },
          {
            "name": "C1",
            "midi": 24,
            "time": 156.24999999999758,
            "velocity": 0.7874015748031497,
            "duration": 0.24999999999997158
          },
          {
            "name": "C3",
            "midi": 48,
            "time": 156.24999999999758,
            "velocity": 0.7874015748031497,
            "duration": 0.43749999999994316
          },
          {
            "name": "A#2",
            "midi": 46,
            "time": 156.24999999999758,
            "velocity": 0.5275590551181102,
            "duration": 0.01666666666665151
          },
          {
            "name": "F2",
            "midi": 41,
            "time": 156.26249999999757,
            "velocity": 0.7874015748031497,
            "duration": 0.24999999999997158
          },
          {
            "name": "C2",
            "midi": 36,
            "time": 156.37499999999756,
            "velocity": 0.7716535433070866,
            "duration": 0.0625
          },
          {
            "name": "C1",
            "midi": 24,
            "time": 156.49999999999756,
            "velocity": 0.7874015748031497,
            "duration": 0.24999999999997158
          },
          {
            "name": "A4",
            "midi": 69,
            "time": 156.49999999999756,
            "velocity": 0.7874015748031497,
            "duration": 0.24999999999997158
          },
          {
            "name": "F4",
            "midi": 65,
            "time": 156.49999999999756,
            "velocity": 0.7874015748031497,
            "duration": 0.2999999999999545
          },
          {
            "name": "C4",
            "midi": 60,
            "time": 156.49999999999756,
            "velocity": 0.7874015748031497,
            "duration": 0.24999999999997158
          },
          {
            "name": "A4",
            "midi": 69,
            "time": 156.49999999999756,
            "velocity": 0.7874015748031497,
            "duration": 0.2999999999999545
          },
          {
            "name": "C3",
            "midi": 48,
            "time": 156.49999999999756,
            "velocity": 0.7874015748031497,
            "duration": 0.31249999999994316
          },
          {
            "name": "F#3",
            "midi": 54,
            "time": 156.49999999999756,
            "velocity": 0.7401574803149606,
            "duration": 0.008333333333325754
          },
          {
            "name": "D2",
            "midi": 38,
            "time": 156.49999999999756,
            "velocity": 0.7874015748031497,
            "duration": 0.01666666666665151
          },
          {
            "name": "A#2",
            "midi": 46,
            "time": 156.49999999999756,
            "velocity": 0.5275590551181102,
            "duration": 0.01666666666665151
          },
          {
            "name": "F2",
            "midi": 41,
            "time": 156.51249999999754,
            "velocity": 0.7874015748031497,
            "duration": 0.24999999999997158
          },
          {
            "name": "C3",
            "midi": 48,
            "time": 156.62499999999753,
            "velocity": 0.7874015748031497,
            "duration": 0.43749999999994316
          },
          {
            "name": "C1",
            "midi": 24,
            "time": 156.74999999999753,
            "velocity": 0.7874015748031497,
            "duration": 0.24999999999997158
          },
          {
            "name": "C3",
            "midi": 48,
            "time": 156.74999999999753,
            "velocity": 0.7874015748031497,
            "duration": 0.43749999999994316
          },
          {
            "name": "A#2",
            "midi": 46,
            "time": 156.74999999999753,
            "velocity": 0.5275590551181102,
            "duration": 0.01666666666665151
          },
          {
            "name": "F2",
            "midi": 41,
            "time": 156.76249999999752,
            "velocity": 0.7874015748031497,
            "duration": 0.24999999999997158
          },
          {
            "name": "C1",
            "midi": 24,
            "time": 156.9999999999975,
            "velocity": 0.7874015748031497,
            "duration": 0.24999999999997158
          },
          {
            "name": "C4",
            "midi": 60,
            "time": 156.9999999999975,
            "velocity": 0.7874015748031497,
            "duration": 0.24999999999997158
          },
          {
            "name": "F4",
            "midi": 65,
            "time": 156.9999999999975,
            "velocity": 0.7874015748031497,
            "duration": 0.24999999999997158
          },
          {
            "name": "A4",
            "midi": 69,
            "time": 156.9999999999975,
            "velocity": 0.7874015748031497,
            "duration": 0.2999999999999545
          },
          {
            "name": "C3",
            "midi": 48,
            "time": 156.9999999999975,
            "velocity": 0.7874015748031497,
            "duration": 0.31249999999994316
          },
          {
            "name": "C3",
            "midi": 48,
            "time": 156.9999999999975,
            "velocity": 0.7874015748031497,
            "duration": 0.5624999999999147
          },
          {
            "name": "G#2",
            "midi": 44,
            "time": 156.9999999999975,
            "velocity": 0.5275590551181102,
            "duration": 0.01666666666665151
          },
          {
            "name": "C2",
            "midi": 36,
            "time": 156.9999999999975,
            "velocity": 0.7874015748031497,
            "duration": 0.06249999999997158
          },
          {
            "name": "F2",
            "midi": 41,
            "time": 157.0124999999975,
            "velocity": 0.7874015748031497,
            "duration": 0.24999999999997158
          },
          {
            "name": "C3",
            "midi": 48,
            "time": 157.12499999999747,
            "velocity": 0.7874015748031497,
            "duration": 0.5624999999999432
          },
          {
            "name": "D2",
            "midi": 38,
            "time": 157.12499999999747,
            "velocity": 0.7874015748031497,
            "duration": 0.0625
          },
          {
            "name": "A#2",
            "midi": 46,
            "time": 157.12499999999747,
            "velocity": 0.5275590551181102,
            "duration": 0.01666666666667993
          },
          {
            "name": "C1",
            "midi": 24,
            "time": 157.24999999999747,
            "velocity": 0.7874015748031497,
            "duration": 0.24999999999997158
          },
          {
            "name": "F4",
            "midi": 65,
            "time": 157.24999999999747,
            "velocity": 0.7874015748031497,
            "duration": 0.5499999999999261
          },
          {
            "name": "D5",
            "midi": 74,
            "time": 157.24999999999747,
            "velocity": 0.7874015748031497,
            "duration": 0.24999999999997158
          },
          {
            "name": "D5",
            "midi": 74,
            "time": 157.24999999999747,
            "velocity": 0.7874015748031497,
            "duration": 0.2999999999999545
          },
          {
            "name": "C3",
            "midi": 48,
            "time": 157.24999999999747,
            "velocity": 0.7874015748031497,
            "duration": 0.5499999999999261
          },
          {
            "name": "F2",
            "midi": 41,
            "time": 157.26249999999746,
            "velocity": 0.7874015748031497,
            "duration": 0.24999999999997158
          },
          {
            "name": "C2",
            "midi": 36,
            "time": 157.37499999999744,
            "velocity": 0.7874015748031497,
            "duration": 0.0625
          },
          {
            "name": "C1",
            "midi": 24,
            "time": 157.49999999999744,
            "velocity": 0.7874015748031497,
            "duration": 0.24999999999997158
          },
          {
            "name": "A#4",
            "midi": 70,
            "time": 157.49999999999744,
            "velocity": 0.7874015748031497,
            "duration": 0.24999999999997158
          },
          {
            "name": "A#4",
            "midi": 70,
            "time": 157.49999999999744,
            "velocity": 0.7874015748031497,
            "duration": 0.2999999999999545
          },
          {
            "name": "C3",
            "midi": 48,
            "time": 157.49999999999744,
            "velocity": 0.7874015748031497,
            "duration": 0.31249999999994316
          },
          {
            "name": "G#2",
            "midi": 44,
            "time": 157.49999999999744,
            "velocity": 0.5275590551181102,
            "duration": 0.01666666666665151
          },
          {
            "name": "D2",
            "midi": 38,
            "time": 157.49999999999744,
            "velocity": 0.7874015748031497,
            "duration": 0.06249999999997158
          },
          {
            "name": "F2",
            "midi": 41,
            "time": 157.51249999999743,
            "velocity": 0.7874015748031497,
            "duration": 0.24999999999997158
          },
          {
            "name": "C3",
            "midi": 48,
            "time": 157.6249999999974,
            "velocity": 0.7874015748031497,
            "duration": 0.3749999999999716
          },
          {
            "name": "C1",
            "midi": 24,
            "time": 157.7499999999974,
            "velocity": 0.7874015748031497,
            "duration": 0.24999999999997158
          },
          {
            "name": "E4",
            "midi": 64,
            "time": 157.7499999999974,
            "velocity": 0.7874015748031497,
            "duration": 0.24999999999997158
          },
          {
            "name": "A4",
            "midi": 69,
            "time": 157.7499999999974,
            "velocity": 0.7874015748031497,
            "duration": 0.2999999999999545
          },
          {
            "name": "C3",
            "midi": 48,
            "time": 157.7499999999974,
            "velocity": 0.7874015748031497,
            "duration": 0.24999999999997158
          },
          {
            "name": "A#2",
            "midi": 46,
            "time": 157.7499999999974,
            "velocity": 0.5275590551181102,
            "duration": 0.12499999999997158
          },
          {
            "name": "C2",
            "midi": 36,
            "time": 157.7499999999974,
            "velocity": 0.7874015748031497,
            "duration": 0.06249999999997158
          },
          {
            "name": "F2",
            "midi": 41,
            "time": 157.7624999999974,
            "velocity": 0.7874015748031497,
            "duration": 0.24999999999997158
          },
          {
            "name": "A4",
            "midi": 69,
            "time": 157.7999999999974,
            "velocity": 0.7874015748031497,
            "duration": 0.24999999999997158
          },
          {
            "name": "C3",
            "midi": 48,
            "time": 157.95833333333073,
            "velocity": 0.7874015748031497,
            "duration": 0.06249999999997158
          },
          {
            "name": "G1",
            "midi": 31,
            "time": 157.99999999999739,
            "velocity": 0.7874015748031497,
            "duration": 0.24999999999997158
          },
          {
            "name": "G4",
            "midi": 67,
            "time": 157.99999999999739,
            "velocity": 0.7874015748031497,
            "duration": 0.24999999999997158
          },
          {
            "name": "D4",
            "midi": 62,
            "time": 157.99999999999739,
            "velocity": 0.7874015748031497,
            "duration": 1.1999999999998465
          },
          {
            "name": "G4",
            "midi": 67,
            "time": 157.99999999999739,
            "velocity": 0.7874015748031497,
            "duration": 0.9999999999998863
          },
          {
            "name": "G2",
            "midi": 43,
            "time": 157.99999999999739,
            "velocity": 0.7874015748031497,
            "duration": 0.06249999999997158
          },
          {
            "name": "G3",
            "midi": 55,
            "time": 157.99999999999739,
            "velocity": 0.7874015748031497,
            "duration": 0.7999999999998977
          },
          {
            "name": "G3",
            "midi": 55,
            "time": 157.99999999999739,
            "velocity": 0.7874015748031497,
            "duration": 1.7999999999998124
          },
          {
            "name": "A#2",
            "midi": 46,
            "time": 157.99999999999739,
            "velocity": 0.5275590551181102,
            "duration": 0.12499999999997158
          },
          {
            "name": "C2",
            "midi": 36,
            "time": 157.99999999999739,
            "velocity": 0.7716535433070866,
            "duration": 0.06249999999997158
          },
          {
            "name": "B2",
            "midi": 47,
            "time": 158.01249999999737,
            "velocity": 0.7874015748031497,
            "duration": 0.24999999999997158
          },
          {
            "name": "G2",
            "midi": 43,
            "time": 158.12499999999736,
            "velocity": 0.7874015748031497,
            "duration": 0.0625
          },
          {
            "name": "G1",
            "midi": 31,
            "time": 158.24999999999736,
            "velocity": 0.7874015748031497,
            "duration": 0.24999999999997158
          },
          {
            "name": "D3",
            "midi": 50,
            "time": 158.24999999999736,
            "velocity": 0.6299212598425197,
            "duration": 0.2999999999999545
          },
          {
            "name": "G2",
            "midi": 43,
            "time": 158.24999999999736,
            "velocity": 0.7874015748031497,
            "duration": 0.06249999999997158
          },
          {
            "name": "A#2",
            "midi": 46,
            "time": 158.24999999999736,
            "velocity": 0.5275590551181102,
            "duration": 0.01666666666665151
          },
          {
            "name": "B2",
            "midi": 47,
            "time": 158.26249999999735,
            "velocity": 0.7874015748031497,
            "duration": 0.24999999999997158
          },
          {
            "name": "C2",
            "midi": 36,
            "time": 158.37499999999733,
            "velocity": 0.7716535433070866,
            "duration": 0.0625
          },
          {
            "name": "G1",
            "midi": 31,
            "time": 158.49999999999733,
            "velocity": 0.7874015748031497,
            "duration": 0.24999999999997158
          },
          {
            "name": "G3",
            "midi": 55,
            "time": 158.49999999999733,
            "velocity": 0.6299212598425197,
            "duration": 1.479166666666515
          },
          {
            "name": "G2",
            "midi": 43,
            "time": 158.49999999999733,
            "velocity": 0.7874015748031497,
            "duration": 0.06249999999997158
          },
          {
            "name": "D2",
            "midi": 38,
            "time": 158.49999999999733,
            "velocity": 0.7874015748031497,
            "duration": 0.01666666666665151
          },
          {
            "name": "A#2",
            "midi": 46,
            "time": 158.49999999999733,
            "velocity": 0.5275590551181102,
            "duration": 0.01666666666665151
          },
          {
            "name": "B2",
            "midi": 47,
            "time": 158.51249999999732,
            "velocity": 0.7874015748031497,
            "duration": 0.24999999999997158
          },
          {
            "name": "G2",
            "midi": 43,
            "time": 158.6249999999973,
            "velocity": 0.7874015748031497,
            "duration": 0.0625
          },
          {
            "name": "G1",
            "midi": 31,
            "time": 158.7499999999973,
            "velocity": 0.7874015748031497,
            "duration": 0.24999999999997158
          },
          {
            "name": "G2",
            "midi": 43,
            "time": 158.7499999999973,
            "velocity": 0.7874015748031497,
            "duration": 0.06249999999997158
          },
          {
            "name": "A#2",
            "midi": 46,
            "time": 158.7499999999973,
            "velocity": 0.5275590551181102,
            "duration": 0.01666666666665151
          },
          {
            "name": "B2",
            "midi": 47,
            "time": 158.7624999999973,
            "velocity": 0.7874015748031497,
            "duration": 0.24999999999997158
          },
          {
            "name": "G1",
            "midi": 31,
            "time": 158.99999999999727,
            "velocity": 0.7874015748031497,
            "duration": 0.24999999999997158
          },
          {
            "name": "A4",
            "midi": 69,
            "time": 158.99999999999727,
            "velocity": 0.7874015748031497,
            "duration": 0.1999999999999602
          },
          {
            "name": "A4",
            "midi": 69,
            "time": 158.99999999999727,
            "velocity": 0.7874015748031497,
            "duration": 0.24999999999997158
          },
          {
            "name": "G2",
            "midi": 43,
            "time": 158.99999999999727,
            "velocity": 0.7874015748031497,
            "duration": 0.06249999999997158
          },
          {
            "name": "G#2",
            "midi": 44,
            "time": 158.99999999999727,
            "velocity": 0.5275590551181102,
            "duration": 0.01666666666665151
          },
          {
            "name": "C2",
            "midi": 36,
            "time": 158.99999999999727,
            "velocity": 0.7874015748031497,
            "duration": 0.06249999999997158
          },
          {
            "name": "B2",
            "midi": 47,
            "time": 159.01249999999726,
            "velocity": 0.7874015748031497,
            "duration": 0.24999999999997158
          },
          {
            "name": "G4",
            "midi": 67,
            "time": 159.12499999999724,
            "velocity": 0.7874015748031497,
            "duration": 0.32499999999998863
          },
          {
            "name": "G2",
            "midi": 43,
            "time": 159.12499999999724,
            "velocity": 0.7874015748031497,
            "duration": 0.0625
          },
          {
            "name": "D2",
            "midi": 38,
            "time": 159.12499999999724,
            "velocity": 0.7874015748031497,
            "duration": 0.0625
          },
          {
            "name": "A#2",
            "midi": 46,
            "time": 159.12499999999724,
            "velocity": 0.5275590551181102,
            "duration": 0.01666666666667993
          },
          {
            "name": "G4",
            "midi": 67,
            "time": 159.19999999999723,
            "velocity": 0.7874015748031497,
            "duration": 0.39999999999997726
          },
          {
            "name": "G1",
            "midi": 31,
            "time": 159.24999999999724,
            "velocity": 0.7874015748031497,
            "duration": 0.25
          },
          {
            "name": "F4",
            "midi": 65,
            "time": 159.24999999999724,
            "velocity": 0.7874015748031497,
            "duration": 0.4499999999999602
          },
          {
            "name": "G2",
            "midi": 43,
            "time": 159.24999999999724,
            "velocity": 0.7874015748031497,
            "duration": 0.0625
          },
          {
            "name": "B2",
            "midi": 47,
            "time": 159.26249999999723,
            "velocity": 0.7874015748031497,
            "duration": 0.25
          },
          {
            "name": "C2",
            "midi": 36,
            "time": 159.37499999999724,
            "velocity": 0.7874015748031497,
            "duration": 0.0625
          },
          {
            "name": "F4",
            "midi": 65,
            "time": 159.44999999999723,
            "velocity": 0.7874015748031497,
            "duration": 0.3499999999999659
          },
          {
            "name": "G1",
            "midi": 31,
            "time": 159.49999999999724,
            "velocity": 0.7874015748031497,
            "duration": 0.24999999999997158
          },
          {
            "name": "D4",
            "midi": 62,
            "time": 159.49999999999724,
            "velocity": 0.7874015748031497,
            "duration": 0.49999999999994316
          },
          {
            "name": "G2",
            "midi": 43,
            "time": 159.49999999999724,
            "velocity": 0.7874015748031497,
            "duration": 0.06249999999997158
          },
          {
            "name": "G#2",
            "midi": 44,
            "time": 159.49999999999724,
            "velocity": 0.5275590551181102,
            "duration": 0.01666666666665151
          },
          {
            "name": "D2",
            "midi": 38,
            "time": 159.49999999999724,
            "velocity": 0.7874015748031497,
            "duration": 0.06249999999997158
          },
          {
            "name": "B2",
            "midi": 47,
            "time": 159.51249999999723,
            "velocity": 0.7874015748031497,
            "duration": 0.24999999999997158
          },
          {
            "name": "G2",
            "midi": 43,
            "time": 159.62499999999721,
            "velocity": 0.7874015748031497,
            "duration": 0.0625
          },
          {
            "name": "D4",
            "midi": 62,
            "time": 159.6999999999972,
            "velocity": 0.7874015748031497,
            "duration": 0.29999999999998295
          },
          {
            "name": "G1",
            "midi": 31,
            "time": 159.74999999999721,
            "velocity": 0.7874015748031497,
            "duration": 0.24999999999997158
          },
          {
            "name": "G2",
            "midi": 43,
            "time": 159.74999999999721,
            "velocity": 0.7874015748031497,
            "duration": 0.06249999999997158
          },
          {
            "name": "A#2",
            "midi": 46,
            "time": 159.74999999999721,
            "velocity": 0.5275590551181102,
            "duration": 0.12499999999997158
          },
          {
            "name": "C2",
            "midi": 36,
            "time": 159.74999999999721,
            "velocity": 0.7874015748031497,
            "duration": 0.06249999999997158
          },
          {
            "name": "B2",
            "midi": 47,
            "time": 159.7624999999972,
            "velocity": 0.7874015748031497,
            "duration": 0.24999999999997158
          },
          {
            "name": "G3",
            "midi": 55,
            "time": 159.91666666666384,
            "velocity": 0.7874015748031497,
            "duration": 0.08333333333334281
          },
          {
            "name": "G1",
            "midi": 31,
            "time": 159.9999999999972,
            "velocity": 0.7874015748031497,
            "duration": 0.25
          },
          {
            "name": "D4",
            "midi": 62,
            "time": 159.9999999999972,
            "velocity": 0.7559055118110236,
            "duration": 0.39999999999997726
          },
          {
            "name": "A4",
            "midi": 69,
            "time": 159.9999999999972,
            "velocity": 0.8740157480314961,
            "duration": 0.5999999999999375
          },
          {
            "name": "G3",
            "midi": 55,
            "time": 159.9999999999972,
            "velocity": 0.7559055118110236,
            "duration": 0.39999999999997726
          },
          {
            "name": "A#3",
            "midi": 58,
            "time": 159.9999999999972,
            "velocity": 0.7559055118110236,
            "duration": 0.39999999999997726
          },
          {
            "name": "A4",
            "midi": 69,
            "time": 159.9999999999972,
            "velocity": 0.7874015748031497,
            "duration": 0.9999999999999147
          },
          {
            "name": "G2",
            "midi": 43,
            "time": 159.9999999999972,
            "velocity": 0.7874015748031497,
            "duration": 0.0625
          },
          {
            "name": "D3",
            "midi": 50,
            "time": 159.9999999999972,
            "velocity": 0.7874015748031497,
            "duration": 1.7999999999998124
          },
          {
            "name": "A#3",
            "midi": 58,
            "time": 159.9999999999972,
            "velocity": 0.7874015748031497,
            "duration": 0.8999999999999204
          },
          {
            "name": "A#2",
            "midi": 46,
            "time": 159.9999999999972,
            "velocity": 0.5275590551181102,
            "duration": 0.125
          },
          {
            "name": "C2",
            "midi": 36,
            "time": 159.9999999999972,
            "velocity": 0.7716535433070866,
            "duration": 0.0625
          },
          {
            "name": "G2",
            "midi": 43,
            "time": 160.01249999999717,
            "velocity": 0.7874015748031497,
            "duration": 0.17500000000001137
          },
          {
            "name": "G2",
            "midi": 43,
            "time": 160.1249999999972,
            "velocity": 0.7874015748031497,
            "duration": 0.13749999999998863
          },
          {
            "name": "G1",
            "midi": 31,
            "time": 160.2499999999972,
            "velocity": 0.7874015748031497,
            "duration": 0.24999999999997158
          },
          {
            "name": "G2",
            "midi": 43,
            "time": 160.2499999999972,
            "velocity": 0.7874015748031497,
            "duration": 0.06249999999997158
          },
          {
            "name": "A#2",
            "midi": 46,
            "time": 160.2499999999972,
            "velocity": 0.5275590551181102,
            "duration": 0.01666666666665151
          },
          {
            "name": "G2",
            "midi": 43,
            "time": 160.26249999999717,
            "velocity": 0.7874015748031497,
            "duration": 0.24999999999997158
          },
          {
            "name": "C2",
            "midi": 36,
            "time": 160.37499999999716,
            "velocity": 0.7716535433070866,
            "duration": 0.0625
          },
          {
            "name": "G1",
            "midi": 31,
            "time": 160.49999999999716,
            "velocity": 0.7874015748031497,
            "duration": 0.24999999999997158
          },
          {
            "name": "G3",
            "midi": 55,
            "time": 160.49999999999716,
            "velocity": 0.7559055118110236,
            "duration": 0.39999999999994884
          },
          {
            "name": "D4",
            "midi": 62,
            "time": 160.49999999999716,
            "velocity": 0.7559055118110236,
            "duration": 0.39999999999994884
          },
          {
            "name": "A#3",
            "midi": 58,
            "time": 160.49999999999716,
            "velocity": 0.7559055118110236,
            "duration": 0.899999999999892
          },
          {
            "name": "G4",
            "midi": 67,
            "time": 160.49999999999716,
            "velocity": 0.7874015748031497,
            "duration": 0.2999999999999545
          },
          {
            "name": "G2",
            "midi": 43,
            "time": 160.49999999999716,
            "velocity": 0.7874015748031497,
            "duration": 0.06249999999997158
          },
          {
            "name": "D2",
            "midi": 38,
            "time": 160.49999999999716,
            "velocity": 0.7874015748031497,
            "duration": 0.01666666666665151
          },
          {
            "name": "A#2",
            "midi": 46,
            "time": 160.49999999999716,
            "velocity": 0.5275590551181102,
            "duration": 0.01666666666665151
          },
          {
            "name": "G2",
            "midi": 43,
            "time": 160.51249999999715,
            "velocity": 0.7874015748031497,
            "duration": 0.17499999999998295
          },
          {
            "name": "G2",
            "midi": 43,
            "time": 160.62499999999713,
            "velocity": 0.7874015748031497,
            "duration": 0.13749999999998863
          },
          {
            "name": "G1",
            "midi": 31,
            "time": 160.74999999999713,
            "velocity": 0.7874015748031497,
            "duration": 0.24999999999997158
          },
          {
            "name": "G2",
            "midi": 43,
            "time": 160.74999999999713,
            "velocity": 0.7874015748031497,
            "duration": 0.06249999999997158
          },
          {
            "name": "A#2",
            "midi": 46,
            "time": 160.74999999999713,
            "velocity": 0.5275590551181102,
            "duration": 0.01666666666665151
          },
          {
            "name": "D2",
            "midi": 38,
            "time": 160.74999999999713,
            "velocity": 0.7874015748031497,
            "duration": 0.01666666666665151
          },
          {
            "name": "G2",
            "midi": 43,
            "time": 160.76249999999712,
            "velocity": 0.7874015748031497,
            "duration": 0.24999999999997158
          },
          {
            "name": "G1",
            "midi": 31,
            "time": 160.9999999999971,
            "velocity": 0.7874015748031497,
            "duration": 0.24999999999997158
          },
          {
            "name": "A#3",
            "midi": 58,
            "time": 160.9999999999971,
            "velocity": 0.7559055118110236,
            "duration": 0.899999999999892
          },
          {
            "name": "G3",
            "midi": 55,
            "time": 160.9999999999971,
            "velocity": 0.7559055118110236,
            "duration": 0.39999999999994884
          },
          {
            "name": "A#4",
            "midi": 70,
            "time": 160.9999999999971,
            "velocity": 0.8740157480314961,
            "duration": 0.2999999999999545
          },
          {
            "name": "D4",
            "midi": 62,
            "time": 160.9999999999971,
            "velocity": 0.7559055118110236,
            "duration": 0.39999999999994884
          },
          {
            "name": "A#4",
            "midi": 70,
            "time": 160.9999999999971,
            "velocity": 0.7874015748031497,
            "duration": 0.9999999999998863
          },
          {
            "name": "G2",
            "midi": 43,
            "time": 160.9999999999971,
            "velocity": 0.7874015748031497,
            "duration": 0.06249999999997158
          },
          {
            "name": "G#2",
            "midi": 44,
            "time": 160.9999999999971,
            "velocity": 0.5275590551181102,
            "duration": 0.01666666666665151
          },
          {
            "name": "C2",
            "midi": 36,
            "time": 160.9999999999971,
            "velocity": 0.7874015748031497,
            "duration": 0.06249999999997158
          },
          {
            "name": "G2",
            "midi": 43,
            "time": 161.0124999999971,
            "velocity": 0.7874015748031497,
            "duration": 0.17499999999998295
          },
          {
            "name": "G2",
            "midi": 43,
            "time": 161.12499999999707,
            "velocity": 0.7874015748031497,
            "duration": 0.13749999999998863
          },
          {
            "name": "D2",
            "midi": 38,
            "time": 161.12499999999707,
            "velocity": 0.7874015748031497,
            "duration": 0.0625
          },
          {
            "name": "A#2",
            "midi": 46,
            "time": 161.12499999999707,
            "velocity": 0.5275590551181102,
            "duration": 0.01666666666667993
          },
          {
            "name": "G1",
            "midi": 31,
            "time": 161.24999999999707,
            "velocity": 0.7874015748031497,
            "duration": 0.24999999999997158
          },
          {
            "name": "G2",
            "midi": 43,
            "time": 161.24999999999707,
            "velocity": 0.7874015748031497,
            "duration": 0.06249999999997158
          },
          {
            "name": "G2",
            "midi": 43,
            "time": 161.26249999999706,
            "velocity": 0.7874015748031497,
            "duration": 0.24999999999997158
          },
          {
            "name": "C2",
            "midi": 36,
            "time": 161.37499999999704,
            "velocity": 0.7874015748031497,
            "duration": 0.0625
          },
          {
            "name": "G1",
            "midi": 31,
            "time": 161.49999999999704,
            "velocity": 0.7874015748031497,
            "duration": 0.24999999999997158
          },
          {
            "name": "G3",
            "midi": 55,
            "time": 161.49999999999704,
            "velocity": 0.7559055118110236,
            "duration": 0.39999999999994884
          },
          {
            "name": "A#3",
            "midi": 58,
            "time": 161.49999999999704,
            "velocity": 0.7559055118110236,
            "duration": 0.49999999999994316
          },
          {
            "name": "D4",
            "midi": 62,
            "time": 161.49999999999704,
            "velocity": 0.7559055118110236,
            "duration": 0.39999999999994884
          },
          {
            "name": "G2",
            "midi": 43,
            "time": 161.49999999999704,
            "velocity": 0.7874015748031497,
            "duration": 0.06249999999997158
          },
          {
            "name": "D2",
            "midi": 38,
            "time": 161.49999999999704,
            "velocity": 0.7874015748031497,
            "duration": 0.06249999999997158
          },
          {
            "name": "G#2",
            "midi": 44,
            "time": 161.49999999999704,
            "velocity": 0.5275590551181102,
            "duration": 0.01666666666665151
          },
          {
            "name": "G2",
            "midi": 43,
            "time": 161.51249999999703,
            "velocity": 0.7874015748031497,
            "duration": 0.17499999999998295
          },
          {
            "name": "G2",
            "midi": 43,
            "time": 161.62499999999702,
            "velocity": 0.7874015748031497,
            "duration": 0.13749999999998863
          },
          {
            "name": "G1",
            "midi": 31,
            "time": 161.74999999999702,
            "velocity": 0.7874015748031497,
            "duration": 0.24999999999997158
          },
          {
            "name": "G2",
            "midi": 43,
            "time": 161.74999999999702,
            "velocity": 0.7874015748031497,
            "duration": 0.06249999999997158
          },
          {
            "name": "C2",
            "midi": 36,
            "time": 161.74999999999702,
            "velocity": 0.7874015748031497,
            "duration": 0.06249999999997158
          },
          {
            "name": "A#2",
            "midi": 46,
            "time": 161.74999999999702,
            "velocity": 0.5275590551181102,
            "duration": 0.12499999999997158
          },
          {
            "name": "G2",
            "midi": 43,
            "time": 161.762499999997,
            "velocity": 0.7874015748031497,
            "duration": 0.24999999999997158
          },
          {
            "name": "D3",
            "midi": 50,
            "time": 161.95833333333033,
            "velocity": 0.7874015748031497,
            "duration": 0.06249999999997158
          },
          {
            "name": "C1",
            "midi": 24,
            "time": 161.999999999997,
            "velocity": 0.7874015748031497,
            "duration": 0.24999999999997158
          },
          {
            "name": "G4",
            "midi": 67,
            "time": 161.999999999997,
            "velocity": 0.7874015748031497,
            "duration": 0.9999999999998863
          },
          {
            "name": "C4",
            "midi": 60,
            "time": 161.999999999997,
            "velocity": 0.7874015748031497,
            "duration": 1.7999999999998124
          },
          {
            "name": "E4",
            "midi": 64,
            "time": 161.999999999997,
            "velocity": 0.7874015748031497,
            "duration": 1.5999999999998238
          },
          {
            "name": "A4",
            "midi": 69,
            "time": 161.999999999997,
            "velocity": 0.7874015748031497,
            "duration": 0.599999999999909
          },
          {
            "name": "C2",
            "midi": 36,
            "time": 161.999999999997,
            "velocity": 0.7874015748031497,
            "duration": 0.06249999999997158
          },
          {
            "name": "C3",
            "midi": 48,
            "time": 161.999999999997,
            "velocity": 0.7874015748031497,
            "duration": 0.9999999999998863
          },
          {
            "name": "C4",
            "midi": 60,
            "time": 161.999999999997,
            "velocity": 0.7874015748031497,
            "duration": 1.999999999999801
          },
          {
            "name": "A#2",
            "midi": 46,
            "time": 161.999999999997,
            "velocity": 0.5275590551181102,
            "duration": 0.12499999999997158
          },
          {
            "name": "D2",
            "midi": 38,
            "time": 161.999999999997,
            "velocity": 0.7874015748031497,
            "duration": 0.06249999999997158
          },
          {
            "name": "G2",
            "midi": 43,
            "time": 162.01249999999698,
            "velocity": 0.7874015748031497,
            "duration": 0.24999999999997158
          },
          {
            "name": "C2",
            "midi": 36,
            "time": 162.12499999999696,
            "velocity": 0.7874015748031497,
            "duration": 0.0625
          },
          {
            "name": "C1",
            "midi": 24,
            "time": 162.24999999999696,
            "velocity": 0.7874015748031497,
            "duration": 0.24999999999997158
          },
          {
            "name": "C2",
            "midi": 36,
            "time": 162.24999999999696,
            "velocity": 0.7874015748031497,
            "duration": 0.06249999999997158
          },
          {
            "name": "A#2",
            "midi": 46,
            "time": 162.24999999999696,
            "velocity": 0.5275590551181102,
            "duration": 0.01666666666665151
          },
          {
            "name": "C2",
            "midi": 36,
            "time": 162.24999999999696,
            "velocity": 0.7874015748031497,
            "duration": 0.06249999999997158
          },
          {
            "name": "G2",
            "midi": 43,
            "time": 162.26249999999695,
            "velocity": 0.7874015748031497,
            "duration": 0.24999999999997158
          },
          {
            "name": "D2",
            "midi": 38,
            "time": 162.37499999999693,
            "velocity": 0.7874015748031497,
            "duration": 0.0625
          },
          {
            "name": "C1",
            "midi": 24,
            "time": 162.49999999999693,
            "velocity": 0.7874015748031497,
            "duration": 0.24999999999997158
          },
          {
            "name": "C3",
            "midi": 48,
            "time": 162.49999999999693,
            "velocity": 0.7874015748031497,
            "duration": 0.5208333333332575
          },
          {
            "name": "C2",
            "midi": 36,
            "time": 162.49999999999693,
            "velocity": 0.7874015748031497,
            "duration": 0.06249999999997158
          },
          {
            "name": "A#2",
            "midi": 46,
            "time": 162.49999999999693,
            "velocity": 0.5275590551181102,
            "duration": 0.01666666666665151
          },
          {
            "name": "G2",
            "midi": 43,
            "time": 162.51249999999692,
            "velocity": 0.7874015748031497,
            "duration": 0.24999999999997158
          },
          {
            "name": "C2",
            "midi": 36,
            "time": 162.6249999999969,
            "velocity": 0.7874015748031497,
            "duration": 0.0625
          },
          {
            "name": "C2",
            "midi": 36,
            "time": 162.6249999999969,
            "velocity": 0.7874015748031497,
            "duration": 0.0625
          },
          {
            "name": "C1",
            "midi": 24,
            "time": 162.7499999999969,
            "velocity": 0.7874015748031497,
            "duration": 0.24999999999997158
          },
          {
            "name": "G4",
            "midi": 67,
            "time": 162.7499999999969,
            "velocity": 0.7874015748031497,
            "duration": 0.24999999999997158
          },
          {
            "name": "C2",
            "midi": 36,
            "time": 162.7499999999969,
            "velocity": 0.7874015748031497,
            "duration": 0.06249999999997158
          },
          {
            "name": "A#2",
            "midi": 46,
            "time": 162.7499999999969,
            "velocity": 0.5275590551181102,
            "duration": 0.01666666666665151
          },
          {
            "name": "D2",
            "midi": 38,
            "time": 162.7499999999969,
            "velocity": 0.7874015748031497,
            "duration": 0.06249999999997158
          },
          {
            "name": "G2",
            "midi": 43,
            "time": 162.7624999999969,
            "velocity": 0.7874015748031497,
            "duration": 0.24999999999997158
          },
          {
            "name": "C3",
            "midi": 48,
            "time": 162.95833333333022,
            "velocity": 0.7874015748031497,
            "duration": 0.10416666666662877
          },
          {
            "name": "C1",
            "midi": 24,
            "time": 162.99999999999687,
            "velocity": 0.7874015748031497,
            "duration": 0.24999999999997158
          },
          {
            "name": "C5",
            "midi": 72,
            "time": 162.99999999999687,
            "velocity": 0.7874015748031497,
            "duration": 0.9999999999999147
          },
          {
            "name": "G4",
            "midi": 67,
            "time": 162.99999999999687,
            "velocity": 0.7874015748031497,
            "duration": 0.5999999999999375
          },
          {
            "name": "C2",
            "midi": 36,
            "time": 162.99999999999687,
            "velocity": 0.7874015748031497,
            "duration": 0.06249999999997158
          },
          {
            "name": "C3",
            "midi": 48,
            "time": 162.99999999999687,
            "velocity": 0.7874015748031497,
            "duration": 0.7999999999999261
          },
          {
            "name": "G2",
            "midi": 43,
            "time": 163.01249999999686,
            "velocity": 0.7874015748031497,
            "duration": 0.24999999999997158
          },
          {
            "name": "C2",
            "midi": 36,
            "time": 163.12499999999685,
            "velocity": 0.7874015748031497,
            "duration": 0.0625
          },
          {
            "name": "A#2",
            "midi": 46,
            "time": 163.12499999999685,
            "velocity": 0.5275590551181102,
            "duration": 0.01666666666667993
          },
          {
            "name": "B2",
            "midi": 47,
            "time": 163.12499999999685,
            "velocity": 0.7874015748031497,
            "duration": 0.0625
          },
          {
            "name": "B2",
            "midi": 47,
            "time": 163.1541666666635,
            "velocity": 0.7874015748031497,
            "duration": 0.0625
          },
          {
            "name": "A2",
            "midi": 45,
            "time": 163.2083333333302,
            "velocity": 0.7874015748031497,
            "duration": 0.06249999999997158
          },
          {
            "name": "C1",
            "midi": 24,
            "time": 163.24999999999685,
            "velocity": 0.7874015748031497,
            "duration": 0.24999999999997158
          },
          {
            "name": "C2",
            "midi": 36,
            "time": 163.24999999999685,
            "velocity": 0.7874015748031497,
            "duration": 0.06249999999997158
          },
          {
            "name": "A2",
            "midi": 45,
            "time": 163.24999999999685,
            "velocity": 0.7874015748031497,
            "duration": 0.06249999999997158
          },
          {
            "name": "G2",
            "midi": 43,
            "time": 163.26249999999683,
            "velocity": 0.7874015748031497,
            "duration": 0.13333333333332575
          },
          {
            "name": "G2",
            "midi": 43,
            "time": 163.33333333333016,
            "velocity": 0.7874015748031497,
            "duration": 0.10416666666665719
          },
          {
            "name": "G2",
            "midi": 43,
            "time": 163.37499999999682,
            "velocity": 0.7874015748031497,
            "duration": 0.13749999999998863
          },
          {
            "name": "C2",
            "midi": 36,
            "time": 163.37499999999682,
            "velocity": 0.7874015748031497,
            "duration": 0.0625
          },
          {
            "name": "C1",
            "midi": 24,
            "time": 163.49999999999682,
            "velocity": 0.7874015748031497,
            "duration": 0.25
          },
          {
            "name": "C3",
            "midi": 48,
            "time": 163.49999999999682,
            "velocity": 0.7874015748031497,
            "duration": 0.4999999999999716
          },
          {
            "name": "C2",
            "midi": 36,
            "time": 163.49999999999682,
            "velocity": 0.7874015748031497,
            "duration": 0.0625
          },
          {
            "name": "D2",
            "midi": 38,
            "time": 163.49999999999682,
            "velocity": 0.7874015748031497,
            "duration": 0.0625
          },
          {
            "name": "G2",
            "midi": 43,
            "time": 163.5124999999968,
            "velocity": 0.7874015748031497,
            "duration": 0.25
          },
          {
            "name": "C2",
            "midi": 36,
            "time": 163.62499999999682,
            "velocity": 0.7874015748031497,
            "duration": 0.0625
          },
          {
            "name": "D2",
            "midi": 38,
            "time": 163.62499999999682,
            "velocity": 0.7874015748031497,
            "duration": 0.0625
          },
          {
            "name": "C1",
            "midi": 24,
            "time": 163.74999999999682,
            "velocity": 0.7874015748031497,
            "duration": 0.24999999999997158
          },
          {
            "name": "A4",
            "midi": 69,
            "time": 163.74999999999682,
            "velocity": 0.7874015748031497,
            "duration": 0.49999999999994316
          },
          {
            "name": "C2",
            "midi": 36,
            "time": 163.74999999999682,
            "velocity": 0.7874015748031497,
            "duration": 0.06249999999997158
          },
          {
            "name": "A#2",
            "midi": 46,
            "time": 163.74999999999682,
            "velocity": 0.5275590551181102,
            "duration": 0.12499999999997158
          },
          {
            "name": "D2",
            "midi": 38,
            "time": 163.74999999999682,
            "velocity": 0.7874015748031497,
            "duration": 0.06249999999997158
          },
          {
            "name": "G2",
            "midi": 43,
            "time": 163.7624999999968,
            "velocity": 0.7874015748031497,
            "duration": 0.24999999999997158
          },
          {
            "name": "A2",
            "midi": 45,
            "time": 163.8749999999968,
            "velocity": 0.7874015748031497,
            "duration": 0.0625
          },
          {
            "name": "C3",
            "midi": 48,
            "time": 163.95833333333013,
            "velocity": 0.7874015748031497,
            "duration": 0.06249999999997158
          },
          {
            "name": "F1",
            "midi": 29,
            "time": 163.9999999999968,
            "velocity": 0.7874015748031497,
            "duration": 0.4583333333333144
          },
          {
            "name": "A4",
            "midi": 69,
            "time": 163.9999999999968,
            "velocity": 0.7874015748031497,
            "duration": 0.5999999999999659
          },
          {
            "name": "C4",
            "midi": 60,
            "time": 163.9999999999968,
            "velocity": 0.7874015748031497,
            "duration": 0.3124999999999716
          },
          {
            "name": "F4",
            "midi": 65,
            "time": 163.9999999999968,
            "velocity": 0.7874015748031497,
            "duration": 0.06249999999997158
          },
          {
            "name": "F4",
            "midi": 65,
            "time": 163.9999999999968,
            "velocity": 0.7874015748031497,
            "duration": 0.18749999999997158
          },
          {
            "name": "F2",
            "midi": 41,
            "time": 163.9999999999968,
            "velocity": 0.7874015748031497,
            "duration": 0.7291666666666288
          },
          {
            "name": "C3",
            "midi": 48,
            "time": 163.9999999999968,
            "velocity": 0.7874015748031497,
            "duration": 0.7291666666666288
          },
          {
            "name": "F4",
            "midi": 65,
            "time": 163.9999999999968,
            "velocity": 0.31496062992125984,
            "duration": 0.5624999999999716
          },
          {
            "name": "F3",
            "midi": 53,
            "time": 163.9999999999968,
            "velocity": 0.7874015748031497,
            "duration": 1.9791666666666003
          },
          {
            "name": "C2",
            "midi": 36,
            "time": 163.9999999999968,
            "velocity": 0.7716535433070866,
            "duration": 0.06249999999997158
          },
          {
            "name": "C#3",
            "midi": 49,
            "time": 163.9999999999968,
            "velocity": 0.6771653543307087,
            "duration": 0.12499999999997158
          },
          {
            "name": "F4",
            "midi": 65,
            "time": 164.12499999999676,
            "velocity": 0.3228346456692913,
            "duration": 0.4749999999999943
          },
          {
            "name": "C4",
            "midi": 60,
            "time": 164.24999999999676,
            "velocity": 0.33858267716535434,
            "duration": 0.1875
          },
          {
            "name": "C4",
            "midi": 60,
            "time": 164.37499999999676,
            "velocity": 0.3464566929133858,
            "duration": 0.42500000000001137
          },
          {
            "name": "C2",
            "midi": 36,
            "time": 164.39999999999677,
            "velocity": 0.7716535433070866,
            "duration": 0.0625
          },
          {
            "name": "F1",
            "midi": 29,
            "time": 164.49999999999676,
            "velocity": 0.7874015748031497,
            "duration": 0.25
          },
          {
            "name": "F4",
            "midi": 65,
            "time": 164.49999999999676,
            "velocity": 0.36220472440944884,
            "duration": 0.1875
          },
          {
            "name": "D2",
            "midi": 38,
            "time": 164.49999999999676,
            "velocity": 0.7874015748031497,
            "duration": 0.01666666666667993
          },
          {
            "name": "F4",
            "midi": 65,
            "time": 164.62499999999676,
            "velocity": 0.3700787401574803,
            "duration": 0.5625
          },
          {
            "name": "F2",
            "midi": 41,
            "time": 164.74999999999676,
            "velocity": 0.7874015748031497,
            "duration": 0.44999999999998863
          },
          {
            "name": "D4",
            "midi": 62,
            "time": 164.74999999999676,
            "velocity": 0.7874015748031497,
            "duration": 0.6499999999999773
          },
          {
            "name": "A#4",
            "midi": 70,
            "time": 164.74999999999676,
            "velocity": 0.7874015748031497,
            "duration": 0.6499999999999773
          },
          {
            "name": "F4",
            "midi": 65,
            "time": 164.74999999999676,
            "velocity": 0.7874015748031497,
            "duration": 0.5624999999999716
          },
          {
            "name": "F3",
            "midi": 53,
            "time": 164.74999999999676,
            "velocity": 0.7874015748031497,
            "duration": 1.9999999999999716
          },
          {
            "name": "F2",
            "midi": 41,
            "time": 164.74999999999676,
            "velocity": 0.7874015748031497,
            "duration": 0.7499999999999716
          },
          {
            "name": "C4",
            "midi": 60,
            "time": 164.74999999999676,
            "velocity": 0.3858267716535433,
            "duration": 0.0625
          },
          {
            "name": "C#3",
            "midi": 49,
            "time": 164.74999999999676,
            "velocity": 0.6771653543307087,
            "duration": 0.125
          },
          {
            "name": "C2",
            "midi": 36,
            "time": 164.74999999999676,
            "velocity": 0.7716535433070866,
            "duration": 0.0625
          },
          {
            "name": "C4",
            "midi": 60,
            "time": 164.99999999999676,
            "velocity": 0.4094488188976378,
            "duration": 0.0625
          },
          {
            "name": "C2",
            "midi": 36,
            "time": 164.99999999999676,
            "velocity": 0.7716535433070866,
            "duration": 0.0625
          },
          {
            "name": "F4",
            "midi": 65,
            "time": 165.12499999999676,
            "velocity": 0.41732283464566927,
            "duration": 0.27499999999997726
          },
          {
            "name": "D2",
            "midi": 38,
            "time": 165.12499999999676,
            "velocity": 0.7874015748031497,
            "duration": 0.01666666666667993
          },
          {
            "name": "F1",
            "midi": 29,
            "time": 165.20833333333007,
            "velocity": 0.7874015748031497,
            "duration": 0.0625
          },
          {
            "name": "F2",
            "midi": 41,
            "time": 165.24999999999673,
            "velocity": 0.7874015748031497,
            "duration": 0.5
          },
          {
            "name": "F4",
            "midi": 65,
            "time": 165.24999999999673,
            "velocity": 0.4330708661417323,
            "duration": 0.3125
          },
          {
            "name": "C4",
            "midi": 60,
            "time": 165.37499999999673,
            "velocity": 0.44881889763779526,
            "duration": 0.0625
          },
          {
            "name": "D2",
            "midi": 38,
            "time": 165.37499999999673,
            "velocity": 0.7874015748031497,
            "duration": 0.01666666666667993
          },
          {
            "name": "F2",
            "midi": 41,
            "time": 165.49999999999673,
            "velocity": 0.7874015748031497,
            "duration": 0.4791666666666572
          },
          {
            "name": "F4",
            "midi": 65,
            "time": 165.49999999999673,
            "velocity": 0.7874015748031497,
            "duration": 0.4749999999999943
          },
          {
            "name": "A#4",
            "midi": 70,
            "time": 165.49999999999673,
            "velocity": 0.7874015748031497,
            "duration": 0.4749999999999943
          },
          {
            "name": "D4",
            "midi": 62,
            "time": 165.49999999999673,
            "velocity": 0.7874015748031497,
            "duration": 0.4749999999999943
          },
          {
            "name": "F4",
            "midi": 65,
            "time": 165.49999999999673,
            "velocity": 0.4566929133858268,
            "duration": 0.5
          },
          {
            "name": "E4",
            "midi": 64,
            "time": 165.62499999999673,
            "velocity": 0.47244094488188976,
            "duration": 0.0625
          },
          {
            "name": "C2",
            "midi": 36,
            "time": 165.62499999999673,
            "velocity": 0.7716535433070866,
            "duration": 0.0625
          },
          {
            "name": "C2",
            "midi": 36,
            "time": 165.74999999999673,
            "velocity": 0.7874015748031497,
            "duration": 0.125
          },
          {
            "name": "C4",
            "midi": 60,
            "time": 165.74999999999673,
            "velocity": 0.48031496062992124,
            "duration": 0.0625
          },
          {
            "name": "D2",
            "midi": 38,
            "time": 165.74999999999673,
            "velocity": 0.7874015748031497,
            "duration": 0.01666666666667993
          },
          {
            "name": "F2",
            "midi": 41,
            "time": 165.87499999999673,
            "velocity": 0.7874015748031497,
            "duration": 0.125
          },
          {
            "name": "C4",
            "midi": 60,
            "time": 165.87499999999673,
            "velocity": 0.49606299212598426,
            "duration": 0.0625
          },
          {
            "name": "F1",
            "midi": 29,
            "time": 165.99999999999673,
            "velocity": 0.7874015748031497,
            "duration": 0.2291666666666572
          },
          {
            "name": "D4",
            "midi": 62,
            "time": 165.99999999999673,
            "velocity": 0.7874015748031497,
            "duration": 0.25
          },
          {
            "name": "C5",
            "midi": 72,
            "time": 165.99999999999673,
            "velocity": 0.7874015748031497,
            "duration": 0.25
          },
          {
            "name": "F4",
            "midi": 65,
            "time": 165.99999999999673,
            "velocity": 0.7874015748031497,
            "duration": 0.0625
          },
          {
            "name": "F2",
            "midi": 41,
            "time": 165.99999999999673,
            "velocity": 0.7874015748031497,
            "duration": 0.2291666666666572
          },
          {
            "name": "C3",
            "midi": 48,
            "time": 165.99999999999673,
            "velocity": 0.7874015748031497,
            "duration": 0.2291666666666572
          },
          {
            "name": "F4",
            "midi": 65,
            "time": 165.99999999999673,
            "velocity": 0.5039370078740157,
            "duration": 0.1875
          },
          {
            "name": "C#3",
            "midi": 49,
            "time": 165.99999999999673,
            "velocity": 0.6771653543307087,
            "duration": 0.125
          },
          {
            "name": "C2",
            "midi": 36,
            "time": 165.99999999999673,
            "velocity": 0.7716535433070866,
            "duration": 0.0625
          },
          {
            "name": "F4",
            "midi": 65,
            "time": 166.12499999999673,
            "velocity": 0.5196850393700787,
            "duration": 0.125
          },
          {
            "name": "F1",
            "midi": 29,
            "time": 166.24999999999673,
            "velocity": 0.7874015748031497,
            "duration": 0.5
          },
          {
            "name": "C5",
            "midi": 72,
            "time": 166.24999999999673,
            "velocity": 0.7874015748031497,
            "duration": 0.25
          },
          {
            "name": "D4",
            "midi": 62,
            "time": 166.24999999999673,
            "velocity": 0.7874015748031497,
            "duration": 0.25
          },
          {
            "name": "F4",
            "midi": 65,
            "time": 166.24999999999673,
            "velocity": 0.7874015748031497,
            "duration": 0.25
          },
          {
            "name": "D3",
            "midi": 50,
            "time": 166.24999999999673,
            "velocity": 0.7874015748031497,
            "duration": 0.25
          },
          {
            "name": "F2",
            "midi": 41,
            "time": 166.24999999999673,
            "velocity": 0.7874015748031497,
            "duration": 0.4791666666666572
          },
          {
            "name": "C4",
            "midi": 60,
            "time": 166.24999999999673,
            "velocity": 0.5275590551181102,
            "duration": 0.0625
          },
          {
            "name": "C#3",
            "midi": 49,
            "time": 166.24999999999673,
            "velocity": 0.6771653543307087,
            "duration": 0.125
          },
          {
            "name": "C2",
            "midi": 36,
            "time": 166.24999999999673,
            "velocity": 0.7716535433070866,
            "duration": 0.0625
          },
          {
            "name": "C4",
            "midi": 60,
            "time": 166.37499999999673,
            "velocity": 0.7874015748031497,
            "duration": 0.0625
          },
          {
            "name": "C4",
            "midi": 60,
            "time": 166.37499999999673,
            "velocity": 0.5433070866141733,
            "duration": 0.375
          },
          {
            "name": "F4",
            "midi": 65,
            "time": 166.49999999999673,
            "velocity": 0.7874015748031497,
            "duration": 0.0625
          },
          {
            "name": "F3",
            "midi": 53,
            "time": 166.49999999999673,
            "velocity": 0.7874015748031497,
            "duration": 1.520833333333286
          },
          {
            "name": "F4",
            "midi": 65,
            "time": 166.49999999999673,
            "velocity": 0.5511811023622047,
            "duration": 0.1875
          },
          {
            "name": "D2",
            "midi": 38,
            "time": 166.49999999999673,
            "velocity": 0.7874015748031497,
            "duration": 0.01666666666667993
          },
          {
            "name": "F4",
            "midi": 65,
            "time": 166.62499999999673,
            "velocity": 0.5669291338582677,
            "duration": 0.125
          },
          {
            "name": "F2",
            "midi": 41,
            "time": 166.74999999999673,
            "velocity": 0.7874015748031497,
            "duration": 0.2291666666666572
          },
          {
            "name": "A#4",
            "midi": 70,
            "time": 166.74999999999673,
            "velocity": 0.7874015748031497,
            "duration": 0.25
          },
          {
            "name": "C4",
            "midi": 60,
            "time": 166.74999999999673,
            "velocity": 0.7874015748031497,
            "duration": 0.0625
          },
          {
            "name": "F4",
            "midi": 65,
            "time": 166.74999999999673,
            "velocity": 0.7874015748031497,
            "duration": 0.25
          },
          {
            "name": "C3",
            "midi": 48,
            "time": 166.74999999999673,
            "velocity": 0.7874015748031497,
            "duration": 0.2291666666666572
          },
          {
            "name": "F2",
            "midi": 41,
            "time": 166.74999999999673,
            "velocity": 0.7874015748031497,
            "duration": 0.25
          },
          {
            "name": "C4",
            "midi": 60,
            "time": 166.74999999999673,
            "velocity": 0.5826771653543307,
            "duration": 0.25
          },
          {
            "name": "C#3",
            "midi": 49,
            "time": 166.74999999999673,
            "velocity": 0.6771653543307087,
            "duration": 0.125
          },
          {
            "name": "C2",
            "midi": 36,
            "time": 166.74999999999673,
            "velocity": 0.7716535433070866,
            "duration": 0.0625
          },
          {
            "name": "D2",
            "midi": 38,
            "time": 166.99999999999673,
            "velocity": 0.7874015748031497,
            "duration": 0.13333333333332575
          },
          {
            "name": "C4",
            "midi": 60,
            "time": 166.99999999999673,
            "velocity": 0.7874015748031497,
            "duration": 0.3125
          },
          {
            "name": "F4",
            "midi": 65,
            "time": 166.99999999999673,
            "velocity": 0.7874015748031497,
            "duration": 0.0625
          },
          {
            "name": "A#4",
            "midi": 70,
            "time": 166.99999999999673,
            "velocity": 0.7874015748031497,
            "duration": 0.7999999999999545
          },
          {
            "name": "C3",
            "midi": 48,
            "time": 166.99999999999673,
            "velocity": 0.7874015748031497,
            "duration": 0.2708333333333428
          },
          {
            "name": "F2",
            "midi": 41,
            "time": 166.99999999999673,
            "velocity": 0.7874015748031497,
            "duration": 0.9999999999999432
          },
          {
            "name": "F4",
            "midi": 65,
            "time": 166.99999999999673,
            "velocity": 0.6062992125984252,
            "duration": 0.1875
          },
          {
            "name": "C#3",
            "midi": 49,
            "time": 166.99999999999673,
            "velocity": 0.6771653543307087,
            "duration": 0.125
          },
          {
            "name": "C2",
            "midi": 36,
            "time": 166.99999999999673,
            "velocity": 0.7716535433070866,
            "duration": 0.0625
          },
          {
            "name": "F4",
            "midi": 65,
            "time": 167.12499999999673,
            "velocity": 0.6141732283464567,
            "duration": 0.5624999999999716
          },
          {
            "name": "D2",
            "midi": 38,
            "time": 167.12499999999673,
            "velocity": 0.7874015748031497,
            "duration": 0.125
          },
          {
            "name": "C2",
            "midi": 36,
            "time": 167.24999999999673,
            "velocity": 0.7874015748031497,
            "duration": 0.24999999999997158
          },
          {
            "name": "C4",
            "midi": 60,
            "time": 167.24999999999673,
            "velocity": 0.6299212598425197,
            "duration": 0.1875
          },
          {
            "name": "C3",
            "midi": 48,
            "time": 167.24999999999673,
            "velocity": 0.7952755905511811,
            "duration": 0.24999999999997158
          },
          {
            "name": "C4",
            "midi": 60,
            "time": 167.37499999999673,
            "velocity": 0.6377952755905512,
            "duration": 0.43749999999994316
          },
          {
            "name": "A2",
            "midi": 45,
            "time": 167.44583333333006,
            "velocity": 0.4881889763779528,
            "duration": 0.012499999999988631
          },
          {
            "name": "A1",
            "midi": 33,
            "time": 167.4999999999967,
            "velocity": 0.7874015748031497,
            "duration": 0.0625
          },
          {
            "name": "A4",
            "midi": 69,
            "time": 167.4999999999967,
            "velocity": 0.6535433070866141,
            "duration": 0.0625
          },
          {
            "name": "A2",
            "midi": 45,
            "time": 167.50833333333003,
            "velocity": 0.7401574803149606,
            "duration": 0.020833333333342807
          },
          {
            "name": "F1",
            "midi": 29,
            "time": 167.5624999999967,
            "velocity": 0.7874015748031497,
            "duration": 0.23749999999998295
          },
          {
            "name": "E3",
            "midi": 52,
            "time": 167.6249999999967,
            "velocity": 0.7874015748031497,
            "duration": 0.1666666666666572
          },
          {
            "name": "F4",
            "midi": 65,
            "time": 167.6249999999967,
            "velocity": 0.6614173228346457,
            "duration": 0.17499999999998295
          },
          {
            "name": "A2",
            "midi": 45,
            "time": 167.63333333333003,
            "velocity": 0.8031496062992126,
            "duration": 0.01666666666667993
          },
          {
            "name": "A1",
            "midi": 33,
            "time": 167.7499999999967,
            "velocity": 0.7874015748031497,
            "duration": 0.12499999999997158
          },
          {
            "name": "F3",
            "midi": 53,
            "time": 167.7499999999967,
            "velocity": 0.7874015748031497,
            "duration": 2.2291666666666288
          },
          {
            "name": "C4",
            "midi": 60,
            "time": 167.7499999999967,
            "velocity": 0.6771653543307087,
            "duration": 0.18749999999997158
          },
          {
            "name": "D2",
            "midi": 38,
            "time": 167.7624999999967,
            "velocity": 0.8031496062992126,
            "duration": 0.012499999999988631
          },
          {
            "name": "F2",
            "midi": 41,
            "time": 167.87499999999667,
            "velocity": 0.7874015748031497,
            "duration": 0.125
          },
          {
            "name": "C4",
            "midi": 60,
            "time": 167.87499999999667,
            "velocity": 0.6929133858267716,
            "duration": 0.125
          },
          {
            "name": "D2",
            "midi": 38,
            "time": 167.87499999999667,
            "velocity": 0.8031496062992126,
            "duration": 0.012499999999988631
          },
          {
            "name": "F1",
            "midi": 29,
            "time": 167.99999999999667,
            "velocity": 0.7874015748031497,
            "duration": 0.7291666666666572
          },
          {
            "name": "F4",
            "midi": 65,
            "time": 167.99999999999667,
            "velocity": 0.7874015748031497,
            "duration": 0.0625
          },
          {
            "name": "C4",
            "midi": 60,
            "time": 167.99999999999667,
            "velocity": 0.7874015748031497,
            "duration": 0.3125
          },
          {
            "name": "A4",
            "midi": 69,
            "time": 167.99999999999667,
            "velocity": 0.7874015748031497,
            "duration": 0.5999999999999943
          },
          {
            "name": "F2",
            "midi": 41,
            "time": 167.99999999999667,
            "velocity": 0.7874015748031497,
            "duration": 0.7291666666666572
          },
          {
            "name": "C3",
            "midi": 48,
            "time": 167.99999999999667,
            "velocity": 0.7874015748031497,
            "duration": 0.7291666666666572
          },
          {
            "name": "F4",
            "midi": 65,
            "time": 167.99999999999667,
            "velocity": 0.6929133858267716,
            "duration": 0.1875
          },
          {
            "name": "C2",
            "midi": 36,
            "time": 167.99999999999667,
            "velocity": 0.7716535433070866,
            "duration": 0.0625
          },
          {
            "name": "C#3",
            "midi": 49,
            "time": 167.99999999999667,
            "velocity": 0.6771653543307087,
            "duration": 0.125
          },
          {
            "name": "F4",
            "midi": 65,
            "time": 168.12499999999667,
            "velocity": 0.6850393700787402,
            "duration": 0.4375
          },
          {
            "name": "C4",
            "midi": 60,
            "time": 168.24999999999667,
            "velocity": 0.6771653543307087,
            "duration": 0.1875
          },
          {
            "name": "C4",
            "midi": 60,
            "time": 168.37499999999667,
            "velocity": 0.6692913385826772,
            "duration": 0.42500000000001137
          },
          {
            "name": "C2",
            "midi": 36,
            "time": 168.39999999999668,
            "velocity": 0.7716535433070866,
            "duration": 0.0625
          },
          {
            "name": "F4",
            "midi": 65,
            "time": 168.49999999999667,
            "velocity": 0.6535433070866141,
            "duration": 0.09999999999999432
          },
          {
            "name": "D2",
            "midi": 38,
            "time": 168.49999999999667,
            "velocity": 0.7874015748031497,
            "duration": 0.01666666666667993
          },
          {
            "name": "F4",
            "midi": 65,
            "time": 168.62499999999667,
            "velocity": 0.6456692913385826,
            "duration": 0.0625
          },
          {
            "name": "F2",
            "midi": 41,
            "time": 168.74999999999667,
            "velocity": 0.7874015748031497,
            "duration": 1.2291666666666572
          },
          {
            "name": "F4",
            "midi": 65,
            "time": 168.74999999999667,
            "velocity": 0.7874015748031497,
            "duration": 0.3125
          },
          {
            "name": "D4",
            "midi": 62,
            "time": 168.74999999999667,
            "velocity": 0.7874015748031497,
            "duration": 0.6500000000000057
          },
          {
            "name": "A#4",
            "midi": 70,
            "time": 168.74999999999667,
            "velocity": 0.7874015748031497,
            "duration": 0.6500000000000057
          },
          {
            "name": "F3",
            "midi": 53,
            "time": 168.74999999999667,
            "velocity": 0.7874015748031497,
            "duration": 1.25
          },
          {
            "name": "F2",
            "midi": 41,
            "time": 168.74999999999667,
            "velocity": 0.7874015748031497,
            "duration": 1.2291666666666572
          },
          {
            "name": "C4",
            "midi": 60,
            "time": 168.74999999999667,
            "velocity": 0.6377952755905512,
            "duration": 0.0625
          },
          {
            "name": "C#3",
            "midi": 49,
            "time": 168.74999999999667,
            "velocity": 0.6771653543307087,
            "duration": 0.125
          },
          {
            "name": "C2",
            "midi": 36,
            "time": 168.74999999999667,
            "velocity": 0.7716535433070866,
            "duration": 0.0625
          },
          {
            "name": "F4",
            "midi": 65,
            "time": 168.99999999999667,
            "velocity": 0.6141732283464567,
            "duration": 0.1875
          },
          {
            "name": "C2",
            "midi": 36,
            "time": 168.99999999999667,
            "velocity": 0.7716535433070866,
            "duration": 0.0625
          },
          {
            "name": "F4",
            "midi": 65,
            "time": 169.12499999999667,
            "velocity": 0.6062992125984252,
            "duration": 0.2750000000000057
          },
          {
            "name": "D2",
            "midi": 38,
            "time": 169.12499999999667,
            "velocity": 0.7874015748031497,
            "duration": 0.01666666666667993
          },
          {
            "name": "C4",
            "midi": 60,
            "time": 169.24999999999667,
            "velocity": 0.5984251968503937,
            "duration": 0.0625
          },
          {
            "name": "C4",
            "midi": 60,
            "time": 169.37499999999667,
            "velocity": 0.5905511811023622,
            "duration": 0.0625
          },
          {
            "name": "D2",
            "midi": 38,
            "time": 169.37499999999667,
            "velocity": 0.7874015748031497,
            "duration": 0.01666666666667993
          },
          {
            "name": "D4",
            "midi": 62,
            "time": 169.49999999999667,
            "velocity": 0.7874015748031497,
            "duration": 0.4749999999999943
          },
          {
            "name": "F4",
            "midi": 65,
            "time": 169.49999999999667,
            "velocity": 0.7874015748031497,
            "duration": 0.0625
          },
          {
            "name": "A#4",
            "midi": 70,
            "time": 169.49999999999667,
            "velocity": 0.7874015748031497,
            "duration": 0.4749999999999943
          },
          {
            "name": "F4",
            "midi": 65,
            "time": 169.49999999999667,
            "velocity": 0.5748031496062992,
            "duration": 0.1875
          },
          {
            "name": "F4",
            "midi": 65,
            "time": 169.62499999999667,
            "velocity": 0.5669291338582677,
            "duration": 0.3499999999999943
          },
          {
            "name": "C2",
            "midi": 36,
            "time": 169.62499999999667,
            "velocity": 0.7716535433070866,
            "duration": 0.0625
          },
          {
            "name": "C4",
            "midi": 60,
            "time": 169.74999999999667,
            "velocity": 0.5590551181102362,
            "duration": 0.0625
          },
          {
            "name": "D2",
            "midi": 38,
            "time": 169.74999999999667,
            "velocity": 0.7874015748031497,
            "duration": 0.01666666666667993
          },
          {
            "name": "C4",
            "midi": 60,
            "time": 169.87499999999667,
            "velocity": 0.5511811023622047,
            "duration": 0.0625
          },
          {
            "name": "F1",
            "midi": 29,
            "time": 169.99999999999667,
            "velocity": 0.7874015748031497,
            "duration": 0.2291666666666572
          },
          {
            "name": "F4",
            "midi": 65,
            "time": 169.99999999999667,
            "velocity": 0.7874015748031497,
            "duration": 0.0625
          },
          {
            "name": "D4",
            "midi": 62,
            "time": 169.99999999999667,
            "velocity": 0.7874015748031497,
            "duration": 0.25
          },
          {
            "name": "C5",
            "midi": 72,
            "time": 169.99999999999667,
            "velocity": 0.7874015748031497,
            "duration": 0.25
          },
          {
            "name": "C3",
            "midi": 48,
            "time": 169.99999999999667,
            "velocity": 0.7874015748031497,
            "duration": 0.2291666666666572
          },
          {
            "name": "F2",
            "midi": 41,
            "time": 169.99999999999667,
            "velocity": 0.7874015748031497,
            "duration": 0.2291666666666572
          },
          {
            "name": "F4",
            "midi": 65,
            "time": 169.99999999999667,
            "velocity": 0.5354330708661418,
            "duration": 0.1875
          },
          {
            "name": "C#3",
            "midi": 49,
            "time": 169.99999999999667,
            "velocity": 0.6771653543307087,
            "duration": 0.125
          },
          {
            "name": "C2",
            "midi": 36,
            "time": 169.99999999999667,
            "velocity": 0.7716535433070866,
            "duration": 0.0625
          },
          {
            "name": "F4",
            "midi": 65,
            "time": 170.12499999999667,
            "velocity": 0.5275590551181102,
            "duration": 0.125
          },
          {
            "name": "F1",
            "midi": 29,
            "time": 170.24999999999667,
            "velocity": 0.7874015748031497,
            "duration": 0.4791666666666572
          },
          {
            "name": "C5",
            "midi": 72,
            "time": 170.24999999999667,
            "velocity": 0.7874015748031497,
            "duration": 0.25
          },
          {
            "name": "D4",
            "midi": 62,
            "time": 170.24999999999667,
            "velocity": 0.7874015748031497,
            "duration": 0.25
          },
          {
            "name": "F4",
            "midi": 65,
            "time": 170.24999999999667,
            "velocity": 0.7874015748031497,
            "duration": 0.25
          },
          {
            "name": "F2",
            "midi": 41,
            "time": 170.24999999999667,
            "velocity": 0.7874015748031497,
            "duration": 0.4791666666666572
          },
          {
            "name": "D3",
            "midi": 50,
            "time": 170.24999999999667,
            "velocity": 0.7874015748031497,
            "duration": 0.25
          },
          {
            "name": "C4",
            "midi": 60,
            "time": 170.24999999999667,
            "velocity": 0.5196850393700787,
            "duration": 0.0625
          },
          {
            "name": "C#3",
            "midi": 49,
            "time": 170.24999999999667,
            "velocity": 0.6771653543307087,
            "duration": 0.125
          },
          {
            "name": "C2",
            "midi": 36,
            "time": 170.24999999999667,
            "velocity": 0.7716535433070866,
            "duration": 0.0625
          },
          {
            "name": "C4",
            "midi": 60,
            "time": 170.37499999999667,
            "velocity": 0.7874015748031497,
            "duration": 0.0625
          },
          {
            "name": "C4",
            "midi": 60,
            "time": 170.37499999999667,
            "velocity": 0.5118110236220472,
            "duration": 0.375
          },
          {
            "name": "F4",
            "midi": 65,
            "time": 170.49999999999667,
            "velocity": 0.7874015748031497,
            "duration": 0.0625
          },
          {
            "name": "F3",
            "midi": 53,
            "time": 170.49999999999667,
            "velocity": 0.7874015748031497,
            "duration": 0.25
          },
          {
            "name": "F4",
            "midi": 65,
            "time": 170.49999999999667,
            "velocity": 0.49606299212598426,
            "duration": 0.1875
          },
          {
            "name": "D2",
            "midi": 38,
            "time": 170.49999999999667,
            "velocity": 0.7874015748031497,
            "duration": 0.01666666666667993
          },
          {
            "name": "F4",
            "midi": 65,
            "time": 170.62499999999667,
            "velocity": 0.4881889763779528,
            "duration": 0.125
          },
          {
            "name": "F1",
            "midi": 29,
            "time": 170.74999999999667,
            "velocity": 0.7874015748031497,
            "duration": 0.2291666666666572
          },
          {
            "name": "F4",
            "midi": 65,
            "time": 170.74999999999667,
            "velocity": 0.7874015748031497,
            "duration": 0.25
          },
          {
            "name": "A#4",
            "midi": 70,
            "time": 170.74999999999667,
            "velocity": 0.7874015748031497,
            "duration": 0.25
          },
          {
            "name": "C4",
            "midi": 60,
            "time": 170.74999999999667,
            "velocity": 0.7874015748031497,
            "duration": 0.0625
          },
          {
            "name": "C3",
            "midi": 48,
            "time": 170.74999999999667,
            "velocity": 0.7874015748031497,
            "duration": 0.2291666666666572
          },
          {
            "name": "F2",
            "midi": 41,
            "time": 170.74999999999667,
            "velocity": 0.7874015748031497,
            "duration": 0.2291666666666572
          },
          {
            "name": "C4",
            "midi": 60,
            "time": 170.74999999999667,
            "velocity": 0.48031496062992124,
            "duration": 0.25
          },
          {
            "name": "C#3",
            "midi": 49,
            "time": 170.74999999999667,
            "velocity": 0.6771653543307087,
            "duration": 0.125
          },
          {
            "name": "C2",
            "midi": 36,
            "time": 170.74999999999667,
            "velocity": 0.7716535433070866,
            "duration": 0.0625
          },
          {
            "name": "F1",
            "midi": 29,
            "time": 170.99999999999667,
            "velocity": 0.7874015748031497,
            "duration": 0.9791666666666572
          },
          {
            "name": "C2",
            "midi": 36,
            "time": 170.99999999999667,
            "velocity": 0.7874015748031497,
            "duration": 0.0625
          },
          {
            "name": "C4",
            "midi": 60,
            "time": 170.99999999999667,
            "velocity": 0.7874015748031497,
            "duration": 0.0625
          },
          {
            "name": "A#4",
            "midi": 70,
            "time": 170.99999999999667,
            "velocity": 0.7874015748031497,
            "duration": 1
          },
          {
            "name": "F4",
            "midi": 65,
            "time": 170.99999999999667,
            "velocity": 0.7874015748031497,
            "duration": 0.1875
          },
          {
            "name": "C3",
            "midi": 48,
            "time": 170.99999999999667,
            "velocity": 0.7874015748031497,
            "duration": 0.8000000000000114
          },
          {
            "name": "F2",
            "midi": 41,
            "time": 170.99999999999667,
            "velocity": 0.7874015748031497,
            "duration": 1
          },
          {
            "name": "C4",
            "midi": 60,
            "time": 170.99999999999667,
            "velocity": 0.4566929133858268,
            "duration": 0.4375
          },
          {
            "name": "C#3",
            "midi": 49,
            "time": 170.99999999999667,
            "velocity": 0.6771653543307087,
            "duration": 0.125
          },
          {
            "name": "C2",
            "midi": 36,
            "time": 170.99999999999667,
            "velocity": 0.7716535433070866,
            "duration": 3
          },
          {
            "name": "F4",
            "midi": 65,
            "time": 171.12499999999667,
            "velocity": 0.44881889763779526,
            "duration": 0.1875
          },
          {
            "name": "F4",
            "midi": 65,
            "time": 171.24999999999667,
            "velocity": 0.4409448818897638,
            "duration": 0.3125
          },
          {
            "name": "C4",
            "midi": 60,
            "time": 171.37499999999667,
            "velocity": 0.4251968503937008,
            "duration": 0.4375
          },
          {
            "name": "F4",
            "midi": 65,
            "time": 171.49999999999667,
            "velocity": 0.41732283464566927,
            "duration": 0.5
          },
          {
            "name": "E4",
            "midi": 64,
            "time": 171.62499999999667,
            "velocity": 0.4094488188976378,
            "duration": 0.0625
          },
          {
            "name": "C4",
            "midi": 60,
            "time": 171.74999999999667,
            "velocity": 0.4015748031496063,
            "duration": 0.1875
          },
          {
            "name": "C4",
            "midi": 60,
            "time": 171.87499999999667,
            "velocity": 0.3858267716535433,
            "duration": 0.32499999999998863
          },
          {
            "name": "F4",
            "midi": 65,
            "time": 171.99999999999667,
            "velocity": 0.3779527559055118,
            "duration": 0.0625
          },
          {
            "name": "F4",
            "midi": 65,
            "time": 172.12499999999667,
            "velocity": 0.3700787401574803,
            "duration": 0.0625
          },
          {
            "name": "C4",
            "midi": 60,
            "time": 172.24999999999667,
            "velocity": 0.36220472440944884,
            "duration": 0.0625
          },
          {
            "name": "C4",
            "midi": 60,
            "time": 172.37499999999667,
            "velocity": 0.3464566929133858,
            "duration": 0.0625
          },
          {
            "name": "F4",
            "midi": 65,
            "time": 172.49999999999667,
            "velocity": 0.33858267716535434,
            "duration": 0.0625
          },
          {
            "name": "F4",
            "midi": 65,
            "time": 172.62499999999667,
            "velocity": 0.33070866141732286,
            "duration": 0.0625
          },
          {
            "name": "C4",
            "midi": 60,
            "time": 172.74999999999667,
            "velocity": 0.3228346456692913,
            "duration": 0.0625
          }
        ],
        "controlChanges": {
          "1": [
            {
              "number": 1,
              "time": 68.00000000000004,
              "value": 0.4330708661417323
            }
          ],
          "7": [
            {
              "number": 7,
              "time": 0,
              "value": 0.8740157480314961
            },
            {
              "number": 7,
              "time": 0,
              "value": 0.7007874015748031
            },
            {
              "number": 7,
              "time": 0,
              "value": 0.7716535433070866
            },
            {
              "number": 7,
              "time": 0,
              "value": 0.6299212598425197
            },
            {
              "number": 7,
              "time": 0,
              "value": 0.6692913385826772
            },
            {
              "number": 7,
              "time": 0,
              "value": 0.5984251968503937
            },
            {
              "number": 7,
              "time": 0,
              "value": 0.7559055118110236
            },
            {
              "number": 7,
              "time": 0,
              "value": 0.5984251968503937
            },
            {
              "number": 7,
              "time": 0,
              "value": 0.84251968503937
            },
            {
              "number": 7,
              "time": 0,
              "value": 0.7716535433070866
            }
          ],
          "10": [
            {
              "number": 10,
              "time": 0,
              "value": 0.5039370078740157
            },
            {
              "number": 10,
              "time": 0,
              "value": 0.5039370078740157
            },
            {
              "number": 10,
              "time": 0,
              "value": 0.5039370078740157
            },
            {
              "number": 10,
              "time": 0,
              "value": 0.5039370078740157
            },
            {
              "number": 10,
              "time": 0,
              "value": 0.5039370078740157
            },
            {
              "number": 10,
              "time": 0,
              "value": 0.5039370078740157
            },
            {
              "number": 10,
              "time": 0,
              "value": 0.5039370078740157
            },
            {
              "number": 10,
              "time": 0,
              "value": 0.5039370078740157
            },
            {
              "number": 10,
              "time": 0,
              "value": 0.5039370078740157
            },
            {
              "number": 10,
              "time": 0,
              "value": 0.5039370078740157
            }
          ],
          "32": [
            {
              "number": 32,
              "time": 0,
              "value": 0
            },
            {
              "number": 32,
              "time": 0.008333333333333333,
              "value": 0
            },
            {
              "number": 32,
              "time": 0.008333333333333333,
              "value": 0
            },
            {
              "number": 32,
              "time": 0.008333333333333333,
              "value": 0
            },
            {
              "number": 32,
              "time": 0.008333333333333333,
              "value": 0
            },
            {
              "number": 32,
              "time": 0.008333333333333333,
              "value": 0
            },
            {
              "number": 32,
              "time": 0.008333333333333333,
              "value": 0
            },
            {
              "number": 32,
              "time": 0.008333333333333333,
              "value": 0
            },
            {
              "number": 32,
              "time": 0.008333333333333333,
              "value": 0
            },
            {
              "number": 32,
              "time": 0.008333333333333333,
              "value": 0
            },
            {
              "number": 32,
              "time": 0.008333333333333333,
              "value": 0
            },
            {
              "number": 32,
              "time": 0.008333333333333333,
              "value": 0
            },
            {
              "number": 32,
              "time": 0.008333333333333333,
              "value": 0
            },
            {
              "number": 32,
              "time": 0.008333333333333333,
              "value": 0
            },
            {
              "number": 32,
              "time": 0.008333333333333333,
              "value": 0
            },
            {
              "number": 32,
              "time": 0.008333333333333333,
              "value": 0
            },
            {
              "number": 32,
              "time": 0.008333333333333333,
              "value": 0
            },
            {
              "number": 32,
              "time": 0.008333333333333333,
              "value": 0
            },
            {
              "number": 32,
              "time": 0.008333333333333333,
              "value": 0
            },
            {
              "number": 32,
              "time": 0.008333333333333333,
              "value": 0
            },
            {
              "number": 32,
              "time": 0.008333333333333333,
              "value": 0
            },
            {
              "number": 32,
              "time": 0.008333333333333333,
              "value": 0
            },
            {
              "number": 32,
              "time": 0.008333333333333333,
              "value": 0
            },
            {
              "number": 32,
              "time": 0.008333333333333333,
              "value": 0
            },
            {
              "number": 32,
              "time": 0.008333333333333333,
              "value": 0
            },
            {
              "number": 32,
              "time": 0.008333333333333333,
              "value": 0
            },
            {
              "number": 32,
              "time": 0.008333333333333333,
              "value": 0
            },
            {
              "number": 32,
              "time": 0.008333333333333333,
              "value": 0
            },
            {
              "number": 32,
              "time": 0.008333333333333333,
              "value": 0
            },
            {
              "number": 32,
              "time": 0.008333333333333333,
              "value": 0
            },
            {
              "number": 32,
              "time": 0.008333333333333333,
              "value": 0
            },
            {
              "number": 32,
              "time": 0.008333333333333333,
              "value": 0
            },
            {
              "number": 32,
              "time": 0.008333333333333333,
              "value": 0
            }
          ],
          "64": [
            {
              "number": 64,
              "time": 28,
              "value": 0.31496062992125984
            },
            {
              "number": 64,
              "time": 35.99999999999998,
              "value": 0
            },
            {
              "number": 64,
              "time": 68.00000000000004,
              "value": 0.47244094488188976
            },
            {
              "number": 64,
              "time": 76.50000000000009,
              "value": 0.31496062992125984
            },
            {
              "number": 64,
              "time": 98.00000000000011,
              "value": 0
            },
            {
              "number": 64,
              "time": 133.9999999999999,
              "value": 0.31496062992125984
            },
            {
              "number": 64,
              "time": 163.9999999999968,
              "value": 0
            }
          ]
        },
        "id": 0,
        "name": "1001 Cara ; Ada Band",
        "instrumentNumber": 48,
        "instrument": "string ensemble 1",
        "instrumentFamily": "ensemble",
        "channelNumber": 8,
        "isPercussion": false
      }
    ]
  }